<?xml version="1.0" standalone="no"?>
<!DOCTYPE svg PUBLIC "-//W3C//DTD SVG 1.1//EN" "http://www.w3.org/Graphics/SVG/1.1/DTD/svg11.dtd" >
<svg xmlns="http://www.w3.org/2000/svg">
<metadata></metadata>
<defs>
<font id="cmprasanmitregular" horiz-adv-x="0" >
<font-face units-per-em="2048" ascent="1638" descent="-410" />
<missing-glyph horiz-adv-x="638" />
<glyph unicode="&#xe4f;&#x22;" horiz-adv-x="925" d="M803 328q0 -141 -99.5 -240.5t-240.5 -99.5q-139 0 -239.5 100t-100.5 240q0 141 99.5 240.5t240.5 99.5t240.5 -99.5t99.5 -240.5v0zM463 39q119 0 204 85t85 204t-85 203.5t-204 84.5t-204 -85t-85 -203q0 -119 85 -204t204 -85v0zM668 328q0 -84 -60.5 -143.5 t-144.5 -59.5t-143.5 59.5t-59.5 143.5t59.5 144t143.5 60t144.5 -60t60.5 -144v0zM463 176q63 0 108 44t45 108q0 63 -45 108t-108 45t-107.5 -45t-44.5 -108t44 -107.5t108 -44.5v0zM377 735v176h47v-176h-47zM506 735v176h47v-176h-47z" />
<glyph unicode="&#xe24;&#xe32;" horiz-adv-x="1267" d="M911 797q123 0 183.5 -67.5t60.5 -166.5v-889h-82v893q0 78 -44 120t-118 42q-70 0 -115.5 -42t-62.5 -116l2 -14v-883h-84v895q0 37 -18.5 67t-49 50.5t-71.5 30.5t-84 10q-53 0 -106.5 -16.5t-96.5 -51.5q25 -6 49.5 -18t44.5 -27q23 -16 46 -34q-43 -8 -67 -33 t-34 -51q-12 -31 -14 -68v-192q6 4 23.5 7t33.5 3q63 0 94 -39t31 -86t-31.5 -88t-93.5 -41q-53 0 -98 31.5t-45 97.5v301q0 68 26.5 105.5t59.5 50.5q-16 16 -42 26t-50 19q-29 8 -60 14q39 59 96.5 91t110.5 48q63 18 131 21q86 0 153.5 -28t104.5 -81q33 51 86 80t131 29 zM301 182q-33 0 -48 -19.5t-15 -41.5q0 -25 16 -44.5t47 -19.5q33 0 48.5 20.5t15.5 43.5t-15.5 42t-48.5 19z" />
<glyph unicode="&#xe26;&#xe32;" horiz-adv-x="1339" d="M983 799q123 0 183.5 -67.5t60.5 -166.5v-889h-82v893q0 78 -44 120t-118 42q-70 0 -116 -42t-62 -116v-897h-82v899q0 35 -17.5 64t-48 48.5t-70.5 30.5t-83 11q-51 0 -102.5 -16.5t-96.5 -50.5q27 -6 51.5 -18.5t44.5 -27.5q23 -16 48 -34q-43 -10 -67 -33t-34 -49 q-12 -31 -16 -66v-315q0 -20 -8.5 -42t-24.5 -40.5t-42 -30.5t-62 -12q-66 0 -100 41t-34 90q0 47 33 85t99 38q16 0 31.5 -3t23.5 -7v186q0 66 24.5 103.5t59.5 52.5q-14 16 -40 26t-50 19q-29 8 -62 14q37 59 93.5 91t109.5 48q63 18 129 21q98 0 160.5 -31t95.5 -74 q33 49 85 77t130 28zM195 59q33 0 48 20.5t15 43.5t-15.5 42t-47.5 19q-33 0 -49.5 -19.5t-16.5 -41.5q0 -23 16.5 -43.5t49.5 -20.5z" />
<glyph unicode="fi" horiz-adv-x="743" d="M651 840h-108v118h108v-118zM25 670h129v145q0 82 43 120t112 38q72 0 108 -36t36 -83v-16h-76v8q0 18 -15.5 31.5t-50.5 13.5q-47 0 -56 -27.5t-9 -56.5v-137h397v-670h-92v592h-305v-592h-92v592h-129v78z" />
<glyph unicode="fl" horiz-adv-x="735" d="M25 670h129v145q0 82 43 120t112 38q72 0 108 -36t36 -83v-16h-76v8q0 18 -15.5 31.5t-50.5 13.5q-47 0 -56 -27.5t-9 -56.5v-137h153v-78h-153v-592h-92v592h-129v78zM643 0h-92v971h92v-971z" />
<glyph unicode="&#xd;" horiz-adv-x="638" />
<glyph unicode=" "  horiz-adv-x="638" />
<glyph unicode="&#x09;" horiz-adv-x="638" />
<glyph unicode="&#xa0;" horiz-adv-x="638" />
<glyph unicode="!" horiz-adv-x="501" d="M317 119v-119h-112v119h112zM317 956l-14 -731h-86l-12 731h112z" />
<glyph unicode="&#x22;" horiz-adv-x="378" d="M82 571v359h68v-359h-68zM254 571v359h65v-359h-65z" />
<glyph unicode="#" horiz-adv-x="1064" d="M676 625l112 319h84l-112 -319h207l-23 -70h-211l-61 -170h227l-25 -68h-227l-112 -317h-84l114 317h-164l-116 -317h-82l112 317h-217l25 68h217l61 170h-233l22 70h236l115 319h82l-113 -319h166zM426 385h162l61 170h-164z" />
<glyph unicode="$" horiz-adv-x="780" d="M354 846q-84 -8 -128 -50t-44 -104q0 -59 41 -97t131 -67v318v0zM168 242q0 -152 186 -166v356q-139 39 -202.5 95.5t-63.5 160.5q0 98 69.5 162.5t196.5 75.5v88h64v-86q268 -12 274 -219h-90q-6 66 -50 99.5t-134 39.5v-340q152 -41 223.5 -97.5t71.5 -164.5 q0 -111 -77 -175.5t-218 -72.5v-94h-64v92q-139 8 -212.5 71.5t-73.5 174.5v6h100v-6v0zM418 78q199 23 198 172q0 57 -48 96t-150 68v-336v0z" />
<glyph unicode="%" horiz-adv-x="1341" d="M342 940q94 0 153.5 -68.5t59.5 -185.5t-60.5 -185.5t-152.5 -68.5q-96 0 -155.5 69.5t-59.5 184.5q0 117 59.5 185.5t155.5 68.5zM342 506q57 0 92 46t35 134q0 90 -35 137t-92 47q-59 0 -94 -47t-35 -137q0 -88 35 -134t94 -46zM451 -16h-84l524 956h84zM999 494 q96 0 155.5 -69t59.5 -185q0 -117 -60 -186.5t-155 -69.5q-94 0 -153.5 69.5t-59.5 186.5q0 115 59.5 184.5t153.5 69.5zM999 57q59 0 94 46.5t35 136.5t-34.5 136t-94.5 46q-57 0 -92 -46t-35 -136t35 -136.5t92 -46.5z" />
<glyph unicode="&#x26;" horiz-adv-x="903" d="M862 2h-117l-79 104q-59 -66 -126 -97.5t-155 -31.5q-61 0 -112.5 20.5t-89.5 56.5t-59.5 86t-21.5 110q0 55 19.5 101t50.5 83t69 65.5t74 47.5q-35 45 -65.5 96t-30.5 105q0 49 17.5 84.5t47 58t66.5 34t74 9.5q82 -4 137 -53.5t55 -135.5q0 -39 -15 -69.5t-39.5 -57 t-56.5 -50t-67 -48.5q55 -68 109.5 -134.5t109.5 -133.5q14 35 21.5 83t7.5 95h88q-4 -74 -15 -134t-42 -116zM416 854q-43 0 -77 -25.5t-34 -80.5q0 -20 9.5 -46t22.5 -49.5t27.5 -44t24.5 -33.5l6 5q47 31 92 72.5t48 95.5q2 47 -34 76.5t-85 29.5zM193 254 q4 -88 56 -142.5t142 -54.5q63 0 115.5 26t109.5 91l-254 311q-47 -27 -83 -63q-33 -31 -59.5 -73t-26.5 -95z" />
<glyph unicode="'" horiz-adv-x="233" d="M82 571v359h68v-359h-68z" />
<glyph unicode="(" horiz-adv-x="589" d="M205 408q0 188 153 563h68q-66 -186 -94.5 -327.5t-28.5 -237.5q0 -111 31 -254.5t92 -329.5h-68q-153 373 -153 586z" />
<glyph unicode=")" horiz-adv-x="591" d="M387 385q0 -94 -39 -233.5t-115 -329.5h-67q66 188 93.5 328.5t27.5 236.5q0 119 -32 262.5t-91 321.5h67q156 -369 156 -586z" />
<glyph unicode="*" horiz-adv-x="690" d="M395 711l-2 -4l90 -140q4 -4 4 -14q0 -12 -10 -23q-6 -6 -12 -8q-2 0 -8 -2q-12 -4 -19 -4q-6 0 -12 2t-10 12l-68 152h-6l-74 -150q-6 -14 -22 -14q-10 0 -17.5 4t-9.5 4l-10 11q-12 12 -12 22q0 6 6 14l96 134l-2 6l-168 -11q-18 0 -22.5 15.5t-4.5 23.5q0 12 4 21 q8 18 23 18l168 -18l4 6l-92 137q-6 10 -6 15q0 14 12 22t14 10t7 4q4 2 16 2q16 0 24 -16l68 -149h6l74 147q8 14 22 14q10 0 19 -4l8 -4q6 -2 12 -8q10 -10 11 -23q0 -10 -4 -14l-99 -135l4 -4l166 10q16 0 25 -18q4 -8 4 -21q0 -2 -3 -20.5t-26 -18.5z" />
<glyph unicode="+" horiz-adv-x="735" d="M410 651v-284h268v-82h-268v-285h-80v285h-271v82h271v284h80z" />
<glyph unicode="," horiz-adv-x="352" d="M252 109l-86 -244h-84l53 244h117z" />
<glyph unicode="-" horiz-adv-x="389" d="M369 371v-74h-349v74h349z" />
<glyph unicode="." horiz-adv-x="368" d="M246 127v-127h-125v127h125z" />
<glyph unicode="/" horiz-adv-x="413" d="M440 969l-340 -1061h-77l342 1061h75z" />
<glyph unicode="0" horiz-adv-x="821" d="M729 471q0 -242 -81 -364.5t-240 -122.5q-160 0 -240 122.5t-80 364.5q0 487 320 487q321 0 321 -487zM625 471q0 207 -53.5 306.5t-163.5 99.5q-111 0 -164.5 -99.5t-53.5 -306.5q0 -205 53.5 -303t164.5 -98t164 98t53 303z" />
<glyph unicode="1" horiz-adv-x="587" d="M72 780q53 4 109.5 54.5t107.5 111.5h96v-946h-102v807q-51 -66 -106.5 -91.5t-104.5 -35.5v100z" />
<glyph unicode="2" horiz-adv-x="811" d="M428 391q31 35 60.5 72t54 74.5t40 78.5t15.5 82q0 74 -45 122t-133 48t-139.5 -48t-51.5 -134h-114q4 127 85 201t218 74q78 0 133 -21.5t90 -57.5t52.5 -83t17.5 -99q0 -45 -15.5 -88t-39 -85t-53.5 -80.5t-60 -75.5q-47 -57 -99.5 -106.5t-95.5 -88.5q-51 -45 -96 -82 h471v-94h-606v94l4 2q10 8 39.5 34t70.5 64.5t92.5 89t104.5 107.5z" />
<glyph unicode="3" horiz-adv-x="806" d="M623 260q0 74 -60.5 127t-183.5 57h-39v84h35q125 10 176 51.5t51 127.5q0 76 -51 120.5t-156 44.5q-92 0 -147 -42t-64 -132h-100q6 119 92 189.5t221 70.5q143 0 225.5 -73.5t82.5 -186.5q0 -160 -179 -211q98 -25 148.5 -90t50.5 -145q0 -57 -22.5 -106.5t-65.5 -85 t-104.5 -56t-139.5 -20.5q-147 0 -233 71.5t-90 200.5h106q4 -90 61.5 -134t155.5 -44q111 0 170.5 49t59.5 133z" />
<glyph unicode="4" horiz-adv-x="839" d="M61 315l424 629h131v-645h148v-84h-148v-215h-100v215h-455v100zM516 299v530l-350 -530h350z" />
<glyph unicode="5" horiz-adv-x="858" d="M651 305q0 98 -54 159.5t-151 61.5q-66 0 -120 -34.5t-88 -100.5h-99l49 549h514v-92h-423l-33 -320q35 43 91 66.5t122 23.5q133 0 213 -84.5t80 -232.5q0 -147 -87 -232t-241 -85q-131 0 -216 67.5t-85 186.5h106q2 -80 54.5 -124t142.5 -44q104 0 164.5 62t60.5 173z " />
<glyph unicode="6" horiz-adv-x="880" d="M778 295q0 -143 -85 -227t-238 -84q-332 0 -332 462q0 258 84 384t264 126q133 0 210 -65.5t81 -181.5h-105q-6 78 -54 119.5t-132 41.5q-119 0 -178.5 -97t-65.5 -302q39 68 105.5 103.5t152.5 35.5q63 0 117.5 -22.5t93.5 -64.5t60.5 -99t21.5 -129zM672 295 q0 111 -53.5 169t-151.5 58t-159.5 -62.5t-61.5 -166.5q0 -51 18.5 -92t49 -71t69.5 -45t82 -15q96 0 151.5 60.5t55.5 164.5z" />
<glyph unicode="7" horiz-adv-x="724" d="M252 0q6 119 43 258q31 119 93.5 271.5t176.5 318.5h-512v92h617v-98q-59 -86 -103.5 -177.5t-74.5 -166.5q-37 -88 -62 -172q-29 -92 -42 -175t-13 -151h-123v0z" />
<glyph unicode="8" horiz-adv-x="872" d="M442 961q72 0 128.5 -19.5t95.5 -54.5t60.5 -80t21.5 -98q0 -72 -44.5 -126.5t-130.5 -76.5q96 -27 146.5 -97.5t50.5 -160.5q0 -57 -22.5 -105.5t-65.5 -84t-104.5 -55t-139.5 -19.5q-154 0 -243 73.5t-89 190.5q0 90 50.5 160.5t148.5 97.5q-86 23 -131 78t-45 125 q0 51 21.5 97t62.5 80t98 54.5t131 20.5zM664 258q0 37 -15.5 74t-44.5 64.5t-72 45t-96 17.5q-49 0 -90 -17.5t-70.5 -45t-45 -64.5t-15.5 -76q0 -86 59.5 -136t163.5 -50q111 0 168.5 51t57.5 137zM645 713q0 63 -53 112t-156 49q-49 0 -88 -14t-64.5 -36.5t-39 -51.5 t-13.5 -59q0 -57 51.5 -104.5t155.5 -47.5q106 0 156.5 46.5t50.5 105.5z" />
<glyph unicode="9" horiz-adv-x="858" d="M102 651q0 70 26 127.5t69 97t100 61t121 21.5q176 -2 257 -116.5t81 -347.5q0 -117 -20.5 -211.5t-62.5 -161t-105.5 -102t-147.5 -35.5q-72 0 -125 19.5t-90 53t-59.5 78.5t-30.5 94h104q4 -31 20.5 -60.5t41 -52t57.5 -35.5t70 -13q104 0 171.5 95t75.5 259v2 q0 4 1 13t1 32q-41 -57 -106.5 -86t-144.5 -29q-39 0 -92.5 12.5t-99.5 45t-79 90t-33 149.5zM401 444q63 4 117 27q45 20 81 63.5t36 120.5q0 100 -59.5 157.5t-157.5 59.5q-88 0 -151.5 -60t-63.5 -157q0 -98 54 -154.5t144 -56.5z" />
<glyph unicode=":" horiz-adv-x="479" d="M184 524v140h111v-140h-111zM184 0v141h111v-141h-111z" />
<glyph unicode=";" horiz-adv-x="485" d="M301 141v-143q0 -57 -28.5 -110.5t-88.5 -69.5v57q31 12 46.5 50t15.5 75h-56v141h111zM188 524v140h113v-140h-113z" />
<glyph unicode="&#x3c;" horiz-adv-x="700" d="M645 547l-502 -244q12 -6 68 -33q47 -23 149.5 -70.5t284.5 -136.5v-77l-590 284v68l590 287v-78z" />
<glyph unicode="=" horiz-adv-x="823" d="M102 242h619v-84h-619v84zM102 492h619v-84h-619v84z" />
<glyph unicode="&#x3e;" horiz-adv-x="700" d="M55 61q184 90 286.5 140.5t150.5 72.5q55 27 65 33q-10 4 -65 31q-47 23 -149.5 72t-287.5 137v78l590 -285v-68l-590 -286v75z" />
<glyph unicode="?" horiz-adv-x="804" d="M342 217v102q0 27 13.5 54.5t30.5 53.5t35.5 45.5t31.5 31.5q12 12 28.5 27.5t32.5 33t29.5 33.5t21.5 29q27 47 27 94q0 68 -51.5 113t-122.5 45q-61 0 -97 -18.5t-56.5 -46.5t-27 -57.5t-6.5 -54.5q0 -27 5 -38h-101q-2 10 -2 19v19q0 49 15.5 97.5t49 86.5t87 61.5 t129.5 23.5q61 0 121.5 -22.5t97.5 -67.5q31 -39 44 -79t13 -81t-11 -76t-28 -61q-2 -6 -17.5 -22.5t-34.5 -37t-37.5 -40t-31.5 -31.5q-25 -25 -52 -60t-27 -88v-88h-109zM342 127h109v-127h-109v127z" />
<glyph unicode="@" horiz-adv-x="1378" d="M850 467q-29 125 -145 125q-47 0 -89.5 -23.5t-73 -63.5t-48 -95.5t-17.5 -118.5q0 -74 36 -114t99 -40q72 0 124 45t73 123l41 162v0zM967 623l-90 -361q-12 -51 -13 -69q0 -53 70 -54q63 0 129 47q63 47 103 130t40 182q0 86 -32.5 155.5t-94 120.5t-147.5 79t-191 28 q-217 0 -366 -121q-199 -164 -199 -428q0 -102 37 -186.5t104.5 -144.5t164 -93t216.5 -33q102 0 208 32t198 95l22 -39q-193 -143 -426 -143q-246 0 -405 119q-197 147 -197 401q0 211 129 369q190 231 521 231q109 0 201.5 -28.5t158.5 -80.5q172 -131 172 -327 q0 -111 -41 -202t-119 -150q-45 -35 -96 -53.5t-104 -18.5q-131 0 -132 98v2q-33 -47 -79.5 -73.5t-100.5 -26.5q-104 0 -156.5 55t-52.5 160q0 76 23.5 140.5t65.5 112.5t97.5 74.5t116.5 26.5q125 0 168 -100l35 74h62z" />
<glyph unicode="A" horiz-adv-x="933" d="M901 0h-104l-103 260h-461l-100 -260h-100l377 956h110zM262 340h402l-201 522z" />
<glyph unicode="B" horiz-adv-x="868" d="M375 956q190 0 278 -60t88 -183q0 -70 -30.5 -134.5t-104.5 -78.5q96 -23 137 -86.5t41 -147.5q0 -266 -389 -266h-270v956h250v0zM641 711q0 84 -59.5 121.5t-194.5 37.5h-168v-333h168q133 0 193.5 39t60.5 135zM682 266q0 98 -77 144.5t-218 46.5h-168v-371h205 q127 0 192.5 50t65.5 130z" />
<glyph unicode="C" horiz-adv-x="872" d="M63 477q0 236 110 366t308 130q147 0 223 -69.5t97 -176.5h-103q-10 59 -64 107.5t-159 48.5q-139 0 -223 -105.5t-84 -304.5q0 -193 84 -295t223 -102q94 0 151.5 43t78.5 117h104q-23 -123 -112 -187.5t-232 -64.5q-184 0 -293 128.5t-109 364.5z" />
<glyph unicode="D" horiz-adv-x="942" d="M879 479q0 -236 -123 -357.5t-367 -121.5h-264v956h264q244 0 367 -120.5t123 -356.5zM381 90q205 0 301 94.5t96 294.5q0 203 -96 297t-301 94h-162v-780h162v0z" />
<glyph unicode="E" horiz-adv-x="823" d="M700 872h-479v-335h461v-84h-461v-365h498v-88h-594v956h575v-84z" />
<glyph unicode="F" horiz-adv-x="757" d="M674 872h-453v-335h436v-84h-436v-453h-96v956h549v-84z" />
<glyph unicode="G" horiz-adv-x="925" d="M63 479q0 115 30 206t85 154.5t134 97.5t177 34q137 0 223.5 -66.5t104.5 -189.5h-102q-14 86 -75.5 128t-156.5 42q-70 0 -128 -29t-100 -81t-65.5 -128t-23.5 -170q0 -199 91 -302t255 -103q53 0 92 8t65.5 19.5t41 21.5t16.5 16v264h-240v86h334v-405 q-78 -57 -159.5 -77.5t-155.5 -20.5q-215 0 -329 128.5t-114 366.5z" />
<glyph unicode="H" horiz-adv-x="948" d="M221 537h508v419h94v-956h-94v453h-508v-453h-96v956h96v-419z" />
<glyph unicode="I" horiz-adv-x="579" d="M115 956h350v-79h-129v-797h129v-80h-350v80h129v797h-129v79z" />
<glyph unicode="J" horiz-adv-x="700" d="M481 956h94v-712q0 -55 -15 -102.5t-47 -83t-81 -55t-119 -19.5q-111 0 -173 47t-85 116q-4 10 -8 38t-4 53h98q0 -74 43 -121t129 -47q78 0 123 47t45 135v704z" />
<glyph unicode="K" horiz-adv-x="831" d="M221 520l412 436h127l-408 -434l447 -522h-123l-385 457l-70 -70v-387h-96v956h96v-436z" />
<glyph unicode="L" horiz-adv-x="772" d="M221 86h477v-86h-573v956h96v-870z" />
<glyph unicode="M" horiz-adv-x="1179" d="M598 141l317 815h140v-956h-92v844l-332 -844h-68l-344 825v-825h-94v956h135z" />
<glyph unicode="N" horiz-adv-x="954" d="M737 141v817h92v-958h-114l-498 803v-803h-92v958h104z" />
<glyph unicode="O" horiz-adv-x="993" d="M930 479q0 -113 -31 -205t-87 -156.5t-135 -99t-175 -34.5t-175 34.5t-135.5 99t-87 156t-30.5 205.5q0 115 30.5 206t87 155.5t135.5 98.5t175 34t175 -35t135 -98.5t87 -154.5t31 -206zM829 479q0 94 -23.5 169t-67.5 127t-104.5 80t-133.5 28q-74 0 -133.5 -29 t-101.5 -82t-65.5 -128t-23.5 -165q0 -92 23.5 -165.5t65.5 -127t102.5 -82t134.5 -28.5t134 28.5t103 81t66.5 127t23.5 166.5z" />
<glyph unicode="P" horiz-adv-x="804" d="M358 956q94 0 165 -7t124 -42q57 -37 86 -93t29 -122q0 -141 -83 -208.5t-269 -67.5h-187v-416h-98v956h233v0zM664 688q0 100 -60.5 141t-193.5 41h-189v-368h195q248 0 248 186z" />
<glyph unicode="Q" horiz-adv-x="1019" d="M496 -12q-100 0 -180 33.5t-136.5 98t-86.5 156t-30 203.5q0 115 31 206t87.5 154.5t135 98.5t175.5 35q96 0 176 -34t136 -98.5t87 -155.5t31 -206q0 -147 -45.5 -243.5t-110.5 -145.5h190v-90h-305zM819 479q0 92 -23.5 167t-66.5 127t-103.5 81t-133.5 29 q-147 0 -236.5 -108.5t-89.5 -295.5q0 -90 23.5 -163.5t66.5 -127t102.5 -83t133.5 -29.5t134 28.5t103 82t66.5 127t23.5 165.5z" />
<glyph unicode="R" horiz-adv-x="878" d="M424 956q172 0 258 -56t86 -177q0 -168 -170 -221q53 -12 83 -40t46 -81q23 -80 25 -172q4 -49 12 -100.5t31 -108.5h-109q-14 41 -20.5 79t-8.5 85q-4 47 -9 102.5t-15 77.5q-20 53 -56 81t-106 28h-252v-453h-94v956h299v0zM666 711q0 92 -56.5 126.5t-181.5 34.5h-209 v-335h203q106 0 175 41t69 133z" />
<glyph unicode="S" horiz-adv-x="788" d="M631 246q0 35 -15.5 65.5t-50.5 55.5q-14 10 -33.5 19t-46.5 20q-25 10 -55.5 19t-64.5 21q-137 49 -207 105.5t-70 161.5q0 113 84 184.5t225 71.5q145 0 226.5 -58.5t89.5 -169.5h-99q-8 141 -204 142q-106 0 -165 -45t-59 -117q0 -68 60.5 -110t181.5 -83 q35 -12 65.5 -22t59.5 -23q57 -23 92 -51q82 -74 82 -180q0 -121 -89 -191.5t-245 -70.5q-305 0 -330 264h103q2 -90 63.5 -134t165.5 -44q111 0 173.5 47t62.5 123z" />
<glyph unicode="T" horiz-adv-x="751" d="M20 956h709v-86h-303v-870h-100v870h-306v86z" />
<glyph unicode="U" horiz-adv-x="950" d="M219 383q0 -147 60.5 -227t197.5 -80q133 0 196.5 78.5t63.5 226.5v575h88v-575q0 -86 -12 -150.5t-55 -119.5q-94 -127 -285 -127q-174 0 -261 99t-87 282v591h94v-573z" />
<glyph unicode="V" horiz-adv-x="866" d="M442 121l293 835h99l-345 -956h-102l-354 956h104z" />
<glyph unicode="W" horiz-adv-x="1284" d="M358 119l230 839h102l242 -839l215 839h94l-248 -958h-114l-238 829l-229 -829h-117l-252 958h94z" />
<glyph unicode="X" horiz-adv-x="860" d="M166 958l260 -389l276 389h111l-330 -460l344 -498h-110l-289 420l-283 -420h-112l340 496l-320 462h113z" />
<glyph unicode="Y" horiz-adv-x="854" d="M150 958l288 -452l285 452h104l-344 -540v-418h-96v410l-354 548h117z" />
<glyph unicode="Z" horiz-adv-x="819" d="M84 874v84h655v-90l-569 -780h586v-88h-693v96l562 778h-541z" />
<glyph unicode="[" horiz-adv-x="387" d="M326 956v-63h-117v-1030h117v-66h-203v1159h203z" />
<glyph unicode="\" horiz-adv-x="368" d="M-51 969h78l340 -1061h-76z" />
<glyph unicode="]" horiz-adv-x="382" d="M59 -203v66h117v1030h-117v63h201v-1159h-201z" />
<glyph unicode="^" horiz-adv-x="1327" d="M969 584l-305 295l-306 -295h-96l361 362h82l360 -362h-96z" />
<glyph unicode="_" horiz-adv-x="663" d="M-6 -313v51h676v-51h-676z" />
<glyph unicode="`" horiz-adv-x="665" d="M281 981l141 -227h-72l-182 227h113z" />
<glyph unicode="a" horiz-adv-x="690" d="M289 -14q-104 0 -163.5 54t-59.5 148q0 100 85 161t238 61h111v71q0 129 -156 129q-147 0 -158 -118h-94q10 94 75.5 142t176.5 48q119 0 182 -51q49 -41 59.5 -92.5t10.5 -122.5v-287q0 -29 3 -60.5t7 -68.5h-90l-6 98q-76 -112 -221 -112zM156 188q0 -55 37.5 -91 t107.5 -36q90 0 144.5 54.5t54.5 132.5v90h-92q-129 0 -190.5 -41t-61.5 -109z" />
<glyph unicode="b" horiz-adv-x="757" d="M694 332q0 -160 -77.5 -253t-206.5 -93q-137 0 -217 112l-5 -98h-94q6 154 6 172v784h93v-383q86 113 223 113q129 0 203.5 -93t74.5 -261zM197 336q0 -133 55 -204t147 -71t146.5 70t54.5 201q0 135 -52 204.5t-145 69.5q-94 0 -150 -70.5t-56 -199.5z" />
<glyph unicode="c" horiz-adv-x="686" d="M63 326q0 174 80 265t222 91q117 0 185 -59.5t73 -169.5h-101q-4 72 -49 108.5t-113 36.5q-94 0 -146 -71.5t-52 -196.5q0 -127 50 -197t148 -70q68 0 111 37t55 109h97q-8 -111 -75 -168t-183 -57q-141 0 -221.5 91t-80.5 251z" />
<glyph unicode="d" horiz-adv-x="763" d="M59 332q0 168 75 261t204 93q137 0 223 -113v383h92v-784q0 -18 6 -172h-94l-4 98q-80 -113 -217 -112q-129 0 -207 93t-78 253zM557 336q0 129 -56.5 199.5t-150.5 70.5q-92 0 -144 -69.5t-52 -204.5q0 -131 54 -201t146 -70t147.5 71t55.5 204z" />
<glyph unicode="e" horiz-adv-x="727" d="M59 328q0 80 22.5 145.5t63.5 111.5t99.5 71.5t130.5 25.5q135 0 217 -89t82 -245v-29h-512q2 -127 59.5 -192.5t159.5 -65.5q72 0 125 42t65 114h95q-16 -111 -94 -172t-201 -61q-143 0 -227.5 93t-84.5 251zM369 608q-82 0 -135.5 -54t-69.5 -157h409q-6 98 -61 154.5 t-143 56.5z" />
<glyph unicode="f" horiz-adv-x="466" d="M27 670h129v145q0 82 43 120t112 38q72 0 108 -36t36 -83v-16h-76v8q0 18 -15.5 31.5t-50.5 13.5q-47 0 -56 -27.5t-9 -56.5v-137h153v-78h-153v-592h-92v592h-129v78z" />
<glyph unicode="g" horiz-adv-x="757" d="M188 -66q6 -119 170 -118q207 0 207 215v82q-82 -111 -223 -111q-129 0 -204 91t-75 253q0 154 78 245t207 91q137 0 217 -111l4 97h95q-4 -68 -6.5 -110t-2.5 -64v-437q0 -164 -70.5 -242.5t-226.5 -78.5q-125 0 -196.5 50t-75.5 148h102zM563 340q0 123 -54 195.5 t-153 72.5q-90 0 -143 -68.5t-53 -193.5q0 -131 51 -198.5t145 -67.5t150.5 71.5t56.5 188.5z" />
<glyph unicode="h" horiz-adv-x="720" d="M186 569q92 109 211 109t174.5 -64.5t55.5 -193.5v-420h-92v412q0 94 -35 139t-115 45q-86 0 -142.5 -55.5t-56.5 -147.5v-393h-92v956h92v-387z" />
<glyph unicode="i" horiz-adv-x="296" d="M203 840h-109v118h109v-118zM195 0h-93v670h93v-670z" />
<glyph unicode="j" horiz-adv-x="362" d="M260 -117q0 -78 -35 -110.5t-112 -32.5h-21.5t-28.5 2v76q37 0 57.5 6t31 20.5t13.5 39t3 63.5v723h92v-787zM268 838h-110v118h110v-118z" />
<glyph unicode="k" horiz-adv-x="661" d="M184 410l293 260h135l-290 -252l317 -418h-129l-254 358l-72 -63v-295h-90v956h90v-546z" />
<glyph unicode="l" horiz-adv-x="294" d="M201 0h-97v956h97v-956z" />
<glyph unicode="m" horiz-adv-x="1099" d="M188 668v-103q33 51 82 81t111 30q152 0 205 -129q35 55 83 92t113 37q119 0 171.5 -67.5t52.5 -190.5v-418h-93v408q0 92 -31.5 139t-109.5 47q-43 0 -74.5 -18.5t-53 -47t-32 -63.5t-10.5 -66v-399h-92v408q0 94 -30.5 140t-108.5 46q-43 0 -76 -17.5t-56.5 -45 t-36 -62.5t-12.5 -70v-399h-90v512q0 41 -2 80t-4 76h94z" />
<glyph unicode="n" horiz-adv-x="737" d="M197 668l4 -103q94 111 211 111q123 0 177 -68.5t54 -187.5v-420h-92v410q0 82 -33 133t-117 51q-86 0 -143 -57.5t-57 -135.5v-401h-90v512q0 82 -7 156h93z" />
<glyph unicode="o" horiz-adv-x="739" d="M686 334q0 -80 -23.5 -144.5t-64.5 -110.5t-98.5 -70.5t-124.5 -24.5q-68 0 -125 24.5t-98 70.5t-65 110.5t-24 144.5t24 144.5t65 110.5t98 70.5t125 24.5t124 -24.5t98 -70.5t65.5 -110.5t23.5 -144.5zM588 334q0 117 -57.5 192.5t-155.5 75.5q-45 0 -85 -20.5 t-68.5 -55t-45 -84t-16.5 -108.5q0 -117 58 -192.5t157 -75.5q96 0 154.5 73.5t58.5 194.5z" />
<glyph unicode="p" horiz-adv-x="747" d="M188 668l5 -99q80 113 217 113q129 0 206.5 -93t77.5 -253q0 -166 -75.5 -259t-202.5 -93q-143 0 -221 110v-346h-95v746q0 20 -6 174h94zM598 336q0 131 -54.5 200.5t-146.5 69.5q-82 0 -142 -70.5t-60 -203.5q0 -129 60 -199t146 -70q88 0 142.5 69t54.5 204z" />
<glyph unicode="q" horiz-adv-x="737" d="M551 94q-80 -111 -223 -110q-125 0 -200 93t-75 259q0 160 77 253t206 93q137 0 217 -113l4 99h86v-920h-92v346v0zM147 336q0 -135 55.5 -204t141.5 -69q43 0 81 19.5t65.5 54.5t44 84t16.5 111q0 133 -59.5 203.5t-145.5 70.5t-142.5 -69.5t-56.5 -200.5z" />
<glyph unicode="r" horiz-adv-x="446" d="M199 668l6 -88q59 92 180 92q10 0 21.5 -1t27.5 -3v-86q-20 2 -31.5 2h-17.5q-84 0 -131 -52.5t-47 -142.5v-389h-94v504q0 35 -7 164h93z" />
<glyph unicode="s" horiz-adv-x="647" d="M500 184q0 51 -38 74t-116 43l-113 31q-25 8 -44 13t-33 15q-80 49 -80 136q0 88 65.5 138t184.5 50q115 0 177 -47t66 -141h-94q-12 117 -153 116q-78 0 -117 -28.5t-39 -75.5q0 -53 51 -74q27 -14 66 -22q20 -6 42.5 -11.5t49.5 -11.5q109 -29 164 -67.5t55 -128.5 q0 -96 -72.5 -152.5t-202.5 -56.5q-254 0 -264 200h95q10 -127 167 -127q88 0 135.5 37t47.5 90z" />
<glyph unicode="t" horiz-adv-x="462" d="M410 0q-63 -12 -97 -12q-160 0 -159 157v451h-131v78h131v137l92 39v-176h151v-78h-151v-414q0 -59 18.5 -85.5t69.5 -26.5q33 0 76 14v-84z" />
<glyph unicode="u" horiz-adv-x="724" d="M539 0v94q-94 -109 -215 -108q-119 0 -174.5 63.5t-55.5 188.5v430h92v-420q0 -78 35 -129t115 -51q43 0 79 15t62.5 42t42 60.5t15.5 70.5v412h92v-512q0 -43 1 -81t3 -75h-92z" />
<glyph unicode="v" horiz-adv-x="700" d="M360 123l211 545h97l-275 -668h-74l-276 668h96z" />
<glyph unicode="w" horiz-adv-x="1073" d="M317 137l179 531h96l170 -531l188 531h97l-250 -668h-82l-172 559l-189 -559h-78l-243 668h94z" />
<glyph unicode="x" horiz-adv-x="712" d="M162 668l194 -254l193 254h98l-241 -322l264 -346h-113l-205 276l-211 -276h-98l258 342l-248 326h109z" />
<glyph unicode="y" horiz-adv-x="708" d="M365 129l217 539h96l-264 -648l-107 -272h-96l100 281l-268 639h104z" />
<glyph unicode="z" horiz-adv-x="618" d="M74 590v78h471v-84l-367 -504h377v-80h-492v86l373 504h-362z" />
<glyph unicode="{" horiz-adv-x="663" d="M526 891q-45 0 -73.5 -8.5t-44 -26.5t-20.5 -50t-5 -79v-156q0 -94 -21.5 -148t-93.5 -79q72 -27 93.5 -80t21.5 -147v-156q0 -47 5 -77.5t20.5 -49t43 -27t72.5 -8.5h31v-67h-33q-68 0 -109.5 13t-66 42t-33 76t-8.5 114v154q0 98 -34.5 139t-127.5 41q-6 0 -14 -1 t-20 -1v70q14 -2 22 -2h14q90 0 125 41t35 139v154q0 68 8.5 114.5t33 76.5t66.5 43t109 13h33v-67h-29v0z" />
<glyph unicode="|" horiz-adv-x="663" d="M297 -313v1329h70v-1329h-70z" />
<glyph unicode="}" horiz-adv-x="665" d="M358 557q0 -98 35 -139t127 -41q8 0 15.5 1t19.5 1v-70q-12 0 -19.5 1t-15.5 1q-92 0 -127 -41t-35 -139v-154q0 -68 -8 -114.5t-31.5 -75.5t-66.5 -42t-111 -13h-32v67h30q45 0 74 8.5t44 27t20.5 49t5.5 77.5v156q0 94 21.5 147t92.5 80q-72 25 -93 79t-21 148v156 q0 47 -5.5 79t-21.5 50t-44 26.5t-75 8.5h-28v67h32q68 0 111 -13t66.5 -43t31.5 -77t8 -114v-154v0z" />
<glyph unicode="~" horiz-adv-x="788" d="M705 526v-2q-72 -143 -175 -143q-33 0 -76.5 17.5t-78.5 31.5l-43 21q-16 10 -34.5 17t-35.5 7q-25 0 -44 -11t-34.5 -29.5t-28 -39t-22.5 -39.5l-4 -6l-45 68h2q12 20 28.5 43.5t38 44t49 34t60.5 13.5q31 0 65.5 -13.5t69.5 -29.5l23 -10q33 -16 60.5 -27.5t49.5 -11.5 q20 0 39 11t34 27.5t26.5 36t19.5 35.5l2 2z" />
<glyph unicode="&#xa1;" horiz-adv-x="518" d="M207 840v118h112v-118h-112zM207 2l14 731h86l12 -731h-112z" />
<glyph unicode="&#xa2;" horiz-adv-x="737" d="M432 641q-12 4 -25.5 5t-27.5 1q-61 0 -105.5 -25.5t-73 -66.5t-42 -94t-13.5 -107q0 -76 27 -145.5t84 -106.5zM309 74q31 -8 70 -8q88 0 142 49t69 135h86q-8 -51 -30.5 -98.5t-60.5 -82t-89.5 -56t-116.5 -21.5q-49 0 -92 12l-60 -180h-61l63 199q-86 43 -127 131 t-41 200q0 88 24 157t67 115t101 69.5t126 23.5q41 0 78 -6l53 159h63l-57 -178q59 -27 98 -79t50 -132h-80q-25 90 -95 135z" />
<glyph unicode="&#xa3;" horiz-adv-x="772" d="M467 479v-55h-201q6 -23 10.5 -45.5t4.5 -44.5q0 -76 -40 -138.5t-89 -111.5l4 -4q25 14 55.5 25.5t62.5 11.5q45 0 76 -9.5t58 -19.5q25 -10 50 -18.5t60 -8.5q47 0 80 22.5t64 53.5l45 -69q-31 -27 -55.5 -44.5t-50.5 -28.5t-55.5 -15.5t-70.5 -4.5q-25 0 -51.5 9.5 t-54.5 19.5l-9 2q-29 10 -57.5 19.5t-62.5 9.5q-39 0 -73 -14.5t-69 -30.5l-45 78q57 41 99.5 103t42.5 136q0 59 -29 117h-131v55h106q-8 18 -20 39t-22.5 45.5t-18.5 55t-8 69.5q0 106 73.5 175t223.5 69q131 0 216 -75t85 -208v-6h-88q-4 106 -60.5 161.5t-152.5 55.5 q-39 0 -78 -11t-68.5 -32.5t-48 -54.5t-18.5 -78q0 -59 30.5 -105.5t59.5 -99.5h221z" />
<glyph unicode="&#xa4;" horiz-adv-x="909" d="M817 168l-65 -66l-105 105q-94 -61 -188 -62q-96 0 -189 62l-106 -105l-64 66l107 102q-61 96 -62 189q0 92 62 188l-107 98l64 70l106 -104q88 57 189 57q98 0 188 -57l105 104l65 -70l-106 -98q57 -94 57 -188q0 -96 -57 -189zM678 459q0 90 -64.5 154.5t-154.5 64.5 q-96 0 -161 -64.5t-65 -154.5q0 -92 67 -159t159 -67q80 0 149.5 59.5t69.5 166.5v0z" />
<glyph unicode="&#xa5;" horiz-adv-x="772" d="M739 961l-274 -484h244v-65h-281v-131h281v-60h-281v-221h-86v221h-283v60h283v131h-283v65h244l-276 484h98l190 -340q18 -35 31 -60q14 -31 37 -82q18 45 33.5 77t36.5 71l182 334h104z" />
<glyph unicode="&#xa6;" horiz-adv-x="653" d="M297 432v496h70v-496h-70zM297 -227v497h70v-497h-70z" />
<glyph unicode="&#xa7;" horiz-adv-x="714" d="M510 172q61 -25 92 -62.5t31 -103.5q0 -98 -73 -154.5t-202 -56.5q-125 0 -192.5 50.5t-71.5 152.5h94q10 -127 168 -127q88 0 135.5 37t47.5 90q0 49 -38 71.5t-116 45.5q-35 10 -62.5 16t-50.5 12q-25 10 -44 14.5t-33 14.5q-80 53 -80 135q0 115 104 185 q-61 25 -93 62.5t-32 104.5q0 96 73 152.5t202 56.5q254 0 264 -200h-94q-10 127 -168 127q-88 0 -135.5 -37t-47.5 -90q0 -51 38 -74t116 -43l113 -31q25 -8 44 -13t33 -15q80 -49 80 -136q0 -114 -102 -184zM256 246q27 -14 66 -23q41 -10 81 -18q66 29 92.5 62.5 t26.5 76.5q0 53 -51 74q-27 14 -65 22q-33 10 -80 19q-66 -29 -93.5 -63t-27.5 -74q0 -56 51 -76z" />
<glyph unicode="&#xa8;" horiz-adv-x="854" d="M389 1139v-115h-113v115h113zM608 1139v-115h-112v115h112z" />
<glyph unicode="&#xa9;" horiz-adv-x="1150" d="M350 471q0 133 62.5 208t177.5 75q86 0 131 -44t57 -112h-78q-4 33 -32.5 59.5t-81.5 26.5q-72 0 -115 -55.5t-43 -159.5q0 -100 43 -154.5t115 -54.5q47 0 77.5 23.5t41.5 64.5h77q-14 -78 -65 -119t-135 -41q-106 0 -169 74t-63 209zM100 463q0 98 38 185t102.5 151.5 t150.5 101.5t184 37t185.5 -37t152 -101.5t101.5 -151.5t37 -185t-37 -184t-101.5 -151t-151.5 -102.5t-186 -37.5q-98 0 -184 37.5t-150.5 102.5t-102.5 151t-38 184zM182 463q0 -82 31 -153.5t84 -125t125 -84t153 -30.5q82 0 154 30.5t125 84t84 125t31 153.5t-31 153.5 t-84 125t-125 84t-154 30.5t-153.5 -30.5t-124.5 -84t-84 -125t-31 -153.5z" />
<glyph unicode="&#xaa;" horiz-adv-x="477" d="M27 412h413v-52h-413v52zM195 489q-66 0 -104 35t-38 94q0 63 54.5 102.5t152.5 39.5h70v45q0 82 -99 82q-47 0 -72.5 -19.5t-29.5 -54.5h-59q6 59 48 89t113 30q74 0 115 -31q33 -27 39 -58.5t6 -78.5v-184q0 -33 6 -82h-57l-4 63q-47 -72 -141 -72zM111 618 q0 -35 23.5 -57t68.5 -22q57 0 92 33.5t35 82.5v58h-60q-80 0 -119.5 -26t-39.5 -69z" />
<glyph unicode="&#xab;" horiz-adv-x="663" d="M301 154l-4 -2q-66 53 -103.5 82.5t-54.5 44.5l-22 18v84l180 145l4 -2v-82q-45 -37 -69.5 -58.5t-36.5 -31.5q-14 -12 -19 -14q6 -4 25.5 -20.5t42 -35t40.5 -34.5l17 -15v-79zM545 154l-4 -2q-66 53 -104 82.5t-54 44.5l-23 18v84l181 145l4 -2v-82 q-45 -37 -69.5 -58.5t-37.5 -31.5q-14 -12 -18 -14q6 -4 25.5 -20.5t42 -35t40.5 -34.5l17 -15v-79z" />
<glyph unicode="&#xac;" horiz-adv-x="888" d="M686 590h-582v80h668v-353h-86v273z" />
<glyph unicode="&#xad;" horiz-adv-x="389" d="M369 371v-74h-349v74h349z" />
<glyph unicode="&#xae;" horiz-adv-x="1150" d="M629 739q53 0 88 -13t55.5 -34.5t29.5 -49.5t9 -58q0 -57 -35 -94t-96 -46l123 -254h-84l-119 244h-137v-244h-76v549h242zM463 680v-184h108q86 0 125 18t39 76q0 41 -30.5 65.5t-86.5 24.5h-155zM100 463q0 98 38 185t102.5 151.5t150.5 101.5t184 37t185.5 -37 t152 -101.5t101.5 -151.5t37 -185t-37 -184t-101.5 -151t-151.5 -102.5t-186 -37.5q-98 0 -184 37.5t-150.5 102.5t-102.5 151t-38 184zM182 463q0 -82 31 -153.5t84 -125t125 -84t153 -30.5q82 0 154 30.5t125 84t84 125t31 153.5t-31 153.5t-84 125t-125 84t-154 30.5 t-153.5 -30.5t-124.5 -84t-84 -125t-31 -153.5z" />
<glyph unicode="&#xaf;" horiz-adv-x="489" d="M412 872v-73h-338v73h338z" />
<glyph unicode="&#xb0;" horiz-adv-x="436" d="M219 936q72 0 109 -43t37 -96t-37 -97.5t-109 -44.5t-107.5 44t-35.5 98q0 53 35.5 96t107.5 43zM219 721q41 0 59.5 23.5t18.5 52.5t-18.5 52t-59.5 23q-39 0 -58.5 -23.5t-19.5 -51.5q0 -29 19.5 -52.5t58.5 -23.5z" />
<glyph unicode="&#xb1;" horiz-adv-x="735" d="M410 821v-233h252v-82h-252v-234h-80v234h-254v82h254v233h80zM76 219v-74h588v74h-588z" />
<glyph unicode="&#xb2;" horiz-adv-x="485" d="M43 434q18 35 59 78t82 82q43 41 78 69.5t39 32.5q29 27 41 50.5t12 39.5q0 43 -28.5 70t-83.5 27q-53 0 -85 -29t-34 -82h-78q4 78 56.5 121t138.5 43q98 0 142 -42t46 -101q0 -23 -10 -53.5t-39 -59.5q-14 -16 -31.5 -30.5t-34.5 -31.5q-20 -18 -47.5 -41.5t-53.5 -48 t-48.5 -49t-34.5 -49.5h307v-59h-393v63v0z" />
<glyph unicode="&#xb3;" horiz-adv-x="485" d="M233 418q70 0 107 29.5t37 76.5q0 49 -38 78t-116 29h-10t-16 -2v55h24q147 0 148 100q0 43 -35 71t-101 28q-119 0 -131 -105h-67q4 72 59.5 115t141.5 43q92 0 146 -44t54 -110q0 -94 -112 -125q121 -31 120 -139q0 -68 -56 -113t-155 -45q-92 0 -148 43t-60 121h71 q2 -53 38 -79.5t99 -26.5z" />
<glyph unicode="&#xb4;" horiz-adv-x="665" d="M518 981l-182 -227h-72l142 227h112z" />
<glyph unicode="&#xb5;" horiz-adv-x="710" d="M553 692h80v-690h-80v96q-16 -18 -35.5 -38.5t-45.5 -37t-60.5 -27.5t-79.5 -11q-57 0 -98 13t-68 30v-297h-80v962h80v-452q0 -90 41 -137.5t137 -47.5q98 0 153.5 73t55.5 187v377z" />
<glyph unicode="&#xb6;" horiz-adv-x="835" d="M776 879h-96v-1155h-82v1155h-184v-1155h-78v708q-125 0 -200 70.5t-75 189.5q0 109 68 189t236 80h411v-82z" />
<glyph unicode="&#xb7;" horiz-adv-x="401" d="M264 686v-115h-112v115h112z" />
<glyph unicode="&#xb8;" horiz-adv-x="624" d="M201 -209q23 -6 43 -12t43 -6q29 0 57.5 13t28.5 48q0 29 -20.5 40t-45.5 11q-16 0 -29.5 -3t-29.5 -7l-19 19l80 108h51l-63 -78q12 4 24.5 6t24.5 2q43 0 70.5 -22.5t32.5 -46.5q2 -8 2 -25q0 -59 -45.5 -85.5t-104.5 -26.5q-31 0 -61.5 8t-59.5 18z" />
<glyph unicode="&#xb9;" horiz-adv-x="485" d="M240 854q-70 -53 -134 -78v62q35 16 69 37.5t71 50.5h59v-555h-65v483v0z" />
<glyph unicode="&#xba;" horiz-adv-x="602" d="M307 498q-86 2 -146.5 56t-60.5 163q0 92 51.5 154.5t155.5 62.5t155.5 -62.5t51.5 -154.5q0 -98 -56.5 -158.5t-150.5 -60.5zM152 717q0 -78 39.5 -128t115.5 -50q41 0 71 15t48 41t27.5 57.5t9.5 64.5q0 72 -36 125t-120 53q-41 0 -70.5 -15.5t-48 -41t-27.5 -57 t-9 -64.5zM100 412h414v-52h-414v52z" />
<glyph unicode="&#xbb;" horiz-adv-x="663" d="M358 524l4 2q68 -53 105 -82.5t53 -44.5l23 -18v-82l-181 -147l-4 2v84q45 37 70 58t37 32q14 12 18 14q-6 4 -25.5 20.5t-42 34t-39.5 32.5l-18 15v80zM115 524l4 2q68 -53 104.5 -82.5t52.5 -44.5l23 -18v-82l-180 -147l-4 2v84q45 37 69.5 58t36.5 32q14 12 19 14 q-6 4 -25.5 20.5t-42 34t-40.5 32.5l-17 15v80z" />
<glyph unicode="&#xbc;" horiz-adv-x="1146" d="M229 856q-68 -51 -129 -72v58q35 14 68 34.5t65 49.5h60v-525h-64v455v0zM315 -16h-82l601 956h81zM702 119v57l256 346h84v-354h91v-49h-91v-119h-65v119h-275zM762 168h215v291z" />
<glyph unicode="&#xbd;" horiz-adv-x="1146" d="M229 856q-68 -51 -129 -72v58q35 14 68 34.5t65 49.5h60v-525h-64v455v0zM315 -16h-82l601 956h81zM725 59q16 33 55 74t80 78t75 63.5t38 30.5q49 47 49 86t-26.5 63.5t-80.5 24.5q-51 0 -80.5 -26.5t-31.5 -77.5h-74q2 74 52 114.5t132 40.5q94 0 136.5 -38.5 t42.5 -96.5q0 -23 -9.5 -50.5t-38.5 -55.5q-25 -25 -59.5 -53.5t-68 -59.5t-63.5 -61.5t-46 -59.5h295v-55h-377v59v0z" />
<glyph unicode="&#xbe;" horiz-adv-x="1146" d="M223 446q66 0 100.5 29t34.5 72q0 47 -36.5 73.5t-108.5 26.5h-25v49h23q72 0 105.5 26t33.5 69q0 41 -33.5 67.5t-95.5 26.5q-113 0 -123 -99h-65q4 68 56 107t136 39q86 0 139.5 -40t53.5 -104q0 -84 -107 -116q113 -31 113 -129q0 -66 -54.5 -108t-146.5 -42 q-90 0 -142 40t-56 114h67q6 -101 131 -101zM313 -16h-82l603 956h79zM700 119v57l258 346h82v-354h90v-49h-90v-119h-65v119h-275zM760 168h215v291z" />
<glyph unicode="&#xbf;" horiz-adv-x="804" d="M481 745v-102q0 -27 -13 -54.5t-30.5 -53t-36 -45t-30.5 -31.5t-28.5 -27.5t-33 -32t-30 -34t-21.5 -29.5q-27 -47 -27 -94q0 -68 51.5 -113t123.5 -45q61 0 97 18.5t56.5 46t26.5 57.5t6 54q0 27 -4 39h100q2 -10 2 -19.5v-19.5q0 -49 -15.5 -97t-49 -86t-87 -61.5 t-128.5 -23.5q-61 0 -122 22.5t-98 67.5q-31 39 -44 79t-13 81t11.5 75.5t27.5 61.5q6 10 18.5 24.5t29 32t33.5 34.5l32 32q2 2 3 4t5 4q25 25 52.5 59.5t27.5 87.5v88h108zM481 836h-108v127h108v-127z" />
<glyph unicode="&#xc0;" horiz-adv-x="929" d="M899 0h-104l-103 260h-461l-100 -260h-100l377 956h110zM260 340h402l-201 522zM395 1251l142 -227h-72l-182 227h112z" />
<glyph unicode="&#xc1;" horiz-adv-x="929" d="M518 956h-110l-377 -956h100l100 260h461l103 -260h104zM461 862l201 -522h-402zM637 1251l-182 -227h-72l141 227h113z" />
<glyph unicode="&#xc2;" horiz-adv-x="929" d="M899 0h-104l-103 260h-461l-100 -260h-100l377 956h110zM260 340h402l-201 522zM614 1022l-151 160l-150 -160h-75l192 227h66l194 -227h-76z" />
<glyph unicode="&#xc3;" horiz-adv-x="929" d="M899 0h-104l-103 260h-461l-100 -260h-100l377 956h110zM260 340h402l-201 522zM563 1024q-37 0 -72.5 13.5t-70.5 23.5q-10 4 -21.5 6t-23.5 2q-29 0 -59.5 -13.5t-69.5 -39.5v61q72 47 129 47q37 0 71.5 -13t69.5 -24q10 -4 22.5 -6t24.5 -2q29 0 58.5 13.5t68.5 40.5 v-62q-70 -47 -127 -47z" />
<glyph unicode="&#xc4;" horiz-adv-x="929" d="M899 0h-104l-103 260h-461l-100 -260h-100l377 956h110zM260 340h402l-201 522zM412 1139v-115h-113v115h113zM631 1139v-115h-113v115h113z" />
<glyph unicode="&#xc5;" horiz-adv-x="929" d="M518 956h-110l-377 -956h100l100 260h461l103 -260h104zM461 862l201 -522h-402zM459 1305q72 0 108.5 -43t36.5 -97q0 -53 -37 -97t-108 -44q-72 0 -108 44t-36 97t36 96.5t108 43.5zM459 1090q41 0 59.5 23.5t18.5 51.5q0 29 -18.5 52.5t-59.5 23.5q-39 0 -58.5 -23.5 t-19.5 -52.5t19.5 -52t58.5 -23z" />
<glyph unicode="&#xc6;" horiz-adv-x="1245" d="M1143 88v-88h-594v260h-318l-100 -260h-100l377 956h716v-84h-479v-335h461v-84h-461v-365h498zM547 862h-86l-201 -522h287v522z" />
<glyph unicode="&#xc7;" horiz-adv-x="868" d="M322 -209q23 -6 43 -12t43 -6q29 0 57.5 13t28.5 48q0 29 -20.5 40t-45.5 11q-16 0 -29.5 -3t-29.5 -7l-19 19l68 92q-166 16 -261.5 142t-95.5 349q0 236 110 366t308 130q147 0 223 -69.5t97 -176.5h-103q-10 59 -64 107.5t-159 48.5q-139 0 -223 -105.5t-84 -304.5 q0 -193 84 -295t223 -102q94 0 151.5 43t77.5 117h105q-23 -123 -112 -186.5t-230 -65.5l-47 -60q12 4 24.5 6t24.5 2q43 0 70.5 -22.5t31.5 -46.5q2 -8 2 -25q0 -59 -45 -85.5t-104 -26.5q-31 0 -61.5 8t-59.5 18z" />
<glyph unicode="&#xc8;" horiz-adv-x="819" d="M698 872h-479v-335h461v-84h-461v-365h498v-88h-594v956h575v-84zM348 1251l141 -227h-71l-182 227h112z" />
<glyph unicode="&#xc9;" horiz-adv-x="819" d="M698 956h-575v-956h594v88h-498v365h461v84h-461v335h479v84zM608 1251l-182 -227h-72l142 227h112z" />
<glyph unicode="&#xca;" horiz-adv-x="819" d="M698 872h-479v-335h461v-84h-461v-365h498v-88h-594v956h575v-84zM561 1024l-151 160l-150 -160h-76l193 227h65l195 -227h-76z" />
<glyph unicode="&#xcb;" horiz-adv-x="819" d="M698 872h-479v-335h461v-84h-461v-365h498v-88h-594v956h575v-84zM360 1139v-115h-112v115h112zM580 1139v-115h-113v115h113z" />
<glyph unicode="&#xcc;" horiz-adv-x="391" d="M242 0h-97v956h97v-956zM137 1251l142 -227h-72l-182 227h112z" />
<glyph unicode="&#xcd;" horiz-adv-x="391" d="M242 956h-97v-956h97v956zM365 1251l-183 -227h-71l141 227h113z" />
<glyph unicode="&#xce;" horiz-adv-x="391" d="M242 0h-97v956h97v-956zM348 1022l-151 160l-150 -160h-76l193 227h65l195 -227h-76z" />
<glyph unicode="&#xcf;" horiz-adv-x="391" d="M242 0h-97v956h97v-956zM143 1139v-115h-112v115h112zM362 1139v-115h-112v115h112z" />
<glyph unicode="&#xd0;" horiz-adv-x="1056" d="M39 532h137v424h262q244 0 369 -121.5t125 -357.5t-124 -356.5t-368 -120.5h-262v455h-137zM430 90q205 0 302 94.5t97 292.5q0 205 -96 299t-301 94h-162v-338h244v-77h-242v-365h158z" />
<glyph unicode="&#xd1;" horiz-adv-x="950" d="M735 141v817h92v-958h-114l-498 803v-803h-92v958h104zM582 1024q-37 0 -73 13.5t-71 23.5q-10 4 -21 6t-24 2q-29 0 -59.5 -13.5t-69.5 -39.5v61q72 47 129 47q37 0 72 -13t70 -24q10 -4 22 -6t25 -2q29 0 58.5 13.5t68.5 40.5v-62q-70 -47 -127 -47z" />
<glyph unicode="&#xd2;" horiz-adv-x="989" d="M928 479q0 -113 -31 -205t-87 -156.5t-135 -99t-175 -34.5t-175 34.5t-135.5 99t-87 156t-30.5 205.5q0 115 30.5 206t87 155.5t135 98.5t175.5 34q96 0 175 -35t135 -98.5t87 -154.5t31 -206zM827 479q0 94 -23.5 169t-67.5 127t-104.5 80t-133.5 28q-74 0 -133.5 -29 t-101.5 -82t-65.5 -128t-23.5 -165q0 -92 23.5 -165.5t65.5 -127t102.5 -82t134.5 -28.5t134 28.5t103 81t66.5 127t23.5 166.5zM412 1251l141 -227h-72l-182 227h113z" />
<glyph unicode="&#xd3;" horiz-adv-x="989" d="M928 479q0 115 -31 206t-87 154.5t-135 98.5t-175 35t-175 -34t-135.5 -98.5t-87 -155.5t-30.5 -206t30.5 -206t87 -155.5t135 -99t175.5 -34.5q96 0 175 34.5t135 99t87 156.5t31 205zM827 479q0 -92 -23.5 -166.5t-66.5 -127t-103.5 -81t-133.5 -28.5 q-74 0 -134.5 28.5t-102.5 82t-65.5 127t-23.5 165.5q0 90 23.5 165t65.5 128t101.5 82t133.5 29t134 -28t104 -80t67.5 -127t23.5 -169zM678 1251l-182 -227h-72l141 227h113z" />
<glyph unicode="&#xd4;" horiz-adv-x="989" d="M928 479q0 -113 -31 -205t-87 -156.5t-135 -99t-175 -34.5t-175 34.5t-135.5 99t-87 156t-30.5 205.5q0 115 30.5 206t87 155.5t135 98.5t175.5 34q96 0 175 -35t135 -98.5t87 -154.5t31 -206zM827 479q0 94 -23.5 169t-67.5 127t-104.5 80t-133.5 28q-74 0 -133.5 -29 t-101.5 -82t-65.5 -128t-23.5 -165q0 -92 23.5 -165.5t65.5 -127t102.5 -82t134.5 -28.5t134 28.5t103 81t66.5 127t23.5 166.5zM645 1024l-151 160l-150 -160h-76l193 227h65l195 -227h-76z" />
<glyph unicode="&#xd5;" horiz-adv-x="989" d="M928 479q0 -113 -31 -205t-87 -156.5t-135 -99t-175 -34.5t-175 34.5t-135.5 99t-87 156t-30.5 205.5q0 115 30.5 206t87 155.5t135 98.5t175.5 34q96 0 175 -35t135 -98.5t87 -154.5t31 -206zM827 479q0 94 -23.5 169t-67.5 127t-104.5 80t-133.5 28q-74 0 -133.5 -29 t-101.5 -82t-65.5 -128t-23.5 -165q0 -92 23.5 -165.5t65.5 -127t102.5 -82t134.5 -28.5t134 28.5t103 81t66.5 127t23.5 166.5zM606 1024q-37 0 -72.5 13.5t-70.5 23.5q-10 4 -21.5 6t-23.5 2q-29 0 -59.5 -13.5t-69.5 -39.5v61q72 47 129 47q37 0 71.5 -13t69.5 -24 q10 -4 22.5 -6t24.5 -2q29 0 58.5 13.5t68.5 40.5v-62q-70 -47 -127 -47z" />
<glyph unicode="&#xd6;" horiz-adv-x="1069" d="M963 479q0 -113 -31 -205t-87.5 -156.5t-135 -99t-174.5 -34.5t-175 34.5t-135.5 99t-87.5 156t-31 205.5q0 115 31 206t87.5 155.5t135 98.5t175.5 34q96 0 174.5 -35t135 -98.5t87.5 -154.5t31 -206zM862 479q0 94 -23.5 169t-67.5 127t-104.5 80t-134.5 28t-133 -29 t-101 -82t-65.5 -128t-23.5 -165q0 -92 23.5 -165.5t65.5 -127t102.5 -82t134.5 -28.5t134 28.5t103 81t66.5 127t23.5 166.5zM479 1139v-115h-112v115h112zM698 1139v-115h-112v115h112z" />
<glyph unicode="&#xd7;" horiz-adv-x="1105" d="M915 707l-317 -312l317 -311l-45 -43l-317 311l-315 -311l-45 43l317 311l-317 312l45 45l315 -312l317 312z" />
<glyph unicode="&#xd8;" horiz-adv-x="989" d="M762 889q78 -61 122 -166t44 -242q0 -113 -31 -205t-87 -156.5t-135 -99t-175 -34.5q-53 0 -101.5 11t-89.5 32l-35 -66h-77l53 100q-84 63 -131 170t-47 248q0 115 30.5 207t87 155.5t135 97.5t175.5 34q117 0 207 -47l45 88h75l-65 -127v0zM174 481q0 -109 32 -191.5 t91 -135.5l365 690q-35 20 -76 31.5t-88 11.5q-74 0 -133.5 -30t-101.5 -83t-65.5 -128t-23.5 -165zM500 78q74 0 134 28.5t103 81t66.5 127t23.5 166.5q0 106 -29.5 186.5t-82.5 133.5l-361 -686q33 -16 69 -26.5t77 -10.5z" />
<glyph unicode="&#xd9;" horiz-adv-x="946" d="M217 383q0 -147 60.5 -227t197.5 -80q133 0 196.5 78.5t63.5 226.5v575h88v-575q0 -86 -12 -150.5t-55 -119.5q-94 -127 -285 -127q-174 0 -261 99t-87 282v591h94v-573zM420 1251l141 -227h-72l-182 227h113z" />
<glyph unicode="&#xda;" horiz-adv-x="946" d="M217 956h-94v-591q0 -182 87 -281.5t261 -99.5q190 0 285 127q43 55 55 119.5t12 150.5v575h-88v-575q0 -147 -63.5 -226t-196.5 -79q-137 0 -197.5 80t-60.5 227v573zM670 1251l-183 -227h-71l141 227h113z" />
<glyph unicode="&#xdb;" horiz-adv-x="946" d="M217 383q0 -147 60.5 -227t197.5 -80q133 0 196.5 78.5t63.5 226.5v575h88v-575q0 -86 -12 -150.5t-55 -119.5q-94 -127 -285 -127q-174 0 -261 99t-87 282v591h94v-573zM627 1024l-152 160l-149 -160h-76l192 227h66l194 -227h-75z" />
<glyph unicode="&#xdc;" horiz-adv-x="946" d="M217 383q0 -147 60.5 -227t197.5 -80q133 0 196.5 78.5t63.5 226.5v575h88v-575q0 -86 -12 -150.5t-55 -119.5q-94 -127 -285 -127q-174 0 -261 99t-87 282v591h94v-573zM428 1139v-115h-113v115h113zM647 1139v-115h-112v115h112z" />
<glyph unicode="&#xdd;" horiz-adv-x="849" d="M31 958l354 -548v-410h96v418l344 540h-104l-285 -452l-289 452h-116zM621 1251l-183 -227h-71l141 227h113z" />
<glyph unicode="&#xde;" horiz-adv-x="897" d="M266 956v-192h137q94 0 165 -7t124 -42q57 -37 88 -93.5t31 -121.5q0 -141 -96.5 -209t-288.5 -68h-160v-223h-96v956h96zM461 309q246 0 246 187q0 100 -59.5 141t-192.5 41h-189v-369h195v0z" />
<glyph unicode="&#xdf;" horiz-adv-x="751" d="M123 752q0 137 62.5 201.5t189.5 64.5q113 0 181.5 -68.5t68.5 -181.5q0 -127 -101 -201q37 -18 62.5 -49t41 -64.5t22.5 -69.5t7 -67q0 -166 -72.5 -250.5t-209.5 -84.5h-51v84q29 -6 53 -7q74 0 112 39q39 39 62.5 80t23.5 105q0 127 -62 180t-189 53v84q115 0 166 40 t51 128q0 25 -7.5 57.5t-26 60t-51 47t-81.5 19.5q-57 0 -90 -17t-50.5 -45t-22.5 -65t-5 -73v-752h-84v752v0z" />
<glyph unicode="&#xe0;" horiz-adv-x="684" d="M285 -14q-104 0 -164 54t-60 148q0 100 85 161t239 61h111v71q0 129 -156 129q-147 0 -158 -118h-94q10 94 75.5 142t176.5 48q119 0 182 -51q49 -41 59.5 -92.5t10.5 -122.5v-287q0 -29 3 -60.5t7 -68.5h-90l-6 98q-76 -112 -221 -112zM152 188q0 -55 37.5 -91 t107.5 -36q90 0 144.5 54.5t54.5 132.5v90h-93q-129 0 -190 -41t-61 -109zM279 981l141 -227h-72l-182 227h113z" />
<glyph unicode="&#xe1;" horiz-adv-x="684" d="M516 981l-182 -227h-72l141 227h113zM285 -14q145 0 221 112l6 -98h90q-4 37 -7 68.5t-3 60.5v287q0 72 -10.5 123t-59.5 92q-63 51 -182 51q-111 0 -176.5 -48t-75.5 -142h94q10 119 158 118q156 0 156 -129v-71h-111q-154 0 -239 -60.5t-85 -161.5q0 -94 60 -148 t164 -54zM152 188q0 68 61 109t190 41h93v-90q0 -78 -54.5 -132.5t-144.5 -54.5q-70 0 -107.5 36t-37.5 91z" />
<glyph unicode="&#xe2;" horiz-adv-x="684" d="M285 -14q-104 0 -164 54t-60 148q0 100 85 161t239 61h111v71q0 129 -156 129q-147 0 -158 -118h-94q10 94 75.5 142t176.5 48q119 0 182 -51q49 -41 59.5 -92.5t10.5 -122.5v-287q0 -29 3 -60.5t7 -68.5h-90l-6 98q-76 -112 -221 -112zM152 188q0 -55 37.5 -91 t107.5 -36q90 0 144.5 54.5t54.5 132.5v90h-93q-129 0 -190 -41t-61 -109zM500 754l-152 159l-149 -159h-76l192 227h66l194 -227h-75z" />
<glyph unicode="&#xe3;" horiz-adv-x="684" d="M285 -14q-104 0 -164 54t-60 148q0 100 85 161t239 61h111v71q0 129 -156 129q-147 0 -158 -118h-94q10 94 75.5 142t176.5 48q119 0 182 -51q49 -41 59.5 -92.5t10.5 -122.5v-287q0 -29 3 -60.5t7 -68.5h-90l-6 98q-76 -112 -221 -112zM152 188q0 -55 37.5 -91 t107.5 -36q90 0 144.5 54.5t54.5 132.5v90h-93q-129 0 -190 -41t-61 -109zM444 762q-37 0 -72.5 13t-70.5 24q-10 4 -21.5 6t-23.5 2q-29 0 -59.5 -13.5t-69.5 -39.5v61q72 47 129 47q37 0 71.5 -13t69.5 -24q10 -4 22.5 -6t24.5 -2q29 0 58.5 13.5t68.5 39.5v-61 q-70 -47 -127 -47z" />
<glyph unicode="&#xe4;" horiz-adv-x="684" d="M285 -14q-104 0 -164 54t-60 148q0 100 85 161t239 61h111v71q0 129 -156 129q-147 0 -158 -118h-94q10 94 75.5 142t176.5 48q119 0 182 -51q49 -41 59.5 -92.5t10.5 -122.5v-287q0 -29 3 -60.5t7 -68.5h-90l-6 98q-76 -112 -221 -112zM152 188q0 -55 37.5 -91 t107.5 -36q90 0 144.5 54.5t54.5 132.5v90h-93q-129 0 -190 -41t-61 -109zM297 868v-114h-113v114h113zM516 868v-114h-113v114h113z" />
<glyph unicode="&#xe5;" horiz-adv-x="684" d="M285 -14q145 0 221 112l6 -98h90q-4 37 -7 68.5t-3 60.5v287q0 72 -10.5 123t-59.5 92q-63 51 -182 51q-111 0 -176.5 -48t-75.5 -142h94q10 119 158 118q156 0 156 -129v-71h-111q-154 0 -239 -60.5t-85 -161.5q0 -94 60 -148t164 -54zM152 188q0 68 61 109t190 41h93 v-90q0 -78 -54.5 -132.5t-144.5 -54.5q-70 0 -107.5 36t-37.5 91zM360 1032q72 0 109 -43t37 -96t-37 -97t-109 -44t-107.5 44t-35.5 97t35.5 96t107.5 43zM360 817q41 0 59.5 23.5t18.5 52.5t-18.5 52.5t-59.5 23.5q-39 0 -58 -23.5t-19 -52.5t19 -52.5t58 -23.5z" />
<glyph unicode="&#xe6;" horiz-adv-x="1155" d="M1104 319h-512q4 -127 60.5 -192.5t158.5 -65.5q72 0 125 42t68 114h94q-16 -111 -94 -172t-201 -61q-125 0 -207 71l6 -55h-90l-6 98q-35 -55 -91.5 -83.5t-127.5 -28.5q-104 0 -165 54t-61 148q0 100 85 161t239 61h111v71q0 129 -156 129q-147 0 -158 -118h-94 q10 94 75.5 142t176.5 48q117 0 184 -51q29 -23 45 -56q41 51 101.5 79t134.5 28q135 0 217 -89t82 -245v-29zM297 61q90 0 144.5 54.5t54.5 132.5v2q-6 37 -7 78v10h-86q-129 0 -190 -41t-61 -109q0 -55 37.5 -91t107.5 -36zM1004 397q-4 98 -60.5 154.5t-144.5 56.5 q-82 0 -134.5 -54t-68.5 -157h408z" />
<glyph unicode="&#xe7;" horiz-adv-x="630" d="M201 -209q23 -6 43 -12t43 -6q29 0 57.5 13t28.5 48q0 29 -20.5 40t-45.5 11q-16 0 -29.5 -3t-29.5 -7l-19 19l68 94q-123 12 -189.5 101t-66.5 237q0 174 80 265t221 91q117 0 185.5 -59.5t72.5 -169.5h-100q-4 72 -49 108.5t-113 36.5q-94 0 -146.5 -71.5t-52.5 -196.5 q0 -127 50.5 -197t148.5 -70q68 0 111 37t55 109h96q-8 -111 -74.5 -167t-181.5 -58l-47 -60q12 4 24.5 6t24.5 2q43 0 70.5 -22.5t32.5 -46.5q2 -8 2 -25q0 -59 -45.5 -85.5t-104.5 -26.5q-31 0 -61.5 8t-59.5 18z" />
<glyph unicode="&#xe8;" horiz-adv-x="722" d="M57 328q0 80 22.5 145.5t63.5 111.5t99.5 71.5t130.5 25.5q135 0 217 -89t82 -245v-29h-512q2 -127 59 -192.5t160 -65.5q72 0 125 42t65 114h95q-16 -111 -94 -172t-201 -61q-143 0 -227.5 93t-84.5 251zM367 608q-82 0 -135.5 -54t-69.5 -157h409q-6 98 -61 154.5 t-143 56.5zM299 981l141 -227h-71l-183 227h113z" />
<glyph unicode="&#xe9;" horiz-adv-x="722" d="M57 328q0 -158 84 -251t228 -93q123 0 200.5 61t94.5 172h-95q-12 -72 -65 -114t-125 -42q-102 0 -159.5 66t-59.5 192h512v29q0 156 -82 245t-217 89q-72 0 -130.5 -25.5t-99.5 -71.5t-63.5 -111.5t-22.5 -145.5zM367 608q88 0 143 -56t61 -155h-409q16 102 69.5 156.5 t135.5 54.5zM547 981l-182 -227h-72l141 227h113z" />
<glyph unicode="&#xea;" horiz-adv-x="722" d="M57 328q0 80 22.5 145.5t63.5 111.5t99.5 71.5t130.5 25.5q135 0 217 -89t82 -245v-29h-512q2 -127 59 -192.5t160 -65.5q72 0 125 42t65 114h95q-16 -111 -94 -172t-201 -61q-143 0 -227.5 93t-84.5 251zM367 608q-82 0 -135.5 -54t-69.5 -157h409q-6 98 -61 154.5 t-143 56.5zM520 754l-151 159l-150 -159h-76l193 227h65l195 -227h-76z" />
<glyph unicode="&#xeb;" horiz-adv-x="722" d="M57 328q0 80 22.5 145.5t63.5 111.5t99.5 71.5t130.5 25.5q135 0 217 -89t82 -245v-29h-512q2 -127 59 -192.5t160 -65.5q72 0 125 42t65 114h95q-16 -111 -94 -172t-201 -61q-143 0 -227.5 93t-84.5 251zM367 608q-82 0 -135.5 -54t-69.5 -157h409q-6 98 -61 154.5 t-143 56.5zM315 870v-114h-112v114h112zM535 870v-114h-113v114h113z" />
<glyph unicode="&#xec;" horiz-adv-x="319" d="M213 0h-92v670h92v-670zM113 981l141 -227h-72l-182 227h113z" />
<glyph unicode="&#xed;" horiz-adv-x="319" d="M213 670h-92v-670h92v670zM340 981l-182 -227h-72l141 227h113z" />
<glyph unicode="&#xee;" horiz-adv-x="319" d="M213 0h-92v670h92v-670zM322 754l-152 159l-150 -159h-75l192 227h66l194 -227h-75z" />
<glyph unicode="&#xef;" horiz-adv-x="319" d="M213 0h-92v670h92v-670zM115 868v-114h-113v114h113zM334 868v-114h-113v114h113z" />
<glyph unicode="&#xf0;" horiz-adv-x="858" d="M242 668l-29 61l176 72q-41 33 -81 58.5t-83 47.5l47 54q47 -23 98.5 -52.5t110.5 -72.5l162 65l27 -59l-135 -58q203 -197 202 -465q0 -158 -85 -246.5t-226 -88.5q-68 0 -125 22.5t-98 64.5t-63.5 100t-22.5 128q0 72 22.5 129t64.5 98t98 63.5t124 22.5q94 0 164 -47 q-61 106 -144 187zM426 66q98 0 156.5 63.5t58.5 175.5q0 111 -58.5 174.5t-156.5 63.5t-155.5 -63.5t-57.5 -174.5q0 -113 57.5 -176t155.5 -63z" />
<glyph unicode="&#xf1;" horiz-adv-x="733" d="M195 668l4 -103q94 111 211 111q123 0 177 -68.5t54 -187.5v-420h-92v410q0 82 -33 133t-117 51q-86 0 -143 -57.5t-57 -135.5v-401h-90v512q0 82 -7 156h93zM469 762q-37 0 -73 13t-70 24q-10 4 -21.5 6t-23.5 2q-29 0 -60 -13.5t-69 -39.5v61q72 47 129 47 q37 0 71.5 -13t69.5 -24q10 -4 22.5 -6t24.5 -2q29 0 58.5 13.5t68.5 39.5v-61q-70 -47 -127 -47z" />
<glyph unicode="&#xf2;" horiz-adv-x="735" d="M684 334q0 -80 -23.5 -144.5t-64.5 -110.5t-98.5 -70.5t-124.5 -24.5q-68 0 -125.5 24.5t-98 70.5t-64.5 110.5t-24 144.5t24 144.5t64.5 110.5t98 70.5t125.5 24.5t124 -24.5t98 -70.5t65.5 -110.5t23.5 -144.5zM586 334q0 117 -57.5 192.5t-155.5 75.5q-45 0 -85 -20.5 t-69 -55t-45 -84t-16 -108.5q0 -117 58 -192.5t157 -75.5q96 0 154.5 73.5t58.5 194.5zM303 981l141 -227h-71l-183 227h113z" />
<glyph unicode="&#xf3;" horiz-adv-x="735" d="M684 334q0 80 -23.5 144.5t-65.5 110.5t-98.5 70.5t-123.5 24.5q-68 0 -125.5 -24.5t-98 -70.5t-64.5 -110.5t-24 -144.5t24 -144.5t64.5 -110.5t98 -70.5t125.5 -24.5t125 24.5t98 70.5t64.5 110.5t23.5 144.5zM586 334q0 -121 -58.5 -194.5t-154.5 -73.5 q-98 0 -156.5 75.5t-58.5 192.5q0 59 16 108.5t45 84t69 55t85 20.5q98 0 155.5 -75.5t57.5 -192.5zM551 981l-182 -227h-72l141 227h113z" />
<glyph unicode="&#xf4;" horiz-adv-x="735" d="M684 334q0 -80 -23.5 -144.5t-64.5 -110.5t-98.5 -70.5t-124.5 -24.5q-68 0 -125.5 24.5t-98 70.5t-64.5 110.5t-24 144.5t24 144.5t64.5 110.5t98 70.5t125.5 24.5t124 -24.5t98 -70.5t65.5 -110.5t23.5 -144.5zM586 334q0 117 -57.5 192.5t-155.5 75.5q-45 0 -85 -20.5 t-69 -55t-45 -84t-16 -108.5q0 -117 58 -192.5t157 -75.5q96 0 154.5 73.5t58.5 194.5zM528 754l-151 159l-150 -159h-75l192 227h66l194 -227h-76z" />
<glyph unicode="&#xf5;" horiz-adv-x="735" d="M684 334q0 -80 -23.5 -144.5t-64.5 -110.5t-98.5 -70.5t-124.5 -24.5q-68 0 -125.5 24.5t-98 70.5t-64.5 110.5t-24 144.5t24 144.5t64.5 110.5t98 70.5t125.5 24.5t124 -24.5t98 -70.5t65.5 -110.5t23.5 -144.5zM586 334q0 117 -57.5 192.5t-155.5 75.5q-45 0 -85 -20.5 t-69 -55t-45 -84t-16 -108.5q0 -117 58 -192.5t157 -75.5q96 0 154.5 73.5t58.5 194.5zM467 762q-37 0 -73 13t-70 24q-10 4 -21.5 6t-23.5 2q-29 0 -60 -13.5t-69 -39.5v61q72 47 129 47q37 0 71.5 -13t69.5 -24q10 -4 22.5 -6t24.5 -2q29 0 58.5 13.5t68.5 39.5v-61 q-70 -47 -127 -47z" />
<glyph unicode="&#xf6;" horiz-adv-x="735" d="M684 334q0 -80 -23.5 -144.5t-64.5 -110.5t-98.5 -70.5t-124.5 -24.5q-68 0 -125.5 24.5t-98 70.5t-64.5 110.5t-24 144.5t24 144.5t64.5 110.5t98 70.5t125.5 24.5t124 -24.5t98 -70.5t65.5 -110.5t23.5 -144.5zM586 334q0 117 -57.5 192.5t-155.5 75.5q-45 0 -85 -20.5 t-69 -55t-45 -84t-16 -108.5q0 -117 58 -192.5t157 -75.5q96 0 154.5 73.5t58.5 194.5zM324 868v-114h-113v114h113zM543 868v-114h-113v114h113z" />
<glyph unicode="&#xf7;" horiz-adv-x="774" d="M305 500q0 31 21.5 53t50.5 22t50.5 -22.5t21.5 -52.5q0 -31 -21.5 -53.5t-50.5 -22.5t-50.5 22.5t-21.5 53.5zM377 223q29 0 50.5 -22.5t21.5 -53.5t-21.5 -53t-50.5 -22t-50.5 22.5t-21.5 52.5q0 31 21.5 53.5t50.5 22.5zM57 362h652v-77h-652v77z" />
<glyph unicode="&#xf8;" horiz-adv-x="735" d="M573 610q53 -47 82 -116.5t29 -157.5q0 -80 -23.5 -144.5t-64.5 -110.5t-98.5 -70.5t-124.5 -24.5q-90 0 -162 43l-27 -43h-82l56 88q-45 47 -71 112.5t-26 149.5q0 80 24 144.5t64.5 110.5t98 70.5t125.5 24.5q80 0 145 -35l35 58h82l-62 -99v0zM158 336q0 -111 51 -180 l262 422q-47 27 -98 26q-45 0 -85 -20.5t-69 -55t-45 -84t-16 -108.5zM373 68q96 0 154.5 73.5t58.5 194.5t-62 194l-266 -428q47 -34 115 -34z" />
<glyph unicode="&#xf9;" horiz-adv-x="720" d="M537 0v94q-94 -109 -215 -108q-119 0 -174.5 63.5t-55.5 188.5v430h92v-420q0 -78 35 -129t115 -51q43 0 79 15t62.5 42t41.5 60.5t15 70.5v412h93v-512q0 -43 1 -81t3 -75h-92zM262 981l141 -227h-71l-182 227h112z" />
<glyph unicode="&#xfa;" horiz-adv-x="720" d="M629 0q-2 37 -3 75t-1 81v512h-93v-412q0 -37 -15 -70.5t-41.5 -60.5t-62.5 -42t-79 -15q-80 0 -115 51t-35 129v420h-92v-430q0 -125 55.5 -188.5t174.5 -63.5q121 0 215 108v-94h92zM557 981l-182 -227h-72l141 227h113z" />
<glyph unicode="&#xfb;" horiz-adv-x="720" d="M537 0v94q-94 -109 -215 -108q-119 0 -174.5 63.5t-55.5 188.5v430h92v-420q0 -78 35 -129t115 -51q43 0 79 15t62.5 42t41.5 60.5t15 70.5v412h93v-512q0 -43 1 -81t3 -75h-92zM508 754l-152 159l-149 -159h-76l193 227h65l195 -227h-76z" />
<glyph unicode="&#xfc;" horiz-adv-x="608" d="M485 0v94q-94 -109 -215 -108q-119 0 -174 63.5t-55 188.5v430h92v-420q0 -78 35 -129t115 -51q43 0 78.5 15t62.5 42t42 60.5t15 70.5v412h92v-512q0 -43 1 -81t4 -75h-93zM254 868v-114h-113v114h113zM473 868v-114h-113v114h113z" />
<glyph unicode="&#xfd;" horiz-adv-x="716" d="M145 668h-104l268 -639l-100 -281h96l359 920h-84l-218 -539zM543 981l-183 -227h-71l141 227h113z" />
<glyph unicode="&#xfe;" horiz-adv-x="841" d="M248 956v-383q74 111 215 111q129 0 207 -94t78 -254q0 -166 -76 -259t-203 -93q-74 0 -127 26.5t-94 85.5v-348h-92v1208h92zM455 63q94 0 145 70t51 205q0 129 -52 199.5t-144 70.5q-96 0 -150.5 -70.5t-54.5 -205.5q0 -129 55.5 -199t149.5 -70z" />
<glyph unicode="&#xff;" horiz-adv-x="716" d="M303 868v-114h-113v114h113zM522 868v-114h-112v114h112zM362 129l218 539h96l-264 -648l-107 -272h-96l100 281l-268 639h104z" />
<glyph unicode="&#x131;" horiz-adv-x="342" d="M219 0h-96v956h96v-956z" />
<glyph unicode="&#x141;" horiz-adv-x="817" d="M139 0v479l-106 -53v80l106 53v399h92v-331l107 53v-80l-107 -53v-469h514v-78h-606z" />
<glyph unicode="&#x142;" horiz-adv-x="325" d="M119 0v453l-94 -54v80l94 53v426h82v-358l94 53v-80l-94 -53v-520h-82z" />
<glyph unicode="&#x152;" horiz-adv-x="1398" d="M1296 88v-88h-594v51q-86 -68 -229 -67q-184 0 -292.5 129t-108.5 364q0 236 109.5 366t307.5 130q68 0 121.5 -17.5t91.5 -46.5v47h576v-84h-479v-335h461v-84h-461v-365h497zM483 76q86 0 140.5 34.5t78.5 94.5v540q-16 53 -69 95.5t-150 42.5q-139 0 -223 -105.5 t-84 -304.5q0 -193 84 -295t223 -102z" />
<glyph unicode="&#x153;" horiz-adv-x="1359" d="M1245 319h-512q2 -125 59.5 -191.5t159.5 -66.5q72 0 125 42t66 116h94q-16 -113 -94 -174t-201 -61q-90 0 -156.5 37.5t-105.5 107.5q-41 -68 -107.5 -106.5t-152.5 -38.5q-68 0 -125 25.5t-98 71.5t-64.5 110.5t-23.5 142.5q0 80 23.5 145.5t64.5 111.5t98 70.5 t125 24.5q86 0 153.5 -40t108.5 -109q41 70 107.5 108.5t156.5 38.5q135 0 217 -89t82 -247v-29zM420 68q90 0 146.5 63.5t66.5 171.5q-2 8 -2 25v18t2 16q-8 106 -64.5 173t-148.5 67t-153.5 -74.5t-61.5 -193.5q0 -117 58.5 -191.5t156.5 -74.5zM1145 399 q-6 98 -61.5 153.5t-143.5 55.5q-82 0 -135 -53t-70 -156h410z" />
<glyph unicode="&#x160;" horiz-adv-x="786" d="M629 246q0 35 -15.5 65.5t-50.5 55.5q-14 10 -33.5 19t-46.5 20q-25 10 -55.5 19t-65.5 21q-137 49 -206.5 105.5t-69.5 161.5q0 113 84 184.5t225 71.5q145 0 226 -58.5t90 -169.5h-99q-8 141 -204 142q-106 0 -165 -45t-59 -117q0 -68 60.5 -110t181.5 -83 q35 -12 65.5 -22t59.5 -23q57 -23 92 -51q82 -74 82 -180q0 -121 -89 -191.5t-245 -70.5q-305 0 -330 264h103q2 -90 63.5 -134t165.5 -44q111 0 173.5 47t62.5 123zM244 1253l151 -159l150 159h76l-193 -227h-66l-194 227h76z" />
<glyph unicode="&#x161;" horiz-adv-x="649" d="M500 184q0 51 -38 74t-116 43l-113 31q-25 8 -44 13t-33 15q-80 49 -80 136q0 88 65.5 138t184.5 50q115 0 177 -47t66 -141h-94q-12 117 -153 116q-78 0 -117 -28.5t-39 -75.5q0 -53 51 -74q27 -14 66 -22q20 -6 42.5 -11.5t49.5 -11.5q109 -29 164 -67.5t55 -128.5 q0 -96 -72.5 -152.5t-202.5 -56.5q-254 0 -264 200h95q10 -127 167 -127q88 0 135.5 37t47.5 90zM170 983l152 -160l149 160h76l-193 -227h-65l-195 227h76z" />
<glyph unicode="&#x178;" horiz-adv-x="849" d="M147 958l289 -452l285 452h104l-344 -540v-418h-96v410l-354 548h116zM381 1139v-115h-113v115h113zM600 1139v-115h-113v115h113z" />
<glyph unicode="&#x17d;" horiz-adv-x="815" d="M82 874v84h655v-90l-569 -780h586v-88h-693v96l562 778h-541zM264 1253l152 -159l149 159h76l-192 -227h-66l-195 227h76z" />
<glyph unicode="&#x17e;" horiz-adv-x="614" d="M72 590v78h471v-84l-367 -504h377v-80h-492v86l373 504h-362zM166 983l151 -160l150 160h76l-193 -227h-65l-195 227h76z" />
<glyph unicode="&#x192;" horiz-adv-x="692" d="M641 885q-16 10 -32.5 15t-39.5 5h-14t-16 -2q-39 -6 -60.5 -39t-35 -77t-22.5 -95t-22 -96h154v-64h-164l-86 -446q-14 -70 -32.5 -133.5t-49.5 -110.5t-74 -74.5t-106 -27.5q-35 0 -74 14l25 76q20 -12 33.5 -15t35.5 -3q39 0 68 33.5t51.5 99t43 160t40.5 212.5 l39 215h-151v64h161q12 55 26.5 121.5t42.5 124t73 96.5t118 39q49 0 95 -27z" />
<glyph unicode="&#x2c6;" horiz-adv-x="681" d="M502 754l-152 159l-149 -159h-76l192 227h66l195 -227h-76z" />
<glyph unicode="&#x2c7;" horiz-adv-x="681" d="M197 981l151 -160l150 160h75l-192 -227h-66l-194 227h76z" />
<glyph unicode="&#x2d8;" horiz-adv-x="657" d="M207 922q10 -55 47 -82t92 -27q113 0 143 109h50q-10 -86 -63.5 -127t-135.5 -41q-80 0 -130 45t-56 123h53z" />
<glyph unicode="&#x2d9;" horiz-adv-x="1024" d="M512 1055v-115h-113v115h113z" />
<glyph unicode="&#x2da;" horiz-adv-x="628" d="M330 1032q72 0 108.5 -43t36.5 -96t-37 -97t-108 -44q-72 0 -108 44t-36 97t36 96t108 43zM330 817q41 0 59.5 23.5t18.5 52.5t-18.5 52.5t-59.5 23.5q-39 0 -58.5 -23.5t-19.5 -52.5t19.5 -52.5t58.5 -23.5z" />
<glyph unicode="&#x2db;" horiz-adv-x="624" d="M375 2v-2q-14 -8 -33.5 -20.5t-35 -26.5t-27 -31.5t-11.5 -38.5q0 -39 28 -57.5t62 -18.5q29 0 56 13v-60q-29 -10 -68 -10q-53 0 -95 28.5t-42 86.5q0 47 30.5 82t69.5 55h66z" />
<glyph unicode="&#x2dc;" horiz-adv-x="700" d="M446 762q-37 0 -72.5 13t-70.5 24q-10 4 -21.5 6t-23.5 2q-29 0 -59.5 -13.5t-69.5 -39.5v61q72 47 129 47q37 0 72 -13t69 -24q10 -4 22.5 -6t24.5 -2q29 0 59 13.5t68 39.5v-61q-70 -47 -127 -47z" />
<glyph unicode="&#x2dd;" horiz-adv-x="700" d="M430 981l-182 -227h-72l141 227h113zM604 981l-182 -227h-72l142 227h112z" />
<glyph unicode="&#xe00;" />
<glyph unicode="&#xe01;" horiz-adv-x="876" d="M178 424q0 68 26.5 104.5t59.5 51.5q-16 16 -42.5 26t-51.5 19q-29 8 -59 14q39 59 96 91t110 48q63 18 134 21q63 0 117.5 -15.5t94 -45t62.5 -75t23 -104.5v-559h-84v571q0 37 -18.5 67t-50.5 49.5t-73 30.5t-84 11q-53 0 -105 -16.5t-95 -50.5q25 -6 50 -19.5 t46 -28.5q23 -16 45 -34q-43 -8 -67.5 -32t-35.5 -50q-12 -31 -14 -68v-430h-84v424z" />
<glyph unicode="&#xe02;" horiz-adv-x="790" d="M594 788h84v-651q0 -53 -28.5 -95t-112.5 -42h-291v74h84v299q0 61 12 91t27.5 49t28 40.5t12.5 67.5q0 47 -37 78.5t-90 31.5q-45 0 -66 -20q41 -4 61.5 -25.5t30.5 -44.5q10 -27 13 -57q0 -20 -9.5 -43t-28 -42.5t-44 -31.5t-56.5 -12q-35 0 -61.5 13t-44 34.5 t-25.5 47t-8 52.5q0 43 21.5 80t54.5 62.5t72.5 40t76.5 14.5q111 0 165 -58.5t54 -136.5q0 -41 -12 -61.5t-26.5 -39t-26.5 -43t-12 -71.5v-315h112q35 0 52.5 14t17.5 55v645zM184 526q35 0 50.5 21.5t15.5 46.5t-15.5 45t-50.5 20q-33 0 -49 -20.5t-16 -44.5 q0 -25 16 -46.5t49 -21.5z" />
<glyph unicode="&#xe03;" horiz-adv-x="866" d="M408 412q0 37 12 61.5t27.5 45t27.5 42t12 51.5q0 53 -23.5 77t-35.5 32l-94 -64l-109 70q-12 0 -28.5 -10t-29.5 -23.5t-23.5 -30t-10.5 -30.5q6 4 14 10q16 10 52 10q55 0 95 -36.5t40 -92.5q0 -47 -35 -91t-100 -44q-45 0 -76 17.5t-47.5 43t-23.5 55.5t-7 54 q0 61 21.5 106.5t51 74t60.5 42t49 13.5q2 0 5.5 -1t13.5 -7.5t30.5 -19.5t57.5 -36l94 64q20 -6 44 -22.5t44.5 -39t34.5 -51.5t14 -61q0 -41 -12 -65t-25.5 -44t-26 -43t-12.5 -61v-334h117q66 0 66 61v653h82v-657q0 -66 -37 -98.5t-103 -32.5h-292v74h86v338v0zM197 586 q-33 0 -49.5 -19.5t-16.5 -44.5t16.5 -45t49.5 -20t49 19.5t16 43.5q0 25 -16 45.5t-49 20.5z" />
<glyph unicode="&#xe04;" horiz-adv-x="866" d="M115 498q0 78 28.5 135t75.5 94t105.5 54.5t115.5 17.5q59 0 115.5 -16.5t100.5 -50.5t71 -84t27 -118v-530h-82v520q0 51 -20.5 89t-53.5 63.5t-75 39t-85 13.5t-86 -13.5t-76.5 -40t-55 -66.5t-21.5 -93q0 -45 7 -78t15 -60.5t15.5 -51t7.5 -50.5v-14q0 -6 -2 -12 l28 184q12 74 52 120t112 46q66 0 97.5 -41t31.5 -88q0 -49 -33.5 -93t-101.5 -44q-49 0 -68.5 16t-25.5 21l-68 -367h-86v182q0 59 -10 96t-22.5 68t-22.5 64t-10 88zM430 530q-33 0 -48 -20.5t-15 -46.5q0 -27 15 -47.5t48 -20.5q35 0 50.5 20.5t15.5 47.5t-15.5 47 t-50.5 20z" />
<glyph unicode="&#xe05;" horiz-adv-x="868" d="M236 334q8 -23 9 -40.5t1 -47.5l26 184q10 74 51.5 117t112.5 43q66 0 97.5 -42t31.5 -89q0 -49 -32.5 -91t-96.5 -44q-53 0 -73.5 16t-26.5 20l-68 -360h-86v195q0 51 -10 90t-23.5 75.5t-23.5 78.5t-10 100q0 47 15 89t42 75.5t60.5 57t70.5 32.5q23 6 41 6 q20 0 35 -11l86 -65q18 16 34.5 27.5t28.5 21.5q14 10 27 16q16 10 31 11q4 0 16 -3t23 -8q39 -16 65.5 -39.5t38.5 -46.5q16 -27 21.5 -57.5t5.5 -71.5v-573h-82v573q0 29 -1 40.5t-7 31.5q-8 23 -30 50.5t-56 31.5l-17 -10q-12 -8 -35.5 -24.5t-64.5 -47.5q-39 33 -70 53 q-16 10 -28 21q-8 6 -21 6q-10 0 -20.5 -4t-20.5 -8q-39 -20 -72.5 -69.5t-33.5 -123.5q0 -45 11.5 -93t27.5 -93zM432 524q-33 0 -48 -20.5t-15 -46.5q0 -27 15 -47.5t48 -20.5q35 0 50.5 20.5t15.5 47.5t-15.5 47t-50.5 20z" />
<glyph unicode="&#xe06;" horiz-adv-x="1009" d="M815 788h82v-788h-96q-10 25 -41 55.5t-72 59t-89 51t-95 29.5q6 -14 7 -33t1 -35q-4 -51 -39 -92t-94 -41q-70 0 -106.5 45t-36.5 98q0 55 40.5 102.5t129.5 47.5v133q0 31 13 54.5t28.5 45t27.5 44t12 48.5q0 37 -15 67t-44 40l-94 -62l-109 70q-12 0 -27.5 -10 t-29.5 -23.5t-23.5 -30t-9.5 -28.5q0 -2 14.5 8t49.5 10q55 0 95 -35.5t40 -95.5q0 -47 -35 -89t-100 -42q-45 0 -75 17.5t-47.5 43t-24.5 54.5t-7 53q0 61 21.5 106.5t52.5 74t61.5 42t48.5 13.5q2 0 6.5 -1t14.5 -7.5t30.5 -19.5t53.5 -36l94 64q59 -20 98 -70.5 t39 -103.5q0 -41 -11 -65t-25.5 -44t-25.5 -43t-11 -59v-131q111 -25 190.5 -68t132.5 -90v667zM197 586q-33 0 -48.5 -19.5t-15.5 -44.5t15.5 -45t46.5 -20q35 0 51 19.5t16 43.5q0 25 -16 45.5t-49 20.5zM373 61q29 0 48 22.5t19 55.5t-16 54.5t-51 23.5 q-29 0 -48.5 -22.5t-19.5 -55.5t19.5 -55.5t48.5 -22.5z" />
<glyph unicode="&#xe07;" horiz-adv-x="630" d="M436 545q-31 -8 -59 -8q-66 0 -97.5 40.5t-31.5 90.5q0 47 32.5 89t98.5 42q72 0 105.5 -42t33.5 -106v-493q0 -31 -5 -67t-28 -58q-8 -10 -27.5 -25.5t-51.5 -15.5q-51 0 -78 21.5t-49 54.5l-203 313l74 41l204 -318q10 -16 20.5 -18t20.5 -2q23 0 32 17.5t9 60.5v383v0 zM381 735q-33 0 -49.5 -20.5t-16.5 -46.5q0 -27 16.5 -47.5t49.5 -20.5q35 0 50 20.5t15 47.5t-15 47t-50 20z" />
<glyph unicode="&#xe08;" horiz-adv-x="751" d="M358 799q78 0 134.5 -25.5t93.5 -66.5t55 -95.5t18 -111.5q0 -12 -3 -35t-7 -37q-6 -35 -16 -94q-10 -51 -24.5 -132t-37.5 -202h-82l-57 362q-35 -45 -106 -45q-59 0 -93 38t-34 94q0 68 43 101.5t92 33.5q43 0 72.5 -15.5t48 -40t29 -56.5t16.5 -64q0 -6 4 -31 q4 -23 11 -65t17 -119q16 104 25.5 161.5t13.5 85.5q6 35 7 43q2 8 2 19.5v13.5q0 63 -33 111q-29 39 -75 67.5t-124 30.5q-33 0 -69.5 -10t-70.5 -29.5t-61.5 -50.5t-40.5 -74l-69 37q20 49 56 87t79 63.5t91 38t95 12.5zM332 379q35 0 50 20.5t15 46.5q0 27 -15 47.5 t-50 20.5q-33 0 -49.5 -20.5t-16.5 -47.5t16.5 -47t49.5 -20z" />
<glyph unicode="&#xe09;" horiz-adv-x="903" d="M90 598q12 29 37 63.5t64.5 65.5t96 51.5t130.5 20.5q96 0 156.5 -30t93 -72t44 -88t11.5 -81v-243q45 -4 68.5 -25.5t33.5 -48.5q12 -31 17 -68q0 -27 -7.5 -54.5t-22.5 -49t-41 -34.5t-60 -13q-25 0 -48.5 6t-44 22.5t-33 44t-12.5 70.5v12q0 6 2.5 14.5t4.5 18.5 q-53 -25 -99 -53q-39 -25 -71.5 -56.5t-42.5 -70.5h-95v266q-10 -2 -18 -4t-18.5 -4t-20.5 -2q-51 0 -90 37t-39 96q0 53 39 93t94 40q72 0 104.5 -48t32.5 -103v-252q63 70 136 104.5t147 57.5v251q0 27 -9 61t-34 62.5t-68 49t-108 20.5q-104 0 -165.5 -49t-92.5 -115 l-72 37v0zM709 217q-33 0 -48.5 -24.5t-15.5 -55.5t15.5 -55.5t48.5 -24.5t49 24.5t16 53.5q0 31 -17 56.5t-48 25.5zM217 455q-33 0 -48 -20.5t-15 -45.5t15 -46t48 -21q35 0 50.5 21.5t15.5 45.5q0 25 -15.5 45.5t-50.5 20.5z" />
<glyph unicode="&#xe0a;" horiz-adv-x="831" d="M707 133q0 -51 -30 -92t-108 -41h-299v74h84v325q0 43 13.5 69t29 47.5t28.5 46t13 67.5q0 16 -6 33.5t-29 33.5q-20 16 -49.5 26.5t-60.5 10.5q-37 0 -66 -18q33 -6 52.5 -22.5t28.5 -36t11.5 -38t2.5 -26.5q0 -57 -40 -91t-94 -34q-43 0 -70.5 13.5t-44 32.5t-22.5 44 t-6 47q0 45 21.5 81t56.5 61.5t78 39t86 13.5q59 0 119.5 -19.5t101.5 -79.5q12 0 28.5 5.5t40 20.5t53 44t68.5 78l56 -49q-23 -29 -47 -56q-23 -23 -51.5 -46t-61.5 -35q20 -4 35.5 -13.5t25.5 -17.5q12 -8 23 -19q16 -16 22.5 -36.5t6.5 -61.5v-381zM184 537 q33 0 49.5 20.5t16.5 44.5q0 23 -15.5 43.5t-48.5 20.5q-35 0 -52 -19.5t-17 -44.5t17 -45t50 -20zM436 74h119q43 0 55.5 20.5t12.5 46.5v377q0 23 -13 45q-10 18 -31.5 35.5t-62.5 26.5q0 -49 -12 -75t-27.5 -45.5t-28 -42t-12.5 -67.5v-321z" />
<glyph unicode="&#xe0b;" horiz-adv-x="856" d="M580 711q41 23 75.5 60.5t67.5 76.5l55 -49q-23 -29 -47 -56q-23 -23 -50.5 -45t-62.5 -36q16 -4 28.5 -11.5t23.5 -13.5q10 -8 20 -12q41 -35 41 -88v-404q0 -70 -38 -101.5t-99 -31.5h-299v74h84v332q0 41 13.5 64.5t30.5 45t30.5 49t13.5 76.5q0 31 -19.5 53.5 t-41.5 28.5l-93 -61l-98 65q-25 -8 -40 -23.5t-24.5 -32t-13.5 -30.5t-4 -20q10 10 26.5 18t47.5 8q53 -2 92 -32.5t39 -96.5q0 -59 -44 -91t-91 -32q-72 0 -114 46t-44 130q0 14 4 42t17.5 61t41 64.5t72.5 52.5q10 4 21.5 6t13.5 2q8 0 12 -2l86 -64l88 66q27 -6 50 -19 q20 -10 42.5 -29.5t38.5 -50.5q10 0 19.5 2.5t15.5 4.5q9 2 13 4zM463 74h123q35 0 48 18.5t13 46.5v385q0 37 -29.5 60.5t-76.5 40.5q0 -49 -12.5 -75t-27 -46.5t-26.5 -43t-12 -69.5v-317zM203 457q35 0 52 20.5t17 44.5q0 25 -16 45.5t-51 20.5t-51.5 -20.5t-16.5 -45.5 t16.5 -45t49.5 -20z" />
<glyph unicode="&#xe0c;" horiz-adv-x="1173" d="M1061 788v-788h-82q-4 8 -18.5 31.5t-40 52.5t-61.5 60.5t-83 56.5q4 -6 6 -16.5t4 -20.5t2 -18.5v-10.5q0 -53 -37.5 -98t-101.5 -45q-25 0 -48 10t-43.5 28.5t-33 45t-12.5 57.5q0 63 36 104.5t93 47.5v290q0 37 -17.5 66t-47 48.5t-68.5 29.5t-82 10 q-53 0 -108.5 -16.5t-96.5 -50.5q23 -4 46.5 -17.5t45.5 -28.5q25 -16 49 -34q-43 -10 -67.5 -34t-34.5 -50q-12 -31 -14 -68v-194q10 6 25.5 8t31.5 2q66 0 96.5 -38t30.5 -85t-31.5 -88t-95.5 -41q-53 0 -97 31.5t-44 97.5v309q0 51 23.5 93t62.5 55q-16 16 -43 26t-51 19 q-29 8 -60 14q41 59 95.5 91t103.5 48q57 18 117 21q61 0 117.5 -11.5t100.5 -37t69.5 -68.5t25.5 -107v-286q23 -4 56.5 -17.5t69.5 -35t69.5 -50t58.5 -65.5v667h84zM299 182q-33 0 -49.5 -19.5t-16.5 -41.5q0 -23 16.5 -43.5t51.5 -20.5q33 0 48.5 20.5t15.5 43.5 t-15.5 42t-50.5 19zM649 59q29 0 48.5 22.5t19.5 57.5q0 33 -19.5 56.5t-48.5 23.5t-48 -23.5t-19 -56.5q0 -35 19 -57.5t48 -22.5z" />
<glyph unicode="&#xe0d;" horiz-adv-x="1146" d="M162 438q0 47 25.5 88t58.5 54q-20 16 -47 26t-49 19q-27 8 -56 14q39 59 92.5 91t100.5 48q55 18 114 21q61 0 115.5 -11.5t96.5 -38t65.5 -68.5t23.5 -103v-504h175q74 0 73 80v634h84v-634q0 -68 -35.5 -111t-117.5 -43h-312v74h49v504q0 37 -17 65.5t-45 48 t-64.5 28.5t-75.5 9q-53 0 -104.5 -17.5t-88.5 -52.5q23 -6 47.5 -18t44.5 -27q23 -16 45 -34q-43 -10 -67.5 -34t-34.5 -50q-12 -31 -14 -66v-192q20 10 49 10q68 0 101.5 -41t33.5 -88t-31.5 -86t-95.5 -39q-53 0 -96 31.5t-43 97.5v315v0zM297 184q-33 0 -48.5 -19.5 t-15.5 -41.5q0 -23 15.5 -43.5t48.5 -20.5t49 19.5t16 44.5q0 23 -15 42t-50 19zM549 -203q0 47 31.5 89t103.5 42q66 0 96.5 -41t30.5 -86q0 -23 -8 -43t-25 -30q63 0 98 31.5t52 68.5q20 43 24 98h82q0 -72 -25.5 -124t-67.5 -85.5t-93 -50t-103 -16.5q-78 0 -136 37.5 t-60 109.5zM680 -137q-33 0 -48.5 -19.5t-15.5 -42.5t15.5 -41t48.5 -18t48 18.5t15 40.5q0 23 -15 42.5t-48 19.5z" />
<glyph unicode="&#xe0e;" horiz-adv-x="927" d="M815 569v-856l-133 -100q-16 14 -45 37q-25 18 -66 44.5t-102 61.5q-8 -27 -20.5 -53.5t-33 -48t-51 -34.5t-75.5 -13q-72 0 -108 41t-36 98q0 37 14.5 64.5t38 44t53.5 24.5t60 8q29 0 63 -12t38 -14q4 20 5 40.5t3 37.5q2 18 0 34l78 -20q0 -16 -2 -46t-11 -77 q59 -33 112.5 -65.5t72.5 -51.5l61 56v796q0 78 -65.5 121t-153.5 43q-51 0 -103.5 -16.5t-97.5 -50.5q27 -6 51.5 -18.5t45.5 -27.5q23 -16 47 -34q-43 -8 -68 -33t-35 -53q-12 -33 -14 -70v-309q0 -53 -39 -89t-98 -36q-66 0 -98.5 41t-32.5 88t32.5 86t98.5 39 q16 0 31.5 -2t21.5 -6v178q0 78 26.5 113.5t59.5 52.5q-20 16 -48 26t-50 19q-27 8 -56 12q37 59 94.5 91t110.5 48q63 18 129 21q129 0 212 -62t83 -168zM199 55q35 0 50 20.5t15 43.5t-15.5 42t-49.5 19q-33 0 -48.5 -19.5t-15.5 -41.5q0 -23 15.5 -43.5t48.5 -20.5z M295 -322q23 2 45 15q18 10 34.5 32.5t20.5 63.5q-29 10 -54.5 17.5t-45.5 7.5q-33 0 -52.5 -20.5t-19.5 -49.5q0 -35 24.5 -50.5t47.5 -15.5z" />
<glyph unicode="&#xe0f;" horiz-adv-x="927" d="M815 569v-882l-110 -70l-99 88l-106 -94q-8 10 -21 24q-10 12 -24.5 29t-36.5 37q-12 -37 -36 -57.5t-47.5 -29.5t-42 -10t-22.5 -1q-51 0 -91 34.5t-40 102.5q0 57 43 92t99 35q49 0 92 -31l16 141l78 -18q-6 -47 -12 -89t-15 -83q18 -18 30.5 -32.5t23.5 -24.5 q10 -12 18 -21l94 80l88 -76l39 19v827q0 41 -17.5 72t-48 53.5t-70.5 33.5t-83 11q-51 0 -103.5 -16.5t-97.5 -50.5q29 -8 53.5 -20.5t45.5 -27.5q23 -16 43 -32q-43 -8 -68 -33t-35 -53q-12 -33 -14 -72v-307q0 -53 -38 -88t-97 -35q-66 0 -99.5 41t-33.5 88t33.5 86 t99.5 39q16 0 30.5 -3t22.5 -7v174q0 78 24.5 116.5t59.5 51.5q-16 16 -43 26t-51 19q-29 8 -60 14q37 59 94.5 91t110.5 48q63 18 129 21q131 0 213 -62t82 -168zM201 55q35 0 50 19.5t15 44.5t-15 44t-50 19q-33 0 -49.5 -19.5t-16.5 -43.5q0 -25 16.5 -44.5t49.5 -19.5z M309 -322q12 8 23 19q23 23 28 61q-41 41 -81 41q-35 0 -51.5 -19.5t-16.5 -45.5q0 -29 20.5 -47.5t44.5 -18.5q17 0 33 10z" />
<glyph unicode="&#xe10;" horiz-adv-x="808" d="M543 -59q51 0 79.5 -30t28.5 -79v-135q0 -23 -33 -47l-88 -68l-77 56l-84 -54l-64 76q-8 -23 -35.5 -47.5t-74.5 -24.5q-45 0 -77 28t-32 79q0 47 34 77.5t81 30.5q37 0 71 -22q6 37 7.5 70.5t1.5 56.5v26h63v-26q0 -45 -4 -93t-10 -89l53 -60l70 39l77 -49 q35 29 43.5 38t8.5 23q0 12 -2 23q-6 -4 -13.5 -5t-13.5 -3q-8 -2 -12 0q-53 2 -79 33.5t-26 70.5q0 41 27 73t80 32zM205 -354q16 0 28.5 8t19.5 19.5t11 20.5l4 9q-10 16 -22.5 25.5t-22.5 13.5q-12 6 -24 6q-27 0 -40.5 -15.5t-13.5 -33.5t12.5 -34.5t47.5 -18.5z M545 -215q27 0 40 15.5t13 35.5t-13.5 35.5t-39.5 15.5q-27 0 -40 -15t-13 -36q0 -20 13 -35.5t40 -15.5zM373 729q-72 -4 -106 -31.5t-38 -38.5q82 -4 138.5 -12t91.5 -14q41 -8 65 -15q78 -25 100.5 -61.5t22.5 -83.5v-24.5t-2 -26.5l-33 -422h-86q-12 41 -28 90 q-14 41 -36 96.5t-54 114.5q-33 -59 -115 -59q-63 2 -95 43t-32 88t32.5 87t102.5 40q43 0 75 -16.5t52 -61.5l111 -238l26 277q0 55 -41 78.5t-108 33.5q-31 4 -76 9q-39 4 -96.5 6t-134.5 2q4 31 23.5 67.5t52 67.5t77.5 51.5t100 20.5q43 0 80 -7.5t69 -16.5t58.5 -16 t46.5 -7q23 0 39.5 11t26.5 40q0 2 6 -4q4 -4 16.5 -14.5t32.5 -28.5q-18 -39 -44.5 -59.5t-51.5 -20.5q-33 0 -64.5 9t-63.5 19.5t-63.5 18.5t-66.5 8h-10zM299 303q33 0 49.5 20.5t16.5 47.5t-16.5 47t-49.5 20t-49.5 -20.5t-16.5 -46.5q0 -27 16.5 -47.5t49.5 -20.5z" />
<glyph unicode="&#xe11;" horiz-adv-x="1060" d="M391 449q0 29 12.5 49t27.5 39.5t27.5 39t12.5 44.5q0 41 -20.5 64.5t-40.5 35.5l-97 -57l-102 67q-33 -14 -55.5 -48t-24.5 -52q0 -2 13.5 6t52.5 8q47 0 88 -30.5t41 -96.5q0 -33 -13.5 -57.5t-33 -39.5t-43 -22.5t-43.5 -7.5q-45 0 -74 17.5t-45.5 42t-22.5 53 t-6 53.5q0 63 19.5 108.5t46 75t54.5 44t46 14.5q4 0 6 -1t4 -1l92 -62l101 62q23 -8 47 -24.5t43.5 -39t32 -52.5t12.5 -63t-12.5 -52t-25.5 -35.5t-25.5 -37t-12.5 -55.5v-202q66 141 102.5 221t57.5 123q23 51 31 67q10 20 22 46t28.5 49.5t37 39t45.5 15.5 q41 0 69.5 -17.5t47 -43t26.5 -55.5t8 -52v-629h-82v629q0 23 -13 53.5t-54 30.5q-12 0 -29.5 -29t-38 -70t-41 -87t-37.5 -81q-59 -125 -101 -220t-63 -169q-8 -27 -9 -38t-3 -19h-86v449v0zM193 455q31 0 47 21.5t16 45.5q0 25 -15.5 44.5t-47.5 19.5q-35 0 -51.5 -20.5 t-16.5 -45.5t16.5 -45t51.5 -20z" />
<glyph unicode="&#xe12;" horiz-adv-x="1230" d="M455 530q-33 0 -49.5 -21.5t-16.5 -45.5q0 -27 16.5 -47.5t49.5 -20.5t49 21.5t16 48.5q0 25 -15 45t-50 20zM1034 791h84v-791h-90q-18 49 -53 90q-29 35 -75 69t-112 50q10 -16 13.5 -34.5t3.5 -35.5q0 -61 -40 -104t-99 -43q-57 0 -97.5 43t-40.5 104q0 59 44 103.5 t122 44.5h4v250q0 20 -1 44.5t-7 48t-19.5 45t-37.5 36.5q-8 6 -21 6q-12 0 -22 -6l-113 -72l-92 66q-12 10 -27 10q-4 0 -6 -1t-4 -1q-27 -8 -54.5 -27.5t-48 -47.5t-33.5 -59.5t-13 -66.5q0 -33 9 -71t22.5 -76.5t26.5 -73.5t22 -64q10 -37 10 -67q23 31 45 61.5t43 57.5 q23 31 45 57q-51 14 -75.5 51t-24.5 78q0 49 33.5 89t99.5 40q35 0 59.5 -12.5t40.5 -33t24.5 -44t8.5 -47.5q0 -23 -8.5 -42.5t-18.5 -37.5q-6 -8 -17.5 -22.5t-23.5 -28t-22.5 -24.5t-14.5 -15q-33 -37 -66.5 -84t-61 -90t-46 -75t-22.5 -38h-97q10 29 15.5 54.5t5.5 54.5 t-6 61q-4 25 -19.5 68t-31 91t-27.5 98t-12 91q0 47 17.5 92t47 82t66.5 63.5t76 35.5q10 2 17 2h15q27 0 41 -13q4 -2 15 -10q10 -6 25.5 -17.5t41.5 -33.5l90 63q18 12 35 13q8 0 12 -2q84 -23 126 -82.5t42 -173.5v-256q35 -6 72 -19.5t72 -34t63.5 -45t44.5 -53.5v662z M666 59q29 0 48 22.5t19 57.5q0 41 -19.5 59.5t-47.5 18.5q-29 0 -47.5 -22.5t-18.5 -55.5q0 -35 18.5 -57.5t47.5 -22.5z" />
<glyph unicode="&#xe13;" horiz-adv-x="1222" d="M891 203q-37 -12 -68.5 -41t-56.5 -60.5t-40 -60.5t-19 -41h-86v578q0 31 -17.5 58.5t-47.5 48t-70 32.5t-85 12q-47 0 -95 -18.5t-85 -48.5q27 -6 51.5 -19.5t44.5 -28.5q23 -16 45 -34q-43 -10 -67.5 -34t-34.5 -48q-12 -29 -14 -64v-196q20 10 55 10q66 0 97.5 -40 t31.5 -87t-31.5 -87t-97.5 -40q-53 0 -96 31.5t-43 97.5v311q0 14 3 33.5t12 40t26.5 40t44.5 32.5q-16 16 -43 26t-51 19q-29 8 -60 14q41 59 94.5 91t100.5 48q55 18 114 21q55 0 105.5 -11.5t91.5 -35.5q49 -31 77 -76t28 -98v-457q14 31 41.5 59.5t63.5 52t74 40 t72 22.5v493h84v-497q41 -6 63.5 -29.5t33.5 -50.5q12 -31 14 -66q0 -27 -7 -53t-23.5 -47.5t-42 -36t-60.5 -14.5q-20 0 -45 6t-44.5 22.5t-33.5 44t-16 70.5v4q0 8 2 26t10 36zM299 184q-33 0 -49.5 -19.5t-16.5 -41.5q0 -23 16.5 -43.5t51.5 -20.5q33 0 48.5 20.5 t15.5 43.5t-15.5 42t-50.5 19zM1016 219q-33 0 -49.5 -24.5t-16.5 -55.5q0 -29 16.5 -54.5t49.5 -25.5t49 25t16 55q0 31 -16 55.5t-49 24.5z" />
<glyph unicode="&#xe14;" horiz-adv-x="874" d="M678 518q0 25 -9.5 58.5t-34 64.5t-67.5 53.5t-112 26.5q-55 0 -101.5 -18.5t-79 -48t-51 -67.5t-18.5 -77q0 -92 22.5 -170t32.5 -125q4 -16 5 -30.5t1 -18.5q-4 -10 -6 -18.5t-2 -10.5l4 8q2 4 2 9q12 20 37 51t49.5 60.5t41.5 50.5l18 20q-51 14 -76 50t-25 77 q0 49 34 90t99 41q35 0 59.5 -12.5t41 -33t24.5 -44t8 -47.5q0 -35 -17 -65t-50 -62q-18 -18 -45 -51t-56.5 -70t-55 -71l-40.5 -54q-10 -16 -25.5 -43t-23.5 -41h-94q10 29 14 56.5t4 52.5q0 23 -2 41t-6 32q-2 20 -12 61.5t-20.5 87.5t-18.5 88t-8 66q0 82 30.5 140.5 t78.5 96.5t106.5 56.5t114.5 18.5q53 0 108 -15.5t101.5 -48.5t75 -83t28.5 -120v-530h-84v518zM442 395q33 0 49.5 21.5t16.5 48.5q0 25 -15.5 45t-48.5 20q-35 0 -50 -21.5t-15 -45.5q0 -27 15 -47.5t48 -20.5z" />
<glyph unicode="&#xe15;" horiz-adv-x="892" d="M614 793q82 -23 124 -82.5t42 -173.5v-537h-82v537q0 20 -1 44.5t-8 48t-20.5 45t-37.5 36.5q-6 6 -21 6q-12 0 -22 -6l-111 -72l-92 66q-12 10 -29 10q-4 0 -6 -1t-4 -1q-27 -8 -53.5 -27.5t-48 -47.5t-33.5 -59.5t-12 -66.5q0 -33 9 -71t21.5 -75.5t25.5 -73.5t21 -65 q4 -16 7.5 -34.5t3.5 -28.5q2 0 0 -4t-8 -23q6 12 8 18.5t6 10.5l4 6q20 29 41.5 57.5t40 52t29.5 38.5l12 16q-51 14 -74.5 50t-23.5 77q0 49 32.5 90t98.5 41q35 0 59.5 -12.5t40.5 -33t24.5 -44t8.5 -47.5q0 -39 -27 -80q-6 -8 -16.5 -21.5t-22.5 -27t-23.5 -24.5 t-15.5 -15q-33 -39 -66.5 -86t-61 -90t-45 -75t-21.5 -38h-97q18 53 19 104q0 31 -6 68q-4 25 -18.5 67t-30 91t-27.5 98t-12 90q0 47 17.5 92t47 82t66.5 63.5t76 35.5q12 4 24 4q27 0 47 -15q4 -2 15 -10q10 -6 25.5 -17.5t41.5 -33.5l92 63q16 12 33 13q10 0 14 -2z M455 530q-35 0 -50.5 -21.5t-15.5 -45.5q0 -27 15.5 -47.5t48.5 -20.5t50 21.5t17 48.5q0 25 -16 45t-49 20z" />
<glyph unicode="&#xe16;" horiz-adv-x="851" d="M434 799q59 0 113.5 -13.5t97.5 -41t68.5 -71.5t25.5 -108v-565h-84v565q0 41 -18.5 71t-49 51.5t-71.5 31.5t-84 10q-53 0 -107.5 -16.5t-95.5 -50.5q25 -6 50.5 -18.5t46.5 -27.5q23 -16 45 -34q-43 -10 -67.5 -34t-35.5 -48q-12 -29 -14 -64v-200q16 12 49 12 q68 0 101.5 -40t33.5 -89q0 -47 -31.5 -87t-95.5 -40q-53 0 -97 32.5t-44 98.5v303q0 63 25.5 103t60.5 51q-18 16 -44 26t-50 19q-29 8 -60 14q41 59 96.5 91t108.5 48q61 19 127 21zM307 184q-33 0 -49 -19.5t-16 -43.5q0 -25 16 -44.5t49 -19.5q35 0 50.5 19.5t15.5 44.5 t-15.5 44t-50.5 19z" />
<glyph unicode="&#xe17;" horiz-adv-x="911" d="M240 545q-14 -4 -29.5 -6t-30.5 -2q-66 2 -96.5 41.5t-30.5 87.5q0 49 33 91t96 42q72 0 107 -39t35 -98v-383q47 121 84.5 205.5t66.5 138.5q33 63 57 104q16 23 46 47.5t61 24.5q37 0 66.5 -14.5t50 -39t32 -55.5t11.5 -61v-629h-84v629q0 10 -3 24.5t-10.5 27.5 t-19.5 23.5t-33 12.5h-2q-16 0 -29.5 -14.5t-27.5 -32.5q-35 -49 -78 -135t-81 -183.5t-67.5 -191.5t-39.5 -160h-84v545v0zM182 602q35 0 52.5 21.5t17.5 46.5t-16.5 45t-51.5 20h-2q-31 0 -46 -19.5t-15 -43.5q0 -27 16 -48.5t45 -21.5z" />
<glyph unicode="&#xe18;" horiz-adv-x="770" d="M510 575q43 -6 67.5 -24.5t37 -42t16.5 -49t4 -45.5v-281q0 -57 -31 -95t-104 -38h-346v74h90v405h82v-405h159q41 0 54.5 20.5t13.5 46.5v287q0 37 -24.5 61.5t-65.5 30.5q-27 4 -84 10.5t-115.5 11.5t-106.5 9t-59 4q10 51 33 94q12 23 27 45q41 61 103.5 82t123.5 21 q78 0 139.5 -31t106.5 -49q8 -4 16 -6q16 -2 43 0l19 4l-7 -66q-6 0 -12 -2t-18 -2q-37 -2 -69 10.5t-65.5 28.5t-73.5 29.5t-91 13.5q-8 0 -31 -3t-49.5 -14.5t-51 -34t-34.5 -63.5q145 -12 223 -24l80 -13v0z" />
<glyph unicode="&#xe19;" horiz-adv-x="921" d="M674 788h84v-497q41 -4 62.5 -27.5t31.5 -50.5q12 -31 14 -68q0 -23 -7 -49t-22.5 -49.5t-41 -39t-62.5 -15.5q-53 0 -93 33.5t-46 107.5v2q0 8 3 33t17 53q-14 -2 -32 -10q-16 -6 -36 -15.5t-44 -25.5q-41 -27 -87 -71t-81 -99h-94v545h-4q-6 -2 -20.5 -6t-33.5 -4 q-20 0 -43.5 7t-46.5 27q-16 16 -27.5 42t-11.5 57q0 51 35 92q18 23 45 32t53 9q45 0 74 -19q41 -29 52.5 -60.5t11.5 -72.5v-534q2 0 15 16t38.5 37.5t62.5 46.5t84 43l56 18q23 8 48 13.5t46 5.5v493zM733 219q-33 0 -49 -24.5t-16 -55.5t16 -55.5t49 -24.5t49.5 25 t16.5 55q0 31 -16.5 55.5t-49.5 24.5zM184 733q-33 0 -49 -20.5t-16 -44.5q0 -25 16.5 -46.5t48.5 -21.5q35 0 50.5 21.5t15.5 46.5t-15.5 45t-50.5 20z" />
<glyph unicode="&#xe1a;" horiz-adv-x="901" d="M242 545q-20 -8 -56 -8q-68 0 -100.5 39.5t-32.5 89.5q0 49 34 91t99 42q72 0 106 -44t34 -98v-583h309q33 0 51.5 21.5t18.5 54.5v638h83v-636q0 -76 -40.5 -114t-118.5 -38h-471v74h84v471v0zM186 600q33 0 49.5 21.5t16.5 48.5q0 25 -15.5 45t-50.5 20 q-33 0 -49 -21.5t-16 -45.5q0 -27 16 -47.5t49 -20.5z" />
<glyph unicode="&#xe1b;" horiz-adv-x="905" d="M248 545q-10 -4 -24.5 -6t-30.5 -2q-68 0 -102 39.5t-34 89.5q0 49 35 91t101 42q72 0 104.5 -44t32.5 -98v-583h309q33 0 52.5 21.5t19.5 54.5v917h82v-915q0 -152 -158 -152h-473v74h86v471v0zM193 600q33 0 49 20.5t16 47.5q0 25 -16.5 46t-48.5 21q-33 0 -49.5 -20.5 t-16.5 -46.5q0 -27 16.5 -47.5t49.5 -20.5z" />
<glyph unicode="&#xe1c;" horiz-adv-x="886" d="M440 365h45l207 -218v641h82v-788h-82q0 29 -17.5 55.5t-27.5 36.5l-184 197q-66 -68 -105 -109t-61 -63q-25 -27 -33 -37q-37 -39 -37 -80h-84v653q0 61 34 102.5t99 41.5q72 0 106 -41t34 -90t-34 -90t-99 -41q-10 0 -21 2q-10 2 -18 3t-17 5v-398zM283 735 q-35 0 -51.5 -20.5t-16.5 -44.5q0 -27 16.5 -48.5t51.5 -21.5q33 0 48 21.5t15 46.5t-15 46t-48 21z" />
<glyph unicode="&#xe1d;" horiz-adv-x="886" d="M440 365h43l207 -218v920h84v-1067h-82q0 29 -18.5 55.5t-28.5 36.5l-182 197q-66 -68 -105 -109t-61 -63q-25 -27 -35 -37q-18 -18 -26.5 -40t-8.5 -40h-84v653q0 61 34 102.5t97 41.5q72 0 106 -41t34 -90t-33 -90t-98 -41q-12 0 -23 2q-10 2 -18.5 3t-16.5 5v-398z M283 735q-35 0 -51.5 -20.5t-16.5 -44.5q0 -27 16.5 -48.5t51.5 -21.5q31 0 46 21.5t15 46.5t-15 46t-46 21z" />
<glyph unicode="&#xe1e;" horiz-adv-x="976" d="M782 791h82v-791h-84q-4 23 -7 37t-7 24l-6 19q-6 12 -29 74q-20 53 -62 158.5t-118 295.5q-72 -186 -113 -288.5t-61 -153.5q-23 -59 -27 -72q-2 -8 -6 -20q-6 -20 -18 -74h-84v545q-8 -4 -18.5 -5t-18.5 -3t-19 -2q-61 0 -97 37.5t-36 89.5q0 53 31 95t102 42 q39 0 64.5 -13.5t42 -35t24 -45t7.5 -46.5v-430l211 529h34l213 -531v564zM186 600q35 0 50.5 20.5t15.5 47.5t-15.5 47t-50.5 20q-33 0 -49 -20.5t-16 -46.5q0 -27 16 -47.5t49 -20.5z" />
<glyph unicode="&#xe1f;" horiz-adv-x="976" d="M782 1067h82v-1067h-84q-4 23 -7 37t-7 24l-6 19q-6 12 -29 74q-20 53 -62 158.5t-118 295.5q-72 -186 -113 -288.5t-61 -153.5q-23 -59 -27 -72q-2 -8 -6 -20q-6 -20 -18 -74h-84v545q-8 -4 -18.5 -5t-18.5 -3t-19 -2q-61 0 -97 37.5t-36 89.5q0 53 31 95t102 42 q39 0 64.5 -13.5t42 -35t24 -45t7.5 -46.5v-430l211 529h34l213 -531v840zM186 600q35 0 50.5 20.5t15.5 47.5t-15.5 47t-50.5 20q-33 0 -49 -20.5t-16 -46.5q0 -27 16 -47.5t49 -20.5z" />
<glyph unicode="&#xe20;" horiz-adv-x="921" d="M514 799q53 0 105.5 -13.5t94.5 -41t68.5 -69.5t26.5 -100v-575h-82v575q0 35 -17.5 64t-48 49.5t-69.5 30.5t-82 10q-51 0 -103.5 -16.5t-97.5 -50.5q-2 0 41 -16.5t101 -65.5q-43 -8 -68 -32t-35 -52q-12 -33 -14 -70v-307q0 -18 -8.5 -41t-24.5 -41.5t-42 -30.5 t-60 -12q-66 0 -99.5 41t-33.5 88t32.5 86t100.5 39q16 0 30.5 -3t20.5 -7v186q0 61 25.5 101t60.5 55q-16 16 -43 26t-51 19q-29 8 -60 14q41 59 97.5 91t109.5 48q62 19 125 21zM199 57q33 0 48 19.5t15 42.5q0 25 -14.5 45t-48.5 20q-35 0 -50.5 -19.5t-15.5 -41.5 q0 -25 16.5 -45.5t49.5 -20.5z" />
<glyph unicode="&#xe21;" horiz-adv-x="917" d="M723 788h82v-788h-92q-20 35 -60.5 68.5t-87.5 62.5t-96 48.5t-88 27.5q4 -14 6 -32.5t2 -35.5q0 -25 -7 -51.5t-24.5 -47t-44 -33.5t-63.5 -13q-59 0 -99 41t-40 102q0 55 23.5 87t54 47.5t61.5 19.5t45 4v250q-12 -4 -25.5 -7t-29.5 -3q-66 0 -100 41.5t-34 91.5 q0 59 39 94t101 35q66 0 98.5 -42t32.5 -96v-370q68 -14 126 -39t103 -49.5t76 -47t41 -32.5v667zM240 600q35 0 50 20.5t15 47.5t-15.5 47t-49.5 20q-33 0 -49.5 -20.5t-16.5 -46.5q0 -27 16.5 -47.5t49.5 -20.5zM248 61q29 0 48 22.5t19 55.5t-16 55.5t-51 24.5 q-29 0 -47.5 -23.5t-18.5 -56.5t18.5 -55.5t47.5 -22.5z" />
<glyph unicode="&#xe22;" horiz-adv-x="839" d="M317 799q74 0 107 -42t33 -95q0 -47 -31 -85t-96 -38q-27 0 -49.5 9t-38 20.5t-23.5 20.5l-8 9q-2 -10 -3 -18.5t-1 -16.5q0 -47 24.5 -75.5t58.5 -43t70.5 -18.5t59.5 -4q2 0 2 -10.5v-24.5v-25.5t-2 -11.5h-43q-23 0 -40.5 -2t-31.5 -10q-29 -20 -40 -57t-11 -72v-135 h317q41 0 56.5 24.5t15.5 48.5v641h84v-641q0 -63 -37 -105t-117 -42h-403v205q0 14 2 40.5t11.5 54.5t27.5 51.5t49 31.5q-76 25 -108.5 78t-32.5 112q0 41 14 82t41 73t62.5 51.5t80.5 19.5zM328 737q-33 0 -49.5 -20.5t-16.5 -46.5q0 -27 16.5 -47.5t49.5 -20.5 q35 0 50 20.5t15 47.5t-15 47t-50 20z" />
<glyph unicode="&#xe23;" horiz-adv-x="706" d="M233 705q-16 -10 -30 -25q-12 -12 -25.5 -29.5t-21.5 -40.5q82 -10 132 -16t79 -10q35 -6 49 -9q51 -6 78.5 -26.5t40 -45t14.5 -46t2 -31.5v-270q0 -41 -10.5 -78t-51.5 -64q-12 -8 -31.5 -15t-41.5 -7q-29 0 -57.5 12t-47.5 35q-16 16 -23 40.5t-7 47.5q0 61 39.5 95 t91.5 34q25 0 42 -4t13 -4v170q0 31 -9 49t-22.5 28.5t-30 13.5t-30.5 5q-59 8 -117 16q-49 6 -103.5 12.5t-95.5 10.5q6 45 23.5 80t36.5 59q23 29 47 49q31 27 67.5 42.5t92.5 15.5q31 0 59.5 -7.5t53 -16.5t45 -17t32.5 -8q23 0 37 8t31 30l53 -43q-10 -25 -27.5 -39 t-35 -21t-33 -9t-21.5 -2q-23 2 -64.5 22.5t-99.5 28.5q-10 2 -18 2h-16q-29 0 -51 -6t-38 -16zM414 193q-29 0 -47.5 -19.5t-18.5 -48.5t18.5 -48.5t47.5 -19.5t47 19.5t18 48.5t-18 48.5t-47 19.5z" />
<glyph unicode="&#xe24;" horiz-adv-x="843" d="M434 799q63 0 117.5 -15.5t94.5 -45t62.5 -75t22.5 -104.5v-883h-84v895q0 37 -18.5 67t-49 50.5t-71.5 30.5t-84 10q-53 0 -106.5 -16.5t-96.5 -50.5q25 -6 50.5 -18.5t45.5 -27.5q23 -16 45 -34q-43 -8 -67.5 -33t-34.5 -51q-12 -31 -14 -68v-192q8 4 24.5 7t32.5 3 q66 0 96.5 -38t30.5 -85q0 -49 -32.5 -90t-94.5 -41q-53 0 -97 31.5t-44 97.5v301q0 68 25.5 105.5t60.5 50.5q-16 16 -43 26t-51 19q-29 8 -60 14q39 59 96.5 91t110.5 48q63 19 133 21zM299 184q-33 0 -49.5 -19.5t-16.5 -41.5q0 -23 16.5 -43.5t49.5 -20.5q31 0 47 20.5 t16 43.5t-15 42t-48 19z" />
<glyph unicode="&#xe25;" horiz-adv-x="827" d="M82 598q16 39 45 76t71 64.5t95 44t121 16.5q51 0 104 -13.5t97 -44t72 -82t28 -129.5v-530h-84q0 18 -12.5 62t-32 100.5t-46 118t-56 111.5t-59.5 83t-58 33q-27 0 -52.5 -28.5t-44 -69.5t-30 -83t-11.5 -71q0 -12 2 -16q10 6 22.5 8t22.5 4q12 2 25 2q35 0 58.5 -14.5 t39.5 -34.5q29 -39 26 -87t-26 -79q-33 -47 -104 -47q-59 0 -92 32.5t-45 75.5q-10 37 -11 95q0 35 4.5 68.5t8.5 58.5q6 35 21.5 78.5t42 82.5t64.5 67t89 28q29 0 52.5 -13.5t44 -34t37.5 -46t32 -52.5q27 -45 48 -94t42 -96v270q0 74 -27.5 116t-64.5 63.5t-74 27.5 t-55 6q-39 0 -79 -11.5t-75 -33t-61.5 -51t-38.5 -68.5l-76 37v0zM293 190q-33 0 -49.5 -20t-16.5 -47t16.5 -47.5t49.5 -20.5q35 0 50 20.5t15 47.5t-15 47t-50 20z" />
<glyph unicode="&#xe26;" horiz-adv-x="925" d="M520 799q78 0 133.5 -19.5t91 -50.5t52 -68.5t16.5 -74.5v-910h-82v899q0 35 -17.5 64t-48 48.5t-70.5 30.5t-83 11q-51 0 -102.5 -16.5t-96.5 -50.5q27 -6 51.5 -18.5t45.5 -27.5q23 -16 47 -34q-43 -10 -66.5 -33t-34.5 -49q-12 -31 -16 -66v-315q0 -20 -8 -42 t-24.5 -40.5t-42 -30.5t-62.5 -12q-66 0 -99.5 41t-33.5 90q0 47 32.5 85t98.5 38q16 0 31.5 -3t23.5 -7v186q0 66 24.5 103.5t59.5 52.5q-14 16 -40 26t-50 19q-29 8 -62 14q37 59 93.5 91t109.5 48q63 19 129 21zM203 59q33 0 48 20.5t15 43.5t-15 42t-48 19t-49.5 -19.5 t-16.5 -41.5q0 -23 16.5 -43.5t49.5 -20.5z" />
<glyph unicode="&#xe27;" horiz-adv-x="696" d="M16 596q10 31 30 66.5t54.5 65.5t86 50.5t124.5 20.5q66 0 117 -20.5t86 -54.5t52.5 -79t17.5 -92v-430q0 -18 -6.5 -41t-21.5 -42.5t-41 -33.5t-66 -14q-66 0 -101 41t-35 90q0 47 33 85t100 38q14 0 32 -3t22 -7v317q0 70 -47 121t-142 51q-59 0 -99 -16.5t-64.5 -41 t-38 -53t-19.5 -53.5l-74 35v0zM446 59q33 0 48.5 20.5t15.5 43.5t-15.5 42t-48.5 19t-48 -19.5t-15 -41.5q0 -23 15 -43.5t48 -20.5z" />
<glyph unicode="&#xe28;" horiz-adv-x="872" d="M801 801q-53 -74 -96 -121q23 -31 35 -68t12 -82v-530h-82v520q0 53 -27 101q-35 -29 -62.5 -45.5t-50.5 -24.5q16 -16 23.5 -40t7.5 -46q0 -49 -32.5 -91t-96.5 -44q-53 0 -73.5 16t-26.5 21l-68 -367h-86v182q0 61 -10 98t-21.5 68t-21.5 66t-10 90q0 78 28.5 134 t73.5 92t103.5 52.5t115.5 16.5q59 0 115.5 -16.5t99.5 -49.5q16 16 33 35q31 35 59 82zM428 395q35 0 50.5 20.5t15.5 47.5t-15.5 47t-50.5 20q-33 0 -48 -20.5t-15 -46.5q0 -27 15 -47.5t48 -20.5zM461 592q35 14 68.5 35.5t64.5 48.5q-33 25 -74 37t-84 12t-86 -13.5 t-76.5 -40t-55 -68.5t-21.5 -97q0 -41 7 -73t15 -58.5t15.5 -51t7.5 -51.5q0 -16 -2 -26l28 184q12 74 52 120t112 46q13 0 29 -4z" />
<glyph unicode="&#xe29;" horiz-adv-x="950" d="M797 147q0 -53 -33 -100t-105 -47h-499v74h90v471q-10 -4 -26.5 -6t-30.5 -2q-66 0 -99 42t-33 91t33 89t99 40q74 0 106.5 -44t32.5 -98v-583h309q72 0 72 82v172q-39 -12 -103 -13q-39 0 -77.5 7.5t-71.5 25t-53.5 45t-20.5 68.5q0 18 6 38.5t21.5 39t40 31t61.5 12.5 q68 0 97.5 -38t29.5 -79q0 -23 -7 -44.5t-24 -33.5q8 -2 25 -2q16 0 29.5 2t23.5 4q12 2 23 4v396h84v-357q20 12 44.5 35t49.5 90l59 -41q-20 -66 -66 -103.5t-87 -58.5v-209v0zM514 524q-29 0 -44 -18.5t-15 -40.5q0 -23 15 -42.5t44 -19.5q33 0 48.5 19.5t15.5 42.5 t-15.5 41t-48.5 18zM195 600q35 0 50 21.5t15 46.5t-15.5 46t-49.5 21q-35 0 -50.5 -20.5t-15.5 -46.5q0 -27 16.5 -47.5t49.5 -20.5z" />
<glyph unicode="&#xe2a;" horiz-adv-x="864" d="M772 799q-25 -35 -46 -63.5t-44 -51.5q20 -29 31.5 -67.5t11.5 -86.5v-530h-84q0 18 -12.5 62t-31.5 100.5t-46 118t-56.5 111.5t-60.5 83t-59 33q-27 0 -51.5 -28.5t-43 -69.5t-29.5 -83t-11 -71q0 -14 2 -16q10 6 22 8t23 4q12 2 24 2q35 0 57.5 -13.5t39.5 -31.5 q31 -37 29.5 -85t-23.5 -79q-16 -23 -43 -38t-66 -15q-59 0 -92 32.5t-45 75.5q-6 18 -8 46t-2 59t3 61.5t9 55.5q8 35 22.5 78.5t40 82.5t63.5 67t89 28q51 10 104.5 38.5t81.5 63.5q-23 16 -47 25.5t-45.5 13.5t-38 5t-20.5 1q-37 0 -77 -11.5t-75 -33t-61.5 -51 t-38.5 -68.5l-76 37q16 39 45 76t70 64.5t94 44t121 16.5q53 0 107.5 -13.5t99.5 -46.5q14 16 30 35q14 16 30 35.5t28 40.5zM303 190q-33 0 -49 -20t-16 -47t16 -47.5t49 -20.5t49.5 20.5t16.5 47.5t-16.5 47t-49.5 20zM621 625q-25 -18 -50 -37q-23 -16 -48 -29.5 t-48 -19.5q20 -18 44 -52t45.5 -74t42 -84t34.5 -87v288q0 54 -20 95z" />
<glyph unicode="&#xe2b;" horiz-adv-x="929" d="M817 653q-4 -25 -12 -47q-8 -18 -22.5 -36.5t-41.5 -28.5q10 -10 17.5 -16.5t11.5 -10.5l8 -8q6 -8 13 -17q4 -8 8 -17t4 -23v-449h-84v422q0 6 -4 21.5t-10 25.5q-2 4 -7 10q-4 6 -20 19q-49 -47 -87 -85t-63 -67q-29 -33 -49 -57q-51 -59 -93 -131t-58 -158h-82v543 q-31 -10 -53 -11q-41 0 -70 19q-14 8 -27 18q-39 39 -39 101q0 66 41 97.5t99 31.5q70 0 100.5 -45t30.5 -103v-440q16 29 37.5 56.5t40.5 49.5q23 27 43 52q16 18 38 45q41 47 129 135q-29 10 -43 29.5t-20 39.5q-8 23 -8 50q2 57 37.5 93t101.5 36q59 0 96 -41t37 -92v-11 zM190 600q35 0 50.5 20.5t15.5 47.5t-15.5 47t-50.5 20q-33 0 -48 -20.5t-15 -46.5q0 -27 15 -47.5t48 -20.5zM682 598q35 0 50.5 21.5t15.5 46.5t-15.5 45t-50.5 20q-33 0 -49.5 -20.5t-16.5 -44.5q0 -25 16.5 -46.5t49.5 -21.5z" />
<glyph unicode="&#xe2c;" horiz-adv-x="989" d="M913 885l52 -41q-27 -51 -65 -88t-58 -47v-709h-88q0 4 -5.5 35t-17.5 59l-192 465l-187 -467q-4 -12 -10 -26q-10 -29 -16 -66h-84v545q-16 -4 -29.5 -7t-28.5 -3q-66 2 -98.5 42.5t-32.5 90.5q0 49 34 90t99 41q72 0 106 -43t34 -101v-444l194 487h33l207 -487v465 q-8 -4 -18.5 -5t-18.5 -1q-66 0 -97.5 40t-31.5 89q0 53 36 87t93 34q49 0 86 -36t37 -87q12 10 23.5 24.5t21.5 28.5q10 17 22 35zM186 602q35 0 50.5 21.5t15.5 46.5t-15.5 45t-50.5 20q-33 0 -48 -20.5t-15 -44.5q0 -25 15 -46.5t48 -21.5zM719 735q31 0 45 19.5t14 42.5 t-14 41t-45 18q-29 0 -44.5 -18.5t-15.5 -40.5q0 -23 15.5 -42.5t44.5 -19.5z" />
<glyph unicode="&#xe2d;" horiz-adv-x="817" d="M399 799q61 0 117.5 -15.5t101 -48.5t71 -80t26.5 -112v-385q0 -33 -6.5 -61.5t-23.5 -50t-50 -34t-86 -12.5h-225q-90 0 -124 38t-34 114v270q0 16 5 40.5t20.5 48.5t43 41t72.5 17q61 0 95 -43t34 -96q0 -47 -31.5 -87t-97.5 -42q-14 0 -28.5 4t-30.5 8v-161 q0 -53 24.5 -65.5t59.5 -12.5h207q63 0 77.5 25.5t14.5 58.5v391q0 37 -18.5 68.5t-49.5 55t-72.5 37t-89.5 13.5q-68 0 -115.5 -15.5t-78.5 -39t-48.5 -52t-25.5 -55.5l-72 35q10 31 27 55q25 41 61.5 70t77.5 46t86 24.5t86 7.5zM303 502q-33 0 -49 -20.5t-16 -45.5 t16 -46t49 -21t49.5 21.5t16.5 45.5q0 25 -16.5 45.5t-49.5 20.5z" />
<glyph unicode="&#xe2e;" horiz-adv-x="823" d="M145 356q0 16 5.5 40t20.5 45.5t42 38t72 16.5q66 0 97.5 -39t31.5 -86t-32 -88t-95 -41q-16 0 -31.5 4t-26.5 8v-109q0 -25 18.5 -48t63.5 -23h226q33 0 59.5 14t26.5 59v394q0 41 -4.5 57t-12.5 27q-37 -29 -77 -42.5t-74 -21.5q-39 -8 -80 -10q-45 0 -90 6t-81 19.5 t-58.5 36t-22.5 55.5q0 27 12 45t33 35q37 29 96.5 40t122.5 11q45 0 88 -8q37 -6 75 -20.5t66 -43.5q20 18 41 45t39 55l56 -51q-14 -18 -31 -39q-14 -16 -28.5 -32.5t-24.5 -26.5q20 -23 29.5 -50.5t9.5 -49.5v-445q0 -14 -4.5 -36.5t-20.5 -44t-49 -37t-92 -15.5h-234 q-72 0 -117 34t-45 105v217zM565 680q-18 20 -49 30.5t-59 16.5q-35 8 -72 8q-25 0 -56.5 -3t-59 -9t-47 -18.5t-19.5 -30.5t16.5 -28.5t42 -15.5t56 -7t57.5 -2q31 0 65 8q29 6 62.5 17t62.5 34zM283 436q-33 0 -49.5 -20.5t-16.5 -44.5q0 -25 16.5 -45.5t49.5 -20.5 q35 0 50 20.5t15 45.5t-15 45t-50 20z" />
<glyph unicode="&#xe2f;" horiz-adv-x="761" d="M563 791h86v-572q0 -100 -32.5 -145t-86.5 -74l-57 57q37 20 55.5 45t26.5 47.5t9 42t1 27.5v369q-35 -84 -105.5 -125t-146.5 -41q-61 0 -115.5 27.5t-84.5 80.5q-18 35 -25.5 81t2.5 87t42 71t89 30q66 0 98.5 -40t32.5 -87t-28.5 -86t-87.5 -39q-16 0 -21.5 1t-9.5 3 q6 -10 31.5 -29.5t70.5 -19.5q84 0 157.5 73t98.5 216zM221 737q-35 0 -51 -20.5t-16 -44.5q0 -25 16 -45.5t51 -20.5t50.5 20.5t15.5 45.5t-15.5 45t-50.5 20z" />
<glyph unicode="&#xe30;" horiz-adv-x="737" d="M655 752q-27 -74 -69.5 -129.5t-100.5 -83.5q-37 -18 -76.5 -25.5t-91.5 -7.5q-115 0 -165 47t-50 102q0 49 36 89t100 40q72 0 102.5 -38.5t30.5 -83.5q0 -53 -33 -87q8 -2 24 -2q53 0 92.5 32t67.5 69q33 43 56 98zM238 596q35 0 51 20.5t16 45.5t-16.5 44t-50.5 19 q-33 0 -49.5 -19.5t-16.5 -43.5q0 -25 16.5 -45.5t49.5 -20.5zM655 260q-27 -74 -69.5 -129t-100.5 -84q-37 -18 -76.5 -25.5t-91.5 -7.5q-115 0 -165 47.5t-50 102.5q0 49 36 89t100 40q72 0 102.5 -39t30.5 -84q0 -53 -33 -86q8 -2 24 -2q53 0 92.5 31.5t67.5 68.5 q33 43 56 99zM238 104q35 0 51 20.5t16 45.5t-16.5 44t-50.5 19q-33 0 -49.5 -19t-16.5 -44t16.5 -45.5t49.5 -20.5z" />
<glyph unicode="&#xe31;" d="M121 1243l63 -47q-57 -96 -152 -162.5t-251 -66.5q-59 0 -111.5 11t-87.5 42q-23 18 -36 44t-13 58q0 47 29.5 89t97.5 42t97.5 -39.5t29.5 -80.5q0 -25 -10 -49.5t-27 -36.5q39 -4 66.5 -3.5t66.5 9.5q66 14 124.5 58t113.5 132zM-342 1065q27 0 45 17.5t18 45.5 q0 31 -18 48.5t-45 17.5t-44 -18.5t-17 -47.5q0 -27 17 -45t44 -18z" />
<glyph unicode="&#xe32;" horiz-adv-x="665" d="M45 592q25 96 85 151.5t171 55.5q123 0 184.5 -67.5t61.5 -166.5v-565h-84v569q0 78 -43 120t-117 42q-72 0 -120 -45t-62 -125l-76 31v0z" />
<glyph unicode="&#xe33;" horiz-adv-x="653" d="M14 592l76 -31q12 78 60.5 124t119.5 46q74 0 118 -42t44 -120v-569h82v565q0 98 -60.5 166t-183.5 68q-111 0 -171 -55.5t-85 -151.5zM-156 1004q39 0 58.5 23.5t19.5 51.5q0 29 -19.5 52.5t-58.5 23.5q-41 0 -59 -23.5t-18 -52.5t18 -52t59 -23zM-156 1219 q72 0 108 -43t36 -97q0 -53 -36 -97t-108 -44t-108.5 44t-36.5 97t36.5 96.5t108.5 43.5z" />
<glyph unicode="&#xe34;" d="M-408 1225q80 -10 135.5 -42t91.5 -76t54 -95t23 -101q-59 23 -112.5 37.5t-94.5 22.5q-49 8 -88 14q-20 2 -43 4q-20 2 -47 2h-62q-45 0 -97 -2t-108 -10q14 57 45 103t72 78t91 49.5t104 17.5h18t18 -2zM-385 1044q18 -2 42 -6t50.5 -9t52 -13t43.5 -21 q-10 23 -25.5 49.5t-42 52t-68.5 44t-105 20.5h-15q-72 0 -124 -37t-68 -77q37 4 61.5 5t44.5 1h25q25 0 47.5 -1t40.5 -3q23 -3 41 -5z" />
<glyph unicode="&#xe35;" d="M-123 981l14 -59q-53 23 -105 36t-93 21q-49 8 -94 14q-20 2 -45 4q-23 2 -52.5 2h-64.5q-43 0 -93.5 -2t-103.5 -8q12 53 42 98.5t72 79t91 52t100 18.5q49 -2 97 -14q41 -10 84 -32t71 -63v185h80v-332zM-418 1059q43 -2 82 -10q35 -6 71 -16.5t64 -26.5 q-18 55 -72.5 104t-150.5 59q-4 2 -10 2h-17q-78 0 -133 -36.5t-67 -77.5q35 4 59.5 5t44.5 1h59.5t69.5 -4z" />
<glyph unicode="&#xe36;" d="M-201 1315q53 0 80 -33t27 -72q0 -35 -20.5 -63.5t-61.5 -36.5q33 -43 50 -92t22 -96q-59 23 -112.5 37t-94.5 22q-49 8 -88 14q-20 2 -43 4q-20 2 -47 2h-62q-45 0 -97 -2t-108 -10q14 57 45 103.5t72 78t91 49t104 17.5h18t18 -2q29 -4 53.5 -10t47.5 -17v4 q0 39 26.5 71t79.5 32zM-201 1270q-29 0 -43 -17.5t-14 -40.5t17.5 -39t39.5 -16q29 0 43.5 17.5t14.5 39.5q0 23 -14.5 39.5t-43.5 16.5zM-379 1057q18 -2 42 -6t49.5 -10.5t49 -15.5t41.5 -19q-10 23 -25.5 49t-42 52t-68.5 44t-105 20h-15q-72 0 -124 -36.5t-68 -77.5 q37 4 61.5 5t44.5 1q41 0 82 -1t78 -5z" />
<glyph unicode="&#xe37;" d="M-121 981l8 -29q4 -12 7 -30q-53 23 -105.5 36t-93.5 21q-49 8 -94 14q-10 2 -50 4t-112 2q-43 0 -93.5 -2t-103.5 -8q12 53 43 98.5t72 79t90 52t100 18.5q35 0 63 -5t48 -11v92h78v-127q12 -8 22 -17q10 -8 20.5 -18t20.5 -23v185h80v-332zM-416 1059q43 -2 82 -10 q35 -6 72 -16.5t63 -26.5q-18 55 -72.5 104t-150.5 59q-4 2 -10 2h-17q-76 0 -131 -36.5t-69 -77.5q35 4 59.5 5t44.5 1h28.5h27t30.5 -1t43 -3z" />
<glyph unicode="&#xe38;" d="M-260 -88q63 0 98 -37t35 -102v-281h-80v172q-16 -10 -49 -10q-66 0 -97.5 41t-31.5 88t32 88t93 41zM-322 -217q0 -29 18.5 -47.5t47.5 -18.5t46 18.5t17 47.5t-17 47t-46 18t-47.5 -18t-18.5 -47z" />
<glyph unicode="&#xe39;" d="M-455 -272q31 0 47.5 18t16.5 45q0 23 -16.5 42.5t-49.5 19.5q-31 0 -46 -19.5t-15 -42.5t15.5 -43t45.5 -20h2zM-408 -502v174q-10 -2 -16 -4t-29 -2q-66 0 -96.5 38t-30.5 85t31 85t92 38t95 -37t34 -82v-219h72q18 0 32.5 9t14.5 32v287h82v-297q0 -59 -33 -83 t-86 -24h-162z" />
<glyph unicode="&#xe3a;" d="M-279 -178q0 33 23 54.5t55 21.5q33 0 55.5 -21.5t22.5 -54.5t-22.5 -54.5t-55.5 -21.5t-55.5 21.5t-22.5 54.5z" />
<glyph unicode="&#xe3f;" horiz-adv-x="841" d="M592 494q86 -16 132 -74t46 -156q0 -264 -291 -264h-47v-96h-63v96h-252v926h252v96h63v-96h6q143 0 218 -59.5t75 -176.5q0 -82 -36.5 -132t-102.5 -64zM641 690q0 80 -46 116t-163 40v-326q111 4 160 43t49 127zM207 520h162v326h-162v-326zM369 82v356h-162v-356h162z M432 82q66 0 113 7t77.5 27.5t45 55.5t14.5 92q0 55 -17.5 89t-50 53.5t-79 25.5t-103.5 6v-356z" />
<glyph unicode="&#xe40;" horiz-adv-x="452" d="M285 248q61 -2 94 -42t33 -87t-33 -86t-98 -39q-59 0 -98.5 34.5t-39.5 94.5v668h82v-553q12 6 28 8t32 2zM281 57q33 2 49 21.5t16 42.5t-16.5 43t-48.5 20q-35 0 -51.5 -20.5t-16.5 -42.5q0 -25 16.5 -44.5t51.5 -19.5z" />
<glyph unicode="&#xe41;" horiz-adv-x="802" d="M285 248q61 -2 94 -43t33 -88t-33 -86t-98 -39q-59 0 -98.5 35.5t-39.5 95.5v668h82v-555q21 12 60 12zM281 57q33 0 49 19.5t16 44.5t-16.5 44t-48.5 19h-2q-33 0 -49.5 -19.5t-16.5 -41.5q0 -25 16.5 -45.5t51.5 -20.5zM635 248q61 -2 94 -43t33 -88t-33 -86t-98 -39 q-59 0 -98 35.5t-39 95.5v668h84v-555q10 8 25.5 10t31.5 2zM631 57q33 0 49 20.5t16 43.5t-16 43t-49 20t-49.5 -20.5t-16.5 -42.5q0 -25 16.5 -44.5t49.5 -19.5z" />
<glyph unicode="&#xe42;" horiz-adv-x="532" d="M362 182q-33 0 -49 -20.5t-16 -42.5q0 -23 15.5 -42.5t49.5 -19.5q33 0 49.5 20.5t16.5 43.5t-16.5 42t-49.5 19zM225 119v844q0 41 -15 71.5t-50 57t-89.5 49t-131.5 47.5q31 57 69.5 90t76.5 49t68.5 20.5t45.5 4.5h10q70 -6 105.5 -25.5t60 -43t51.5 -46.5t76 -35 l-39 -53q-55 12 -78 31.5t-41 39t-45 37t-86 23.5h-18q-25 0 -66 -9t-70 -48q49 -16 93.5 -36t79 -49.5t55 -70.5t20.5 -98v-731q6 2 21.5 5t33.5 3q66 0 99 -38t33 -85q0 -49 -34 -90t-100 -41q-57 0 -96 30.5t-39 96.5z" />
<glyph unicode="&#xe43;" horiz-adv-x="512" d="M350 248q66 0 98.5 -40t32.5 -87q0 -49 -33.5 -89t-99.5 -40q-59 0 -98 35.5t-39 101.5v842q0 6 9 33.5t20.5 60.5t21.5 65.5t10 51.5q0 31 -26.5 62.5t-73.5 31.5q-29 0 -47.5 -8t-27.5 -18.5t-12 -18.5l-3 -8l20 2q31 0 50.5 -11.5t32 -28t17.5 -34.5t5 -35 q0 -8 -4 -26.5t-15.5 -37t-33 -32.5t-56.5 -14q-18 0 -38.5 7t-38 23.5t-28.5 46t-11 74.5q0 78 48 132t140 54q84 0 133 -51t49 -118q0 -12 -9 -41t-20.5 -62t-20.5 -60.5t-9 -39.5v-731q16 4 25 6t32 2zM96 1174q-29 0 -41 -15.5t-12 -36.5q0 -23 13.5 -40t39.5 -17 q29 0 43.5 17.5t14.5 37.5t-14.5 37t-43.5 17zM348 57q33 0 49.5 20.5t16.5 45.5q0 23 -15.5 42t-50.5 19q-33 0 -48 -19.5t-15 -43.5q0 -25 15 -44.5t48 -19.5z" />
<glyph unicode="&#xe44;" horiz-adv-x="559" d="M395 250q66 0 97.5 -39t31.5 -86q0 -49 -32.5 -90t-98.5 -41q-61 0 -100 37t-39 94v1110q0 8 -4 8t-10 -10l-115 -219q-12 -23 -25.5 -40.5t-38.5 -17.5t-34 4.5t-13 20.5l-47 305q-4 23 -8 39t-20 33l67 31q10 -16 19.5 -31t13.5 -49l35 -254l133 260q10 18 18 24.5 t23 6.5h55q25 0 30 -14.5t5 -39.5v-1050q10 4 22 6t35 2zM393 59q33 2 48.5 22.5t15.5 43.5t-15.5 42t-48.5 19q-35 0 -51 -20.5t-16 -42.5q0 -25 16 -44.5t47 -19.5h4z" />
<glyph unicode="&#xe45;" horiz-adv-x="653" d="M39 592q27 96 86 151.5t172 55.5q123 0 183.5 -67.5t60.5 -166.5v-889h-82v893q0 78 -44 120t-118 42q-72 0 -120 -45t-60 -125l-78 31v0z" />
<glyph unicode="&#xe46;" horiz-adv-x="819" d="M457 641h-33q-16 41 -51 62.5t-70 21.5q-37 0 -66.5 -22.5t-33.5 -67.5q0 -2 13 10t60 12q66 0 96.5 -36.5t30.5 -83.5t-31.5 -88t-95.5 -41q-59 0 -106 44t-47 134q0 31 8 66.5t27.5 66.5t54.5 51.5t90 20.5h16q20 -2 43 -11q18 -6 39 -18t39 -35q16 25 36 37t38 18 q23 8 41 9q57 0 99 -37t42 -103v-757q0 -33 -2 -56.5t-10 -45t-25.5 -41t-48.5 -44.5l-75 39l12 10q16 12 28.5 23.5t20.5 27t12 39t4 60.5v743q0 20 -16 42t-47 22q-35 0 -52.5 -16.5t-29.5 -37.5zM279 596q-31 0 -47.5 -19.5t-16.5 -41.5q0 -23 16.5 -42.5t47.5 -19.5 q33 0 48 19.5t15 42.5t-15 42t-48 19z" />
<glyph unicode="&#xe47;" d="M-102 1335q-6 -68 -52.5 -98.5t-150.5 -30.5l-170 11q-41 0 -65.5 -26t-24.5 -67q0 -35 24 -82q14 35 47 43.5t48 8.5h6q16 0 34 -4q35 -6 64 -35v12q0 41 28.5 65.5t67.5 24.5q49 0 74 -29.5t25 -64.5q0 -37 -26 -69.5t-79 -32.5h-8q-37 2 -61.5 13t-45 24.5t-40 24.5 t-44.5 11q-14 0 -26 -8q-10 -8 -20.5 -22.5t-14.5 -42.5l-31 -5q-14 2 -30.5 18.5t-29.5 42t-21.5 55.5t-8.5 61q0 29 8 51q20 53 63.5 72.5t102.5 19.5h23.5t27.5 -2q27 -2 48.5 -3t48.5 -1q59 0 102 13t43 54v11zM-246 1112q-25 0 -37 -15.5t-12 -33.5t12.5 -32.5 t36.5 -14.5q23 0 35 15.5t12 33.5t-11 32.5t-36 14.5z" />
<glyph unicode="&#xe48;" d="M-125 1624v-256h-78v256h78z" />
<glyph unicode="&#xe49;" d="M92 1587l60 -22q-8 -37 -31 -71t-58.5 -60.5t-86 -43t-113.5 -16.5q-47 0 -83 2t-59 10l-16 37h4q29 0 48.5 11.5t33.5 23.5q16 14 29 33h-10q-45 2 -76 28.5t-31 71.5q0 53 37 78t76 25q53 0 79.5 -36t26.5 -71q0 -18 -3 -36.5t-7 -24.5q-10 -20 -21 -39 q-10 -16 -23 -32.5t-32 -27.5h23q55 0 98 15.5t71.5 40t45 52t18.5 52.5zM-188 1542q27 0 40 15.5t13 33.5t-13.5 34.5t-37.5 16.5q-29 0 -41.5 -15t-12.5 -34q0 -18 13.5 -33.5t38.5 -17.5z" />
<glyph unicode="&#xe4a;" d="M113 1655q2 -10 3 -21.5t1 -27.5q0 -35 -9.5 -79t-35.5 -81q-33 -47 -82 -61.5t-86 -14.5q-10 0 -19.5 1t-15.5 1l-6 10q12 16 27.5 38t21.5 59q4 20 4 39q0 23 -8 45t-35 30q-2 2 -6 2h-14q-14 0 -31 -5t-33 -23q-10 14 -23.5 20t-25.5 10q-14 4 -29 5 q-35 0 -55.5 -17.5t-20.5 -50.5q14 14 37 18q10 2 23 2q43 0 69.5 -24.5t26.5 -65.5q0 -39 -29.5 -66.5t-66.5 -27.5q-55 0 -87 44t-32 97v13q4 53 36 93t95 40q14 0 29 -4q12 -4 26.5 -9.5t26.5 -17.5q23 16 48.5 20.5t37.5 4.5h8q27 -2 44.5 -15.5t28.5 -31t15 -37 t4 -37.5q-2 -41 -10 -62.5t-18 -37.5q16 4 30.5 13t24.5 19q12 12 21 29q10 20 16 48t6 56q0 29 -6 50zM-305 1511q-25 0 -36 -15t-11 -32q0 -16 11 -30.5t34 -14.5q25 0 37 15.5t12 31.5t-12 30.5t-35 14.5z" />
<glyph unicode="&#xe4b;" d="M-27 1556v-71h-106v-113h-76v113h-113v71h113v111h78v-111h104z" />
<glyph unicode="&#xe4c;" d="M-209 1509q12 6 25.5 7.5t31.5 1.5q41 -4 68 -33t27 -80q0 -14 -5.5 -33.5t-19.5 -37t-36.5 -30t-57.5 -12.5q-57 0 -94 40t-37 98q0 61 30.5 96t65.5 49q20 8 35.5 12t32 9.5t38 11.5t52.5 20q16 8 28 19q10 10 20.5 23t12.5 30l60 -17q-2 -8 -3.5 -16t-5.5 -12 q-4 -6 -6 -10q-16 -23 -33.5 -38.5t-39.5 -25.5q-43 -20 -81 -30.5t-53 -14.5q-10 -2 -20 -6q-23 -7 -35 -21zM-174 1468q-25 0 -43.5 -17t-18.5 -42q0 -27 18.5 -44t43.5 -17t42 17t17 42q0 27 -17 44t-42 17z" />
<glyph unicode="&#xe4d;" d="M-383 1219q72 0 107.5 -43t35.5 -97q0 -53 -35.5 -97t-107.5 -44t-108.5 44t-36.5 97t36.5 96.5t108.5 43.5zM-383 1004q39 0 58.5 23.5t19.5 51.5q0 29 -19.5 52.5t-58.5 23.5q-41 0 -59.5 -23.5t-18.5 -52.5t18.5 -52t59.5 -23z" />
<glyph unicode="&#xe4e;" d="M-221 1266q-10 0 -24.5 1t-30.5 1q-29 0 -51.5 -9.5t-26.5 -31.5q0 -39 27.5 -53.5t39.5 -14.5v-67h-67q-25 0 -53.5 -9.5t-28.5 -35.5q0 -37 25.5 -47.5t52.5 -10.5q12 0 22 1t14 1v-49q-25 -10 -59 -10q-25 0 -48.5 9t-39.5 22q-14 12 -26.5 33.5t-12.5 45.5 q0 57 43 79t94 22q-12 0 -31.5 20.5t-19.5 46.5q0 12 4 32t19 36q29 35 65.5 40t83.5 5h29v-57z" />
<glyph unicode="&#xe4f;" horiz-adv-x="929" d="M465 668q74 0 137.5 -27t111.5 -72t75.5 -105.5t27.5 -129.5q0 -70 -27.5 -130.5t-75.5 -105.5t-111.5 -71.5t-137.5 -26.5t-137.5 26.5t-111.5 71.5t-75.5 105.5t-27.5 130.5t27.5 130t75.5 105t111.5 72t137.5 27zM465 84q55 0 103 19.5t84 53t56.5 80t20.5 97.5 t-20.5 97t-56.5 80t-84 53.5t-103 19.5t-103.5 -19.5t-84 -53.5t-56 -80t-20.5 -97t20.5 -97.5t56 -80t84 -53t103.5 -19.5zM465 492q70 0 118 -46.5t48 -111.5q0 -66 -48 -112t-118 -46t-118 46t-48 112t48 112t118 46z" />
<glyph unicode="&#xe50;" horiz-adv-x="962" d="M483 88q129 0 198 61.5t69 163.5q0 98 -71 165t-198 67q-115 0 -189.5 -59.5t-78.5 -170.5v-6q0 -55 22.5 -96t60.5 -68.5t87 -42t100 -14.5zM481 631q84 0 151.5 -26.5t116 -69.5t75 -100.5t26.5 -121.5q0 -141 -99.5 -226t-267.5 -85q-82 0 -150.5 23.5t-117.5 64.5 t-75.5 98.5t-26.5 124.5q0 61 25.5 118.5t73.5 102t115.5 71t149.5 26.5h4z" />
<glyph unicode="&#xe51;" horiz-adv-x="940" d="M739 522q53 -53 76 -116.5t23 -129.5q0 -53 -17 -112q-14 -47 -41 -94q-23 -41 -59.5 -84t-89.5 -72l-60 47q68 43 104 98.5t52 106.5q20 59 23 119q0 49 -15.5 94t-48.5 78q-41 41 -99.5 64.5t-123.5 23.5q-88 0 -164 -45q-55 -33 -80.5 -86.5t-25.5 -110.5 q0 -76 36 -129q29 -45 69 -57.5t71 -14.5q18 0 37.5 2t25.5 5q-2 0 -25.5 4t-50.5 20q-29 16 -44 50t-15 69q0 53 39 96t106 43q57 0 89 -22.5t47.5 -51t18.5 -56.5t3 -40q0 -27 -12.5 -61.5t-40 -66.5t-71.5 -53.5t-105 -21.5q-70 0 -128.5 32t-95.5 91q-45 72 -45 162 q0 68 29 132.5t88 113.5q45 37 108.5 55.5t133.5 18.5q78 0 153.5 -25t124.5 -76zM446 319q-35 0 -52 -21.5t-17 -47.5q0 -29 18.5 -51.5t55.5 -22.5q35 0 52 21.5t17 48.5q0 29 -18.5 51t-55.5 22z" />
<glyph unicode="&#xe52;" horiz-adv-x="1038" d="M449 389q-37 0 -55.5 -21.5t-18.5 -50.5t18.5 -50t55.5 -21q35 0 52 22.5t17 50.5q0 27 -17 48.5t-52 21.5zM285 358q0 125 57 194t150 69q29 -2 55 -11q23 -8 47 -24.5t39 -46.5l3 13t16.5 28.5t39 28t68.5 12.5q47 0 78.5 -16.5t51 -41t28 -52.5t8.5 -52v-338 q0 -25 -3 -47.5t-19.5 -39t-50.5 -25.5t-93 -9h-379q-94 0 -145.5 6t-76 25.5t-28.5 55.5t-4 95v539q0 66 -15.5 93.5t-50.5 47.5l82 64q10 -10 19.5 -21.5t17.5 -21.5q8 -12 15 -25q14 -23 18 -52.5t4 -55.5v-568q0 -37 6 -56.5t24.5 -28.5t49.5 -11t80 -2h375 q57 0 70.5 15.5t13.5 47.5v295q0 14 -2.5 32t-9.5 32t-23.5 23.5t-44.5 9.5q-23 0 -36 -7.5t-32 -23.5q-8 -8 -16 -19q-8 -10 -17.5 -21t-19.5 -28q-4 14 -12.5 25.5t-16.5 21.5t-18 19q-37 33 -94 33q-27 0 -46.5 -10.5t-33 -26t-20.5 -32.5t-9 -32q14 14 39 19q12 2 25 2 q68 0 103.5 -45t35.5 -99q0 -53 -35 -96t-104 -43q-74 0 -119 50t-45 132z" />
<glyph unicode="&#xe53;" horiz-adv-x="1048" d="M748 629q63 0 103 -27t63.5 -73t32.5 -108.5t9 -133.5q0 -119 -17 -195t-24 -92h-90q4 23 10.5 56.5t12.5 75.5t10 88t4 91q0 47 -5 90t-19.5 76t-37 52.5t-57.5 19.5q-31 0 -53 -14.5t-37.5 -37t-22.5 -50t-7 -54.5v-391h-93v391q0 16 -10 43t-30.5 51.5t-50 43 t-70.5 18.5q-78 0 -131.5 -61.5t-53.5 -157.5q0 -23 2 -45.5t9 -46.5q14 23 33.5 34t37.5 17q23 8 45 8q68 0 104 -48t36 -106q0 -55 -37 -102t-119 -47q-88 0 -145.5 76.5t-57.5 248.5q0 68 20.5 125.5t57.5 98.5t87 63.5t108 22.5q53 0 90 -16.5t62.5 -38t38.5 -41 t15 -25.5q14 47 44 71.5t59 34.5q35 13 74 15zM305 217q-37 0 -55.5 -21.5t-18.5 -48.5q0 -29 18.5 -50t57.5 -21q31 0 47.5 22.5t16.5 48.5q0 27 -16.5 48.5t-49.5 21.5z" />
<glyph unicode="&#xe54;" horiz-adv-x="1003" d="M522 387q-35 0 -52 -22.5t-17 -49.5t17 -48t52 -21t52.5 21.5t17.5 47.5q0 27 -17.5 49.5t-52.5 22.5zM539 96q-12 4 -26.5 11.5t-27.5 17.5l-28 20q-51 41 -71.5 80t-20.5 92q0 55 46 99.5t111 44.5q39 0 66.5 -13.5t46 -34t27 -46t8.5 -50.5q-2 -33 -15 -59 q-10 -23 -31.5 -45.5t-62.5 -30.5q41 -51 81 -61t93 -10q41 0 88 -4.5t109 -30.5l-21 -78q-18 10 -55 17.5t-84 7.5l-39 -3q-45 -2 -80 -5t-68.5 -5t-72.5 -3t-96 -1q-59 0 -117.5 16.5t-105 53.5t-74 96t-27.5 143q0 72 29 129.5t80 96.5t122.5 59.5t157.5 20.5 q47 0 85 -3.5t67 -3.5q72 0 117 15.5t74.5 45.5t50 75t45.5 104l10 -2q8 -2 25.5 -5t48.5 -11q-2 -10 -11.5 -32t-22 -48.5t-26.5 -54t-31 -52.5q-6 -8 -23.5 -28.5t-47 -40t-70.5 -35t-94 -15.5q-39 0 -86 5.5t-113 5.5q-63 0 -117.5 -13.5t-93.5 -42t-61.5 -72.5 t-22.5 -106q0 -111 63.5 -166t182.5 -55q25 0 52.5 3t56.5 7z" />
<glyph unicode="&#xe55;" horiz-adv-x="1015" d="M510 625q43 0 65.5 27.5t22.5 60.5q0 31 -21.5 56.5t-66.5 29.5q-35 0 -60.5 -25.5t-25.5 -56.5q0 -37 21.5 -64.5t64.5 -27.5zM670 705q0 -16 -4 -35q-4 -16 -10.5 -32.5t-20.5 -29.5h35q49 0 86 10.5t66.5 38t53 74.5t46.5 119h2q4 0 21.5 -1t70.5 -9 q-23 -86 -52.5 -139.5t-58.5 -84.5q-35 -37 -69 -55q-51 -23 -90 -30t-78 -7q-35 0 -85.5 6.5t-90.5 10.5q-57 -6 -111.5 -24.5t-96.5 -50.5t-68 -76t-26 -103q0 -66 24 -106t62.5 -61.5t90 -28.5t108.5 -7h80q-10 10 -24.5 18.5t-24.5 18.5q-12 10 -27 20q-35 25 -61.5 66 t-26.5 100q0 27 11.5 53.5t32 48t50 35t66.5 13.5q78 -2 112.5 -49.5t34.5 -98.5q-2 -31 -14 -57q-10 -23 -32.5 -43.5t-63.5 -30.5q37 -47 67.5 -59.5t67.5 -12.5h51q33 0 72 -5t92 -23l-25 -80q-43 18 -157 18q-47 0 -82 -3t-68 -6t-71.5 -5t-94.5 -2q-61 0 -122.5 13.5 t-111.5 47t-82 89t-32 137.5q0 76 31 130t76 92t99 59.5t99 31.5q-18 16 -28.5 33.5t-14.5 34.5q-6 18 -6 34q0 80 47 123t107 43q92 0 130 -50t38 -113zM551 381q-35 0 -53.5 -22.5t-18.5 -49.5t18.5 -48t53.5 -21t51 22.5t16 48.5q0 27 -16 48.5t-51 21.5z" />
<glyph unicode="&#xe56;" horiz-adv-x="937" d="M293 262q-35 0 -52.5 -22.5t-17.5 -49.5t16.5 -48t51.5 -21q37 0 54 21.5t17 47.5q0 27 -17 49.5t-52 22.5zM395 80q51 0 111.5 17.5t113 50t87 80.5t34.5 110q0 41 -8 67.5t-31 49.5q-39 37 -95 53t-120 20h-28q-59 0 -110.5 -12t-88.5 -25.5t-58 -24.5l-22 -11 q-2 31 -5 89t-11 120.5t-24.5 119t-47.5 80.5l60 62q29 -25 51 -72q20 -41 35.5 -106.5t15.5 -169.5q111 43 221 43q78 0 148.5 -20.5t124.5 -57.5q45 -29 71.5 -81t26.5 -116q0 -92 -46 -158.5t-114 -109.5t-147.5 -64.5t-147.5 -21.5q-41 0 -85 12t-80 38t-58.5 63.5 t-22.5 89.5q0 59 42 102t104 43q80 0 117.5 -48t37.5 -104q0 -23 -6 -43q-4 -16 -14.5 -34.5t-30.5 -30.5z" />
<glyph unicode="&#xe57;" horiz-adv-x="1097" d="M1047 868q-35 -14 -47.5 -66t-12.5 -126q0 -72 5 -155t5 -163q0 -90 -13 -166.5t-54 -123.5q-33 -37 -77 -50.5t-85 -13.5q-39 0 -69.5 7t-47.5 12q18 37 29.5 86t16.5 95t6.5 82t1.5 44v2q0 74 -25 130t-80 56q-27 0 -49.5 -14.5t-38.5 -34.5t-26.5 -39.5t-12.5 -32.5 h-37q0 16 -8 37t-21.5 39.5t-34 31.5t-48.5 13q-37 0 -65 -19.5t-45 -50t-25.5 -69.5t-8.5 -76q0 -35 6.5 -65.5t18.5 -51.5q10 35 31.5 53.5t44.5 28.5q27 10 57 13q72 0 106.5 -43t34.5 -97q0 -55 -39 -103t-116 -48q-57 0 -100.5 26.5t-72 71.5t-44 102.5t-15.5 118.5 q0 55 13.5 107.5t42 94.5t73.5 66.5t109 24.5q25 -2 47 -10q20 -8 41.5 -22.5t38.5 -43.5l10 12q10 13 27.5 26.5t44 25.5t61.5 12q55 0 93 -22.5t62.5 -59.5t36 -83t11.5 -93q0 -49 -4 -98q-4 -41 -11.5 -86t-23.5 -78q2 0 3 -1t3 -1h2q47 0 76 20.5t44 57.5t19 86t4 104 q-6 111 -8 194t-2 154q0 78 17.5 140.5t58.5 91.5zM336 209q-35 0 -51.5 -21.5t-16.5 -48.5t16.5 -49t51.5 -22t53.5 22.5t18.5 48.5q0 27 -18.5 48.5t-53.5 21.5z" />
<glyph unicode="&#xe58;" horiz-adv-x="1046" d="M258 0q-14 10 -42 30.5t-55.5 54.5t-48 83t-20.5 113q0 88 32 149.5t83 101t115.5 58t130.5 18.5h26l269 -14q49 4 83.5 16.5t57.5 53.5q20 37 32.5 92t12.5 102l82 -43q-4 -31 -6 -58.5t-17 -74.5q-33 -104 -95 -138t-144 -34h-21q-43 2 -89 7t-112 9q-41 2 -58 2h-21 q-104 0 -169 -45t-91 -116q-12 -33 -13 -72q0 -53 19.5 -99t44.5 -61q4 55 23.5 86t41.5 47q27 18 58 21q23 0 46 -11.5t44.5 -26.5t40 -32.5t30.5 -32.5q37 -39 63.5 -61.5t48.5 -33.5t39 -14t36 -3q16 0 42.5 3t28.5 15q2 0 -10 -6t-35 -6q-20 0 -44.5 9t-45 25.5t-35 42 t-14.5 58.5q0 61 43 103t103 42h4q25 0 50 -9t47.5 -28.5t37 -51t14.5 -76.5q0 -98 -49 -151.5t-135 -53.5q-35 0 -63.5 8t-59.5 28.5t-68 52.5t-86 81q-39 39 -71 39q-33 0 -48.5 -36t-15.5 -79q0 -23 3 -42t11 -36zM750 141q37 0 54 21.5t17 48.5t-18.5 49.5t-52.5 22.5 q-35 0 -53.5 -22.5t-18.5 -49.5t18.5 -48.5t53.5 -21.5z" />
<glyph unicode="&#xe59;" horiz-adv-x="1017" d="M954 913q20 -29 26.5 -75.5t6.5 -87.5q0 -72 -12 -133.5t-33 -90.5q-23 -35 -41 -46t-35 -11q-23 4 -37 13.5t-26 20.5t-26.5 19t-35.5 8h-8q-49 -6 -49 -69q0 -10 1 -20.5t3 -20.5q8 -43 25.5 -90t39 -92t44 -83t43.5 -61q10 -12 20 -20t18.5 -15.5t18.5 -11.5l-51 -61 q-4 0 -27.5 8t-52.5 39t-52.5 75t-45 93t-43 99t-45.5 95q-16 35 -40 62.5t-57 46.5q-43 25 -98 24q-66 0 -119 -41q-45 -35 -64.5 -84t-23.5 -108q0 -61 23 -117q18 -45 48 -63.5t40 -18.5q-4 4 -11.5 21.5t-7.5 40.5q0 41 14.5 68.5t36 43t46 21.5t43.5 6q29 0 55.5 -9 t46.5 -28q41 -41 41 -110q0 -23 -8 -50.5t-27.5 -51t-50.5 -40t-76 -16.5q-41 0 -85 11t-84 35.5t-71.5 63.5t-46.5 95q-12 53 -12 100q0 76 29 137.5t80 108.5q37 33 85 48t93 15q82 0 143 -31q16 -8 33 -22q14 -12 29.5 -29.5t27.5 -40.5v13q0 39 28 78.5t93 39.5 q37 0 54.5 -14t31.5 -27q8 -8 17.5 -16t17.5 -10q20 0 29.5 35.5t15.5 83.5q0 8 3 35.5t3 50.5t-3 48t-5 31q-4 18 -12 33q-6 12 -16.5 25.5t-24.5 19.5l84 29q4 0 8 -4.5t18 -20.5zM410 223q-35 0 -52.5 -21.5t-17.5 -49.5q0 -27 17.5 -48.5t52.5 -21.5t52 22.5t17 49.5 t-17 48t-52 21z" />
<glyph unicode="&#xe5a;" horiz-adv-x="956" d="M592 791h86v-572q0 -100 -33 -145t-86 -74l-57 57q35 16 52 43t28 54q10 31 12 65v369q-35 -84 -105.5 -125t-146.5 -41q-61 0 -115.5 27.5t-85.5 80.5q-29 47 -28 115q0 57 29.5 104.5t103.5 49.5h4q66 0 98.5 -40t32.5 -87t-31 -86t-90 -39q-14 0 -18 1t-9 3 q6 -10 32 -29.5t71 -19.5q84 0 157.5 73t98.5 216zM250 737q-35 0 -51.5 -20.5t-16.5 -44.5q0 -25 16.5 -45.5t51.5 -20.5t50 20.5t15 45.5t-15 45t-50 20zM760 0v791h84v-791h-84z" />
<glyph unicode="&#xe5b;" horiz-adv-x="1646" d="M1534 303l-301 -16l-51 149l-33 -233h-68l-32 217l-50 -266h-67l-49 299l-68 -334h-84l-33 368q-12 -76 -32.5 -142t-55.5 -116.5t-86 -80t-127 -29.5q-49 0 -100 13t-92 45t-66.5 83t-25.5 127q0 37 11 81t38.5 81t73 62.5t110.5 25.5q57 0 95 -19.5t61.5 -49t34 -65.5 t10.5 -67q0 -25 -9.5 -51.5t-27.5 -48t-47 -35.5t-66 -14q-39 0 -68.5 30.5t-29.5 69.5q0 29 13.5 56.5t52.5 27.5t52 -22.5t13 -61.5q16 0 28.5 20.5t12.5 49.5q0 18 -6 37.5t-20.5 37t-37 28.5t-57.5 11q-45 0 -75.5 -19.5t-47 -48t-23.5 -60t-7 -56.5q0 -51 17 -86 t45 -56.5t64.5 -31.5t73.5 -10q47 0 83 18.5t62.5 49t44 69.5t29.5 80q27 96 31 217h101l51 -385l49 352h67l50 -317l51 284h49l51 -301l33 267h51l49 -166l285 -19v-49z" />
<glyph unicode="&#x2000;" horiz-adv-x="850" />
<glyph unicode="&#x2001;" horiz-adv-x="1700" />
<glyph unicode="&#x2002;" horiz-adv-x="850" />
<glyph unicode="&#x2003;" horiz-adv-x="1700" />
<glyph unicode="&#x2004;" horiz-adv-x="566" />
<glyph unicode="&#x2005;" horiz-adv-x="425" />
<glyph unicode="&#x2006;" horiz-adv-x="283" />
<glyph unicode="&#x2007;" horiz-adv-x="283" />
<glyph unicode="&#x2008;" horiz-adv-x="212" />
<glyph unicode="&#x2009;" horiz-adv-x="340" />
<glyph unicode="&#x200a;" horiz-adv-x="94" />
<glyph unicode="&#x200c;" horiz-adv-x="307" />
<glyph unicode="&#x200d;" horiz-adv-x="432" />
<glyph unicode="&#x200e;" horiz-adv-x="686" />
<glyph unicode="&#x200f;" horiz-adv-x="712" />
<glyph unicode="&#x2010;" horiz-adv-x="389" d="M369 371v-74h-349v74h349z" />
<glyph unicode="&#x2011;" horiz-adv-x="389" d="M369 371v-74h-349v74h349z" />
<glyph unicode="&#x2012;" horiz-adv-x="389" d="M369 371v-74h-349v74h349z" />
<glyph unicode="&#x2013;" horiz-adv-x="663" d="M0 360h664v-55h-664v55z" />
<glyph unicode="&#x2014;" horiz-adv-x="1327" d="M0 360h1323v-55h-1323v55z" />
<glyph unicode="&#x2018;" horiz-adv-x="382" d="M242 870q-16 -10 -28.5 -27.5t-12.5 -54.5v-40h43v-119h-97v155q0 53 24 89t69 51l4 2z" />
<glyph unicode="&#x2019;" horiz-adv-x="354" d="M121 682q14 10 26.5 27.5t12.5 56.5v41h-41v119h96v-156q0 -53 -24.5 -89t-67.5 -52h-4z" />
<glyph unicode="&#x201a;" horiz-adv-x="477" d="M295 141v-143q0 -57 -28.5 -110.5t-88.5 -69.5v57q31 12 46.5 49t15.5 70v6h-56v141h111z" />
<glyph unicode="&#x201c;" horiz-adv-x="575" d="M242 870q-16 -10 -28.5 -27.5t-12.5 -54.5v-40h41v-119h-95v155q0 53 24 89t67 51l4 2v-56zM426 870q-16 -10 -28.5 -27.5t-12.5 -54.5v-40h43v-119h-96v155q0 53 23.5 89t68.5 51l4 2z" />
<glyph unicode="&#x201d;" horiz-adv-x="581" d="M160 682q14 10 26.5 27.5t12.5 56.5v41h-41v119h96v-156q0 -53 -24.5 -89t-67.5 -52h-4zM342 682q14 10 26.5 27.5t12.5 56.5v41h-41v119h96v-156q0 -53 -24.5 -89t-67.5 -52h-4z" />
<glyph unicode="&#x201e;" horiz-adv-x="577" d="M295 141v-143q0 -57 -28.5 -110.5t-88.5 -69.5v57q31 12 46.5 49t15.5 70v6h-56v141h111zM492 141v-143q0 -57 -29 -110.5t-88 -69.5v57q31 12 46 49t15 70v6h-55v141h111z" />
<glyph unicode="&#x2020;" horiz-adv-x="657" d="M369 578v-809h-88v809h-265v73h265v271h88v-271h268v-73h-268z" />
<glyph unicode="&#x2021;" horiz-adv-x="667" d="M371 16v-247h-88v247h-267v74h267v518h-267v74h267v250h88v-250h268v-74h-268v-518h268v-74h-268z" />
<glyph unicode="&#x2022;" horiz-adv-x="493" d="M391 461q0 -61 -41 -102.5t-104 -41.5q-61 0 -102.5 41t-41.5 103q0 59 42 102t102 43q63 0 104 -42t41 -103z" />
<glyph unicode="&#x2026;" horiz-adv-x="1327" d="M276 115v-115h-112v115h112zM719 115v-115h-113v115h113zM1163 115v-115h-114v115h114z" />
<glyph unicode="&#x202f;" horiz-adv-x="340" />
<glyph unicode="&#x2030;" horiz-adv-x="1832" d="M342 940q94 0 153.5 -68.5t59.5 -185.5t-60.5 -185.5t-152.5 -68.5q-96 0 -155.5 69.5t-59.5 184.5q0 117 59.5 185.5t155.5 68.5zM342 506q57 0 92 46t35 134q0 90 -35 137t-92 47q-59 0 -94 -47t-35 -137q0 -88 35 -134t94 -46zM451 -16h-84l524 956h84zM999 494 q96 0 155.5 -69t59.5 -185q0 -117 -60 -186.5t-155 -69.5q-94 0 -153.5 69.5t-59.5 186.5q0 115 59.5 184.5t153.5 69.5zM999 57q59 0 94 46.5t35 136.5t-34.5 136t-94.5 46q-57 0 -92 -46t-35 -136t35 -136.5t92 -46.5zM1516 494q96 0 155.5 -69t59.5 -185 q0 -117 -60.5 -186.5t-154.5 -69.5t-153.5 69.5t-59.5 186.5q0 115 59.5 184.5t153.5 69.5zM1516 57q59 0 94 46.5t35 136.5t-35 136t-94 46q-57 0 -92 -46t-35 -136t35 -136.5t92 -46.5z" />
<glyph unicode="&#x2032;" horiz-adv-x="354" d="M121 682q14 10 26.5 27.5t12.5 56.5v41h-41v119h96v-156q0 -53 -24.5 -89t-67.5 -52h-4z" />
<glyph unicode="&#x2033;" horiz-adv-x="581" d="M160 682q14 10 26.5 27.5t12.5 56.5v41h-41v119h96v-156q0 -53 -24.5 -89t-67.5 -52h-4zM342 682q14 10 26.5 27.5t12.5 56.5v41h-41v119h96v-156q0 -53 -24.5 -89t-67.5 -52h-4z" />
<glyph unicode="&#x2039;" horiz-adv-x="577" d="M477 610l-295 -229l295 -227v-76l-362 270v66l362 272v-76z" />
<glyph unicode="&#x203a;" horiz-adv-x="577" d="M117 156l295 229l-295 227v76l362 -270v-66l-362 -272v76z" />
<glyph unicode="&#x2044;" horiz-adv-x="610" d="M623 1051l-553 -1051h-78l555 1051h76z" />
<glyph unicode="&#x205f;" horiz-adv-x="425" />
<glyph unicode="&#x20ac;" horiz-adv-x="776" d="M743 37q-70 -35 -110.5 -44t-122.5 -9q-156 0 -269.5 92t-150.5 264h-86l29 78h47q0 8 -1 22.5t-1 36.5v21.5t2 33.5h-76l29 76h59q27 158 145.5 258.5t274.5 100.5q90 0 134 -11.5t97 -40.5v-110h-10q-47 37 -95 57.5t-120 22.5q-109 -2 -203 -67.5t-131 -209.5h303 l-26 -76h-291q-2 -20 -2 -31.5v-21.5q0 -20 2 -34.5t4 -26.5h246l-29 -78h-205q39 -143 134.5 -206.5t197.5 -67.5q94 4 133 22t82 57h10v-108z" />
<glyph unicode="&#x2113;" horiz-adv-x="415" d="M207 186q0 -59 18.5 -85.5t69.5 -26.5q33 0 76 14v-84q-63 -12 -97 -12q-160 0 -159 158v305q-18 -16 -33.5 -28.5t-28.5 -23.5q-14 -10 -26 -18v88q18 16 40.5 34.5t45.5 41.5v135q0 51 3 103.5t16 93.5t44 67.5t86 26.5q53 0 85 -39t32 -100q0 -25 -6 -53.5t-21 -57.5 q-23 -45 -61.5 -93t-83.5 -91v-355v0zM264 893q-18 0 -29.5 -14.5t-17.5 -37t-8 -52t-2 -58.5v-88q29 31 51.5 60.5t32.5 52.5q16 37 16 67q0 29 -12.5 49.5t-30.5 20.5z" />
<glyph unicode="&#x2122;" horiz-adv-x="1114" d="M774 563l154 393h67v-462h-47v405l-157 -405h-31l-166 399v-399h-49v462h69zM164 956h342v-43h-148v-419h-47v419h-147v43z" />
<glyph unicode="&#x2126;" horiz-adv-x="870" d="M850 82v-82h-350v213q37 0 83 14.5t86 49t66.5 93t26.5 144.5q0 35 -12.5 89t-48 105.5t-99 87t-166.5 35.5q-102 0 -166.5 -35.5t-100.5 -87t-48 -105.5t-12 -89q0 -86 27.5 -144.5t67.5 -93t85 -49t82 -14.5v-213h-351v82h271v76q-12 0 -53 12t-86.5 50t-81 108.5 t-35.5 185.5q0 111 41 184.5t102.5 118.5t131 63.5t126.5 18.5q59 0 129 -18.5t130.5 -63.5t100.5 -118.5t40 -184.5q0 -115 -36 -185.5t-80 -108.5t-85 -50t-53 -12v-76h268z" />
<glyph unicode="&#x212e;" horiz-adv-x="868" d="M61 401q0 96 28 176t78 136.5t120.5 87t156.5 30.5q164 0 263.5 -107.5t99.5 -297.5v-35h-621q2 -154 72 -233.5t195 -79.5q88 0 151.5 50t79.5 138h113q-20 -135 -113.5 -208.5t-243.5 -73.5q-86 0 -156.5 29.5t-119.5 84t-76 132t-27 171.5zM436 741 q-98 0 -163.5 -66.5t-84.5 -189.5h498q-8 119 -74.5 187.5t-175.5 68.5z" />
<glyph unicode="&#x2202;" horiz-adv-x="798" d="M446 934q-55 0 -102 -27.5t-100 -87.5v113q39 33 90 58.5t110 25.5q82 0 137.5 -26.5t89.5 -74t49 -112t15 -139.5q0 -98 -20.5 -206t-50.5 -218q-35 -127 -113 -193.5t-184 -66.5q-23 0 -43.5 2t-42.5 8q-111 27 -173.5 104.5t-62.5 184.5q0 45 12 90q29 119 108 182 t189 63q18 0 38 -2t40 -6q59 -12 108.5 -50t80.5 -99q29 82 28 182q0 55 -11 108.5t-35.5 95.5t-63 66.5t-93.5 24.5zM301 68q16 -4 30.5 -6.5t28.5 -2.5q76 0 130.5 49.5t76.5 141.5q4 20 7.5 38.5t3.5 37.5q0 78 -42 132t-120 72q-27 8 -62 9q-74 0 -127 -48.5t-75 -138.5 q-6 -23 -8.5 -43t-2.5 -39q0 -78 41 -130t119 -72z" />
<glyph unicode="&#x2206;" horiz-adv-x="847" d="M827 0h-807l326 932h154zM131 78h584l-273 778h-36z" />
<glyph unicode="&#x220f;" horiz-adv-x="948" d="M123 -135v1091h702v-1095h-92v1005h-520v-1001h-90z" />
<glyph unicode="&#x2211;" horiz-adv-x="901" d="M102 -94v104l377 418l-370 395v103h645v-97h-504l354 -372v-45l-373 -412h547v-94h-676z" />
<glyph unicode="&#x2212;" horiz-adv-x="1105" d="M160 371v51h786v-51h-786z" />
<glyph unicode="&#x221a;" horiz-adv-x="907" d="M53 227h187l131 -317l387 1122h98l-438 -1243h-103l-155 373h-107v65z" />
<glyph unicode="&#x221e;" horiz-adv-x="1046" d="M90 299q0 55 18.5 93t46 61.5t60.5 35t64 11.5q59 0 119.5 -32t125.5 -118q80 78 139.5 118t127.5 40q33 0 65.5 -12.5t59 -38t43 -65.5t16.5 -93q0 -86 -52.5 -137t-148.5 -51q-39 0 -74.5 15t-67.5 36.5t-58.5 45t-49.5 42.5l-30 -33q-18 -18 -37 -36.5t-43.5 -34 t-55 -25.5t-71.5 -10q-43 0 -79 17t-61.5 45t-41 61.5t-15.5 64.5zM475 299q-23 35 -51 63q-25 25 -57.5 44.5t-73.5 19.5q-39 0 -64.5 -13.5t-40 -33t-19.5 -40t-5 -36.5q0 -25 12 -47.5t30.5 -38.5t42 -25.5t44.5 -9.5q53 0 92 33t90 84zM780 426q-31 0 -66.5 -19.5 t-66.5 -44.5q-37 -29 -72 -63q33 -29 56.5 -48.5t43 -32.5t39 -21.5t44.5 -14.5q25 -4 49 1t45 26q41 41 41 90q0 45 -33 86t-80 41z" />
<glyph unicode="&#x222b;" horiz-adv-x="548" d="M313 596q12 55 26.5 121.5t42.5 124t73 96.5t118 39q49 0 95 -27l-27 -65q-16 10 -32.5 15t-39.5 5h-14t-16 -2q-39 -6 -60.5 -39t-35 -77t-22.5 -95t-22 -96l-96 -510q-12 -70 -31.5 -133.5t-49 -110.5t-74 -74.5t-107.5 -27.5q-35 0 -74 14l25 76q20 -12 33.5 -15 t35.5 -3q39 0 68 33.5t51.5 99t43 160t40.5 212.5z" />
<glyph unicode="&#x2248;" horiz-adv-x="782" d="M705 516v-2q-72 -143 -175 -143q-33 0 -76.5 17.5t-78.5 31.5l-43 20q-16 10 -34.5 17.5t-35.5 7.5q-25 0 -44 -11.5t-34.5 -29.5t-28 -38.5t-22.5 -39.5l-4 -6l-45 68h2q12 20 28.5 43.5t38 44t49 34t60.5 13.5q31 0 65.5 -13.5t69.5 -29.5l23 -11q33 -16 60.5 -27 t49.5 -11q20 0 39 11t34 27.5t26.5 36t19.5 35.5l2 2zM705 340v-2q-72 -143 -175 -143q-33 0 -76.5 17t-78.5 32l-43 20q-16 10 -34.5 17.5t-35.5 7.5q-25 0 -44 -11.5t-34.5 -30t-28 -39t-22.5 -38.5l-4 -6l-45 67h2q12 20 28.5 44t38 44.5t49 34t60.5 13.5 q31 0 65.5 -13.5t69.5 -29.5l23 -11q33 -16 60.5 -27.5t49.5 -11.5q20 0 39 11.5t34 28t26.5 36t19.5 35.5l2 2z" />
<glyph unicode="&#x2260;" horiz-adv-x="827" d="M721 242v-84h-363l-45 -86h-77l45 86h-179v84h224l88 166h-312v84h355l51 94h76l-49 -94h186v-84h-232l-88 -166h320z" />
<glyph unicode="&#x2264;" horiz-adv-x="763" d="M63 84h619v-84h-619v84zM651 688l-501 -244q12 -6 67 -32q47 -23 149.5 -71t284.5 -136v-78l-590 285v67l590 287v-78z" />
<glyph unicode="&#x2265;" horiz-adv-x="763" d="M63 84h619v-84h-619v84zM61 203q184 90 287 140t150 73q55 27 65 33q-10 4 -65 30q-47 23 -149.5 72t-287.5 137v78l590 -285v-67l-590 -287v76z" />
<glyph unicode="&#x25ca;" horiz-adv-x="888" d="M844 414l-391 -445l-392 445l392 444zM739 414l-286 325l-287 -325l287 -324z" />
<glyph unicode="&#x25cc;" horiz-adv-x="1019" d="M838 756q0 -39 -41 -39q-45 0 -45 39q0 45 45 45q41 0 41 -45zM709 842q0 -41 -39 -41q-45 0 -45 41q0 45 45 45q39 0 39 -45zM926 629q0 -45 -45 -45q-43 0 -43 45q0 43 45 43q43 0 43 -43zM956 477q0 -43 -41 -43q-45 0 -45 43t45 43q41 0 41 -43zM559 874 q0 -45 -45 -45q-41 0 -41 45q0 43 41 44q45 -1 45 -44zM408 842q0 -41 -43 -41t-43 41q0 45 43 45t43 -45zM926 326q0 -43 -45 -43q-43 0 -43 43q0 45 43 45q45 0 45 -45zM279 756q0 -39 -43 -39t-43 39q0 45 43 45t43 -45zM838 195q0 -43 -41 -43q-43 0 -43 43q0 45 43 45 q41 0 41 -45zM709 109q0 -39 -39 -39q-43 0 -43 39q0 45 43 45q39 0 39 -45zM193 629q0 -45 -41 -45q-45 0 -46 45q0 43 44 43q43 0 43 -43zM164 477q0 -43 -43 -43q-45 0 -45 43t45 43q43 0 43 -43zM559 82q0 -45 -45 -45q-41 0 -41 45q0 43 41 43q45 0 45 -43zM193 326 q0 -43 -43 -43t-44 43q0 45 44 45q43 0 43 -45zM408 113q0 -43 -43 -43t-43 39q0 45 43 45t43 -41zM279 195q0 -43 -43 -43t-43 43q0 45 43 45t43 -45z" />
<glyph unicode="&#x25fc;" horiz-adv-x="665" d="M0 666h666v-666h-666v666z" />
<glyph unicode="&#xf700;" horiz-adv-x="751" d="M326 729q-72 -4 -106 -31.5t-38 -38.5q82 -4 138.5 -12t91.5 -14q41 -8 65 -15q78 -25 100.5 -61.5t22.5 -83.5v-24.5t-2 -26.5l-33 -422h-86q-12 41 -28 90q-14 41 -36 96.5t-55 114.5q-33 -59 -114 -59q-63 2 -95 43t-32 88t32.5 87t102.5 40q43 0 74.5 -16.5 t52.5 -61.5l111 -238l26 262v15q0 55 -41 78.5t-108 33.5q-31 4 -72 9q-35 4 -86 6t-119 2h-31q4 31 23.5 67.5t52.5 67.5t78 51.5t100 20.5h11q78 -4 139 -25.5t104 -21.5q23 0 39.5 11t26.5 40q0 2 6 -4q4 -4 16.5 -14.5t32.5 -28.5q-18 -39 -45 -59.5t-51 -20.5 q-33 0 -64.5 9t-63.5 19.5t-63.5 18.5t-66.5 8h-10zM252 303q33 0 49 20.5t16 47.5t-16 47t-49 20t-49.5 -20.5t-16.5 -46.5q0 -27 16.5 -47.5t49.5 -20.5z" />
<glyph unicode="&#xf701;" d="M-567 1225q80 -10 135 -42t91 -76t54.5 -95t22.5 -101q-59 23 -112.5 37.5t-94.5 22.5q-49 8 -88 14q-20 2 -43 4q-20 2 -47 2h-62q-45 0 -97 -2t-107 -10q14 57 44.5 103t71.5 78t91.5 49.5t103.5 17.5h18.5t18.5 -2zM-545 1044q18 -2 42 -6t50.5 -9t52 -13t44.5 -21 q-10 23 -25.5 49.5t-42.5 52t-69 44t-105 20.5h-14q-72 0 -124 -37t-69 -77q37 4 61.5 5t45.5 1h24q25 0 47.5 -1t40.5 -3q23 -3 41 -5z" />
<glyph unicode="&#xf702;" d="M-276 971l14 -60q-53 23 -105.5 36.5t-93.5 21.5q-49 8 -94 14q-20 2 -45 4q-23 2 -52.5 2h-64.5q-43 0 -93 -2t-103 -8q12 53 41.5 98t71.5 79t91.5 52.5t100.5 18.5q49 -2 96 -15q41 -10 84 -31.5t72 -62.5v185h80v-332zM-571 1049q43 -2 82 -11q35 -6 70.5 -16 t64.5 -27q-18 55 -72.5 104.5t-151.5 59.5q-4 2 -10 2h-16q-78 0 -133.5 -37t-67.5 -77q35 4 59.5 5t45.5 1h59.5t69.5 -4z" />
<glyph unicode="&#xf703;" d="M-360 1305q53 0 79.5 -33t26.5 -72q0 -35 -20.5 -63.5t-61.5 -36.5q33 -43 50.5 -92.5t21.5 -96.5q-59 23 -112.5 37.5t-94.5 22.5q-49 8 -88 14q-20 2 -43 4q-20 2 -47 2h-62q-45 0 -97 -2t-107 -10q14 57 44.5 103t71.5 78t91.5 49.5t103.5 17.5h18t19 -2 q29 -4 53.5 -10.5t46.5 -16.5v4q0 39 27 71t80 32zM-360 1260q-29 0 -43.5 -17.5t-14.5 -40.5t17.5 -39t40.5 -16q29 0 43 17.5t14 39.5q0 23 -14 39.5t-43 16.5zM-539 1047q18 -2 42 -6.5t49.5 -10.5t49 -15t42.5 -20q-10 23 -25.5 49.5t-42.5 52t-69 44t-105 20.5h-14 q-72 0 -124 -37t-69 -77q37 4 61.5 5t45.5 1q41 0 81.5 -1t77.5 -5z" />
<glyph unicode="&#xf704;" d="M-279 971l9 -29q4 -12 6 -31q-53 23 -105.5 36.5t-93.5 21.5q-49 8 -94 14q-10 2 -50 4t-112 2q-43 0 -93 -2t-103 -8q12 53 42.5 98t71.5 79t90 52.5t101 18.5q35 0 62.5 -5t47.5 -12v93h78v-127q12 -8 23 -17q10 -8 20 -18.5t21 -22.5v185h79v-332zM-573 1049 q43 -2 81 -11q35 -6 72 -16t64 -27q-18 55 -72.5 104.5t-151.5 59.5q-4 2 -10 2h-16q-76 0 -131.5 -37t-69.5 -77q35 4 59.5 5t45.5 1h28h26.5t31 -1t43.5 -3z" />
<glyph unicode="&#xf705;" d="M-406 1284h80v-317h-80v317v0z" />
<glyph unicode="&#xf706;" d="M-240 1208l64 -24q-8 -39 -37 -79t-73 -70.5t-104.5 -50t-129.5 -19.5q-47 0 -85 1t-61 11l-18 41q31 0 53.5 10t38.5 25q18 16 33 37q-14 -2 -24.5 0t-20.5 6t-21 8q-25 14 -42 39.5t-17 54.5q0 57 39 84t80 27q59 0 87.5 -38t28.5 -77q0 -20 -4 -39.5t-8 -26.5 q-8 -23 -20 -43q-10 -16 -25.5 -34.5t-36.5 -28.5q68 -4 122 14.5t93 47t61.5 63t26.5 61.5zM-569 1145q29 0 43 16.5t14 37t-13.5 37.5t-39.5 17q-29 2 -43.5 -14t-14.5 -36.5t13.5 -39t40.5 -18.5z" />
<glyph unicode="&#xf707;" d="M-199 1278q2 -16 4 -44t-3 -59.5t-16 -65.5t-32 -65q-25 -35 -57.5 -52t-64 -24t-60.5 -7t-43 2l-6 12q14 18 30.5 41.5t22.5 64.5q2 12 4 32t-1 39t-13 35.5t-31 22.5q-16 4 -33 2q-14 -2 -29.5 -9t-31.5 -25q-10 16 -24.5 24t-28.5 12q-16 6 -33 5q-37 2 -61.5 -19.5 t-22.5 -56.5q8 10 19.5 14t21.5 8q12 4 24 2q47 0 77 -27.5t30 -74.5q0 -43 -33 -73.5t-74 -30.5q-33 0 -58.5 15t-42.5 38.5t-25.5 54.5t-6.5 61q4 59 40 104.5t106 45.5q16 0 33 -4q14 -4 29.5 -10t29.5 -21q16 12 33.5 18.5t33.5 8.5q18 2 37 0q33 -2 54.5 -19.5t33 -40 t14.5 -47t1 -43.5q-4 -39 -13.5 -61.5t-17.5 -32.5q18 4 33.5 14.5t25.5 22.5q12 14 25 31q18 35 22.5 86t-6.5 86zM-664 1118q-27 0 -40 -16.5t-13 -34.5t13.5 -34.5t37.5 -16.5q27 0 41.5 16.5t14.5 34.5t-13.5 34.5t-40.5 16.5z" />
<glyph unicode="&#xf708;" d="M-248 1169v-77h-125v-125h-80v125h-122v77h122v125h80v-125h125z" />
<glyph unicode="&#xf709;" d="M-444 1184q16 8 41 8q37 2 73.5 -27.5t36.5 -85.5q0 -14 -6 -32.5t-19.5 -36t-37 -30.5t-56.5 -13q-57 0 -94 40t-37 97q0 61 31 96t66 49q20 8 35.5 12.5t32 9.5t38 11t51.5 21q16 8 29 18q10 10 19.5 23.5t13.5 29.5l59 -16q-6 -35 -29.5 -60.5t-58.5 -42.5 q-43 -20 -81 -30.5t-52 -14.5q-10 -2 -21 -6q-22 -6 -34 -20zM-410 1143q-25 0 -43 -17.5t-18 -42.5q0 -27 18.5 -44t42.5 -17q25 0 42.5 17.5t17.5 41.5q0 27 -17.5 44.5t-42.5 17.5z" />
<glyph unicode="&#xf70a;" d="M-123 1284v-317h-80v317h80z" />
<glyph unicode="&#xf70b;" d="M-14 1208l63 -24q-8 -39 -36.5 -78t-72.5 -70.5t-103.5 -51t-131.5 -19.5q-47 0 -85 1t-60 11l-19 41h4q29 0 51.5 11t38.5 26q18 16 31 35h-10q-45 0 -80 31.5t-35 76.5q0 57 39 84t80 27q59 0 88 -38t29 -77q0 -20 -4 -39.5t-9 -26.5q-8 -23 -20 -43 q-10 -16 -24.5 -34.5t-34.5 -28.5h20q61 0 111.5 19.5t87.5 47t57.5 60t24.5 59.5zM-344 1145q29 0 43 17.5t14 37.5t-13 36.5t-40 16.5h-4q-27 0 -40 -16t-13 -37q0 -20 13 -36.5t40 -18.5z" />
<glyph unicode="&#xf70c;" d="M35 1278q2 -10 3 -23.5t1 -29.5q0 -41 -10.5 -89.5t-40.5 -91.5q-37 -53 -92.5 -68t-96.5 -15q-12 0 -21 1t-16 1l-6 12q14 18 30.5 41.5t23.5 64.5q2 10 3 21.5t1 25.5q0 27 -8.5 50.5t-36.5 31.5q0 2 -5 2h-14q-14 0 -35.5 -6t-40.5 -28q-10 16 -24.5 24t-28.5 12 q-16 6 -33 5h-4q-35 0 -57.5 -19.5t-22.5 -52.5v-4q8 10 19.5 14t21.5 8q12 4 25 2q47 0 76.5 -27.5t29.5 -74.5q0 -43 -32.5 -73.5t-73.5 -30.5q-61 0 -97 49t-36 108v12q4 59 40 104.5t105 45.5q16 0 33 -4q14 -4 29.5 -10t29.5 -21q20 16 52 23q31 6 55 4q61 -8 80.5 -52 t19.5 -83v-15q-4 -39 -13 -61.5t-18 -32.5q18 4 34 14.5t26 22.5q12 14 24 31q12 23 18.5 53.5t6.5 58.5q0 16 -2 31.5t-6 28.5zM-430 1118q-27 0 -40 -15.5t-13 -35.5q0 -18 13 -34.5t38 -16.5q29 0 42 16.5t13 36.5q0 18 -13 33.5t-40 15.5z" />
<glyph unicode="&#xf70d;" d="M2 1169v-77h-125v-125h-80v125h-123v77h123v125h80v-125h125z" />
<glyph unicode="&#xf70e;" d="M-262 1184q10 6 23.5 7t25.5 1q35 -2 68.5 -30.5t33.5 -82.5q0 -14 -5 -32.5t-19.5 -36t-37 -29.5t-56.5 -14q-57 0 -94 40t-37 97q0 61 30.5 96t65.5 49q20 8 35.5 12.5t32 9.5t38 11t52.5 21q16 8 28 18q10 10 19.5 23.5t13.5 29.5l59 -16q-4 -25 -28.5 -55.5 t-59.5 -47.5q-43 -20 -81 -30.5t-52 -14.5q-10 -2 -20 -6q-23 -6 -35 -20zM-227 1143q-25 0 -43.5 -17.5t-18.5 -42.5q0 -27 18.5 -44t43.5 -17t42 17.5t17 41.5q0 27 -17 44.5t-42 17.5z" />
<glyph unicode="&#xf70f;" horiz-adv-x="1083" d="M109 438q0 47 25.5 88t58.5 54q-20 16 -47 26t-50 19q-27 8 -55 14q39 59 92 91t100 48q55 18 115 21q61 0 115.5 -11.5t96.5 -38t65.5 -68.5t23.5 -103v-504h174q74 0 74 80v634h84v-634q0 -68 -36 -111t-118 -43h-311v74h49v504q0 37 -17.5 65.5t-45 48t-64.5 28.5 t-76 9q-53 0 -104 -17.5t-88 -52.5q23 -6 47.5 -18t44.5 -27q23 -16 45 -34q-43 -10 -67.5 -34t-34.5 -50q-12 -31 -15 -66v-192q20 10 50 10q68 0 101.5 -41t33.5 -88t-32 -86t-95 -39q-53 0 -96 31.5t-43 97.5v315v0zM244 184q-33 0 -48.5 -19.5t-15.5 -41.5 q0 -23 15.5 -43.5t48.5 -20.5t49 19.5t16 44.5q0 23 -15 42t-50 19z" />
<glyph unicode="&#xf710;" d="M-25 1147q-2 -2 -2 -4t-2 -4q-31 -35 -63.5 -70t-74.5 -63.5t-96 -46t-124 -17.5q-39 0 -83 7t-81 25.5t-61.5 48.5t-24.5 75q0 47 29.5 89t97.5 42q66 0 96.5 -39t30.5 -82q0 -53 -33 -82q18 -4 32.5 -5t27.5 -1q59 0 107 26.5t85 61.5q43 39 78 88zM-512 1040 q29 0 46 18.5t17 45.5q0 29 -16 47t-47 18q-27 0 -44 -18t-17 -47q0 -27 17 -45.5t44 -18.5z" />
<glyph unicode="&#xf711;" d="M-430 1219q72 0 107.5 -43t35.5 -97q0 -53 -35.5 -97t-107.5 -44t-108.5 44t-36.5 97t36.5 96.5t108.5 43.5zM-430 1004q39 0 58.5 23.5t19.5 51.5q0 29 -19.5 52.5t-58.5 23.5q-41 0 -59.5 -23.5t-18.5 -52.5t18.5 -52t59.5 -23z" />
<glyph unicode="&#xf712;" d="M-209 1335q-6 -68 -51 -99.5t-150 -31.5q-29 0 -62.5 3t-72.5 7l-18 3q-43 0 -76 -23t-33 -70q0 -35 25 -82q14 35 47 43.5t47 8.5h6q16 0 35 -4q35 -6 63 -35v12q0 41 29 65.5t68 24.5q49 0 73.5 -29.5t24.5 -64.5q0 -37 -25.5 -69.5t-78.5 -32.5h-9q-37 2 -61.5 13 t-45 24.5t-39.5 24.5t-44 11q-14 0 -27 -8q-10 -8 -20 -22.5t-14 -42.5l-31 -5q-14 2 -30.5 18.5t-30 42t-21.5 55.5t-8 61q0 29 8 51q20 53 63 72.5t103 19.5h21.5t21.5 -2q25 -2 51.5 -3t52.5 -1q59 0 102.5 13t43.5 54v11zM-352 1112q-25 0 -37 -15.5t-12 -33.5t12 -32.5 t37 -14.5q23 0 35 15.5t12 33.5t-11 32.5t-36 14.5z" />
<glyph unicode="&#xf713;" d="M-276 1632v-256h-78v256h78z" />
<glyph unicode="&#xf714;" d="M-27 1581l64 -25q-8 -39 -30.5 -74.5t-60.5 -63t-90.5 -44t-117.5 -16.5q-43 0 -78 2t-57 10l-17 47h4q29 0 48.5 11.5t33.5 23.5q16 14 29 33h-10q-45 2 -76 29.5t-31 70.5q0 53 37 78t76 25q53 0 79.5 -35t26.5 -72q0 -59 -29.5 -101t-56.5 -59h23q57 0 99 16.5t71 40 t44 51t19 52.5zM-307 1536q27 0 40 15.5t13 33.5t-13.5 34.5t-37.5 16.5h-4q-25 0 -37 -15t-12 -34q0 -18 13 -33.5t38 -17.5z" />
<glyph unicode="&#xf715;" d="M4 1663q2 -10 3 -21.5t1 -27.5q0 -35 -9 -79t-36 -83q-33 -47 -82 -60.5t-86 -13.5q-10 0 -19 1t-16 1l-6 11q12 16 27.5 37.5t21.5 58.5q4 20 4 39q0 23 -8 45t-35 31q0 2 -4 2h-14q-12 0 -30.5 -5.5t-34.5 -25.5q-10 14 -22.5 21.5t-25.5 11.5q-14 4 -28 4h-4 q-33 0 -53.5 -19.5t-20.5 -48.5q8 8 18.5 12.5t20.5 6.5t22 2q41 0 68 -25t27 -65q0 -39 -29 -66t-66 -27q-57 0 -88.5 42t-31.5 96v12q4 53 36.5 94t94.5 41q14 0 28 -4q12 -4 26.5 -10t27.5 -19q20 16 43.5 20.5t37.5 4.5h13q27 -2 45 -14.5t28.5 -30t14.5 -37t4 -37.5 v-14q-4 -35 -12.5 -55.5t-14.5 -30.5q16 4 29.5 13t24.5 19q10 12 20 29q12 20 17.5 47t5.5 53q0 33 -7 54zM-412 1520q-25 0 -37 -15.5t-12 -31.5t12.5 -31t34.5 -15q25 0 37 15.5t12 32.5q0 16 -12 30.5t-35 14.5z" />
<glyph unicode="&#xf716;" d="M-166 1561v-72h-113v-113h-73v113h-113v72h113v110h73v-110h113z" />
<glyph unicode="&#xf717;" d="M-352 1475q16 8 41 8q37 2 73.5 -28t36.5 -85q0 -14 -6 -32.5t-19.5 -36t-37 -31t-55.5 -13.5q-57 0 -94.5 40t-37.5 98q0 61 31 96t66 49q20 8 35.5 12t32 9.5t38 11.5t51.5 20q16 8 29 19q10 10 19.5 23.5t13.5 29.5l59 -16q-6 -35 -29.5 -60.5t-58.5 -42.5 q-43 -20 -81 -30.5t-52 -14.5q-10 -2 -20 -6q-23 -6 -35 -20zM-317 1434q-25 0 -43.5 -17.5t-18.5 -42.5q0 -27 18.5 -44t43.5 -17t42 17.5t17 41.5q0 27 -17 44.5t-42 17.5z" />
<glyph unicode="&#xf718;" d="M-231 -397q57 0 88.5 -33t31.5 -92v-213h-71v112q-8 -2 -16.5 -5t-28.5 -3q-59 0 -88 37t-29 80t29 79t84 38zM-227 -573q29 0 43 19t14 42t-14.5 40t-42.5 17q-29 0 -44.5 -17t-15.5 -40t15.5 -42t44.5 -19z" />
<glyph unicode="&#xf719;" d="M-399 -561q29 0 42 16.5t13 38.5q0 23 -14.5 39t-42.5 16q-29 0 -42.5 -17t-13.5 -38q0 -20 13.5 -37.5t42.5 -17.5h2zM-358 -735v125q-8 -2 -14.5 -3t-24.5 -1q-57 0 -85 33.5t-28 74.5t27.5 74t81.5 33q53 0 83.5 -32t30.5 -73v-164h62q16 0 29.5 8.5t13.5 26.5v225h71 v-233q0 -53 -28.5 -73.5t-75.5 -20.5h-143z" />
<glyph unicode="&#xf71a;" d="M-207 -606q-41 0 -59.5 23.5t-18.5 52.5t18.5 52t59.5 23q39 0 58.5 -23.5t19.5 -51.5q0 -29 -19.5 -52.5t-58.5 -23.5z" />
<glyph unicode="&#xf71b;" horiz-adv-x="919" d="M807 569v-856l-133 -100q-16 14 -45 37q-25 18 -66 44.5t-102 61.5q-8 -27 -20.5 -53.5t-33 -48t-51 -34.5t-75.5 -13q-72 0 -108 41t-36 98q0 37 14.5 64.5t38 44t53 24.5t60.5 8q29 0 62.5 -12t37.5 -14q4 20 5.5 40.5t3.5 37.5q2 18 0 34l77 -20q0 -16 -2 -46t-10 -77 q59 -33 112.5 -65.5t72.5 -51.5l61 56v796q0 78 -65.5 121t-153.5 43q-51 0 -103.5 -16.5t-97.5 -50.5q27 -6 51.5 -18.5t44.5 -27.5q23 -16 47 -34q-43 -8 -67.5 -33t-34.5 -53q-12 -33 -14 -70v-309q0 -53 -39 -89t-98 -36q-66 0 -99 41t-33 88t33 86t99 39q16 0 31.5 -2 t21.5 -6v178q0 78 26.5 113.5t59.5 52.5q-20 16 -48 26t-51 19q-27 8 -55 12q37 59 94.5 91t110.5 48q63 18 129 21q129 0 212 -62t83 -168zM190 55q35 0 50.5 20.5t15.5 43.5t-15.5 42t-50.5 19q-33 0 -48 -19.5t-15 -41.5q0 -23 15 -43.5t48 -20.5zM287 -322q23 2 45 15 q18 10 34.5 32.5t20.5 63.5q-29 10 -54.5 17.5t-45.5 7.5q-33 0 -52.5 -20.5t-19.5 -49.5q0 -35 24.5 -50.5t47.5 -15.5z" />
<glyph unicode="&#xf71c;" horiz-adv-x="919" d="M807 569v-882l-111 -70l-98 88l-106 -94q-8 10 -21 24q-10 12 -24.5 29t-36.5 37q-12 -37 -36 -57.5t-47.5 -29.5t-42 -10t-22.5 -1q-51 0 -91 34.5t-40 102.5q0 57 43 92t98 35q49 0 93 -31l16 141l78 -18q-6 -47 -12.5 -89t-14.5 -83q18 -18 30.5 -32.5t22.5 -24.5 q10 -12 19 -21l94 80l88 -76l39 19v827q0 41 -17.5 72t-48 53.5t-70.5 33.5t-83 11q-51 0 -103.5 -16.5t-97.5 -50.5q29 -8 53.5 -20.5t44.5 -27.5q23 -16 43 -32q-43 -8 -67.5 -33t-34.5 -53q-12 -33 -14 -72v-307q0 -53 -38 -88t-97 -35q-66 0 -100 41t-34 88t34 86 t100 39q16 0 30.5 -3t22.5 -7v174q0 78 24.5 116.5t59.5 51.5q-16 16 -43 26t-51 19q-29 8 -60 14q37 59 94.5 91t110.5 48q63 18 129 21q131 0 213 -62t82 -168zM193 55q35 0 50 19.5t15 44.5t-15.5 44t-49.5 19q-33 0 -49.5 -19.5t-16.5 -43.5q0 -25 16.5 -44.5 t49.5 -19.5zM301 -322q12 8 23 19q23 23 28 61q-41 41 -82 41q-35 0 -51 -19.5t-16 -45.5q0 -29 20.5 -47.5t44.5 -18.5q17 0 33 10z" />
<glyph unicode="&#xf71d;" horiz-adv-x="987" d="M911 885l52 -41q-27 -51 -65 -88t-58 -47v-709h-88q0 4 -5.5 35t-17.5 59l-192 465l-187 -467q-4 -12 -10 -26q-10 -29 -16 -66h-84v545q-16 -4 -29.5 -7t-28.5 -3q-66 2 -98.5 42.5t-32.5 90.5q0 49 34 90t99 41q72 0 106 -43t34 -101v-444l194 487h33l207 -487v465 q-8 -4 -18.5 -5t-18.5 -1q-66 0 -97.5 40t-31.5 89q0 53 36 87t93 34q49 0 86 -36t37 -87q12 10 23.5 24.5t21.5 28.5q10 17 22 35zM184 602q35 0 50.5 21.5t15.5 46.5t-15.5 45t-50.5 20q-33 0 -48 -20.5t-15 -44.5q0 -25 15 -46.5t48 -21.5zM717 735q31 0 45 19.5t14 42.5 t-14 41t-45 18q-29 0 -44.5 -18.5t-15.5 -40.5q0 -23 15.5 -42.5t44.5 -19.5z" />
<glyph horiz-adv-x="686" d="M70 592l75 -31q12 78 60.5 124t120.5 46q74 0 117.5 -42t43.5 -120v-569h82v565q0 98 -60 166t-183 68q-111 0 -171 -55.5t-85 -151.5zM-446 1004q39 0 58 23.5t19 51.5q0 29 -19.5 52.5t-57.5 23.5q-41 0 -59.5 -23.5t-18.5 -52.5t18.5 -52t59.5 -23zM-446 1219 q72 0 107.5 -43t35.5 -97q0 -53 -36 -97t-107 -44q-72 0 -109 44t-37 97t37 96.5t109 43.5z" />
<glyph d="M-242 1266q-10 0 -24.5 1t-30.5 1q-29 0 -51.5 -9.5t-26.5 -31.5q0 -39 28 -53.5t40 -14.5v-67h-68q-25 0 -53.5 -9.5t-28.5 -35.5q0 -37 25.5 -47.5t52.5 -10.5q12 0 22.5 1t14.5 1v-49q-25 -10 -59 -10q-25 0 -48.5 9t-39.5 22q-14 12 -26.5 33.5t-12.5 45.5 q0 57 43 79t94 22q-12 0 -31.5 20.5t-19.5 46.5q0 12 4 32t18 36q29 35 66 40t84 5h28v-57z" />
</font>
</defs>
</svg>
