<?xml version="1.0" standalone="no"?>
<!DOCTYPE svg PUBLIC "-//W3C//DTD SVG 1.1//EN" "http://www.w3.org/Graphics/SVG/1.1/DTD/svg11.dtd" >
<svg xmlns="http://www.w3.org/2000/svg">
<metadata></metadata>
<defs>
<font id="cmprasanmitbold" horiz-adv-x="0" >
<font-face units-per-em="2048" ascent="1638" descent="-410" />
<missing-glyph horiz-adv-x="638" />
<glyph unicode="&#xe4f;&#x22;" horiz-adv-x="897" d="M336 711v211h90v-211h-90zM461 711v211h90v-211h-90zM440 207q53 0 91 37t38 90t-37.5 91t-91.5 38q-53 0 -89 -38t-36 -91t36 -90t89 -37zM662 334q0 -45 -17.5 -85t-47.5 -68.5t-70 -46t-87 -17.5q-92 0 -154.5 62.5t-62.5 154.5q0 47 17.5 87t46 68.5t68.5 46t85 17.5 q47 0 87 -17.5t70 -46t47.5 -68.5t17.5 -87zM440 74q106 0 183 76q78 78 77 184q0 106 -77 184q-74 78 -183 78q-104 0 -182 -78q-76 -80 -76 -184q0 -55 19.5 -100.5t56.5 -83.5q80 -76 182 -76zM795 334q0 -143 -105 -248q-102 -102 -250 -102q-143 0 -247 104t-105 246 q0 145 102 248q102 102 250 102q150 0 250 -102q105 -101 105 -248z" />
<glyph unicode="&#xe24;&#xe32;" horiz-adv-x="1331" d="M952 797q123 0 195 -70t72 -186v-856h-132v860q0 66 -34.5 100.5t-100.5 34.5q-59 0 -101 -38t-52 -105v-852h-133v858q0 41 -27 70.5t-53 43.5q-31 16 -73 22.5t-85 3.5t-84 -16.5t-68 -37.5q53 -14 96.5 -40t55.5 -48q-12 -4 -23.5 -7.5t-19.5 -7.5l-16 -8 q-33 -18 -48.5 -50t-15.5 -65v-114q6 0 17.5 3t17.5 3q47 0 78 -20.5t47 -49.5q20 -35 20 -81t-20 -81q-39 -70 -129 -69q-29 0 -57.5 9t-52 27.5t-38 48.5t-14.5 68v267q0 47 19.5 78.5t62.5 60.5q-16 10 -39 18q-20 8 -49 14.5t-70 10.5q20 51 56 86t76 57.5t82 33.5 t76 16.5t54 6.5l21 1q92 0 160.5 -27t111.5 -72q76 99 217 99zM334 84q33 0 49 19.5t16 41.5q0 23 -16 42.5t-49 19.5t-48.5 -19.5t-15.5 -42.5t15.5 -42t48.5 -19z" />
<glyph unicode="&#xe26;&#xe32;" horiz-adv-x="1384" d="M1006 797q123 0 194.5 -70t71.5 -186v-856h-131v860q0 66 -35 100.5t-100 34.5q-61 0 -103.5 -39t-52.5 -109v-847h-133v866q0 43 -25.5 68.5t-46.5 35.5q-53 27 -127 27q-45 0 -89 -12.5t-79 -40.5q35 -10 64 -25q25 -12 50 -27.5t36 -35.5q-18 -6 -40 -15.5t-40.5 -25 t-30.5 -39t-12 -60.5v-258q0 -23 -9.5 -49t-29 -48.5t-50 -37t-71.5 -14.5q-78 0 -117 48t-39 105q0 27 9.5 53.5t29 48t49 35t68.5 13.5q8 0 14.5 -1t14.5 -3v106q0 41 8 67t20.5 41t27.5 25.5t28 20.5q-20 12 -47 21.5t-52 13.5q-29 6 -59 8q29 76 89.5 117t119.5 59 q70 23 149 25q78 0 145.5 -24.5t110.5 -67.5l5 -3q76 95 215 95zM215 84q29 0 46.5 18.5t17.5 42.5q0 29 -17.5 45.5t-46.5 16.5t-45 -17.5t-16 -44.5q0 -29 16 -45t45 -16z" />
<glyph unicode="fi" horiz-adv-x="931" d="M688 952h162v-149h-162v149zM57 668h131v98q0 84 35 133t92 68q20 6 41 8t41 2q66 0 107 -19.5t62.5 -47t28.5 -58.5t7 -55v-15h-125v4q0 8 -1 20.5t-8 23t-21.5 18.5t-38.5 8q-25 0 -50.5 -9t-31.5 -48q-2 -10 -2 -18.5v-18.5q0 -16 1 -30.5t1 -24.5v-39h514v-668h-140 v565h-374v-565h-138v565h-131v103z" />
<glyph unicode="fl" horiz-adv-x="931" d="M840 975v-975h-140v975h140zM57 668h131v98q0 84 35 133t92 68q20 6 41 8t41 2q66 0 107 -19.5t62.5 -47t28.5 -58.5t7 -55v-15h-125v4q0 8 -1 20.5t-8 23t-21.5 18.5t-38.5 8q-25 0 -50.5 -9t-31.5 -48q-2 -10 -2 -18.5v-18.5q0 -16 1 -30.5t1 -24.5v-39h278v-103h-278 v-565h-138v565h-131v103z" />
<glyph unicode="&#xd;" horiz-adv-x="638" />
<glyph unicode=" "  horiz-adv-x="638" />
<glyph unicode="&#x09;" horiz-adv-x="638" />
<glyph unicode="&#xa0;" horiz-adv-x="638" />
<glyph unicode="!" horiz-adv-x="514" d="M324 981h26v-317l-18 -431h-109l-18 433v315h119zM205 166h119h26v-166h-145v166z" />
<glyph unicode="&#x22;" horiz-adv-x="544" d="M236 608h-140v336h140v-336zM449 608h-140v336h140v-336z" />
<glyph unicode="#" horiz-adv-x="753" d="M346 655h146l49 275h118l-49 -275h123v-98h-143l-37 -209h137v-100h-158l-49 -275h-114l49 275h-144l-53 -275h-121l52 275h-134v100h152l37 209h-139v98h157l49 275h123zM438 348l35 209h-143l-37 -209h145z" />
<glyph unicode="$" horiz-adv-x="927" d="M424 813q-59 -4 -94 -38t-35 -99q0 -23 13.5 -40.5t32.5 -30.5t42 -23.5t41 -16.5v248v0zM500 104q66 4 109.5 40t43.5 112q0 29 -13 51.5t-35.5 40t-49.5 28.5t-55 17v-289v0zM502 1032v-90q55 -2 106 -16.5t90 -43t63.5 -74.5t31.5 -112h-152q-2 63 -44 90t-97 31v-276 q53 -14 107.5 -34t98.5 -50.5t71.5 -75.5t27.5 -113q0 -74 -24.5 -126t-66.5 -87t-98.5 -53t-117.5 -22v-117h-78v117q-49 0 -102.5 14t-96.5 47t-69.5 86t-26.5 133h151q2 -80 41 -115.5t103 -40.5v310q-53 16 -103.5 34.5t-88.5 47t-61.5 72.5t-23.5 114q0 57 25 104.5 t64.5 81t90 52t101.5 20.5v92h78z" />
<glyph unicode="%" horiz-adv-x="1230" d="M254 -51l596 1026h100l-594 -1026h-102zM1149 221q0 -100 -51 -170.5t-172 -70.5t-172.5 70.5t-51.5 170.5t51.5 171t172.5 71t172 -71t51 -171zM819 221q0 -27 4 -53.5t16.5 -48t33 -34.5t53.5 -13t53 13t32.5 34.5t16.5 48.5t4 53q0 27 -4 53.5t-16.5 48t-33 36 t-52.5 14.5q-33 0 -53.5 -14.5t-33 -36t-16.5 -48t-4 -53.5zM528 700q0 -100 -51 -170.5t-172 -70.5t-172 70.5t-51 170.5t51 171t172 71t172 -71t51 -171zM199 700q0 -27 4 -53t16 -47.5t32.5 -35t53.5 -13.5t53.5 13.5t32.5 35t16.5 48t4.5 52.5q0 27 -4.5 53.5t-16.5 48 t-32.5 36t-53.5 14.5t-53.5 -14.5t-32.5 -36t-16 -48t-4 -53.5z" />
<glyph unicode="&#x26;" horiz-adv-x="1050" d="M367 469q-57 -43 -99.5 -88t-42.5 -123q0 -39 17.5 -67.5t45 -48t63.5 -29t75 -9.5q63 0 116.5 29t98.5 70l-274 266v0zM541 770q0 45 -36 65.5t-79 20.5q-39 0 -74 -26.5t-35 -65.5q0 -16 11.5 -34.5t27 -37t31.5 -34t29 -27.5q20 14 42.5 31.5t41 36t30 37t11.5 34.5z M735 115q-82 -76 -164 -105.5t-194 -29.5q-59 0 -113.5 19t-96.5 55t-67.5 86t-25.5 114q0 109 58 179.5t140 127.5q-41 41 -73.5 94.5t-32.5 118.5q0 55 21.5 94t58.5 64.5t84 37t96 11.5q47 0 95 -10t86 -34t61.5 -63.5t23.5 -99.5q0 -35 -15 -67.5t-42 -63.5t-58.5 -57.5 t-66.5 -48.5l223 -220q39 70 52.5 148t7.5 164h153q-6 -109 -28.5 -213.5t-90.5 -190.5l228 -217l-8 -8h-197l-115 115v0z" />
<glyph unicode="'" horiz-adv-x="380" d="M260 608h-137v336h137v-336z" />
<glyph unicode="(" horiz-adv-x="626" d="M463 963q-47 -147 -84 -286.5t-37 -258.5q0 -121 37 -259.5t84 -285.5h-101q-23 59 -50 128t-50.5 140.5t-40 142t-16.5 134.5q0 63 16.5 134t40 142.5t51 140t49.5 128.5h101v0z" />
<glyph unicode=")" horiz-adv-x="628" d="M164 -127q49 147 85 285.5t36 259.5q0 119 -36 258t-85 287h102q23 -59 50.5 -128t51 -140.5t40 -142.5t16.5 -134t-16.5 -134t-40 -142.5t-51 -140.5t-50.5 -128h-102v0z" />
<glyph unicode="*" horiz-adv-x="751" d="M649 643l-221 25l131 -176l-98 -60l-88 201l-92 -199l-103 55l137 179l-213 -19v111l217 -29l-131 180l101 54l86 -199l88 199l100 -56l-135 -178l221 25v-113z" />
<glyph unicode="+" horiz-adv-x="790" d="M449 377h276v-105h-276v-272h-105v272h-276v105h276v272h105v-272z" />
<glyph unicode="," horiz-adv-x="413" d="M123 168h168v-164q0 -74 -48 -120t-118 -56v76q35 6 56.5 35.5t19.5 64.5h-78v164z" />
<glyph unicode="-" horiz-adv-x="466" d="M55 410h357v-105h-357v105z" />
<glyph unicode="." horiz-adv-x="387" d="M113 170h166v-170h-166v170z" />
<glyph unicode="/" horiz-adv-x="382" d="M68 -127h-101l350 1090h101z" />
<glyph unicode="0" horiz-adv-x="833" d="M102 451q0 84 14.5 167.5t51.5 151.5t99.5 110t160.5 42t160.5 -44t98.5 -113t50.5 -154t14.5 -169q0 -82 -14.5 -163.5t-50.5 -147t-98.5 -105.5t-160.5 -40t-160.5 42t-99.5 107.5t-51.5 149.5t-14.5 166zM338 147q35 -37 90 -36q57 0 90 36q27 27 44.5 64t26.5 76 t12 77.5t3 71.5v15q0 35 -3 76.5t-12 84.5t-25.5 82t-43.5 66q-35 35 -92 35t-92 -35q-27 -27 -44.5 -65t-26.5 -79t-13 -81.5t-4 -75.5v-13q0 -33 4 -73.5t14 -81.5t27.5 -79t44.5 -65z" />
<glyph unicode="1" horiz-adv-x="608" d="M303 909h141v-909h-145v241.5v181.5v129v87v92q-27 -31 -61 -55q-29 -23 -69 -40.5t-91 -19.5l2 136q41 -2 80 22.5t71 54.5q37 37 72 80z" />
<glyph unicode="2" horiz-adv-x="786" d="M188 842q80 80 211 80q133 0 215 -73t80 -196q-2 -66 -27.5 -121t-78.5 -118q-27 -31 -66 -74t-80 -84t-79.5 -77t-65.5 -52h414v-127h-598l2 123l20 20q39 39 84 79t91 82t89 88t80 97q35 49 54.5 87t15.5 83q-12 135 -148 136q-63 0 -100 -39q-20 -23 -28.5 -50.5 t-8.5 -60.5v-6h-151v6q-1 121 75 197z" />
<glyph unicode="3" horiz-adv-x="819" d="M94 248h152q0 -55 33 -90q47 -47 129 -47q33 0 64.5 8t56 24.5t40 43t15.5 65.5q0 41 -10.5 61.5t-32.5 40.5q-31 29 -82 38t-125 9h-8v127h8h43.5t53.5 5.5t53.5 15.5t45.5 29q20 18 30.5 35.5t10.5 52.5q0 57 -39.5 93t-119.5 36q-27 0 -54.5 -8.5t-49 -26t-35 -42 t-13.5 -56.5h-151q0 104 67 172q41 43 100.5 65.5t124.5 22.5q55 0 112.5 -13.5t104 -44t76 -80t29.5 -120.5q0 -72 -50 -125.5t-126 -73.5q84 -14 137 -72.5t53 -148.5q0 -125 -86 -191.5t-245 -66.5q-70 0 -136.5 20.5t-107.5 61.5q-70 74 -68 180z" />
<glyph unicode="4" horiz-adv-x="831" d="M489 909h146v-600h131v-127h-131v-182h-133v182h-424v123zM502 711q-76 -113 -137 -201q-27 -37 -51.5 -74t-44 -64.5t-31.5 -45.5l-13 -17l43 -1t94.5 -1t95.5 1l44 1l1 30q1 30 1 74v96v97v60z" />
<glyph unicode="5" horiz-adv-x="851" d="M143 229h152q2 -33 16.5 -54t36 -34.5t49 -19.5t54.5 -8q86 -4 132 50t46 140q0 78 -42 133.5t-122 55.5q-51 0 -98.5 -24t-77.5 -85l-2 -4h-131l39 522h514v-127h-402l-2 -36t-5 -76.5t-7 -76.5l-4 -36q29 35 81 50t113 15q72 0 126.5 -26.5t90 -71.5t53 -100.5 t17.5 -114.5q0 -143 -84 -229t-244 -86q-129 0 -211 64t-88 179z" />
<glyph unicode="6" horiz-adv-x="839" d="M733 678h-139q-2 16 -8 36.5t-22.5 38t-45.5 30t-76 12.5q-59 0 -97 -33t-59.5 -79t-30.5 -98.5t-9 -92.5q47 57 99 79.5t118 22.5q63 0 117.5 -21.5t93.5 -60.5t61.5 -94.5t22.5 -122.5q0 -66 -22.5 -122t-62.5 -98t-96.5 -65.5t-125.5 -23.5q-106 0 -174 41t-107 103.5 t-53.5 137t-14.5 142.5q0 74 12.5 163t49.5 166.5t106.5 130t186.5 52.5q119 0 191.5 -67.5t84.5 -176.5zM270 289q0 -72 43 -125t131 -53q78 0 122 52t44 118q0 35 -7 67.5t-26.5 59t-52 43t-82.5 16.5q-51 0 -84.5 -18.5t-53 -45t-27 -58t-7.5 -56.5z" />
<glyph unicode="7" horiz-adv-x="727" d="M55 901h623v-125q-55 -72 -104.5 -174t-86 -211.5t-57 -213t-20.5 -177.5h-158q6 63 15 118.5t20 96.5q10 49 24 90q41 145 98.5 269t110.5 200h-465v127z" />
<glyph unicode="8" horiz-adv-x="849" d="M154 688q0 51 22.5 94t61 74t92 48.5t114.5 17.5q66 0 120 -18.5t94 -50.5t62.5 -76t22.5 -93q0 -31 -11 -63.5t-32.5 -60.5t-52.5 -48t-69 -29q92 -23 143 -86t51 -143q0 -72 -28.5 -123t-74.5 -83t-104.5 -47t-120.5 -15q-57 0 -115.5 14t-105.5 46t-75.5 81t-28.5 117 q0 92 52 154.5t144 84.5q-72 27 -116.5 76t-44.5 129zM283 688q0 -63 50 -98t111 -35q66 0 117 30.5t51 94.5q0 66 -44 100.5t-119 34.5q-29 0 -59 -8t-53.5 -23.5t-38.5 -40t-15 -55.5zM260 258q0 -66 51 -111t138 -45q74 0 128 36t54 120q0 37 -15.5 64.5t-42 46t-59.5 28 t-70 9.5q-78 0 -131 -42.5t-53 -105.5z" />
<glyph unicode="9" horiz-adv-x="825" d="M123 229h145q0 -39 16.5 -62.5t39 -35.5t46 -16t40.5 -4q59 0 99 27.5t63.5 73.5t33.5 105.5t10 120.5q-29 -49 -93 -76.5t-136 -25.5q-123 4 -200.5 74.5t-77.5 199.5q0 66 19 124.5t62 103.5q41 45 99.5 64.5t126.5 19.5q104 0 168.5 -43t100.5 -106.5t47 -137.5 t11 -135q0 -76 -9 -166t-44 -167t-101.5 -129t-182.5 -52q-125 0 -200 65t-83 178zM244 633q0 -31 8 -61.5t27.5 -55t51 -39t79.5 -14.5q78 0 125 47t47 123q0 70 -45 116t-123 46q-72 0 -121 -42t-49 -120z" />
<glyph unicode=":" horiz-adv-x="393" d="M113 682h168v-170h-168v170zM113 170h168v-170h-168v170z" />
<glyph unicode=";" horiz-adv-x="395" d="M113 674h168v-170h-168v170zM117 164h166v-164q0 -74 -48.5 -120t-117.5 -56v76q35 6 56.5 35.5t19.5 64.5h-76v164z" />
<glyph unicode="&#x3c;" horiz-adv-x="790" d="M209 324l514 -209v-119l-662 278v101l662 276v-116z" />
<glyph unicode="=" horiz-adv-x="800" d="M729 385h-657v104h657v-104zM729 160h-657v104h657v-104z" />
<glyph unicode="&#x3e;" horiz-adv-x="790" d="M66 -4v119l512 209l-512 211v116l663 -276v-101z" />
<glyph unicode="?" horiz-adv-x="849" d="M190 877q41 45 100.5 70.5t135.5 25.5q72 0 136.5 -26.5t103.5 -74.5q33 -41 47 -85t14 -87q0 -51 -13.5 -90t-39 -75.5t-64.5 -77.5t-92 -97q-14 -18 -22.5 -33.5t-8.5 -31.5v-74h-157v74q0 43 25.5 82t84.5 98q53 53 79 90t36 51q12 18 17.5 54.5t-6 72t-44.5 64.5 t-96 31q-45 2 -73.5 -15.5t-49.5 -40.5q-16 -20 -23.5 -44.5t-9.5 -45.5q-2 -23 2 -47l7 -31h-144l-6 23q-10 61 2 126t59 114zM330 156h159v-156h-159v156z" />
<glyph unicode="@" horiz-adv-x="1363" d="M670 588q-43 -6 -78 -33t-59.5 -64.5t-38 -81.5t-13.5 -85q0 -27 9.5 -55.5t25.5 -51t41 -36t55 -11.5q47 4 85 41t63.5 87t38 106.5t8.5 95.5q-4 51 -46 73.5t-91 14.5zM885 668h125l-133 -404q-10 -35 -1 -61.5t46 -28.5q25 0 52 10.5t52 26.5t46.5 37.5t33.5 44.5 q39 66 49 122t4 97q-12 74 -48 133.5t-88 103.5t-117.5 72.5t-137.5 40.5q-63 10 -120.5 5t-108 -21.5t-92 -41t-72.5 -48.5q-96 -78 -148.5 -170t-56.5 -213q-2 -100 36 -185.5t105.5 -145.5t158.5 -93t192 -31q39 0 69.5 3t59 9.5t59.5 14.5t70 18l43 -98 q-86 -31 -162 -46.5t-162 -13.5q-59 2 -101 8.5t-98 24.5q-92 29 -167.5 80t-128 121t-79 156t-22.5 184q2 63 24.5 132t59.5 132.5t84 117.5t98 91q41 29 91.5 54.5t104.5 43t108.5 26.5t103.5 5q51 -2 110.5 -15.5t119 -36t113.5 -57t97 -81.5q104 -117 116.5 -254.5 t-59.5 -272.5q-25 -47 -64.5 -89t-88.5 -69.5t-104.5 -38t-112.5 8.5q-41 12 -61.5 37.5t-26.5 48.5q-41 -41 -86 -66.5t-111 -21.5q-47 4 -86 23.5t-66.5 51t-43 72.5t-17.5 86q-2 47 9.5 93t34 89t54 81t68.5 65q33 25 81 43t89 20q27 2 54.5 -5t52 -21.5t43 -36 t28.5 -45.5z" />
<glyph unicode="A" horiz-adv-x="980" d="M422 956h151l388 -956h-158q-35 86 -55.5 133t-30.5 70q-10 27 -12 33h-437q-4 -6 -14 -33q-10 -23 -28.5 -70t-53.5 -133h-152zM492 801q-2 -6 -15.5 -41t-32 -82t-40 -101.5t-40 -100.5t-32 -77.5t-15.5 -36.5h340q-2 4 -14 36t-29.5 78t-38 100.5t-38 101.5t-30.5 81 t-15 42z" />
<glyph unicode="B" horiz-adv-x="888" d="M129 956h342q45 0 100.5 -8t103.5 -35.5t80.5 -78t32.5 -134.5q0 -72 -43 -124t-110 -76q47 -10 81 -36t56.5 -59.5t33.5 -73.5t11 -81q0 -82 -47 -140.5t-131 -91.5q-39 -14 -82 -16t-86 -2h-348v956h6zM426 829h-133h-25v-270h25q16 0 48 1t85 -1q68 0 110 9.5t66 31.5 q33 31 33 90q0 68 -33 101q-25 23 -66.5 30.5t-109.5 7.5zM483 432h-215v-305h215q25 0 56.5 4t59.5 19.5t46.5 45t18.5 80.5t-18.5 82t-46.5 47.5t-59.5 21.5t-56.5 5z" />
<glyph unicode="C" horiz-adv-x="933" d="M721 258l151 -2q-16 -117 -110 -194.5t-258 -77.5q-94 0 -172 32.5t-133.5 96t-86 154.5t-30.5 210q0 129 43 226.5t111 162.5q55 53 126.5 78t161.5 25q137 0 227.5 -69t116.5 -198h-151q-18 72 -74.5 106t-124.5 34q-78 0 -132 -33t-88 -85t-49.5 -116.5t-15.5 -130.5 q0 -63 14.5 -128.5t47.5 -119t87 -86t134 -32.5q84 0 139.5 39.5t65.5 107.5z" />
<glyph unicode="D" horiz-adv-x="974" d="M123 956h6h320q68 0 135 -11t127 -48q207 -131 207 -420q0 -287 -207 -418q-59 -37 -127 -48t-135 -11h-326v956zM457 829h-189v-702h189q102 0 156.5 35t80.5 71q37 53 54.5 109.5t17.5 134.5t-17.5 135.5t-54.5 110.5q-27 37 -81 71.5t-156 34.5z" />
<glyph unicode="E" horiz-adv-x="849" d="M123 956h614v-127h-469v-286h447v-127h-447v-289h480v-127h-625v956z" />
<glyph unicode="F" horiz-adv-x="796" d="M698 956h7v-127h-437v-288h410v-127h-410v-414h-145v956h575z" />
<glyph unicode="G" horiz-adv-x="1026" d="M899 702h-154q-29 139 -219 140q-82 0 -140 -32t-95 -83t-54.5 -116.5t-17.5 -131.5q0 -76 20.5 -143.5t63.5 -117.5t109.5 -78.5t158.5 -28.5q66 0 103 12t84 33v233h-219v125h364v-459l-33 -10q-47 -14 -87 -25.5t-75.5 -19.5t-72.5 -12t-78 -4q-80 0 -166 20.5 t-156.5 73.5t-116.5 149.5t-46 245.5q0 117 34.5 209t96 155.5t148.5 97.5t192 34q66 0 126 -16.5t109 -49.5t81 -83t40 -118z" />
<glyph unicode="H" horiz-adv-x="978" d="M721 956h145v-956h-145v418h-442v-418h-146v956h146v-411h442v411z" />
<glyph unicode="I" horiz-adv-x="628" d="M506 0h-383v127h119v702h-119v127h383v-127h-119v-702h119v-127z" />
<glyph unicode="J" horiz-adv-x="770" d="M641 956h6v-688q0 -129 -80 -206.5t-213 -77.5q-88 0 -145 27.5t-90 69.5t-45.5 90t-12.5 91v6h152q-4 -59 16.5 -90t49.5 -47q33 -18 77 -20q66 0 106 39.5t40 111.5v694h139z" />
<glyph unicode="K" horiz-adv-x="942" d="M680 956h199l-351 -350q-45 -45 -55 -53l438 -553h-204l-334 451l-84 -84v-367h-146v956h146v-407q12 12 57 59q39 41 117 122t217 226z" />
<glyph unicode="L" horiz-adv-x="765" d="M123 956h145v-829h447v-127h-592v956z" />
<glyph unicode="M" horiz-adv-x="1263" d="M1139 956h6v-956h-146v823q-8 -27 -43 -123q-14 -41 -35.5 -101t-52 -144t-70.5 -197t-91 -258h-150q-68 193 -115 325t-77.5 219t-47 136t-25.5 76.5t-13.5 40t-10.5 26.5v-823h-145v956h248q49 -141 88 -249.5t66.5 -190.5t48 -139.5t32.5 -93.5q31 -88 39 -109 q6 20 37 109q12 37 31.5 94t47 139t64.5 190.5t86 249.5h228z" />
<glyph unicode="N" horiz-adv-x="1028" d="M899 956h6v-956h-182q-84 141 -149.5 250.5t-113.5 190.5t-83 138.5t-58 96.5q-53 90 -65 110v-786h-131v956h192q84 -141 147.5 -248.5t111 -189.5t81 -139t56.5 -94q53 -88 63 -109v780h125z" />
<glyph unicode="O" horiz-adv-x="1011" d="M61 475q0 119 32 211t90.5 154.5t140.5 94.5t182 32q211 0 327.5 -130t116.5 -362q0 -229 -116.5 -360t-327.5 -131q-100 0 -182 32.5t-140.5 95t-90.5 153.5t-32 210zM213 475q0 -94 24.5 -163.5t65.5 -113.5t93.5 -65.5t109.5 -21.5q63 0 116.5 21.5t92.5 65.5 t61.5 113.5t22.5 163.5q0 162 -72 263.5t-221 101.5q-150 0 -221.5 -100.5t-71.5 -264.5z" />
<glyph unicode="P" horiz-adv-x="808" d="M451 956q86 0 153.5 -18t110.5 -59q74 -70 73 -197q0 -129 -89 -200.5t-257 -75.5h-147h-27v-406h-145v956h328zM471 829h-172h-31v-297h31q20 0 61 1.5t113 -1.5q51 0 81 13.5t44 29.5q39 37 39 107q0 68 -39 104q-14 16 -44 29.5t-83 13.5z" />
<glyph unicode="Q" horiz-adv-x="1038" d="M61 477q0 92 27 179t80 157t135 112t195 42q117 0 199.5 -42t135 -112t76 -157t23.5 -179q0 -121 -44 -214t-122 -159q0 2 19.5 4.5t41 5.5t41.5 6l19 3l80 -6v-113h-320q-29 -8 -56.5 -12t-47.5 -6q-23 -2 -45 -2q-113 0 -196 43t-136 111.5t-79 157.5t-26 181zM213 477 q0 -53 13.5 -116.5t46 -119t88 -93t137.5 -37.5q92 0 147 41t86 99t40 120.5t9 105.5q0 53 -11 116.5t-42 118t-86 91.5t-143 37q-86 0 -141.5 -41t-87 -98.5t-44 -119t-12.5 -104.5z" />
<glyph unicode="R" horiz-adv-x="935" d="M139 956h342q162 0 248 -63.5t86 -183.5q0 -86 -47 -147.5t-127 -84.5q82 -23 121 -75t39 -121q0 -53 6 -105q4 -43 12 -91t25 -85h-148q-8 14 -12 38.5t-6 51.5q-2 31 -2 64q0 51 -5 99t-24.5 85t-59.5 58.5t-110 21.5h-198v-418h-146v956h6zM489 829q-76 2 -117.5 2 h-64.5q-25 0 -31 -2v-284q6 -2 31 -2h65t115 2q59 0 94 14t53.5 34.5t24 45.5t5.5 47q0 25 -5.5 49.5t-24 45t-53.5 33.5t-92 15z" />
<glyph unicode="S" horiz-adv-x="935" d="M819 702h-151q4 45 -17.5 72t-52.5 41t-62.5 19.5t-52.5 5.5q-41 0 -79.5 -7.5t-69.5 -24.5t-49.5 -44t-18.5 -66q0 -33 9.5 -53t26.5 -31.5t40 -18.5t49 -13l227 -60q23 -6 61 -19.5t75 -41t63.5 -74.5t26.5 -121q0 -70 -22.5 -118t-59.5 -79.5t-82 -49t-88 -25.5 t-82 -9t-61 -1q-188 0 -275 92q-78 78 -74 213h152q4 -92 52 -135t153 -43q33 0 73.5 4t76.5 18t60.5 45t24.5 82q0 106 -151 141l-213 50q-23 6 -59 20t-70.5 42t-59 68t-24.5 95q0 80 30.5 136t83 90t120 49.5t140.5 15.5q59 0 119 -15.5t107 -48.5t75.5 -83t28.5 -118z " />
<glyph unicode="T" horiz-adv-x="833" d="M807 956h6v-127h-321v-829h-146v829h-321v127h782z" />
<glyph unicode="U" horiz-adv-x="1028" d="M901 956h8v-565q0 -201 -102 -303q-100 -104 -291 -104q-190 0 -293 104q-100 102 -100 303v565h145v-598q0 -119 65.5 -183t182.5 -64t181.5 64.5t64.5 182.5v598h139z" />
<glyph unicode="V" horiz-adv-x="942" d="M41 956h147q102 -293 160 -457.5t84 -242.5q33 -92 39 -111q6 18 39 111q14 39 34.5 98.5t49.5 144.5t68.5 197.5t91.5 259.5h147l-348 -956h-170z" />
<glyph unicode="W" horiz-adv-x="1406" d="M41 958h145q39 -139 69 -246.5t51.5 -188.5t37.5 -137t27 -95q25 -90 28 -111q8 20 33 111q10 39 26.5 95t40 137t54.5 188.5t70 246.5h176q37 -141 66.5 -249.5t51 -189.5t37 -138t25.5 -96q25 -90 31 -111q6 20 28 111q10 39 25.5 96t38 138t52.5 189.5t67 249.5h145 l-281 -958h-165q-39 143 -69 252.5t-51.5 192.5t-38 140.5t-26.5 96.5q-25 90 -30 111q-6 -20 -33 -111q-12 -39 -28.5 -96.5t-40 -140.5t-54.5 -192.5t-72 -252.5h-158z" />
<glyph unicode="X" horiz-adv-x="1021" d="M51 0q135 182 210 282.5t110 147.5l47 64q-8 8 -45 61q-33 45 -100.5 139t-192.5 264h186q92 -133 144.5 -206.5t76.5 -108.5q29 -41 35 -51q8 10 37 51q25 35 76 108.5t143 206.5h176q-63 -86 -112 -151.5t-85 -114.5t-61.5 -83t-42.5 -56q-39 -53 -45 -61q8 -8 47 -64 q16 -25 42 -60.5t63 -87t87 -121t114 -159.5h-183q-98 143 -152.5 221t-80.5 117q-31 45 -39 55q-6 -10 -39 -55q-29 -39 -83 -117t-157 -221h-176z" />
<glyph unicode="Y" horiz-adv-x="935" d="M20 958h164q106 -168 166 -262t88 -139q35 -53 41 -63q6 10 39 63q29 45 85 139.5t159 261.5h164l-379 -626v-332h-146v328z" />
<glyph unicode="Z" horiz-adv-x="946" d="M102 0l2 125q106 129 187.5 228.5t143 173t103.5 124.5t70 84q68 80 78 96h-549v127h731l-2 -124q-106 -129 -187 -227.5t-142.5 -172.5t-103.5 -125t-71 -86q-68 -80 -79 -96h575v-127h-756z" />
<glyph unicode="[" horiz-adv-x="610" d="M205 963h241v-101h-114v-891h114v-98h-241v1090z" />
<glyph unicode="\" horiz-adv-x="315" d="M90 963l320 -963h-103l-319 963h102z" />
<glyph unicode="]" horiz-adv-x="610" d="M164 -29h117v891h-117v101h242v-1090h-242v98z" />
<glyph unicode="^" horiz-adv-x="790" d="M449 942l208 -512h-106l-156 379l-157 -379h-105l209 512h107z" />
<glyph unicode="_" horiz-adv-x="677" d="M0 -166v86h678v-86h-678z" />
<glyph unicode="`" horiz-adv-x="382" d="M254 760h-100l-170 203h153z" />
<glyph unicode="a" horiz-adv-x="753" d="M653 152v-48q0 -23 1 -49t3 -55h-133q0 14 -1 29.5t-3 29.5q-2 16 -2 35q-37 -55 -89 -81.5t-114 -26.5q-45 0 -88 10t-76.5 32.5t-54 57.5t-20.5 86q0 84 38 132t90 71.5t108.5 30t93.5 6.5h108q4 37 1 67.5t-17.5 53t-43 36t-75.5 13.5q-20 0 -44 -5.5t-43.5 -16.5 t-32.5 -30.5t-13 -48.5l-146 2q4 66 34 106t72 61.5t88 28.5t81 7q279 0 278 -233v-301zM459 137q29 29 42 64t13 102v8h-18q-12 0 -36 1t-65 -1q-20 0 -50 -4t-57.5 -15t-47 -33.5t-19.5 -61.5q0 -53 33 -77t92 -24q37 0 67 12.5t46 28.5z" />
<glyph unicode="b" horiz-adv-x="821" d="M453 684q84 0 142 -31.5t94 -82t52.5 -113t16.5 -123.5t-14.5 -124t-48 -113t-88 -81.5t-132.5 -31.5q-160 0 -225 106v-18q0 -10 -1 -27.5t-3 -44.5h-144l7 117v835h139v-366q60 98 205 98zM440 94q61 0 97 29t53.5 67.5t22.5 78.5t5 63q0 43 -7 87t-26.5 80t-54 57.5 t-90.5 21.5q-45 0 -78.5 -19.5t-57 -53.5t-35 -78t-11.5 -93q0 -100 48 -170t134 -70z" />
<glyph unicode="c" horiz-adv-x="747" d="M61 334q0 74 20.5 138.5t63.5 112.5t107.5 75.5t153.5 27.5q53 0 101 -18.5t84 -50t59.5 -75.5t27.5 -93h-139q-4 59 -47 93t-97 34q-88 0 -138 -60.5t-50 -179.5q0 -129 56 -185.5t136 -56.5q66 0 107 43t41 94l139 -2q-8 -111 -87 -179t-202 -68q-147 0 -241.5 88 t-94.5 262z" />
<glyph unicode="d" horiz-adv-x="819" d="M711 117l6 -117h-144q-2 27 -3 44t-1 28v18q-61 -106 -223 -106q-80 0 -134 31.5t-88 81.5t-48.5 112.5t-14.5 124.5q0 61 16.5 123.5t52.5 113t94.5 82t144.5 31.5q143 0 202 -98v366h140v-835zM379 94q88 0 135 69.5t47 170.5q0 49 -11 93t-34.5 78t-57.5 53.5 t-79 19.5q-53 0 -88 -21.5t-54.5 -57.5t-27.5 -80t-8 -87q0 -23 5 -63t22.5 -78.5t53.5 -67.5t97 -29z" />
<glyph unicode="e" horiz-adv-x="757" d="M696 375v-76h-495q0 -61 19.5 -100t48 -62.5t59 -33t55.5 -9.5q45 0 74.5 10.5t48 26.5t28 39t15.5 47h139q-20 -113 -94 -173t-205 -60q-147 0 -237.5 87t-90.5 259q0 66 19.5 130t59.5 114.5t102.5 80t148.5 29.5q143 -2 224 -89t81 -220zM211 406h346q-2 49 -20 86 q-16 33 -50 59.5t-98 26.5q-70 0 -119 -46t-59 -126z" />
<glyph unicode="f" horiz-adv-x="538" d="M57 668h131v98q0 84 35 133t92 68q20 6 41 8t41 2q72 0 113 -22.5t62.5 -53.5t26.5 -63.5t3 -55.5h-108h-17q0 8 -1 20.5t-7 25t-20.5 20.5t-40.5 8q-25 0 -50.5 -9t-31.5 -48q-4 -29 -2 -52.5t2 -39.5v-39h155v-103h-155v-565h-138v565h-131v103z" />
<glyph unicode="g" horiz-adv-x="817" d="M713 668l8 -2l-10 -125v-469q0 -184 -84 -261t-273 -77q-115 0 -183.5 55t-68.5 166h146q6 -117 147 -117q63 0 98 21.5t52.5 58.5t21.5 85t4 101q-35 -57 -97 -79.5t-118 -22.5q-141 0 -215.5 85t-74.5 249q0 160 85 254t230 94q57 0 105.5 -22.5t76.5 -63.5q4 -6 5 -9 t3 -5t2 -4q2 8 2 20q0 10 1.5 27.5t1.5 40.5h135zM385 104q59 0 94 27t53.5 64.5t23.5 78.5t5 68q0 23 -5 62.5t-23.5 78.5t-53.5 68t-94 29q-49 0 -83 -20.5t-55.5 -54.5t-30.5 -77t-9 -86t9 -85t30.5 -76t55.5 -55.5t83 -21.5z" />
<glyph unicode="h" horiz-adv-x="784" d="M102 952h140v-366q68 98 211 98q113 0 174 -61.5t61 -178.5v-444h-139v389q0 98 -33 139t-108 43q-37 2 -81 -25.5t-61 -66.5q-18 -41 -21 -71.5t-3 -57.5v-20v-330h-140v952z" />
<glyph unicode="i" horiz-adv-x="350" d="M102 952h162v-149h-162v149zM248 666h6v-666h-139v666h133z" />
<glyph unicode="j" horiz-adv-x="401" d="M143 954h162v-149h-162v149zM287 668h6v-701q0 -39 -5 -79t-22.5 -71.5t-51.5 -51t-91 -17.5l-88 4v101q18 2 38.5 -0.5t38 3t30 22t12.5 56.5v734h133z" />
<glyph unicode="k" horiz-adv-x="690" d="M102 952h140v-549q8 10 37 41q25 27 72.5 79t129.5 143h183l-273 -273l279 -393h-181l-190 299l-57 -57v-242h-140v952z" />
<glyph unicode="l" horiz-adv-x="354" d="M113 954h139v-954h-139v954z" />
<glyph unicode="m" horiz-adv-x="1239" d="M106 666h138v-86q33 59 84 81.5t98 22.5q182 0 238 -119q76 119 221 119q115 0 185.5 -61.5t70.5 -159.5v-463h-140v387q0 35 -4 68.5t-19 60.5t-46 43t-84 16q-12 0 -32.5 -6t-41 -18t-39 -33.5t-28.5 -52.5q-10 -39 -12.5 -77t-2.5 -56v4v-336h-139v387q0 86 -25.5 137 t-113.5 51q-16 0 -38 -5t-44.5 -18t-43 -34.5t-34.5 -56.5q-10 -23 -9 -63t1 -62v-336h-140v666z" />
<glyph unicode="n" horiz-adv-x="792" d="M102 666h138v-88q35 55 89 79.5t107 24.5q16 0 59.5 -4t87.5 -26.5t78.5 -67.5t34.5 -129v-455h-139v414q0 162 -147 161q-18 0 -56.5 -13t-62.5 -46q-6 -8 -14.5 -19.5t-16.5 -29.5t-13 -47t-5 -76v-344h-140v666z" />
<glyph unicode="o" horiz-adv-x="798" d="M399 682q160 0 249 -89t89 -259t-89 -260t-249 -90q-150 0 -244 90t-94 260q0 160 89 254t249 94zM399 92q59 0 97.5 24.5t60 60.5t28.5 78t7 79q0 41 -7 83t-28.5 77.5t-59.5 58t-98 22.5q-55 0 -92 -22.5t-59.5 -57t-31.5 -77.5t-9 -84q0 -37 9 -79t31.5 -78 t59.5 -60.5t92 -24.5z" />
<glyph unicode="p" horiz-adv-x="806" d="M467 682q74 0 127 -29.5t89 -77t53.5 -108.5t17.5 -125q0 -68 -18.5 -132.5t-54.5 -114.5t-89 -80.5t-123 -30.5q-78 0 -132 21.5t-95 66.5v-326l-140 2v809l-4 72l-2 37h142q2 -27 2 -45.5t2 -28.5q2 -12 2 -19q69 109 223 109zM422 92q61 0 97 24.5t56.5 62.5t26.5 81 t6 80q0 35 -6 77t-24.5 77.5t-53.5 60.5t-94 25q-55 0 -91 -27t-56.5 -65.5t-27.5 -78.5t-7 -69q0 -129 50 -187.5t124 -60.5z" />
<glyph unicode="q" horiz-adv-x="811" d="M573 666h142l-2 -37l-6 -72v-809l-138 -2v326q-82 -88 -227 -88q-70 0 -123 30.5t-89 80.5t-54.5 114.5t-18.5 132.5q0 63 17.5 124.5t53.5 109t89 77t127 29.5q152 0 223 -109v19q0 10 2 28.5t4 45.5zM389 92q74 0 125 59.5t51 188.5q0 35 -8 77t-28.5 77.5t-56.5 60.5 t-91 25t-90 -25t-54.5 -60.5t-26.5 -77.5t-7 -77q0 -37 8 -80t28.5 -80t57.5 -62.5t92 -25.5z" />
<glyph unicode="r" horiz-adv-x="493" d="M242 557q20 53 69 88t121 31l51 -2v-135l-8 4q-12 4 -26.5 5t-26.5 1q-57 -2 -92 -17.5t-54.5 -43t-26.5 -69.5t-7 -95v-324h-140v666h140v-109z" />
<glyph unicode="s" horiz-adv-x="696" d="M86 483q0 51 22.5 89t60.5 64t86 38t97 12q72 0 129.5 -19.5t91.5 -56.5q49 -51 45 -135h-145q2 45 -22 74q-20 20 -50 26.5t-55 6.5q-12 0 -32.5 -2t-39 -11.5t-31 -28t-12.5 -53.5q0 -37 32 -51t71 -24q66 -16 108.5 -30.5t71.5 -25.5q33 -12 49 -24q35 -23 53.5 -59.5 t18.5 -73.5q0 -61 -24.5 -102.5t-66.5 -66t-96.5 -35.5t-113.5 -11q-88 0 -139.5 26.5t-79 62.5t-35.5 73.5t-8 62.5h145q2 -57 36 -89t93 -32q12 0 37 2t48.5 12.5t40.5 31t17 59.5t-29.5 57t-74.5 30.5t-97 22.5t-97.5 29.5t-75 54.5t-29.5 96z" />
<glyph unicode="t" horiz-adv-x="516" d="M41 676q43 -2 66.5 -3t33.5 -1h15v139q57 18 84.5 27.5t39.5 12.5l11 3l4 2v-184h22q16 0 47 1t85 3v-109q-53 2 -84 2h-48h-22v-403q2 -27 18 -43q14 -14 44 -21.5t85 9.5v-111q-74 -12 -122 -7t-76 15q-33 12 -51 31q-29 29 -33 58.5t-4 58.5v413h-19h-34.5t-61.5 -2 v109z" />
<glyph unicode="u" horiz-adv-x="790" d="M102 668h140v-389q0 -104 32.5 -143.5t108.5 -39.5q35 0 77 25.5t64 73.5q16 35 20.5 67.5t4.5 52.5v353h139v-668h-135v90q-47 -66 -109.5 -85t-115.5 -19q-102 0 -164 64.5t-62 176.5v441z" />
<glyph unicode="v" horiz-adv-x="745" d="M295 0l-281 668h154q74 -184 115 -288t63 -155q25 -59 31 -75q6 16 29 75q20 51 61 154.5t113 288.5h151l-291 -668h-145z" />
<glyph unicode="w" horiz-adv-x="1144" d="M25 668h151q55 -186 86 -291t47 -158q18 -61 23 -78q4 16 24 78q16 53 49 157.5t91 291.5h172q53 -182 81.5 -284.5t45.5 -154.5q18 -59 20 -75q4 16 25 75q16 51 49 153.5t90 285.5h141l-233 -668h-162q-53 186 -82 290.5t-45 158.5q-18 61 -23 77q-4 -16 -24 -77 q-16 -53 -49 -158t-92 -291h-164z" />
<glyph unicode="x" horiz-adv-x="776" d="M752 668q-96 -121 -150.5 -187.5t-81.5 -99.5q-31 -37 -35 -45q6 -8 35 -45q25 -33 76 -100.5t145 -190.5h-178q-63 90 -99 139t-54 74q-23 29 -27 37q-4 -8 -25 -37q-16 -25 -52 -74t-99 -139h-162q96 127 148.5 195.5t76.5 103.5q29 39 35 45q-6 6 -35 43 q-25 31 -76 96.5t-145 184.5h180q63 -88 98 -137.5t52 -73.5q20 -29 27 -35q4 6 26 35q18 25 54 74t102 137h164z" />
<glyph unicode="y" horiz-adv-x="755" d="M739 668l-389 -920h-143q37 94 57.5 146.5t30.5 74.5l12 31l-284 668h155q72 -184 113 -286.5t61 -154.5q23 -59 29 -75q6 16 31 75q23 51 63.5 153.5t114.5 287.5h149z" />
<glyph unicode="z" horiz-adv-x="628" d="M563 100v-100h-497l2 98q119 170 184 263.5t98 140.5q37 53 45 65h-323v101h479l-2 -97q-119 -170 -184.5 -263t-98.5 -140q-37 -53 -45 -68h342z" />
<glyph unicode="{" horiz-adv-x="569" d="M92 469q76 6 96.5 45t20.5 109l-2 190q0 35 14.5 61.5t37 47t49 31t52.5 10.5h86v-101h-57q-61 -8 -61 -78v-182q0 -59 -27 -106t-74 -80q47 -31 74 -79t27 -108v-180q0 -66 61 -78h57v-98h-86q-27 0 -53 10.5t-48.5 29.5t-37 47t-14.5 63l2 188q0 70 -20.5 107.5 t-96.5 46.5v104v0z" />
<glyph unicode="|" horiz-adv-x="358" d="M127 0v963h104v-963h-104z" />
<glyph unicode="}" horiz-adv-x="571" d="M479 365q-76 -6 -97.5 -44t-21.5 -110l2 -188q0 -35 -14 -63t-36.5 -47t-49 -29.5t-53.5 -10.5h-86v98h59q59 12 60 78v182q0 119 102 187q-49 31 -75.5 79t-26.5 107v180q0 68 -60 78h-59v101h86q27 0 53.5 -10.5t49 -31t36.5 -47t14 -61.5l-2 -188q-2 -72 19.5 -110 t99.5 -44v-106v0z" />
<glyph unicode="~" horiz-adv-x="790" d="M100 238q0 35 6.5 71.5t23.5 66.5t46 49t74 19q25 0 44 -7t28 -11l174 -104q25 -16 49 -14.5t41 11.5q16 14 20 40t0 49h82q2 -31 -3 -66t-20.5 -63.5t-41 -49t-66.5 -22.5q-27 -2 -56.5 4t-64.5 29l-143 90q-45 35 -78 7t-29 -99h-86v0z" />
<glyph unicode="&#xa1;" horiz-adv-x="493" d="M211 2h-27v317l19 431h108l19 -433v-315h-119zM330 817h-119h-27v166h146v-166z" />
<glyph unicode="&#xa2;" horiz-adv-x="753" d="M342 104q10 -2 21.5 -3t21.5 -1q76 0 123 47.5t61 131.5h123q-8 -57 -32.5 -109.5t-62.5 -91.5t-91 -62.5t-121 -23.5q-45 0 -76 6q-12 -41 -27.5 -86t-25.5 -82h-102l63 201q-80 47 -118 132t-38 195q0 90 25 159t68 115t102 70.5t129 24.5h29.5t29.5 -2q10 37 24.5 76 t25.5 73h104l-57 -180q113 -57 139 -231h-115q-10 41 -27.5 71.5t-37.5 47.5zM410 618h-25q-53 0 -92 -22.5t-63.5 -59t-37 -83.5t-12.5 -95q0 -59 18.5 -117.5t57.5 -93.5z" />
<glyph unicode="&#xa3;" horiz-adv-x="780" d="M496 502v-92h-185q4 -16 4 -34v-34q0 -53 -20.5 -102.5t-50.5 -89.5q25 6 47 6q47 0 77.5 -9.5t57.5 -21.5q23 -10 45.5 -16.5t52.5 -6.5q39 0 72 24t68 58l65 -100q-33 -31 -60.5 -50.5t-55 -31.5t-58.5 -17t-72 -5q-23 0 -48 9t-54 19l-10 2q-27 10 -53.5 18.5 t-59.5 8.5q-29 0 -53.5 -9.5t-46.5 -19.5l-45 -18l-60 104q57 41 99.5 99.5t42.5 123.5q0 49 -21 93h-133v92h88v4q-18 31 -34.5 71.5t-16.5 104.5q0 111 74.5 182.5t228.5 71.5q68 0 124 -21.5t97 -61.5t63.5 -99.5t22.5 -132.5h-123q-4 102 -52 154t-132 52 q-35 0 -67.5 -9t-59.5 -27.5t-42 -47t-15 -65.5t15 -70t38 -65l24 -41h222z" />
<glyph unicode="&#xa4;" horiz-adv-x="946" d="M664 467q0 76 -58 133q-57 57 -133 57q-43 0 -79 -15t-61.5 -41t-41 -60.5t-15.5 -73.5q0 -78 58 -139q61 -57 139 -58q35 0 66.5 14.5t64.5 39.5q60 53 60 143zM844 188l-90 -90l-103 103q-88 -53 -178 -54q-92 0 -178 54q-25 -25 -53.5 -52.5t-51.5 -50.5l-88 90 l105 103q-53 86 -53 176q0 88 55 176q-27 25 -55.5 49.5t-51.5 46.5l88 97l107 -105q43 29 86 40t90 11t90 -11t86 -40l105 105l90 -97l-105 -94q49 -82 49 -178q0 -45 -11 -88t-40 -88z" />
<glyph unicode="&#xa5;" horiz-adv-x="835" d="M795 961l-265 -463h220v-103h-269v-86h269v-96h-269v-213h-123v213h-270v96h270v86h-270v103h217q-63 111 -133 232.5t-131 230.5h141l189 -336q8 -14 16 -32t12 -28l19 -35q14 29 24.5 52.5t24.5 48.5l180 330h148z" />
<glyph unicode="&#xa6;" horiz-adv-x="536" d="M225 -227v516h107v-516h-107zM225 406v514h107v-514h-107z" />
<glyph unicode="&#xa7;" horiz-adv-x="729" d="M627 354q0 -106 -78 -172q49 -25 73.5 -62.5t24.5 -99.5q0 -102 -75.5 -162.5t-206.5 -60.5q-129 0 -199 58.5t-74 175.5h127q10 -121 143 -121q76 0 116 29.5t40 72.5q0 37 -33.5 54.5t-99.5 37.5h2q-20 4 -36.5 8.5t-33.5 8.5q-10 4 -20 6t-21 6q-10 4 -18 5t-16 5h2 q-16 6 -27.5 10.5t-19.5 10.5h2q-86 55 -86 145q0 51 22.5 94t59.5 78q-53 25 -78 62t-25 102q0 100 76 160.5t207 60.5q262 0 272 -231h-127q-10 121 -143 121q-76 0 -116 -30t-40 -73q0 -37 34 -55t99 -37l109 -29q4 -2 10 -4t10 -4l-2 2q39 -10 62 -26l-2 2 q86 -52 86 -148zM274 266q25 -10 60 -18q16 -4 33.5 -9.5t40.5 -9.5q94 47 94 115q0 39 -37 53q-25 10 -59 19q-16 4 -33 9t-39 9q-96 -47 -96 -112q-1 -40 36 -56z" />
<glyph unicode="&#xa8;" horiz-adv-x="851" d="M205 1194h168v-170h-168v170zM479 1194h168v-170h-168v170z" />
<glyph unicode="&#xa9;" horiz-adv-x="1236" d="M625 1001q104 0 195 -40.5t159 -110.5t106.5 -163t38.5 -200q0 -106 -38.5 -200t-106.5 -164t-159 -111t-195 -41t-195.5 41t-159 111t-107.5 164t-40 200q0 111 38 204t105.5 163t160 108.5t198.5 38.5zM625 88q80 0 147.5 31t116.5 84t77.5 125.5t28.5 158.5 q0 84 -28.5 157t-77.5 126t-116.5 84t-147.5 31t-148.5 -30t-119 -83t-78 -126t-27.5 -159t28.5 -158.5t78 -125.5t118 -84t148.5 -31zM768 399l2 23h121l-2 -29q-10 -92 -79 -152.5t-167 -60.5q-63 0 -116.5 22.5t-91.5 63.5t-59.5 97.5t-21.5 123.5q0 139 78 223.5 t207 84.5q100 0 167.5 -56.5t82.5 -150.5l4 -31h-100l-21 2l-4 21q-8 47 -44 75.5t-83 28.5q-76 0 -119 -51t-43 -144q0 -37 10.5 -73.5t32 -64t52 -45t69.5 -17.5q47 0 83 31.5t42 78.5z" />
<glyph unicode="&#xaa;" horiz-adv-x="434" d="M414 360v60h-394v-60h394zM410 573v-30q0 -14 1 -31.5t1 -38.5h-90v20.5t-3 20.5q-2 10 -2 23q-47 -74 -135 -74q-31 0 -59.5 7t-51 21.5t-37 39t-14.5 57.5q0 57 26 89t60.5 48t72.5 20.5t63 4.5h73q4 47 -11 80.5t-79 33.5q-29 0 -59.5 -14t-30.5 -53h-98 q2 45 22.5 71.5t48 41t58.5 19.5t55 5q188 0 189 -158v-203zM279 565q20 18 28 42t8 69v6h-12q-8 0 -23.5 1t-43.5 -1q-14 0 -34 -3t-38.5 -10t-31.5 -22.5t-13 -42.5q0 -68 84 -67q25 0 45.5 9t30.5 19z" />
<glyph unicode="&#xab;" horiz-adv-x="702" d="M328 119q-74 59 -116 94t-65 51q-25 20 -30 27v98l215 166v-127q-41 -35 -63.5 -54.5t-32.5 -27.5t-11 -10q10 -10 28.5 -26.5t35.5 -33.5q20 -18 43 -38zM600 119q-74 59 -116 94t-64 51q-25 20 -31 27v98l215 166v-127q-41 -35 -63.5 -54.5t-32.5 -27.5t-10 -10 q10 -10 28.5 -26.5t34.5 -33.5q20 -18 43 -38z" />
<glyph unicode="&#xac;" horiz-adv-x="915" d="M670 578h-557v116h680v-377h-123v261z" />
<glyph unicode="&#xad;" horiz-adv-x="466" d="M55 410h357v-105h-357v105z" />
<glyph unicode="&#xae;" horiz-adv-x="1247" d="M625 1026q102 0 193 -41t158.5 -110.5t107.5 -163t40 -199.5t-40 -200.5t-107.5 -164t-158.5 -110.5t-193 -41q-104 0 -195.5 41t-159 110.5t-107.5 164t-40 200.5t40 199.5t107.5 163t159 110.5t195.5 41zM895 236q47 53 73.5 122.5t26.5 153.5t-28.5 156.5t-77.5 126 t-116.5 84t-147.5 30.5t-148.5 -30.5t-118 -84t-78 -126t-28.5 -156.5q0 -86 28.5 -158.5t78 -126t118 -84t148.5 -30.5q74 0 136 26.5t111 73.5h-12l-94 2l-6 10q-68 115 -99.5 167t-42.5 73h-77v-252h-119v573l2 25h256q213 0 213 -172q0 -145 -148 -170q12 -18 36 -56 t48.5 -77t44 -68.5t21.5 -31.5zM635 569q33 0 66.5 2t52.5 19q16 20 16 51q0 39 -23.5 54.5t-82.5 15.5h-123v-142h71h23z" />
<glyph unicode="&#xaf;" horiz-adv-x="485" d="M424 911v-110h-363v110h363z" />
<glyph unicode="&#xb0;" horiz-adv-x="471" d="M240 963q80 0 119.5 -48.5t39.5 -105.5t-40 -106.5t-119 -49.5q-80 0 -119 49.5t-39 106.5t39 105.5t119 48.5zM240 737q39 0 56 21.5t17 50.5t-17 50.5t-56 21.5q-37 0 -55.5 -21.5t-18.5 -50.5t18.5 -50.5t55.5 -21.5z" />
<glyph unicode="&#xb1;" horiz-adv-x="761" d="M432 606h277v-104h-277v-273h-104v273h-277v104h277v273h104v-273zM51 90v86h656v-86h-656z" />
<glyph unicode="&#xb2;" horiz-adv-x="415" d="M68 887q49 49 129 49q82 0 132 -44t48 -120q0 -41 -15.5 -74.5t-50.5 -72.5q-16 -18 -39.5 -45t-49 -52.5t-49 -47t-40.5 -31.5h254v-78h-367l3 75l12 13q47 47 106.5 98t104.5 115q23 29 34 52.5t9 49.5q-10 84 -92 84q-37 0 -62 -24q-23 -23 -22 -68v-4h-93v4 q1 76 48 121z" />
<glyph unicode="&#xb3;" horiz-adv-x="440" d="M23 522h92q0 -35 20 -55q29 -29 80 -29q41 0 75 19.5t34 66.5q0 25 -7.5 38t-19.5 26q-20 16 -51 22t-76 6h-6v78h6q23 0 59.5 3t61.5 28q12 10 18 21.5t6 31.5q0 35 -24.5 57.5t-73.5 22.5q-35 0 -64.5 -20.5t-29.5 -61.5h-92q0 61 41 107q53 53 139 53q35 0 69.5 -8 t63.5 -27.5t46.5 -49.5t17.5 -73q0 -45 -30 -77.5t-77 -45.5q51 -10 84 -46t33 -91q0 -76 -53.5 -117t-151.5 -41q-43 0 -84 13.5t-66 38.5q-42 42 -40 110z" />
<glyph unicode="&#xb4;" horiz-adv-x="665" d="M362 963h154l-170 -203h-100z" />
<glyph unicode="&#xb5;" horiz-adv-x="749" d="M518 711h166v-711h-166v29q-29 -23 -69.5 -35t-100.5 -12q-41 0 -67.5 2t-51.5 10v-258h-166v975h166v-461q0 -78 31 -118t98 -40q76 0 118 64.5t42 167.5v387z" />
<glyph unicode="&#xb6;" horiz-adv-x="796" d="M61 680q0 133 82 207t228 74h276h27v-1186h-131v1044h-109v-1044h-127v633q-45 4 -85 23.5t-75 49.5q-41 41 -63.5 93.5t-22.5 105.5z" />
<glyph unicode="&#xb7;" horiz-adv-x="423" d="M129 739h168v-170h-168v170z" />
<glyph unicode="&#xb8;" horiz-adv-x="624" d="M184 -201q8 -4 24.5 -9t14.5 -3q16 -4 34.5 -9t29.5 -5q20 0 41.5 13t21.5 48q0 29 -13 40t-30 11q-16 0 -69 -16l-27 27l80 106h86l-58 -72q8 2 27 2q53 0 86 -22.5t39 -46.5q2 -4 2 -12.5v-12.5q0 -59 -52 -85.5t-120 -26.5q-35 0 -69.5 9t-69.5 21z" />
<glyph unicode="&#xb9;" horiz-adv-x="423" d="M221 926h86v-555h-88v446q-14 -20 -37 -35q-18 -12 -42.5 -22t-55.5 -12v81q27 0 50.5 14.5t43.5 33.5q23 22 43 49z" />
<glyph unicode="&#xba;" horiz-adv-x="600" d="M307 934q106 0 165.5 -60.5t59.5 -175.5t-59 -175t-166 -60q-100 0 -164.5 60.5t-64.5 174.5q0 109 60 172.5t169 63.5zM307 539q39 0 63.5 15t39 38.5t19.5 52.5t5 53q0 27 -5 55.5t-19.5 52t-39 39t-63.5 15.5t-63.5 -15.5t-40 -38t-21.5 -51t-6 -57.5q0 -25 6 -53.5 t21.5 -52t40 -38.5t63.5 -15zM537 360v60h-459v-60h459z" />
<glyph unicode="&#xbb;" horiz-adv-x="702" d="M389 238q23 20 43 38q16 16 34.5 33t29.5 27q0 2 -11 10q-10 8 -31.5 27.5t-64.5 54.5v127l215 -166v-98q-6 -6 -31 -27q-23 -16 -63.5 -51t-116.5 -94zM117 238q23 20 43 38q16 16 34.5 33t28.5 27q0 2 -10 10t-31.5 27.5t-64.5 54.5v127l215 -166v-98q-6 -6 -31 -27 q-23 -16 -63.5 -51t-116.5 -94z" />
<glyph unicode="&#xbc;" horiz-adv-x="1146" d="M934 940h-119l-600 -956h119zM231 942h86v-555h-88v447q-14 -20 -36 -35q-18 -12 -43 -22.5t-56 -12.5v82q27 0 50.5 14t43.5 33q23 22 43 49zM934 555h88v-367h78v-77h-78v-111h-82v111h-260v75zM940 434q-47 -70 -84 -123q-33 -47 -58.5 -85t-27.5 -38h170l1 39t1 85 v65z" />
<glyph unicode="&#xbd;" horiz-adv-x="1146" d="M934 940h-119l-600 -956h119zM231 942h86v-555h-88v447q-14 -20 -36 -35q-18 -12 -43 -22.5t-56 -12.5v82q27 0 50.5 14t43.5 33q23 22 43 49zM776 516q49 49 129 49q82 0 132 -44t48 -120q0 -41 -15 -74.5t-50 -72.5l-40 -45t-49.5 -52.5t-49 -47t-39.5 -31.5h254v-78 h-367l2 76l12 12q47 47 106.5 98.5t104.5 114.5q23 29 34 52.5t9 49.5q-10 84 -92 84q-37 0 -61 -24q-23 -23 -23 -68v-4h-92v4q0 76 47 121z" />
<glyph unicode="&#xbe;" horiz-adv-x="1150" d="M383 -16h-119l600 956h119zM934 555h88v-367h78v-77h-78v-111h-82v111h-260v75zM940 434q-47 -70 -84 -123q-33 -47 -58.5 -85t-27.5 -38h170l1 39t1 85v65zM63 522h93q0 -35 20 -55q29 -29 80 -29q41 0 75 19.5t34 66.5q0 25 -7.5 38t-19.5 26q-20 16 -51 22t-76 6h-6 v78h6q23 0 59.5 3t61.5 28q12 10 18 21.5t6 31.5q0 35 -24.5 57.5t-73.5 22.5q-35 0 -64.5 -20.5t-29.5 -61.5h-92q0 61 41 107q53 53 139 53q35 0 69.5 -8t63.5 -27.5t46.5 -49.5t17.5 -73q0 -45 -30 -77.5t-77 -45.5q51 -10 84 -46t33 -91q0 -76 -53.5 -117t-151.5 -41 q-43 0 -84 13.5t-66 38.5q-43 42 -41 110z" />
<glyph unicode="&#xbf;" horiz-adv-x="808" d="M618 98q-41 -45 -100 -70.5t-135 -25.5q-72 0 -136.5 26.5t-103.5 73.5q-33 41 -47 85t-14 87q0 51 13.5 90t39 76t65.5 78t91 96q14 18 22.5 34t8.5 32v74h157v-74q0 -43 -25.5 -82t-84.5 -98q-53 -53 -79 -90t-36 -52q-12 -18 -17.5 -54t6 -71.5t44 -63.5t96.5 -32 q45 -2 73.5 15.5t49.5 40.5q16 23 23.5 46t9.5 44q2 23 -2 47l-7 30h144l6 -22q10 -61 -2.5 -126t-59.5 -114zM479 819h-160v156h160v-156z" />
<glyph unicode="&#xc0;" horiz-adv-x="980" d="M422 956h151l388 -956h-158q-35 86 -55.5 133t-30.5 70q-10 27 -12 33h-437q-4 -6 -14 -33q-10 -23 -28.5 -70t-53.5 -133h-152zM492 801q-2 -6 -15.5 -41t-32 -82t-40 -101.5t-40 -100.5t-32 -77.5t-15.5 -36.5h340q-2 4 -14 36t-29.5 78t-38 100.5t-38 101.5t-30.5 81 t-15 42zM596 1051h-100l-170 202h153z" />
<glyph unicode="&#xc1;" horiz-adv-x="980" d="M422 956h151l388 -956h-158q-35 86 -55.5 133t-30.5 70q-10 27 -12 33h-437q-4 -6 -14 -33q-10 -23 -28.5 -70t-53.5 -133h-152zM492 801q-2 -6 -15.5 -41t-32 -82t-40 -101.5t-40 -100.5t-32 -77.5t-15.5 -36.5h340q-2 4 -14 36t-29.5 78t-38 100.5t-38 101.5t-30.5 81 t-15 42zM508 1253h154l-170 -202h-101z" />
<glyph unicode="&#xc2;" horiz-adv-x="980" d="M422 956h151l388 -956h-158q-35 86 -55.5 133t-30.5 70q-10 27 -12 33h-437q-4 -6 -14 -33q-10 -23 -28.5 -70t-53.5 -133h-152zM492 801q-2 -6 -15.5 -41t-32 -82t-40 -101.5t-40 -100.5t-32 -77.5t-15.5 -36.5h340q-2 4 -14 36t-29.5 78t-38 100.5t-38 101.5t-30.5 81 t-15 42zM627 1051l-135 141q-35 -37 -67 -71t-67 -70h-108l192 227h99l194 -227h-108z" />
<glyph unicode="&#xc3;" horiz-adv-x="980" d="M422 956h151l388 -956h-158q-35 86 -55.5 133t-30.5 70q-10 27 -12 33h-437q-4 -6 -14 -33q-10 -23 -28.5 -70t-53.5 -133h-152zM492 801q-2 -6 -15.5 -41t-32 -82t-40 -101.5t-40 -100.5t-32 -77.5t-15.5 -36.5h340q-2 4 -14 36t-29.5 78t-38 100.5t-38 101.5t-30.5 81 t-15 42zM276 1075q0 27 4.5 53.5t16.5 49t34.5 37t55.5 14.5q20 0 34.5 -5t18.5 -10l133 -77q18 -10 36 -9.5t30 7.5q14 10 17 30.5t-1 36.5h62q2 -25 -2 -50.5t-15.5 -48t-31 -36.5t-50.5 -16q-23 -2 -44 3t-46 23l-108 66q-33 29 -58.5 7t-21.5 -75h-64v0z" />
<glyph unicode="&#xc4;" horiz-adv-x="980" d="M422 956h151l388 -956h-158q-35 86 -55.5 133t-30.5 70q-10 27 -12 33h-437q-4 -6 -14 -33q-10 -23 -28.5 -70t-53.5 -133h-152zM492 801q-2 -6 -15.5 -41t-32 -82t-40 -101.5t-40 -100.5t-32 -77.5t-15.5 -36.5h340q-2 4 -14 36t-29.5 78t-38 100.5t-38 101.5t-30.5 81 t-15 42zM276 1221h168v-170h-168v170zM551 1221h168v-170h-168v170z" />
<glyph unicode="&#xc5;" horiz-adv-x="980" d="M422 956h151l388 -956h-158q-35 86 -55.5 133t-30.5 70q-10 27 -12 33h-437q-4 -6 -14 -33q-10 -23 -28.5 -70t-53.5 -133h-152zM492 801q-2 -6 -15.5 -41t-32 -82t-40 -101.5t-40 -100.5t-32 -77.5t-15.5 -36.5h340q-2 4 -14 36t-29.5 78t-38 100.5t-38 101.5t-30.5 81 t-15 42zM344 1204q0 61 45 108.5t107 47.5q61 0 105 -46t44 -110q0 -63 -44 -108t-105 -45t-106.5 45t-45.5 108zM438 1204q0 -23 17.5 -41t40.5 -18t39 18.5t16 40.5q0 23 -16.5 41.5t-38.5 18.5q-23 0 -40.5 -18.5t-17.5 -41.5z" />
<glyph unicode="&#xc6;" horiz-adv-x="1402" d="M786 127h535v-127h-674v295h-340q-4 -10 -18 -47q-12 -31 -37 -89.5t-68 -158.5h-143l401 954h861v-127h-517v-249h471v-129h-471v-322zM647 424v403h-100q-2 -6 -15.5 -35.5t-32 -69.5t-40 -87t-41 -89t-33.5 -76t-20 -46h282z" />
<glyph unicode="&#xc7;" horiz-adv-x="933" d="M444 -12q-166 18 -264 144t-98 345q0 129 43 226.5t111 162.5q55 53 126.5 78t161.5 25q137 0 227.5 -69t116.5 -198h-151q-18 72 -74.5 106t-124.5 34q-78 0 -132 -33t-88 -85t-49.5 -116.5t-15.5 -130.5q0 -63 14.5 -128.5t47.5 -119t87 -86t134 -32.5q84 0 139.5 39.5 t65.5 107.5l151 -2q-16 -113 -103 -188.5t-241 -81.5l-43 -56q8 2 27 2q53 0 86 -22.5t39 -46.5q2 -4 2 -12.5v-12.5q0 -59 -52 -85.5t-120 -26.5q-35 0 -70 9t-69 21l22 43q8 -4 24.5 -9t14.5 -3q16 -4 34.5 -9t29.5 -5q20 0 41.5 13t21.5 48q0 29 -13.5 40t-29.5 11 t-70 -16l-26 27z" />
<glyph unicode="&#xc8;" horiz-adv-x="849" d="M123 956h614v-127h-469v-286h447v-127h-447v-289h480v-127h-625v956zM532 1051h-100l-170 202h154z" />
<glyph unicode="&#xc9;" horiz-adv-x="849" d="M123 956h614v-127h-469v-286h447v-127h-447v-289h480v-127h-625v956zM449 1253h153l-170 -202h-100z" />
<glyph unicode="&#xca;" horiz-adv-x="849" d="M123 956h614v-127h-469v-286h447v-127h-447v-289h480v-127h-625v956zM567 1051l-135 141q-35 -37 -66.5 -71t-66.5 -70h-109l193 227h98l195 -227h-109z" />
<glyph unicode="&#xcb;" horiz-adv-x="849" d="M123 956h614v-127h-469v-286h447v-127h-447v-289h480v-127h-625v956zM219 1221h168v-170h-168v170zM494 1221h168v-170h-168v170z" />
<glyph unicode="&#xcc;" horiz-adv-x="382" d="M119 956h145v-956h-145v956zM295 1051h-100l-170 202h153z" />
<glyph unicode="&#xcd;" horiz-adv-x="382" d="M119 956h145v-956h-145v956zM203 1253h153l-170 -202h-100z" />
<glyph unicode="&#xce;" horiz-adv-x="382" d="M119 956h145v-956h-145v956zM326 1051l-136 141q-35 -37 -66.5 -71t-66.5 -70h-108l192 227h99l194 -227h-108z" />
<glyph unicode="&#xcf;" horiz-adv-x="382" d="M119 956h145v-956h-145v956zM-29 1221h168v-170h-168v170zM246 1221h168v-170h-168v170z" />
<glyph unicode="&#xd0;" horiz-adv-x="974" d="M395 584v-101h-133v-358h189q100 0 155.5 32.5t83.5 73.5q41 59 56.5 122t15.5 128q0 66 -15.5 128.5t-56.5 121.5q-29 41 -84 74t-155 33h-189v-254h133zM-16 483v101h133v379h325q68 0 136.5 -11.5t128.5 -48.5q109 -68 157.5 -176.5t48.5 -245.5t-49 -245.5 t-157 -176.5q-59 -37 -128 -48t-137 -11h-325v483h-133z" />
<glyph unicode="&#xd1;" horiz-adv-x="1028" d="M899 956h6v-956h-182q-84 141 -149.5 250.5t-113.5 190.5t-83 138.5t-58 96.5q-53 90 -65 110v-786h-131v956h192q84 -141 147.5 -248.5t111 -189.5t81 -139t56.5 -94q53 -88 63 -109v780h125zM279 1075q0 27 4 53.5t16 49t34.5 37t55.5 14.5q20 0 34.5 -5t18.5 -10 l133 -77q18 -10 36 -9.5t30 7.5q14 10 17.5 30.5t-1.5 36.5h62q2 -25 -2 -50.5t-15.5 -48t-31 -36.5t-49.5 -16q-23 -2 -44.5 3t-46.5 23l-108 66q-33 29 -58.5 7t-21.5 -75h-63v0z" />
<glyph unicode="&#xd2;" horiz-adv-x="1011" d="M61 475q0 119 32 211t90.5 154.5t140.5 94.5t182 32q211 0 327.5 -130t116.5 -362q0 -229 -116.5 -360t-327.5 -131q-100 0 -182 32.5t-140.5 95t-90.5 153.5t-32 210zM213 475q0 -94 24.5 -163.5t65.5 -113.5t93.5 -65.5t109.5 -21.5q63 0 116.5 21.5t92.5 65.5 t61.5 113.5t22.5 163.5q0 162 -72 263.5t-221 101.5q-150 0 -221.5 -100.5t-71.5 -264.5zM604 1051h-100l-170 202h153z" />
<glyph unicode="&#xd3;" horiz-adv-x="1011" d="M61 475q0 119 32 211t90.5 154.5t140.5 94.5t182 32q211 0 327.5 -130t116.5 -362q0 -229 -116.5 -360t-327.5 -131q-100 0 -182 32.5t-140.5 95t-90.5 153.5t-32 210zM213 475q0 -94 24.5 -163.5t65.5 -113.5t93.5 -65.5t109.5 -21.5q63 0 116.5 21.5t92.5 65.5 t61.5 113.5t22.5 163.5q0 162 -72 263.5t-221 101.5q-150 0 -221.5 -100.5t-71.5 -264.5zM522 1253h154l-170 -202h-100z" />
<glyph unicode="&#xd4;" horiz-adv-x="1011" d="M61 475q0 119 32 211t90.5 154.5t140.5 94.5t182 32q211 0 327.5 -130t116.5 -362q0 -229 -116.5 -360t-327.5 -131q-100 0 -182 32.5t-140.5 95t-90.5 153.5t-32 210zM213 475q0 -94 24.5 -163.5t65.5 -113.5t93.5 -65.5t109.5 -21.5q63 0 116.5 21.5t92.5 65.5 t61.5 113.5t22.5 163.5q0 162 -72 263.5t-221 101.5q-150 0 -221.5 -100.5t-71.5 -264.5zM643 1051l-135 141q-35 -37 -66.5 -71t-66.5 -70h-109l193 227h98l195 -227h-109z" />
<glyph unicode="&#xd5;" horiz-adv-x="1011" d="M61 475q0 119 32 211t90.5 154.5t140.5 94.5t182 32q211 0 327.5 -130t116.5 -362q0 -229 -116.5 -360t-327.5 -131q-100 0 -182 32.5t-140.5 95t-90.5 153.5t-32 210zM213 475q0 -94 24.5 -163.5t65.5 -113.5t93.5 -65.5t109.5 -21.5q63 0 116.5 21.5t92.5 65.5 t61.5 113.5t22.5 163.5q0 162 -72 263.5t-221 101.5q-150 0 -221.5 -100.5t-71.5 -264.5zM291 1075q0 27 4 53.5t16.5 49t35 37t54.5 14.5q20 0 35 -5t19 -10l133 -77q18 -10 35.5 -9.5t29.5 7.5q14 10 17.5 30.5t-0.5 36.5h61q2 -25 -2 -50.5t-15.5 -48t-30.5 -36.5 t-50 -16q-23 -2 -44.5 3t-45.5 23l-109 66q-33 29 -58.5 7t-21.5 -75h-63v0z" />
<glyph unicode="&#xd6;" horiz-adv-x="1011" d="M61 475q0 119 32 211t90.5 154.5t140.5 94.5t182 32q211 0 327.5 -130t116.5 -362q0 -229 -116.5 -360t-327.5 -131q-100 0 -182 32.5t-140.5 95t-90.5 153.5t-32 210zM213 475q0 -94 24.5 -163.5t65.5 -113.5t93.5 -65.5t109.5 -21.5q63 0 116.5 21.5t92.5 65.5 t61.5 113.5t22.5 163.5q0 162 -72 263.5t-221 101.5q-150 0 -221.5 -100.5t-71.5 -264.5zM281 1221h168v-170h-168v170zM555 1221h168v-170h-168v170z" />
<glyph unicode="&#xd7;" horiz-adv-x="1140" d="M969 686l-307 -303q35 -33 69.5 -66.5t69.5 -70.5q41 -39 87 -84t81 -80l-92 -86l-306 305q-35 -35 -69.5 -70.5t-69.5 -70.5l-84 -84t-82 -80l-92 86l309 301q-35 35 -69.5 68.5t-69.5 68.5q-41 41 -87 86t-83 80l90 90l307 -303q49 49 98.5 97t100.5 98 q23 25 55.5 55.5t53.5 52.5z" />
<glyph unicode="&#xd8;" horiz-adv-x="1062" d="M399 143q59 -33 138 -32q63 0 116.5 21.5t92 65.5t61 113.5t22.5 163.5q0 96 -24.5 172t-75.5 123zM760 1018h100l-65 -123q90 -59 138 -165.5t48 -254.5q0 -229 -116.5 -360t-327.5 -131q-113 0 -201 41l-39 -74h-100l61 119q-78 61 -122 162.5t-44 242.5q0 119 32 211 t90 154.5t140 94.5t183 32q100 0 180 -31zM653 817q-51 23 -116 23q-150 0 -221.5 -100.5t-71.5 -264.5q0 -94 22.5 -160.5t63.5 -111.5z" />
<glyph unicode="&#xd9;" horiz-adv-x="1028" d="M901 956h8v-565q0 -201 -102 -303q-100 -104 -291 -104q-190 0 -293 104q-100 102 -100 303v565h145v-598q0 -119 65.5 -183t182.5 -64t181.5 64.5t64.5 182.5v598h139zM616 1051h-100l-170 202h154z" />
<glyph unicode="&#xda;" horiz-adv-x="1028" d="M901 956h8v-565q0 -201 -102 -303q-100 -104 -291 -104q-190 0 -293 104q-100 102 -100 303v565h145v-598q0 -119 65.5 -183t182.5 -64t181.5 64.5t64.5 182.5v598h139zM532 1253h154l-170 -202h-100z" />
<glyph unicode="&#xdb;" horiz-adv-x="1028" d="M901 956h8v-565q0 -201 -102 -303q-100 -104 -291 -104q-190 0 -293 104q-100 102 -100 303v565h145v-598q0 -119 65.5 -183t182.5 -64t181.5 64.5t64.5 182.5v598h139zM651 1051l-135 141q-35 -37 -66.5 -71t-66.5 -70h-109l193 227h98l195 -227h-109z" />
<glyph unicode="&#xdc;" horiz-adv-x="1028" d="M901 956h8v-565q0 -201 -102 -303q-100 -104 -291 -104q-190 0 -293 104q-100 102 -100 303v565h145v-598q0 -119 65.5 -183t182.5 -64t181.5 64.5t64.5 182.5v598h139zM291 1221h168v-170h-168v170zM565 1221h168v-170h-168v170z" />
<glyph unicode="&#xdd;" horiz-adv-x="983" d="M41 958h164q106 -168 165.5 -262t88.5 -139q35 -53 41 -63q6 10 39 63q29 45 85 139.5t158 261.5h164l-379 -626v-332h-145v328zM518 1253h154l-170 -202h-101z" />
<glyph unicode="&#xde;" horiz-adv-x="897" d="M289 956v-192h114q100 0 174 -7t128 -42q61 -41 95 -96.5t34 -118.5q0 -141 -102.5 -209t-305.5 -68h-137v-223h-142v956h142zM461 309q223 0 223 187q0 100 -54.5 141t-174.5 41h-166v-369h172v0z" />
<glyph unicode="&#xdf;" horiz-adv-x="743" d="M92 752q0 137 68.5 201.5t206.5 64.5q123 0 197.5 -68.5t74.5 -181.5q0 -121 -111 -201h-2q41 -20 70 -51t45 -64.5t23.5 -68.5t7.5 -66q0 -166 -79 -250.5t-226 -84.5h-74v90q53 -12 76 -13q57 0 96 39q35 35 57.5 76t22.5 109q0 127 -62.5 180t-189.5 53v84 q115 0 166 40t51 128q0 25 -6 57.5t-22.5 60t-44 47t-70.5 19.5q-49 0 -78 -17t-44.5 -45t-19.5 -65t-4 -73v-752h-129v752v0z" />
<glyph unicode="&#xe0;" horiz-adv-x="753" d="M653 152v-48q0 -23 1 -49t3 -55h-133q0 14 -1 29.5t-3 29.5q-2 16 -2 35q-37 -55 -89 -81.5t-114 -26.5q-45 0 -88 10t-76.5 32.5t-54 57.5t-20.5 86q0 84 38 132t90 71.5t108.5 30t93.5 6.5h108q4 37 1 67.5t-17.5 53t-43 36t-75.5 13.5q-20 0 -44 -5.5t-43.5 -16.5 t-32.5 -30.5t-13 -48.5l-146 2q4 66 34 106t72 61.5t88 28.5t81 7q279 0 278 -233v-301zM459 137q29 29 42 64t13 102v8h-18q-12 0 -36 1t-65 -1q-20 0 -50 -4t-57.5 -15t-47 -33.5t-19.5 -61.5q0 -53 33 -77t92 -24q37 0 67 12.5t46 28.5zM475 754h-100l-170 202h153z" />
<glyph unicode="&#xe1;" horiz-adv-x="753" d="M653 152v-48q0 -23 1 -49t3 -55h-133q0 14 -1 29.5t-3 29.5q-2 16 -2 35q-37 -55 -89 -81.5t-114 -26.5q-45 0 -88 10t-76.5 32.5t-54 57.5t-20.5 86q0 84 38 132t90 71.5t108.5 30t93.5 6.5h108q4 37 1 67.5t-17.5 53t-43 36t-75.5 13.5q-20 0 -44 -5.5t-43.5 -16.5 t-32.5 -30.5t-13 -48.5l-146 2q4 66 34 106t72 61.5t88 28.5t81 7q279 0 278 -233v-301zM459 137q29 29 42 64t13 102v8h-18q-12 0 -36 1t-65 -1q-20 0 -50 -4t-57.5 -15t-47 -33.5t-19.5 -61.5q0 -53 33 -77t92 -24q37 0 67 12.5t46 28.5zM391 956h154l-170 -202h-101z" />
<glyph unicode="&#xe2;" horiz-adv-x="753" d="M653 152v-48q0 -23 1 -49t3 -55h-133q0 14 -1 29.5t-3 29.5q-2 16 -2 35q-37 -55 -89 -81.5t-114 -26.5q-45 0 -88 10t-76.5 32.5t-54 57.5t-20.5 86q0 84 38 132t90 71.5t108.5 30t93.5 6.5h108q4 37 1 67.5t-17.5 53t-43 36t-75.5 13.5q-20 0 -44 -5.5t-43.5 -16.5 t-32.5 -30.5t-13 -48.5l-146 2q4 66 34 106t72 61.5t88 28.5t81 7q279 0 278 -233v-301zM459 137q29 29 42 64t13 102v8h-18q-12 0 -36 1t-65 -1q-20 0 -50 -4t-57.5 -15t-47 -33.5t-19.5 -61.5q0 -53 33 -77t92 -24q37 0 67 12.5t46 28.5zM510 754l-135 141 q-35 -37 -67 -70.5t-66 -70.5h-109l193 227h98l194 -227h-108z" />
<glyph unicode="&#xe3;" horiz-adv-x="753" d="M653 152v-48q0 -23 1 -49t3 -55h-133q0 14 -1 29.5t-3 29.5q-2 16 -2 35q-37 -55 -89 -81.5t-114 -26.5q-45 0 -88 10t-76.5 32.5t-54 57.5t-20.5 86q0 84 38 132t90 71.5t108.5 30t93.5 6.5h108q4 37 1 67.5t-17.5 53t-43 36t-75.5 13.5q-20 0 -44 -5.5t-43.5 -16.5 t-32.5 -30.5t-13 -48.5l-146 2q4 66 34 106t72 61.5t88 28.5t81 7q279 0 278 -233v-301zM459 137q29 29 42 64t13 102v8h-18q-12 0 -36 1t-65 -1q-20 0 -50 -4t-57.5 -15t-47 -33.5t-19.5 -61.5q0 -53 33 -77t92 -24q37 0 67 12.5t46 28.5zM162 778q0 27 4 53.5t16.5 49 t35 37t54.5 14.5q20 0 35 -5t19 -9l133 -78q18 -10 35.5 -9.5t29.5 7.5q14 10 17.5 30.5t-0.5 36.5h61q2 -25 -2 -50.5t-15.5 -48t-30.5 -36.5t-50 -16q-23 -2 -44.5 3t-45.5 23l-109 66q-33 29 -58.5 7t-21.5 -75h-63v0z" />
<glyph unicode="&#xe4;" horiz-adv-x="753" d="M653 152v-48q0 -23 1 -49t3 -55h-133q0 14 -1 29.5t-3 29.5q-2 16 -2 35q-37 -55 -89 -81.5t-114 -26.5q-45 0 -88 10t-76.5 32.5t-54 57.5t-20.5 86q0 84 38 132t90 71.5t108.5 30t93.5 6.5h108q4 37 1 67.5t-17.5 53t-43 36t-75.5 13.5q-20 0 -44 -5.5t-43.5 -16.5 t-32.5 -30.5t-13 -48.5l-146 2q4 66 34 106t72 61.5t88 28.5t81 7q279 0 278 -233v-301zM459 137q29 29 42 64t13 102v8h-18q-12 0 -36 1t-65 -1q-20 0 -50 -4t-57.5 -15t-47 -33.5t-19.5 -61.5q0 -53 33 -77t92 -24q37 0 67 12.5t46 28.5zM147 924h168v-170h-168v170z M422 924h168v-170h-168v170z" />
<glyph unicode="&#xe5;" horiz-adv-x="753" d="M653 152v-48q0 -23 1 -49t3 -55h-133q0 14 -1 29.5t-3 29.5q-2 16 -2 35q-37 -55 -89 -81.5t-114 -26.5q-45 0 -88 10t-76.5 32.5t-54 57.5t-20.5 86q0 84 38 132t90 71.5t108.5 30t93.5 6.5h108q4 37 1 67.5t-17.5 53t-43 36t-75.5 13.5q-20 0 -44 -5.5t-43.5 -16.5 t-32.5 -30.5t-13 -48.5l-146 2q4 66 34 106t72 61.5t88 28.5t81 7q279 0 278 -233v-301zM276 911q0 61 45.5 108.5t106.5 47.5t105.5 -46t44.5 -110q0 -63 -44.5 -108t-105.5 -45t-106.5 45t-45.5 108zM459 137q29 29 42 64t13 102v8h-18q-12 0 -36 1t-65 -1q-20 0 -50 -4 t-57.5 -15t-47 -33.5t-19.5 -61.5q0 -53 33 -77t92 -24q37 0 67 12.5t46 28.5zM371 911q0 -23 17.5 -41t39.5 -18q23 0 39 18.5t16 40.5q0 23 -16 41.5t-39 18.5t-40 -18.5t-17 -41.5z" />
<glyph unicode="&#xe6;" horiz-adv-x="1224" d="M1163 319h-512q4 -123 55.5 -190.5t141.5 -67.5q61 0 108.5 42t61.5 114h139q-16 -111 -100 -172t-217 -61q-109 0 -181 43q0 -4 1.5 -13.5t1.5 -13.5h-136l-4 51q-37 -31 -88 -48t-110 -17q-117 0 -182.5 54t-65.5 148q0 100 90 161t256 61h88v71q0 129 -133 129 q-125 0 -135 -118h-140q10 94 82 142t193 48q131 0 198 -51q14 -10 21.5 -16.5t13.5 -14.5q41 39 100.5 60.5t131.5 21.5q145 0 233 -89t88 -245v-29zM334 61q78 0 125 56.5t51 132.5q-6 35 -6 78v10h-64q-117 0 -173 -41t-56 -109q0 -55 32 -91t91 -36zM1018 397 q-6 96 -56.5 153.5t-125.5 57.5q-70 0 -117 -56t-64 -155h363z" />
<glyph unicode="&#xe7;" horiz-adv-x="737" d="M344 -12q-129 12 -208 99t-79 247q0 74 20.5 138.5t63.5 112.5t107.5 75.5t152.5 27.5q53 0 101.5 -18.5t84.5 -50t59.5 -75.5t27.5 -93h-139q-4 59 -47.5 93t-96.5 34q-88 0 -138 -60.5t-50 -179.5q0 -129 56 -185.5t136 -56.5q66 0 107 43t41 94l139 -2 q-8 -104 -76.5 -169.5t-177.5 -75.5l-43 -56q8 2 27 2q53 0 85.5 -22.5t39.5 -46.5q2 -4 2 -12.5v-12.5q0 -59 -52.5 -85.5t-119.5 -26.5q-35 0 -70 9t-70 21l23 43q8 -4 24.5 -9t14.5 -3q16 -4 34.5 -9t28.5 -5q20 0 42 13t22 48q0 29 -13.5 40t-29.5 11t-70 -16l-27 27z " />
<glyph unicode="&#xe8;" horiz-adv-x="757" d="M696 375v-76h-495q0 -61 19.5 -100t48 -62.5t59 -33t55.5 -9.5q45 0 74.5 10.5t48 26.5t28 39t15.5 47h139q-20 -113 -94 -173t-205 -60q-147 0 -237.5 87t-90.5 259q0 66 19.5 130t59.5 114.5t102.5 80t148.5 29.5q143 -2 224 -89t81 -220zM211 406h346q-2 49 -20 86 q-16 33 -50 59.5t-98 26.5q-70 0 -119 -46t-59 -126zM494 754h-101l-170 202h154z" />
<glyph unicode="&#xe9;" horiz-adv-x="757" d="M696 375v-76h-495q0 -61 19.5 -100t48 -62.5t59 -33t55.5 -9.5q45 0 74.5 10.5t48 26.5t28 39t15.5 47h139q-20 -113 -94 -173t-205 -60q-147 0 -237.5 87t-90.5 259q0 66 19.5 130t59.5 114.5t102.5 80t148.5 29.5q143 -2 224 -89t81 -220zM211 406h346q-2 49 -20 86 q-16 33 -50 59.5t-98 26.5q-70 0 -119 -46t-59 -126zM406 956h153l-170 -202h-100z" />
<glyph unicode="&#xea;" horiz-adv-x="757" d="M696 375v-76h-495q0 -61 19.5 -100t48 -62.5t59 -33t55.5 -9.5q45 0 74.5 10.5t48 26.5t28 39t15.5 47h139q-20 -113 -94 -173t-205 -60q-147 0 -237.5 87t-90.5 259q0 66 19.5 130t59.5 114.5t102.5 80t148.5 29.5q143 -2 224 -89t81 -220zM211 406h346q-2 49 -20 86 q-16 33 -50 59.5t-98 26.5q-70 0 -119 -46t-59 -126zM524 754l-135 141q-35 -37 -66.5 -70.5t-66.5 -70.5h-109l193 227h98l195 -227h-109z" />
<glyph unicode="&#xeb;" horiz-adv-x="757" d="M696 375v-76h-495q0 -61 19.5 -100t48 -62.5t59 -33t55.5 -9.5q45 0 74.5 10.5t48 26.5t28 39t15.5 47h139q-20 -113 -94 -173t-205 -60q-147 0 -237.5 87t-90.5 259q0 66 19.5 130t59.5 114.5t102.5 80t148.5 29.5q143 -2 224 -89t81 -220zM211 406h346q-2 49 -20 86 q-16 33 -50 59.5t-98 26.5q-70 0 -119 -46t-59 -126zM160 924h168v-170h-168v170zM434 924h168v-170h-168v170z" />
<glyph unicode="&#xec;" horiz-adv-x="350" d="M240 666h6v-666h-140v666h134zM295 754h-100l-170 202h153z" />
<glyph unicode="&#xed;" horiz-adv-x="350" d="M240 666h6v-666h-140v666h134zM172 956h154l-170 -202h-101z" />
<glyph unicode="&#xee;" horiz-adv-x="370" d="M246 666h6v-666h-139v666h133zM319 754l-135 141q-35 -37 -66.5 -70.5t-66.5 -70.5h-108l192 227h98l195 -227h-109z" />
<glyph unicode="&#xef;" horiz-adv-x="348" d="M236 666h6v-666h-140v666h134zM-47 924h168v-170h-168v170zM227 924h168v-170h-168v170z" />
<glyph unicode="&#xf0;" horiz-adv-x="849" d="M223 657l-30 68l186 76h-6q-43 35 -83 60.5t-81 47.5l53 60q59 -29 115.5 -59.5t109.5 -67.5q41 16 87.5 35.5t82.5 33.5l29 -65l-145 -62h8q209 -203 209 -465q0 -158 -91.5 -246.5t-242.5 -88.5q-74 0 -134.5 22.5t-104.5 64.5t-68.5 100t-24.5 128q0 72 24.5 129 t68.5 98t105.5 63.5t133.5 22.5q78 0 129 -22q-29 47 -59.5 87t-59.5 68zM424 66q88 0 140 63.5t52 175.5q0 111 -52 174.5t-140 63.5q-86 0 -138.5 -63.5t-52.5 -174.5q0 -113 51.5 -176t139.5 -63z" />
<glyph unicode="&#xf1;" horiz-adv-x="792" d="M102 666h138v-88q35 55 89 79.5t107 24.5q16 0 59.5 -4t87.5 -26.5t78.5 -67.5t34.5 -129v-455h-139v414q0 162 -147 161q-18 0 -56.5 -13t-62.5 -46q-6 -8 -14.5 -19.5t-16.5 -29.5t-13 -47t-5 -76v-344h-140v666zM172 778q0 27 4 53.5t16.5 49t35 37t55.5 14.5 q20 0 34.5 -5t18.5 -9l133 -78q18 -10 35.5 -9.5t30.5 7.5q14 10 17 30.5t-1 36.5h61q2 -25 -2 -50.5t-15 -48t-30.5 -36.5t-50.5 -16q-23 -2 -44 3t-46 23l-109 66q-33 29 -58.5 7t-20.5 -75h-64v0z" />
<glyph unicode="&#xf2;" horiz-adv-x="786" d="M393 682q160 0 249 -89t89 -259t-89 -260t-249 -90q-150 0 -244 90t-94 260q0 160 89 254t249 94zM393 92q59 0 97 24.5t59.5 60.5t29 78t7.5 79q0 41 -7.5 83t-29 77.5t-59 58t-97.5 22.5q-55 0 -92 -22.5t-59.5 -57t-31.5 -77.5t-9 -84q0 -37 9 -79t31.5 -78 t59.5 -60.5t92 -24.5zM496 754h-101l-170 202h154z" />
<glyph unicode="&#xf3;" horiz-adv-x="786" d="M393 682q160 0 249 -89t89 -259t-89 -260t-249 -90q-150 0 -244 90t-94 260q0 160 89 254t249 94zM393 92q59 0 97 24.5t59.5 60.5t29 78t7.5 79q0 41 -7.5 83t-29 77.5t-59 58t-97.5 22.5q-55 0 -92 -22.5t-59.5 -57t-31.5 -77.5t-9 -84q0 -37 9 -79t31.5 -78 t59.5 -60.5t92 -24.5zM410 956h153l-170 -202h-100z" />
<glyph unicode="&#xf4;" horiz-adv-x="786" d="M393 682q160 0 249 -89t89 -259t-89 -260t-249 -90q-150 0 -244 90t-94 260q0 160 89 254t249 94zM393 92q59 0 97 24.5t59.5 60.5t29 78t7.5 79q0 41 -7.5 83t-29 77.5t-59 58t-97.5 22.5q-55 0 -92 -22.5t-59.5 -57t-31.5 -77.5t-9 -84q0 -37 9 -79t31.5 -78 t59.5 -60.5t92 -24.5zM528 754l-135 141q-35 -37 -66.5 -70.5t-66.5 -70.5h-108l192 227h98l195 -227h-109z" />
<glyph unicode="&#xf5;" horiz-adv-x="786" d="M393 682q160 0 249 -89t89 -259t-89 -260t-249 -90q-150 0 -244 90t-94 260q0 160 89 254t249 94zM393 92q59 0 97 24.5t59.5 60.5t29 78t7.5 79q0 41 -7.5 83t-29 77.5t-59 58t-97.5 22.5q-55 0 -92 -22.5t-59.5 -57t-31.5 -77.5t-9 -84q0 -37 9 -79t31.5 -78 t59.5 -60.5t92 -24.5zM178 778q0 27 4 53.5t16.5 49t35 37t55.5 14.5q20 0 34.5 -5t18.5 -9l133 -78q18 -10 35.5 -9.5t30.5 7.5q14 10 17 30.5t-1 36.5h61q2 -25 -2 -50.5t-15 -48t-30.5 -36.5t-50.5 -16q-23 -2 -44 3t-46 23l-108 66q-33 29 -58.5 7t-21.5 -75h-64v0z" />
<glyph unicode="&#xf6;" horiz-adv-x="786" d="M393 682q160 0 249 -89t89 -259t-89 -260t-249 -90q-150 0 -244 90t-94 260q0 160 89 254t249 94zM393 92q59 0 97 24.5t59.5 60.5t29 78t7.5 79q0 41 -7.5 83t-29 77.5t-59 58t-97.5 22.5q-55 0 -92 -22.5t-59.5 -57t-31.5 -77.5t-9 -84q0 -37 9 -79t31.5 -78 t59.5 -60.5t92 -24.5zM174 924h168v-170h-168v170zM449 924h167v-170h-167v170z" />
<glyph unicode="&#xf7;" horiz-adv-x="792" d="M295 537q0 41 27.5 69.5t68.5 28.5t68.5 -28.5t27.5 -69.5t-27.5 -70t-68.5 -29t-68.5 29t-27.5 70zM752 285h-711v125h684h27v-125zM295 158q0 41 27.5 69.5t68.5 28.5t68.5 -28.5t27.5 -69.5t-27.5 -70t-68.5 -29t-68.5 29t-27.5 70z" />
<glyph unicode="&#xf8;" horiz-adv-x="757" d="M723 698q-23 -27 -37 -44t-22 -27t-15 -17q63 -102 64 -243q0 -178 -89 -280.5t-243 -102.5q-72 0 -118 20.5t-73 42.5q-6 -6 -16 -18q-10 -10 -22.5 -27.5t-32.5 -40.5l-84 74q23 29 37 47t24 29l15 18q-59 96 -60 238q0 178 89 281.5t241 103.5q109 0 190 -60 q6 8 15 17q6 8 15 18t22 27l2 4l14 18zM186 367q0 -41 5.5 -72t13.5 -53q16 18 59 71.5t91 111.5t88 108.5t49 60.5q-14 12 -42 23.5t-69 11.5q-53 0 -90 -23.5t-60.5 -60.5t-34 -84t-10.5 -94zM381 109q55 0 92 22.5t59.5 59t32.5 82.5t10 94q0 41 -4 72.5t-14 58.5 q-10 -12 -29 -35q-16 -18 -40.5 -49t-63.5 -78q-49 -59 -80 -96t-47 -60q-20 -25 -29 -37q47 -34 113 -34z" />
<glyph unicode="&#xf9;" horiz-adv-x="784" d="M96 668h140v-389q0 -104 32.5 -143.5t108.5 -39.5q35 0 77 25.5t64 73.5q16 35 20.5 67.5t4.5 52.5v353h139v-668h-135v90q-47 -66 -109.5 -85t-115.5 -19q-102 0 -164 64.5t-62 176.5v441zM479 754h-100l-170 202h153z" />
<glyph unicode="&#xfa;" horiz-adv-x="784" d="M96 668h140v-389q0 -104 32.5 -143.5t108.5 -39.5q35 0 77 25.5t64 73.5q16 35 20.5 67.5t4.5 52.5v353h139v-668h-135v90q-47 -66 -109.5 -85t-115.5 -19q-102 0 -164 64.5t-62 176.5v441zM395 956h154l-170 -202h-100z" />
<glyph unicode="&#xfb;" horiz-adv-x="784" d="M96 668h140v-389q0 -104 32.5 -143.5t108.5 -39.5q35 0 77 25.5t64 73.5q16 35 20.5 67.5t4.5 52.5v353h139v-668h-135v90q-47 -66 -109.5 -85t-115.5 -19q-102 0 -164 64.5t-62 176.5v441zM516 754l-135 141q-35 -37 -66.5 -70.5t-66.5 -70.5h-109l193 227h98l195 -227 h-109z" />
<glyph unicode="&#xfc;" horiz-adv-x="784" d="M96 668h140v-389q0 -104 32.5 -143.5t108.5 -39.5q35 0 77 25.5t64 73.5q16 35 20.5 67.5t4.5 52.5v353h139v-668h-135v90q-47 -66 -109.5 -85t-115.5 -19q-102 0 -164 64.5t-62 176.5v441zM170 924h168v-170h-168v170zM444 924h168v-170h-168v170z" />
<glyph unicode="&#xfd;" horiz-adv-x="755" d="M739 668l-389 -920h-143q37 94 57.5 146.5t30.5 74.5l12 31l-284 668h155q72 -184 113 -286.5t61 -154.5q23 -59 29 -75q6 16 31 75q23 51 63.5 153.5t114.5 287.5h149zM397 956h154l-170 -202h-100z" />
<glyph unicode="&#xfe;" horiz-adv-x="835" d="M262 -256h-139v1219h139v-381q33 63 91.5 86.5t131.5 23.5q72 0 126.5 -30.5t90 -81t53 -115t17.5 -131.5q0 -63 -16.5 -127t-54 -115t-100 -83t-155.5 -32q-41 0 -95 20.5t-89 68.5v-322zM444 588q-51 0 -85.5 -22.5t-56 -59.5t-31 -82t-9.5 -90t7 -91t26.5 -81 t52.5 -57.5t84 -22.5q55 0 93 22.5t60.5 57.5t32 81t9.5 91q0 47 -8.5 92t-29 81t-55.5 58.5t-90 22.5z" />
<glyph unicode="&#xff;" horiz-adv-x="755" d="M739 668l-389 -920h-143q37 94 57.5 146.5t30.5 74.5l12 31l-284 668h155q72 -184 113 -286.5t61 -154.5q23 -59 29 -75q6 16 31 75q23 51 63.5 153.5t114.5 287.5h149zM154 924h168v-170h-168v170zM428 924h168v-170h-168v170z" />
<glyph unicode="&#x131;" horiz-adv-x="382" d="M260 0h-137v969h137v-969z" />
<glyph unicode="&#x141;" horiz-adv-x="825" d="M150 0v455q-27 -14 -54.5 -29.5t-48.5 -26.5v125l103 51v396h135v-307q23 12 54.5 27.5t47.5 23.5v-123l-102 -53v-424h499v-115h-634z" />
<glyph unicode="&#x142;" horiz-adv-x="417" d="M147 0v426q-25 -14 -50 -28.5t-42 -24.5v125l92 51v422h123v-334q25 14 50.5 29.5t41.5 23.5v-125l-92 -51v-514h-123z" />
<glyph unicode="&#x152;" horiz-adv-x="1390" d="M844 127h444v-127h-581v57q-41 -35 -95.5 -59.5t-132.5 -24.5q-111 0 -190.5 43t-129.5 114t-74 162t-24 185q0 236 110 369t304 133q51 0 114.5 -13.5t117.5 -64.5v51h569v-127h-432v-264h405v-129h-405v-305zM702 313v344q0 78 -58 135.5t-169 57.5q-66 0 -117 -26.5 t-85.5 -76t-52 -118t-17.5 -150.5q0 -68 14 -135.5t47 -120.5t87.5 -87t133.5 -34q41 0 86 17.5t78 46.5q35 29 44 64.5t9 82.5z" />
<glyph unicode="&#x153;" horiz-adv-x="1275" d="M1214 350v-26h-497q0 -35 13 -79t46 -79q51 -57 135 -57q61 0 105.5 36.5t58.5 98.5l4 20h133l-6 -31q-25 -119 -102.5 -184t-194.5 -65q-84 0 -150.5 38.5t-109.5 104.5q-43 -66 -112.5 -104.5t-155.5 -38.5q-147 0 -233.5 103t-86.5 280q0 182 85 283.5t239 101.5 q176 0 264 -142q47 70 110.5 106t149.5 36q76 0 128.5 -22.5t86 -59.5t52 -82t27.5 -89t10 -84t1 -65zM387 109q90 0 142.5 72.5t52.5 199.5q0 119 -52.5 183.5t-150.5 64.5q-72 0 -117 -45q-66 -70 -65 -213v-17v-2q0 -131 65 -196q49 -47 125 -47zM721 442h356 q-6 90 -50 138.5t-122 48.5q-72 0 -122 -52.5t-62 -134.5z" />
<glyph unicode="&#x160;" horiz-adv-x="935" d="M819 702h-151q4 45 -17.5 72t-52.5 41t-62.5 19.5t-52.5 5.5q-41 0 -79.5 -7.5t-69.5 -24.5t-49.5 -44t-18.5 -66q0 -33 9.5 -53t26.5 -31.5t40 -18.5t49 -13l227 -60q23 -6 61 -19.5t75 -41t63.5 -74.5t26.5 -121q0 -70 -22.5 -118t-59.5 -79.5t-82 -49t-88 -25.5 t-82 -9t-61 -1q-188 0 -275 92q-78 78 -74 213h152q4 -92 52 -135t153 -43q33 0 73.5 4t76.5 18t60.5 45t24.5 82q0 106 -151 141l-213 50q-23 6 -59 20t-70.5 42t-59 68t-24.5 95q0 80 30.5 136t83 90t120 49.5t140.5 15.5q59 0 119 -15.5t107 -48.5t75.5 -83t28.5 -118z M733 1280l-194 -227h-99l-192 227h108q35 -37 67 -70.5t66 -70.5l136 141h108z" />
<glyph unicode="&#x161;" horiz-adv-x="698" d="M86 483q0 51 22.5 89t60.5 64t86 38t97 12q72 0 129.5 -19.5t91.5 -56.5q49 -51 45 -135h-145q2 45 -22 74q-20 20 -50 26.5t-55 6.5q-12 0 -32.5 -2t-39 -11.5t-31 -28t-12.5 -53.5q0 -37 32 -51t71 -24q66 -16 108.5 -30.5t71.5 -25.5q33 -12 49 -24q35 -23 53.5 -59.5 t18.5 -73.5q0 -61 -24.5 -102.5t-66.5 -66t-96.5 -35.5t-113.5 -11q-88 0 -139.5 26.5t-79 62.5t-35.5 73.5t-8 62.5h145q2 -57 36 -89t93 -32q12 0 37 2t48.5 12.5t40.5 31t17 59.5t-29.5 57t-74.5 30.5t-97 22.5t-97.5 29.5t-75 54.5t-29.5 96zM590 983l-195 -227h-98 l-193 227h109q35 -37 66.5 -70.5t66.5 -70.5l135 141h109z" />
<glyph unicode="&#x178;" horiz-adv-x="935" d="M20 958h164q106 -168 166 -262t88 -139q35 -53 41 -63q6 10 39 63q29 45 85 139.5t159 261.5h164l-379 -626v-332h-146v328zM256 1221h168v-170h-168v170zM530 1221h168v-170h-168v170z" />
<glyph unicode="&#x17d;" horiz-adv-x="946" d="M102 0l2 125q106 129 187.5 228.5t143 173t103.5 124.5t70 84q68 80 78 96h-549v127h731l-2 -124q-106 -129 -187 -227.5t-142.5 -172.5t-103.5 -125t-71 -86q-68 -80 -79 -96h575v-127h-756zM739 1280l-194 -227h-99l-192 227h108q35 -37 67 -70.5t67 -70.5l135 141h108 z" />
<glyph unicode="&#x17e;" horiz-adv-x="628" d="M563 100v-100h-497l2 98q119 170 184 263.5t98 140.5q37 53 45 65h-323v101h479l-2 -97q-119 -170 -184.5 -263t-98.5 -140q-37 -53 -45 -68h342zM559 983l-194 -227h-99l-192 227h108q35 -37 67 -70.5t66 -70.5l136 141h108z" />
<glyph unicode="&#x192;" horiz-adv-x="733" d="M-31 -240l43 129l29 -18q16 -10 24.5 -11t26.5 -1q31 0 54.5 39t42 104.5t35 149.5t32.5 174q10 53 15 86.5t10 54.5q4 23 6 37h-137v114h157q0 4 2 11q2 4 2 9t2 11q12 53 27.5 112.5t43.5 110t74 83t115 32.5q49 0 101 -31l18 -10l-51 -108l-18 10q-20 10 -36 14 t-44 -2q-20 -4 -34.5 -21.5t-25 -44t-17.5 -58t-13 -66.5q-2 -10 -4.5 -19.5t-4.5 -17.5t-2 -15h138v-114h-158q-6 -31 -18.5 -99.5t-24.5 -138.5q-14 -82 -33 -174q-14 -70 -33.5 -134t-50.5 -113.5t-77 -79t-113 -29.5q-23 0 -42.5 5t-35.5 9z" />
<glyph unicode="&#x2c6;" horiz-adv-x="727" d="M500 754l-135 141q-35 -37 -67 -70.5t-67 -70.5h-108l192 227h99l194 -227h-108z" />
<glyph unicode="&#x2c7;" horiz-adv-x="727" d="M608 983l-194 -227h-99l-192 227h108q35 -37 67 -70.5t67 -70.5l135 141h108z" />
<glyph unicode="&#x2d8;" horiz-adv-x="708" d="M358 754q-39 0 -74.5 13t-64.5 37.5t-47 58.5t-22 77l-3 29h101l2 -23q8 -41 34.5 -68.5t77.5 -27.5q49 0 74 27.5t31 68.5l2 23h96l-2 -29q-8 -78 -60.5 -132t-144.5 -54z" />
<glyph unicode="&#x2d9;" horiz-adv-x="669" d="M256 924h168v-170h-168v170z" />
<glyph unicode="&#x2da;" horiz-adv-x="485" d="M92 905q0 61 45 108.5t107 47.5q61 0 105 -46t44 -110q0 -63 -44 -108t-105 -45t-106.5 45t-45.5 108zM186 905q0 -23 17.5 -41t40.5 -18t39 18.5t16 40.5q0 23 -16.5 41.5t-38.5 18.5q-23 0 -40.5 -18.5t-17.5 -41.5z" />
<glyph unicode="&#x2db;" horiz-adv-x="624" d="M375 20l10 -32q-31 -16 -66.5 -43t-35.5 -58q0 -27 20.5 -40t44.5 -13q20 0 76 25v-103q-29 -10 -50.5 -14t-37.5 -4q-59 0 -107.5 33.5t-48.5 99.5q0 53 36 91t79 61z" />
<glyph unicode="&#x2dc;" horiz-adv-x="702" d="M131 756q0 27 4 53.5t16.5 49t35 36.5t55.5 14q20 0 34.5 -5t18.5 -9l133 -78q18 -10 35.5 -9t30.5 7q14 10 17 30.5t-1 37.5h61q2 -25 -2 -50.5t-15 -48t-30.5 -37t-50.5 -16.5q-23 -2 -44 3t-46 24l-109 65q-33 29 -58.5 7.5t-20.5 -74.5h-64v0z" />
<glyph unicode="&#x2dd;" horiz-adv-x="790" d="M301 963h154l-170 -203h-101zM514 963h154l-170 -203h-101z" />
<glyph unicode="&#xe00;" />
<glyph unicode="&#xe01;" horiz-adv-x="882" d="M86 594q0 6 19.5 38t61.5 67.5t106.5 64.5t156.5 29q182 0 275 -93q66 -66 65 -170v-530h-131v528q0 43 -17.5 72t-44 45.5t-57.5 24.5t-55 10q-59 4 -115.5 -9.5t-87.5 -43.5q27 -6 48.5 -15.5t37.5 -19.5q18 -10 33 -21q6 -4 14 -10q12 -10 21 -24q-23 -4 -38.5 -11.5 t-25.5 -13.5q-12 -8 -20 -14q-27 -25 -34 -50.5t-7 -39.5v-408h-131v375q0 31 1 49t4 29.5t7 19.5t10 21q12 23 34 37t28 20q-23 12 -47 20q-23 8 -51.5 15.5t-59.5 7.5z" />
<glyph unicode="&#xe02;" horiz-adv-x="847" d="M604 782h131v-653q0 -66 -42 -97.5t-95 -31.5h-362v113h83v237q0 25 8.5 37t18.5 27q27 23 47.5 53.5t20.5 85.5q0 43 -17.5 71.5t-43 43t-53.5 16.5t-48 -8q27 -8 43 -23.5t25.5 -34t12.5 -37t3 -32.5q0 -23 -9.5 -47.5t-27.5 -45t-48 -33.5t-71 -13q-66 0 -102.5 44 t-36.5 109q0 10 1 19.5t3 19.5q12 51 40 88t64.5 59.5t76.5 34t77 11.5q100 0 168 -69t68 -183q0 -49 -13.5 -75t-30 -46.5t-29.5 -42t-13 -62.5v-204h110q16 0 28.5 13t12.5 30v626zM186 489q29 0 46.5 18.5t17.5 45.5q0 29 -18.5 46t-45.5 17q-29 0 -46 -18t-17 -45 q0 -29 17 -46.5t46 -17.5z" />
<glyph unicode="&#xe03;" horiz-adv-x="890" d="M647 782h131v-653q0 -55 -36.5 -92t-96.5 -37h-364v113h81v215q0 49 14.5 69.5t33 37t33 39t14.5 73.5q0 33 -8.5 65.5t-51.5 67.5l-78 -35q-10 8 -22 15.5t-25 13.5l-28 16q-10 6 -23.5 1t-27 -16t-22.5 -23.5t-9 -22.5q35 14 55 10q68 -4 103.5 -48t35.5 -93 q0 -57 -37.5 -104.5t-113.5 -47.5q-49 0 -81 20.5t-50.5 49t-25.5 62.5t-7 59q0 47 11 82.5t27.5 63.5t33 45t28.5 26q31 23 61.5 34t51.5 5l70 -56q29 23 45 34t26 17q10 8 15 7q4 0 21.5 -8.5t40 -23.5t46 -39t37.5 -54q27 -55 28 -113.5t-14 -91.5q-10 -25 -23.5 -39 t-24.5 -27.5t-19 -31t-8 -45.5v-209h110q23 0 33 15t10 32v622zM201 559q-29 0 -47.5 -18.5t-18.5 -44.5q0 -29 18.5 -46.5t47.5 -17.5t46 18.5t17 45.5q0 29 -18 46t-45 17z" />
<glyph unicode="&#xe04;" horiz-adv-x="903" d="M467 795q59 -2 116.5 -20.5t103.5 -54.5t75 -90.5t29 -125.5v-504h-132v498q0 47 -18 80.5t-48 56t-68 34t-74 11.5q-37 0 -77 -11.5t-73 -36t-54.5 -63.5t-21.5 -94q0 -61 16.5 -108.5t18.5 -59.5v-18q0 -10 1 -27.5t-1 -46.5q10 63 15.5 100t9.5 60q4 25 6 37t9 39.5 t23.5 55.5t46 48t79.5 20q41 0 69.5 -14t47 -35.5t27.5 -47t9 -48.5q0 -59 -37 -106.5t-110 -47.5q-25 0 -47.5 8.5t-32.5 18.5q-4 -23 -15 -63q-10 -35 -23 -93.5t-36 -146.5h-129v186q0 51 -10 84t-23 66q-14 35 -26.5 74t-8.5 102q4 72 38 126t84 90t114 52.5t127 14.5z M453 489q-35 0 -50.5 -21.5t-15.5 -43.5q0 -25 15.5 -45.5t50.5 -20.5q33 0 48 20.5t15 45.5q0 23 -15 44t-48 21z" />
<glyph unicode="&#xe05;" horiz-adv-x="915" d="M651 780q70 -35 111 -89t41 -150v-541h-131v553q-2 29 -10 53q-8 23 -24.5 41.5t-47.5 24.5q-10 2 -27 -6q-14 -6 -35.5 -19.5t-52.5 -38.5q-10 10 -24.5 19.5t-26.5 17.5q-14 8 -27 17q-6 4 -21.5 8t-37.5 -4q-14 -6 -34.5 -18.5t-39 -32t-32 -48t-13.5 -67.5 q0 -31 8.5 -59.5t16.5 -56.5t15 -53.5t3 -49.5q-2 -4 -4 -29t-4 -31q2 6 8 38t13.5 71t14.5 74.5t11 50.5q4 14 13.5 34.5t25.5 40t43 32.5t63 13q39 0 68 -13t48.5 -34.5t28.5 -49t9 -54.5q-2 -57 -41 -103.5t-108 -44.5q-33 2 -51.5 10.5t-28.5 18.5q-8 -25 -17 -65 q-8 -35 -20 -93.5t-33 -146.5h-129v184q0 53 -10 86t-23 64q-16 35 -27.5 81t-7.5 107q4 47 21.5 91t45.5 79t63.5 60.5t74.5 35.5q53 14 88 -14l74 -57q20 12 46 32.5t36 26.5q29 18 54.5 16t43.5 -12zM453 489q-33 0 -48.5 -20t-15.5 -45q0 -23 15.5 -44.5t48.5 -21.5 q35 0 50 21.5t15 44.5q0 25 -15 45t-50 20z" />
<glyph unicode="&#xe06;" horiz-adv-x="997" d="M885 782v-782h-137l-7 18q-6 18 -24.5 45t-49 55.5t-74.5 53.5t-101 39v-47q0 -66 -36 -119t-114 -53q-74 0 -121 49t-47 127t54.5 125t125.5 47h6v49q0 23 25 49q23 29 47.5 63t22.5 87q-2 37 -24.5 59.5t-37.5 32.5q-10 -2 -22 -10q-10 -6 -24.5 -13.5t-33.5 -17.5 q-27 23 -43 33t-26 14q-12 6 -19 6q-10 0 -35.5 -20.5t-33.5 -44.5q4 2 17 7t32 5q72 0 108.5 -43t36.5 -102q0 -53 -43 -96.5t-110 -43.5q-72 0 -116 49.5t-44 126.5q0 92 37 147.5t67 78.5q51 39 90 39l82 -68l90 68q10 -2 17.5 -5.5t13.5 -7.5l12 -6q4 -2 23.5 -15 t42.5 -37t40 -56.5t17 -73.5q0 -53 -12 -86t-26.5 -55.5t-26.5 -39t-12 -36.5v-47q86 -23 148 -57.5t114 -90.5v600h131zM197 559q-29 0 -47.5 -18.5t-18.5 -44.5q0 -27 18.5 -44.5t47.5 -17.5q27 0 45 17.5t18 44.5t-18 45t-45 18zM371 106q20 25 20 58q0 29 -12 51.5 t-47 24.5q-20 0 -37 -17q-23 -23 -23 -59q0 -31 17.5 -52.5t42.5 -21.5q19 0 39 16z" />
<glyph unicode="&#xe07;" horiz-adv-x="661" d="M385 795q76 0 120 -46.5t44 -123.5v-443q0 -33 -6 -64.5t-22.5 -58t-47.5 -45t-78 -22.5t-76.5 12t-46.5 43q-10 14 -34 51q-23 33 -64 93.5t-113 162.5l115 60q74 -109 112 -163t54 -79q20 -29 18 -29q6 -8 14.5 -9t14.5 -1q8 0 18.5 7t10.5 40v305h-29h-4 q-78 0 -116 48.5t-38 105.5q0 59 39 107.5t115 48.5zM387 573q35 0 49.5 21.5t14.5 44.5q0 25 -14.5 46.5t-49.5 21.5q-33 0 -48 -21.5t-15 -46.5q0 -23 15 -44.5t48 -21.5z" />
<glyph unicode="&#xe08;" horiz-adv-x="782" d="M350 795q84 0 151.5 -28t114 -74t68 -108.5t12.5 -131.5q-2 -29 -12 -77t-21.5 -100.5t-22.5 -102.5t-19 -83q-4 -16 -8.5 -44t-8.5 -46h-172q-2 18 -9 60t-13 85q-8 51 -17 109q-33 -16 -76 -16q-68 0 -110.5 47t-40.5 112q4 78 53 115t107 37q53 0 88 -25.5t53 -62.5 q10 -23 17.5 -57.5t11.5 -65.5q2 -37 6 -72q4 -29 6 -58.5t2 -45.5h14q14 63 25 123q10 51 18 102t8 80q2 98 -61 154.5t-162 58.5q-49 2 -89 -14.5t-68.5 -41t-46 -54t-21.5 -58.5l-113 47q31 113 124 174.5t212 61.5zM322 324q35 0 50 21.5t15 43.5q0 25 -15.5 45.5 t-49.5 20.5q-33 0 -48.5 -20.5t-15.5 -45.5q0 -23 15.5 -44t48.5 -21z" />
<glyph unicode="&#xe09;" horiz-adv-x="946" d="M770 315q43 -8 66.5 -33.5t33.5 -52.5q12 -31 15 -67q0 -66 -37 -118t-109 -52q-63 0 -110 42t-47 126l2 8q-20 -6 -45 -19.5t-46.5 -29t-39 -31.5t-27.5 -29q-4 -8 -12 -16q-14 -18 -21 -43h-123v186q-4 -2 -40.5 -2t-77.5 27q-25 16 -43.5 47t-18.5 80q0 55 40 104.5 t118 49.5t115.5 -47.5t37.5 -108.5v-162q43 39 85 61.5t77 36.5q39 16 78 23v219q0 12 -6 40t-26.5 55.5t-61.5 49t-113 21.5q-92 0 -156.5 -42t-82.5 -126l-121 49v4q0 2 1 4t1 4q12 35 37.5 74t68.5 72t104.5 54.5t143.5 21.5q10 0 39 -1t66.5 -10.5t79.5 -27t79 -51.5 q6 -6 18.5 -20.5t27 -37t23.5 -55.5t9 -74v-26v-61.5t-2 -115.5zM246 270q27 0 46 17.5t19 48.5t-19.5 49t-45.5 18q-27 0 -46.5 -18t-19.5 -49q0 -29 19.5 -47.5t46.5 -18.5zM733 86q25 0 42.5 18.5t17.5 49.5q0 33 -17.5 51t-42.5 18t-41 -18.5t-16 -50.5q0 -31 16 -49.5 t41 -18.5z" />
<glyph unicode="&#xe0a;" horiz-adv-x="854" d="M606 623q6 -2 19.5 -10.5t30 -18.5t29.5 -19.5t20 -15.5q18 -18 26 -39.5t8 -64.5v-332q0 -59 -38.5 -91t-86.5 -32h-387v113h99v262q0 39 15 59.5t40 48.5q14 16 26.5 44t12.5 61q0 39 -23.5 64.5t-52.5 35.5q-23 6 -47.5 4t-30.5 -12q33 -4 54.5 -38t21.5 -75 q0 -68 -45 -106.5t-111 -38.5q-20 0 -45.5 8t-48 26.5t-37 49.5t-14.5 76q0 51 22.5 91t58.5 66.5t79 40t84 13.5q80 0 132 -26t91 -85q39 0 60.5 23.5t33.5 52.5q14 35 21 76h153q-10 -59 -34.5 -98.5t-51 -63t-50.5 -34.5t-34 -15zM190 512q29 0 43.5 17.5t14.5 39.5 q0 20 -13.5 37t-41.5 19q-25 0 -42.5 -13.5t-19.5 -40.5t15 -43t44 -16zM608 156v303q0 41 -22.5 57t-53.5 49q-2 -27 -12 -60.5t-28 -60.5q-10 -16 -22.5 -30.5t-12.5 -48.5v-252h114q25 0 31 14.5t6 28.5z" />
<glyph unicode="&#xe0b;" horiz-adv-x="890" d="M719 578q31 -20 45 -44t14 -67v-350q0 -18 -8 -39t-24.5 -38t-41 -28.5t-57.5 -11.5h-366v113h84v235q0 29 5 45.5t17 36.5q10 16 23.5 28.5t23.5 28t17.5 39t7.5 62.5q0 29 -21.5 55.5t-40.5 36.5q-8 -2 -18 -8q-10 -4 -24.5 -12.5t-37.5 -20.5q-16 12 -31.5 21.5 t-25.5 17.5q-12 8 -24 14q-14 4 -40 -17.5t-36 -47.5q16 12 59 12q66 -6 101.5 -47t35.5 -98q0 -68 -44 -108t-105 -40q-55 0 -92 26.5t-55.5 68.5t-18.5 94.5t18 105.5q14 39 37 67.5t49.5 48t51 29t41.5 9.5l2 -2q39 -37 59 -54q10 -8 18 -12q6 6 19 14q10 8 27.5 20.5 t44.5 33.5q18 -4 39.5 -16.5t41 -28t36 -33t24.5 -33.5q2 -2 2 -4t2 -4t2 -4q27 6 49 26q18 16 35.5 49t22.5 87h151q-4 -59 -30.5 -99.5t-57.5 -66.5q-37 -31 -80 -52q16 -10 33.5 -16t40.5 -22zM205 559q-29 0 -46.5 -18.5t-17.5 -46.5q0 -29 17.5 -46.5t46.5 -17.5 t46 18.5t17 45.5q0 29 -18 47t-45 18zM647 158v291q0 23 -5 36t-14.5 23t-24.5 22.5t-34 30.5q-2 -47 -14 -71.5t-25.5 -44t-23.5 -40t-10 -61.5v-231h112q12 0 25.5 11t13.5 34z" />
<glyph unicode="&#xe0c;" horiz-adv-x="1218" d="M1106 782v-782h-125q0 12 -2 16l-4 9q-2 4 -13.5 23.5t-31 45t-46 52t-61.5 44.5q6 -8 6 -22v-14q0 -31 -10 -65t-35 -56q-41 -41 -110 -41q-66 0 -112 46t-46 118q0 66 33 109.5t90 58.5v225q0 43 -23.5 68.5t-50.5 37.5t-62.5 19.5t-75.5 5.5t-81 -13.5t-78 -37.5 q35 -12 66 -27q27 -12 51.5 -27.5t34.5 -35.5l-31 -11q-4 0 -18.5 -6t-30.5 -20.5t-29.5 -38t-13.5 -60.5v-112q10 2 19.5 2h13.5q37 -2 64.5 -15.5t46 -35t26.5 -48t8 -53.5t-9 -53.5t-28.5 -48t-47.5 -34.5t-64 -13q-80 0 -120 47t-40 106v263q0 92 70 139q-8 8 -29 16 q-16 8 -47 16.5t-78 16.5q6 12 20.5 33.5t36.5 42.5q20 18 50 39.5t68 40t83 31t96 12.5q160 0 248 -64.5t88 -181.5v-230q72 -23 127 -65.5t76 -81.5v610h131zM326 205q-33 0 -49.5 -19.5t-16.5 -42t16.5 -42t49.5 -19.5q29 0 45 18.5t16 40.5q0 23 -14 43.5t-47 20.5z M674 80q31 0 48 22.5t17 55.5q0 29 -15 54.5t-50 25.5q-33 0 -50.5 -24t-17.5 -58q0 -35 18.5 -55.5t49.5 -20.5z" />
<glyph unicode="&#xe0d;" horiz-adv-x="1196" d="M561 113h64v413q0 70 -44 112t-137 42q-43 0 -88 -9t-92 -44q23 -6 73 -27.5t79 -62.5l-43 -15q-23 -8 -52.5 -35.5t-29.5 -85.5v-114q6 4 18.5 5t18.5 1q25 0 50 -10.5t46.5 -30t35 -48t13.5 -65.5q-2 -39 -17.5 -66.5t-38 -46t-48 -26.5t-50.5 -8q-63 0 -111 43 t-48 123v256q0 51 22.5 80.5t61.5 54.5q-16 10 -39 18q-20 8 -49 15.5t-70 9.5q10 20 34.5 55t66.5 68t104.5 56.5t148.5 23.5q160 0 238 -77t78 -188v-417h139q23 0 34 14t11 33v622h131v-637q0 -27 -5 -53t-21.5 -46.5t-45 -33t-75.5 -12.5h-363v113zM322 207 q-29 0 -47.5 -18.5t-18.5 -45.5q0 -29 18.5 -45t47.5 -16t46 17.5t17 43.5q0 29 -18 46.5t-45 17.5zM954 -82h127q2 -70 -23.5 -124t-66.5 -92t-94 -58.5t-106 -20.5q-39 0 -78 10.5t-72 32t-53.5 53t-22.5 74.5q-2 57 38 104.5t116 47.5q63 0 105 -43t42 -105q0 -23 -9 -45 t-26 -33q8 0 29 14.5t42.5 39t36.5 61.5t15 84zM715 -262q27 0 44 17.5t17 43.5q0 25 -17.5 43.5t-43.5 18.5q-27 0 -45.5 -18.5t-18.5 -43.5q0 -27 18.5 -44t45.5 -17z" />
<glyph unicode="&#xe0e;" horiz-adv-x="972" d="M860 557v-831l-158 -123l-16 16q-14 14 -36.5 31.5t-49.5 35t-51.5 33t-40.5 25.5q-18 -49 -65.5 -94t-129.5 -45q-39 0 -69.5 14t-52 38t-33 52.5t-11.5 59.5q0 82 56.5 127t134.5 38q18 -2 43 -10t35 -12q2 16 3 40.5t1 47.5h127q2 -35 -2 -70.5t-8 -64.5 q43 -23 86 -48.5t69 -47.5l37 34v740q0 55 -29.5 79.5t-54.5 36.5t-58.5 17.5t-72.5 3.5t-79 -14.5t-75 -36.5q37 -14 71 -29.5t50 -30.5q6 -4 13 -10q4 -4 9 -10t7 -12q-35 -8 -51 -19q-8 -6 -15 -8q-16 -12 -36.5 -34.5t-20.5 -76.5v-260q0 -63 -46 -105t-114 -42 q-70 0 -112.5 44t-42.5 109q0 66 45 107t110 41q6 0 15.5 -1t13.5 -3v102q0 41 7 66.5t19.5 42t28 27t29.5 22.5q-2 2 -28.5 16.5t-86.5 22.5l-45 6q33 76 93.5 117t119.5 59q70 23 150 25q164 0 252 -88q65 -66 65 -150zM225 78q35 0 49.5 19.5t14.5 41.5q0 23 -14.5 43.5 t-49.5 20.5t-49 -20.5t-14 -43.5t14 -42t49 -19zM311 -289q25 0 41.5 12.5t25.5 28t13 29.5t6 22q-16 14 -38.5 22.5t-51.5 4.5q-25 -4 -40 -19.5t-15 -41.5q0 -29 18 -43.5t41 -14.5z" />
<glyph unicode="&#xe0f;" horiz-adv-x="972" d="M860 541v-848l-137 -84q-27 23 -45.5 39t-28.5 26q-12 10 -20 19q-8 -8 -23 -21q-12 -10 -33.5 -29.5t-54.5 -48.5l-14 23q-12 16 -27.5 33.5t-30.5 32.5q-18 -29 -56 -55.5t-97 -26.5q-68 0 -111 46t-43 113q0 43 22.5 76t57.5 52.5t77 22.5t79 -17q6 23 8 40t4 33 q2 18 2 33h131q-4 -41 -9 -75t-9 -58q-6 -29 -13 -51q8 -8 21.5 -22.5t26.5 -29.5q8 6 20 17q10 10 27.5 24.5t44.5 36.5q29 -25 45 -39t26 -24q12 -10 19 -17q4 2 5 3.5t5 3.5v761q0 43 -17.5 72t-45 46.5t-62.5 24.5t-69 7q-45 0 -92.5 -12.5t-82.5 -40.5q33 -10 62 -25 q25 -12 50.5 -27.5t37.5 -37.5q-23 -4 -39 -12.5t-27 -14.5q-12 -8 -20 -14q-23 -23 -30 -45.5t-7 -61.5v-248q0 -63 -46 -105t-114 -42q-78 0 -116.5 47t-38.5 104q0 55 39 102.5t116 47.5q8 0 29 -4v110q0 51 16.5 82t67.5 66q-20 10 -43 18q-20 8 -49 15.5t-68 9.5 q31 76 92.5 117t120.5 59q70 23 150 25q164 0 252 -88q65 -66 65 -164zM225 80q35 0 49.5 20.5t14.5 42.5q0 23 -14.5 42.5t-49.5 19.5t-49 -19.5t-14 -42.5t14 -43t49 -20zM340 -276q12 16 16 35.5t4 25.5q-25 25 -46 29t-33 0q-45 -12 -45 -58q0 -27 17 -41t40 -14 q8 0 16 2q21 5 31 21z" />
<glyph unicode="&#xe10;" horiz-adv-x="856" d="M559 -33q63 0 101 -35.5t38 -99.5v-129q0 -25 -12 -45t-33 -35l-112 -74q-25 16 -40.5 28.5t-25.5 19.5l-18 12q-6 -4 -19 -12q-10 -8 -26.5 -19.5t-44.5 -30.5q-12 16 -22.5 28.5t-18.5 23.5q-8 10 -15 18q-18 -25 -45.5 -44t-68.5 -19q-59 0 -97.5 38.5t-38.5 98.5 q0 78 70 116q57 33 125 9q2 -2 6 -2q2 0 4 -2q2 47 1 78.5t-3 50.5h115v-27q0 -43 -6 -97.5t-15 -99.5q6 -8 15.5 -18t19.5 -21q8 2 17 9q8 4 18 10t27 14q23 -16 38 -25.5t25 -15.5q10 -8 17 -10q14 10 22 15.5t12 9.5q6 4 6 6q2 0 3 4q0 4 1 7t-1 7q-4 0 -9 -2 q-4 -2 -12 -2q-70 2 -101.5 43t-31.5 88v2q0 49 34.5 89t100.5 40zM254 -301v2q-4 6 -19.5 21.5t-37.5 15.5q-25 -2 -37.5 -14.5t-12.5 -28.5q-2 -16 9.5 -33.5t38.5 -17.5t40 18.5t19 36.5zM559 -217q29 0 42 16.5t13 34.5q0 20 -13 36.5t-42 16.5q-27 0 -40 -16t-13 -37 q0 -18 13 -34.5t40 -16.5zM702 793l93 -66l-31 -43q-23 -33 -45.5 -48t-54.5 -13q-25 2 -46.5 10t-52.5 18q-35 10 -83 22.5t-83 12.5q-47 0 -76.5 -12t-39.5 -31q23 -2 56.5 -6t70 -10t71.5 -11.5t56 -9.5q57 -10 89.5 -31.5t49.5 -44.5q20 -27 20 -64.5t-4 -72.5l-35 -393 h-137l-4 18q-8 29 -20 64q-10 29 -26.5 64.5t-41.5 76.5q-43 -39 -109 -39q-74 2 -113.5 51.5t-37.5 104.5q0 27 9 54.5t29.5 49t50.5 35t71 13.5q53 0 89 -30t58 -77q29 -63 45.5 -103t26.5 -63q10 -27 14 -39q4 92 6 143.5t2 77.5v41q2 29 -26.5 46.5t-106.5 33.5 q-55 10 -108.5 15.5t-96.5 6.5t-69 0l-27 -1h-8q-4 0 -8 1t-8 1v12v8q4 37 26.5 78t59 75t86 55.5t106.5 21.5q47 0 89 -10.5t77 -20.5q31 -8 53.5 -13.5t39 -3t29.5 12.5t25 33zM326 272q35 0 49 20.5t14 45.5q0 23 -14.5 44t-48.5 21q-33 0 -48.5 -21.5t-15.5 -43.5 q0 -25 15.5 -45.5t48.5 -20.5z" />
<glyph unicode="&#xe11;" horiz-adv-x="1075" d="M801 795q47 0 78.5 -19.5t50 -47.5t26 -57.5t7.5 -49.5v-621h-132v616q0 12 -7 31t-27 19q-6 0 -11.5 -3.5t-9.5 -13.5q-4 -8 -24.5 -52t-50 -105.5t-63.5 -133t-63.5 -137t-51 -116t-25.5 -70.5l-9 -35h-129v373q0 35 11.5 50t25.5 32q12 16 35 48t23 79 q0 35 -22.5 61.5t-39.5 36.5q-4 2 -16 -5t-27 -16l-37 -20q-20 16 -36.5 26.5t-26.5 16.5q-12 8 -23 10q-12 0 -25.5 -8t-23.5 -19.5t-17 -22.5t-5 -15q8 4 20 8t29 4q29 0 55.5 -8t48.5 -31q41 -41 41 -108q0 -59 -45 -99.5t-108 -38.5q-78 2 -119 52.5t-41 121.5 q0 78 26.5 131.5t61.5 84t66.5 43t39.5 8.5l5 -2q23 -18 37 -30.5t24 -21.5q10 -8 16 -14q6 4 19 12q10 8 27.5 21.5t43.5 34.5q12 -4 27 -11q12 -4 26.5 -12t24.5 -18q4 -4 18.5 -16.5t30 -33t27.5 -50t12 -68.5q0 -43 -8 -67.5t-22 -51.5q-12 -23 -29.5 -43.5t-17.5 -61.5 v-65l-37 -123l49 111l196 420q12 25 20.5 42t19 28t23.5 15.5t38 4.5zM201 559q-29 0 -47.5 -16.5t-18.5 -46.5q0 -29 20.5 -45.5t45.5 -16.5q27 0 45 16.5t18 45.5t-18 46t-45 17z" />
<glyph unicode="&#xe12;" horiz-adv-x="1273" d="M1030 782h131v-782h-125q2 2 -2 12q-2 6 -2 11q-8 43 -49 94t-102 80q4 -10 5 -22.5t1 -20.5q-2 -70 -45 -116t-113 -46q-63 0 -110.5 46t-47.5 120q0 72 41 115.5t86 50.5v225q0 18 -4 39.5t-14 40t-26.5 31t-43.5 12.5q-8 0 -24 -8q-14 -6 -36 -18.5t-52 -35.5 q-31 23 -50.5 35t-31.5 19q-14 8 -23 8q-4 0 -18.5 -3t-30.5 -12q-41 -18 -76 -65t-35 -109q0 -23 6.5 -50t12.5 -52q4 -14 10 -38t13.5 -48.5t13.5 -44t8 -27.5l4 -16q4 -16 2 -29q12 14 27.5 32.5t31 35t28.5 32t20 23.5q-35 12 -64 46t-29 89q0 66 47.5 100.5t96.5 32.5 q45 -2 73.5 -18t44 -37.5t21.5 -44.5t6 -37q0 -45 -21.5 -80t-37.5 -51q2 2 -2 -4l-13.5 -13.5t-27.5 -29.5q-37 -39 -66.5 -79t-51 -73.5t-34 -57.5t-16.5 -30l-6 -14h-146l11 33q6 23 6 41q0 47 -10.5 81.5t-26.5 88.5q-18 59 -39 127.5t-21 124.5q0 49 18.5 97t49.5 89 t71 69.5t85 39.5q12 4 39.5 4t52.5 -19q23 -16 37 -26.5t24 -16.5q10 -8 17 -12l18 12q18 12 62 43q16 12 36.5 16.5t30.5 0.5q96 -23 140 -92.5t44 -186.5v-201q37 -12 71 -28.5t61.5 -34t46 -34.5t22.5 -32v598zM727 92q31 0 45 20.5t14 47.5q0 29 -15 47t-44 18 t-43 -20.5t-14 -44.5q0 -31 17 -49.5t40 -18.5zM397 430q0 -27 18.5 -44t45.5 -17t45 17t18 44t-18.5 44.5t-44.5 17.5q-27 0 -45.5 -17.5t-18.5 -44.5z" />
<glyph unicode="&#xe13;" horiz-adv-x="1273" d="M1098 334q18 -6 38.5 -18.5t39 -33t30 -49t11.5 -67.5q0 -33 -10.5 -64.5t-30 -56.5t-48 -39t-67.5 -14q-29 0 -57.5 10t-51 30.5t-37 52.5t-14.5 73v14t4 14q-29 -16 -55 -43q-23 -23 -48.5 -58.5t-41.5 -84.5h-127v551q0 35 -18.5 59.5t-45 41t-57.5 23.5t-55 7 q-121 0 -185 -53q14 -4 35 -11.5t41.5 -18.5t40 -26.5t33.5 -33.5q-8 -2 -16.5 -5.5t-14.5 -5.5q-8 -2 -12 -4q-29 -10 -54.5 -38.5t-25.5 -75.5v-123q10 4 24.5 5t22.5 1q39 -4 65.5 -20.5t42 -38t21.5 -46t6 -45.5q0 -27 -10 -54.5t-29.5 -49t-48 -34.5t-63.5 -13 q-29 0 -57.5 10t-52 30.5t-38 51.5t-14.5 74v262q0 35 15.5 66.5t68.5 64.5q-20 12 -45 20q-23 8 -51.5 15.5t-63.5 9.5q10 18 34 52t65.5 67t105 56.5t152.5 23.5q158 0 236.5 -74t78.5 -180v-361q10 18 30.5 40t48 41.5t59.5 35.5t65 25v460h131v-448zM1057 90 q29 0 43 21.5t14 50.5t-14.5 49t-42.5 20q-29 0 -43.5 -20.5t-14.5 -48.5q0 -29 14.5 -50.5t43.5 -21.5zM264 143q0 -27 18.5 -44t45.5 -17t45 17.5t18 43.5q0 27 -18.5 44.5t-44.5 17.5q-27 0 -45.5 -17.5t-18.5 -44.5z" />
<glyph unicode="&#xe14;" horiz-adv-x="925" d="M481 795q61 0 121 -18.5t107 -53.5t75.5 -86t28.5 -117v-520h-131v489q0 10 -2 38t-21 61q-20 35 -64 64.5t-118 29.5q-80 0 -128 -24.5t-73.5 -59.5t-32.5 -73t-5 -64q4 -35 12 -75t18.5 -75t18.5 -59.5t10 -30.5q2 -4 4 -12q4 -12 6 -31q20 23 51 59.5t54 61.5 q-45 18 -67.5 56t-22.5 75q0 68 43 106.5t96 38.5q78 0 115.5 -45t37.5 -98q0 -41 -19.5 -77t-53.5 -68q-10 -8 -29.5 -28.5t-41 -45.5t-41 -50.5t-32.5 -45.5q-10 -14 -20 -35q-10 -16 -21.5 -37.5t-21.5 -44.5h-146l11 31q6 23 6 47q0 16 -15.5 64t-33 108.5t-32.5 121 t-15 103.5q0 84 30.5 143.5t82.5 99.5t119.5 58.5t139.5 18.5zM401 432q0 -23 16.5 -43t45.5 -20q35 0 51 21.5t16 45.5q0 20 -15 41t-50 21q-29 0 -46.5 -20.5t-17.5 -45.5z" />
<glyph unicode="&#xe15;" horiz-adv-x="929" d="M633 791q96 -27 140 -86.5t44 -176.5v-528h-131v539q0 23 -4 46t-14.5 42.5t-26.5 32t-43 12.5q-8 0 -23 -8q-12 -6 -32.5 -18.5t-50.5 -35.5q-35 23 -55.5 35t-33.5 19q-14 8 -22 8q-12 0 -19 -2q-6 -2 -8 -4q-25 -6 -48 -21.5t-41.5 -40t-31 -55.5t-12.5 -66 q0 -23 5 -50t14 -52q4 -16 11 -42t15 -52.5t14.5 -48t8.5 -27.5t4 -14q4 -12 -2 -19q12 14 28.5 31.5t34 34t31.5 32t21 23.5q-37 12 -65 48t-28 89q0 66 45 104t101 35q45 -2 73.5 -18t46 -37.5t23.5 -46t6 -41.5q0 -35 -14 -63.5t-31 -44.5q-6 -8 -16 -19l-64 -63 q-37 -37 -65.5 -75t-49 -69.5t-30.5 -54.5t-14 -29l-7 -14h-145l10 33q8 27 7 50t-9 64q-6 33 -28 97q-20 59 -40 127.5t-20 124.5q0 49 18.5 97t49 89t70.5 69.5t85 39.5q12 4 40 4t53 -19q23 -16 37 -26.5t24 -16.5q10 -8 16 -12q8 4 19 12q10 8 25.5 19.5t37.5 27.5 q31 21 66 11zM393 432q0 -29 19.5 -47t46.5 -18t46 18t19 47t-19.5 47.5t-45.5 18.5q-27 0 -46.5 -18.5t-19.5 -47.5z" />
<glyph unicode="&#xe16;" horiz-adv-x="897" d="M451 793q78 0 139 -19.5t104 -54.5t66.5 -80t23.5 -98v-541h-131v541q0 39 -26.5 68.5t-53.5 43.5q-31 16 -72.5 22.5t-84.5 3.5t-84 -15.5t-68 -36.5q53 -14 95 -41t57 -49q-12 -4 -23.5 -7.5t-19.5 -7.5t-19 -8q-33 -18 -48 -50t-15 -65v-114q6 2 17 4t18 2 q47 0 78.5 -19.5t48.5 -48.5q23 -35 21.5 -81t-21.5 -81q-43 -72 -129 -71q-29 0 -58.5 9t-53.5 28.5t-38 48t-14 67.5v267q0 47 20.5 78.5t63.5 60.5q-18 10 -41 18q-20 8 -49 15.5t-68 11.5q29 76 89.5 116t121.5 58q72 23 154 25zM319 205q-33 0 -48 -19.5t-15 -42.5 t15.5 -43t47.5 -20q35 0 50.5 20.5t15.5 42.5q0 23 -15.5 42.5t-50.5 19.5z" />
<glyph unicode="&#xe17;" horiz-adv-x="952" d="M788 741q51 -51 52 -141v-600h-131v608q0 4 -1 14.5t-6.5 20.5t-14.5 18.5t-25 10.5q-12 2 -16.5 0t-12.5 -13q-33 -47 -73 -127.5t-78 -173t-68.5 -183.5t-44.5 -157l-4 -18h-127v487q-10 -4 -19.5 -4h-17.5q-23 0 -49.5 9.5t-49 29t-37 48t-14.5 67.5q0 41 16.5 70.5 t39 48t50 28t48.5 9.5q82 0 123 -49.5t41 -112.5v-195l-37 -207l57 209q16 39 38 83t43.5 85t40.5 75t32 50q14 23 35.5 42.5t72.5 19.5q86 -1 137 -52zM209 573q29 0 47 18.5t18 45.5t-18 46t-47 19q-27 0 -46.5 -19t-19.5 -46t19.5 -45.5t46.5 -18.5z" />
<glyph unicode="&#xe18;" horiz-adv-x="802" d="M88 510l2 18l5 36t32 81t80 88t149 58q41 6 79 1.5t74 -13.5t67.5 -22.5t56.5 -23.5q8 -4 15 -4t14 -2q8 -2 14 -2q4 0 12 2q6 2 16.5 4t20.5 6l-4 -108q-20 -12 -47 -12.5t-49 4.5q-27 6 -56 16q-18 8 -51 20.5t-72.5 19.5t-83 3t-83.5 -29q-14 -8 -23.5 -20.5 t-17.5 -26.5q23 -2 62.5 -7t85.5 -11t90 -12.5t77 -12.5q70 -14 97.5 -56t27.5 -116v-262q0 -39 -13.5 -63.5t-35 -39t-48 -19.5t-51.5 -5h-391v113h90v317h131v-317h148q39 0 39 43v237q0 43 -18.5 54.5t-51.5 15.5q-47 6 -108 14q-53 6 -124 15.5t-157 17.5z" />
<glyph unicode="&#xe19;" horiz-adv-x="978" d="M799 338q18 -6 39.5 -18.5t40 -34t31 -50t12.5 -67.5q0 -33 -10.5 -64.5t-30 -56t-49 -40t-68.5 -15.5q-27 0 -55.5 8t-52 28.5t-39 52.5t-15.5 77q0 29 6 49q-72 -29 -118 -63.5t-72 -63.5q-31 -35 -47 -68l-2 -12h-131v487q-39 -6 -75 2.5t-65 34.5q-18 16 -30.5 42 t-15.5 56.5t6.5 62.5t33.5 60q20 25 48 36.5t56.5 12.5t54 -5.5t42.5 -16.5q49 -31 62.5 -69.5t13.5 -77.5v-439q8 12 32.5 33t64.5 44.5t91 44t111 32.5v442h131v-444zM207 571q33 0 49 20.5t16 46.5t-16 46.5t-49 20.5t-49.5 -20.5t-16.5 -46.5t16.5 -46.5t49.5 -20.5z M764 90q29 2 43 24.5t14 49t-14 49.5t-45 23q-33 0 -47.5 -23t-13.5 -50.5t17.5 -51t45.5 -21.5z" />
<glyph unicode="&#xe1a;" horiz-adv-x="935" d="M692 782h131v-587q0 -45 -7 -81t-27.5 -61.5t-57.5 -39t-96 -13.5h-479v113h84v372q-8 0 -16.5 -1t-14.5 -1q-45 0 -81 18.5t-56 59.5q-18 37 -19.5 79t21.5 79q41 74 135 74q43 0 73.5 -15.5t50 -39t29 -52.5t9.5 -57v-516h243q47 0 62.5 24.5t15.5 59.5v585zM211 571 q29 0 46 19.5t17 46.5q0 29 -18 47t-45 18q-29 0 -47.5 -18t-18.5 -47t18.5 -47.5t47.5 -18.5z" />
<glyph unicode="&#xe1b;" horiz-adv-x="935" d="M692 1061h131v-873q0 -92 -35.5 -140t-142.5 -48h-489v113h84v372q-8 0 -16.5 -1t-14.5 -1q-45 0 -81 18.5t-56 59.5q-18 37 -19.5 79t21.5 79q41 74 135 74q43 0 73.5 -15.5t50 -39t29 -52.5t9.5 -57v-516h243q47 0 62.5 21.5t15.5 55.5v871zM211 571q29 0 46 19.5 t17 46.5q0 29 -18 47t-45 18q-29 0 -47.5 -18t-18.5 -47t18.5 -47.5t47.5 -18.5z" />
<glyph unicode="&#xe1c;" horiz-adv-x="937" d="M694 782h131v-782h-123q0 10 -4 18q-2 4 -4 7q-4 12 -14 36.5t-25 38.5q-53 55 -85.5 90t-51.5 56l-33 33q-16 -14 -41 -41q-23 -23 -56.5 -59t-82.5 -89q-14 -16 -21.5 -36.5t-11.5 -33.5l-6 -20h-123v627q0 76 43 122t113 46q96 0 141 -76q23 -35 23 -79t-23 -81 q-41 -74 -135 -74q-23 0 -31 2v-213l-12 -79l31 57l190 178l185 -178l34 -55l-8 75v510zM240 641q0 -29 18 -48.5t47 -19.5t46.5 19.5t17.5 48.5t-18.5 47.5t-45.5 18.5q-29 0 -47 -18.5t-18 -47.5z" />
<glyph unicode="&#xe1d;" horiz-adv-x="944" d="M700 1061h131v-1061h-122q0 10 -4 18q-2 4 -3 7q-4 12 -15 36.5t-25 38.5q-53 55 -86 90t-52 56q-23 23 -32 33q-16 -14 -41 -41q-23 -23 -56 -59t-84 -89q-14 -16 -21 -37.5t-11 -32.5l-9 -20h-120v627q0 76 43 122t112 46q96 0 141 -76q20 -35 21.5 -79t-21.5 -81 q-20 -35 -55 -54.5t-78 -19.5h-18t-14 2v-213l-11 -79l29 57l190 178l185 -178l37 -55l-11 75v789zM248 641q0 -29 17.5 -48.5t45.5 -19.5q29 0 46.5 19.5t17.5 48.5t-18.5 47.5t-45.5 18.5q-29 0 -46 -18.5t-17 -47.5z" />
<glyph unicode="&#xe1e;" horiz-adv-x="1017" d="M774 782h131v-782h-127q-4 20 -7 36.5t-7 29.5l-8 28q-6 18 -27 60q-16 35 -48 96t-85 160l-27 77l-24 -79q-53 -104 -83 -164t-46 -90l-23 -45q-4 -10 -10 -27q-10 -29 -18 -82h-127v487q-16 -4 -29 -4q-70 0 -114 42t-44 108v2q0 29 8.5 56.5t26.5 51t49 38t74 14.5 q41 0 71.5 -14.5t50 -38t29 -52t9.5 -59.5v-250l-17 -109l217 449l222 -451l-17 109v403zM207 575q35 0 50 21.5t15 44.5q0 25 -15 45.5t-50 20.5q-33 0 -48.5 -20.5t-15.5 -45.5q0 -23 15.5 -44.5t48.5 -21.5z" />
<glyph unicode="&#xe1f;" horiz-adv-x="1017" d="M774 1061h131v-1061h-127q-4 20 -7 36.5t-7 29.5l-8 28q-6 18 -27 60q-16 35 -48 96t-85 160l-27 77l-24 -79q-53 -104 -83 -164t-46 -90l-23 -45q-4 -10 -10 -27q-10 -29 -18 -82h-127v487q-16 -4 -29 -4q-70 0 -114 42t-44 108v2q0 29 8.5 56.5t26.5 51t49 38t74 14.5 q41 0 71.5 -14.5t50 -38t29 -52t9.5 -59.5v-250l-17 -109l217 449l222 -451l-17 109v682zM207 575q35 0 50 21.5t15 44.5q0 25 -15 45.5t-50 20.5q-33 0 -48.5 -20.5t-15.5 -45.5q0 -23 15.5 -44.5t48.5 -21.5z" />
<glyph unicode="&#xe20;" horiz-adv-x="974" d="M799 702q63 -63 63 -153v-549h-131v549q0 43 -26.5 68.5t-47.5 35.5q-29 14 -66.5 21.5t-78.5 5.5t-80 -15.5t-70 -37.5q35 -10 64 -25q25 -12 50.5 -27.5t35.5 -37.5l-27 -9q-4 -2 -19 -8t-32.5 -19.5t-31 -38t-13.5 -63.5v-260q0 -23 -9 -49.5t-28.5 -48t-50.5 -35.5 t-72 -14q-78 0 -116.5 47t-38.5 106q0 27 9 52.5t28.5 47t49 35t68.5 13.5q8 0 14.5 -1t14.5 -3v108q0 41 8 65.5t20.5 40t28 26t27.5 20.5q-20 12 -47 20.5t-51 14.5q-29 8 -60 10q31 76 91.5 116t119.5 58q70 23 150 25q78 0 144.5 -24t109.5 -67zM229 82q29 0 46.5 17.5 t17.5 43.5q0 27 -18.5 44.5t-45.5 17.5q-29 0 -46 -18.5t-17 -43.5q0 -29 17 -45t46 -16z" />
<glyph unicode="&#xe21;" horiz-adv-x="933" d="M821 782v-782h-137l-6 20q-6 16 -27.5 43t-56.5 55.5t-83 54.5t-105 40v-49q0 -66 -35 -118t-113 -52q-72 0 -120 48t-48 126t53.5 125t126.5 47v137q-4 0 -9 -1t-11 -1q-53 -4 -95 23.5t-61 74.5q-18 51 -6 102.5t53 82.5q41 35 111 35q78 0 116 -51.5t38 -114.5 q2 -111 1 -168.5t-1 -85.5v-37q43 -10 86 -27.5t80.5 -37t68.5 -39t49 -37.5v587h131zM307 166q0 27 -12 50.5t-47 23.5q-29 0 -44.5 -22.5t-15.5 -51.5q0 -35 17.5 -55.5t42.5 -20.5q6 0 15 2t18.5 10.5t17.5 22.5t8 41zM246 567q33 0 49 20.5t16 46t-16 46t-49 20.5 t-49.5 -20.5t-16.5 -46t16.5 -46t49.5 -20.5z" />
<glyph unicode="&#xe22;" horiz-adv-x="870" d="M625 782h133v-606q0 -92 -38 -134t-145 -42h-419v213q0 63 19.5 98t47.5 51q-53 31 -81.5 81.5t-28.5 121.5q0 55 19.5 97.5t50 72t69.5 45t76 15.5q94 0 139 -78q23 -37 22.5 -80t-20.5 -80q-20 -35 -54 -53.5t-77 -16.5q-33 0 -61.5 14.5t-43.5 35.5q-4 -12 6.5 -33 t18.5 -31q27 -35 71 -53.5t126 -16.5v-90q-29 2 -47.5 0t-32.5 -4q-16 -2 -27 -6q-31 -10 -45 -34.5t-16 -59.5v-96h270q37 0 52.5 18.5t15.5 52.5v598zM336 707q-33 0 -48.5 -21.5t-15.5 -44.5q0 -25 15.5 -45.5t48.5 -20.5q35 0 49 20.5t14 45.5q0 23 -14 44.5t-49 21.5z " />
<glyph unicode="&#xe23;" horiz-adv-x="716" d="M578 788l88 -71l-7 -17q-4 -12 -15 -26.5t-27.5 -26.5t-41 -19t-55.5 -5q-12 0 -34.5 7t-46 16t-46 17.5t-39.5 10.5q-39 4 -64.5 2t-45.5 -14q-18 -10 -31.5 -28t-19.5 -34q20 -4 51 -8q27 -4 67.5 -8t100.5 -13q23 -2 51.5 -12t53 -30.5t41.5 -53.5t17 -80v-217 q0 -35 -6 -69.5t-32 -65.5q-45 -51 -119 -51q-68 0 -114 43t-46 115q0 70 51 116q29 27 67 33t68 2v92q0 43 -19 55.5t-52 16.5l-336 47l2 18q0 2 4 22.5t16.5 51.5t35 66t59.5 63q29 23 68.5 42.5t105.5 19.5q39 0 74.5 -10.5t64.5 -22.5q23 -10 34 -13.5t25 -3.5 q10 0 18.5 3.5t18.5 17.5zM479 150q0 27 -17.5 46t-47.5 19q-29 0 -46.5 -19.5t-17.5 -45.5q0 -29 18.5 -48.5t45.5 -19.5q31 0 48 19.5t17 48.5z" />
<glyph unicode="&#xe24;" horiz-adv-x="897" d="M451 795q78 0 139 -20.5t104 -54.5t66.5 -80t23.5 -99v-858h-131v858q0 41 -26.5 70.5t-53.5 43.5q-31 16 -72.5 22.5t-84.5 3.5t-84 -16.5t-68 -37.5q53 -14 95 -40t57 -48q-12 -4 -23.5 -7.5t-19.5 -7.5t-19 -8q-33 -18 -48 -50t-15 -65v-114q4 2 16 4t19 2 q47 0 78.5 -20.5t48.5 -49.5q20 -35 20 -81t-20 -81q-41 -70 -129 -69q-29 0 -58.5 9t-53.5 27.5t-38 48t-14 68.5v267q0 47 20.5 78.5t63.5 60.5q-18 10 -41 18q-20 8 -49 14.5t-68 10.5q31 78 92.5 119t121.5 59.5t83 19.5zM319 205q-33 0 -48 -19.5t-15 -42.5t15.5 -42 t47.5 -19q35 0 50.5 19.5t15.5 41.5q0 23 -15.5 42.5t-50.5 19.5z" />
<glyph unicode="&#xe25;" horiz-adv-x="872" d="M436 795q45 0 101.5 -12.5t105.5 -44t83 -86t34 -136.5v-516h-131v16q0 39 -33 130.5t-111 226.5q-4 6 -13 21.5t-21.5 29.5t-30 25.5t-35.5 11.5q-27 0 -46.5 -20.5t-32.5 -49.5t-19 -57.5t-6 -44.5q12 2 21 3t24 1q41 0 67.5 -14.5t44 -36t24.5 -46t7 -42.5 q0 -78 -40 -120t-110 -42q-59 0 -100 30.5t-57 90.5q-2 6 -5 28.5t-3 53.5q0 29 4 67.5t14 79.5q8 31 23.5 70t42 74.5t64.5 59t91 23.5q39 0 67.5 -13t50 -34.5t38 -47t31.5 -50.5q8 -12 16 -31.5t18 -38.5q10 -23 21 -43q14 -31 23.5 -53t11.5 -25l-41 132v137 q0 59 -24.5 94t-57.5 52.5t-65.5 23.5t-51.5 6h-10q-35 0 -73 -9.5t-71.5 -31t-58 -53t-35.5 -78.5l-108 47q12 49 41.5 92t75 77t105.5 53.5t134 19.5h6zM317 209q-35 0 -50 -21.5t-15 -44.5q0 -25 15.5 -45t49.5 -20q33 0 48.5 20.5t15.5 44.5q0 23 -15.5 44.5t-48.5 21.5 z" />
<glyph unicode="&#xe26;" horiz-adv-x="962" d="M786 702q63 -63 64 -153v-866h-133v866q0 43 -25.5 68.5t-46.5 35.5q-29 14 -66.5 21.5t-78.5 5.5t-80 -15.5t-70 -37.5q35 -10 64 -25q25 -12 50 -27.5t36 -35.5l-27 -9q-4 -2 -19.5 -8t-33 -20.5t-30.5 -39t-13 -63.5v-258q0 -23 -9.5 -49t-29 -49t-50 -37t-71.5 -14 q-78 0 -117 48t-39 105q0 27 9.5 53.5t29 48t49 35t68.5 13.5q8 0 14.5 -1t14.5 -3v106q0 41 8 66.5t20.5 41t27.5 26t28 20.5q-20 12 -47 21.5t-52 13.5q-29 6 -59 8q29 76 89.5 117t119.5 59q70 23 149 25q78 0 145.5 -25t110.5 -68zM215 82q29 0 46.5 18.5t17.5 42.5 q0 29 -17.5 45.5t-46.5 16.5t-45 -17.5t-16 -44.5q0 -29 16 -45t45 -16z" />
<glyph unicode="&#xe27;" horiz-adv-x="749" d="M344 795q72 0 127 -22.5t92 -59.5t55.5 -85t18.5 -102v-381q0 -23 -8 -49t-26.5 -49.5t-49.5 -39t-74 -15.5q-45 0 -81 20.5t-56 55.5q-23 37 -23 78.5t21 76.5q41 70 137 70q14 0 19.5 -1t9.5 -1v235q0 23 -8.5 48.5t-27.5 47t-50 37t-76 15.5q-55 0 -93 -17.5 t-60.5 -42t-34 -51t-15.5 -45.5v-4q0 -2 -1 -5t-3 -11l-121 51l4 12q29 94 82.5 141.5t106.5 67.5q63 23 135 25zM477 84q29 0 45.5 17.5t16.5 43.5q0 27 -17.5 44.5t-44.5 17.5q-29 0 -46 -18.5t-17 -43.5q0 -29 17 -45t46 -16z" />
<glyph unicode="&#xe28;" horiz-adv-x="911" d="M834 834q-12 -31 -29 -60q-14 -25 -30.5 -53.5t-37.5 -52.5q25 -33 39.5 -74t14.5 -90v-504h-132v498q0 39 -16 75q-10 -8 -18.5 -13t-12.5 -9q-6 -4 -10 -6q-4 0 -10 -4q-8 -6 -29 -15q20 -23 29.5 -48t9.5 -50q0 -57 -37 -105.5t-110 -48.5q-35 0 -55.5 11.5 t-24.5 15.5q-4 -23 -15 -63q-18 -68 -59 -238h-129v186q0 51 -10 84t-23 66q-14 35 -26.5 74t-8.5 102q4 72 38 126t84 89t113.5 52.5t127.5 15.5q47 -2 94 -14.5t88 -35.5q10 16 18.5 32t14.5 28q8 14 12 29h140zM453 356q33 0 48 21.5t15 46.5q0 23 -15.5 44t-47.5 21 q-35 0 -50.5 -21.5t-15.5 -43.5q0 -25 15.5 -46.5t50.5 -21.5zM457 575q18 6 39 17q16 10 37.5 23.5t39.5 33.5q-55 31 -122 31q-37 0 -77 -11.5t-73 -36t-54.5 -63.5t-21.5 -94q0 -61 16.5 -109.5t18.5 -60.5v-18q0 -10 1 -27.5t-1 -46.5q10 63 15.5 101t9.5 61q4 25 6 37 t9 39.5t23.5 55.5t46 48t79.5 20h8z" />
<glyph unicode="&#xe29;" horiz-adv-x="966" d="M899 522l84 -71q-16 -35 -42 -60.5t-48 -44.5q-27 -23 -55 -37v-131q0 -35 -7.5 -67.5t-26 -57t-52 -39t-86.5 -14.5h-519v113h84v374q-10 -2 -18 -2h-14q-78 0 -116 49.5t-38 106.5q0 27 9 54.5t28.5 49t48.5 36t68 14.5q76 0 119.5 -46.5t43.5 -113.5v-522h277 q39 0 54.5 25.5t15.5 47.5v78q-25 -4 -44.5 -6t-48.5 -2q-68 0 -109.5 17.5t-65 43t-32 54t-8.5 49.5q0 49 34 94t106 45q39 0 63.5 -14.5t39.5 -35t21.5 -42t6.5 -37.5q0 -29 -14.5 -62.5t-55.5 -43.5q16 -2 35 2q16 4 34.5 10t37.5 20v426h129v-346q16 14 28 29 q10 12 20.5 27.5t12.5 29.5zM588 391q16 31 0 62q-16 29 -51 28q-31 -2 -45.5 -19.5t-14.5 -37.5q0 -23 14.5 -40t45.5 -17q37 -1 51 24zM203 575q29 0 46 19.5t17 46.5q0 29 -18.5 48.5t-44.5 19.5q-29 0 -47.5 -19.5t-18.5 -48.5t17.5 -47.5t48.5 -18.5z" />
<glyph unicode="&#xe2a;" horiz-adv-x="886" d="M762 735q-4 -10 -12 -20q-6 -10 -13.5 -20.5t-15.5 -20.5q23 -31 35 -70t12 -88v-516h-131v16q0 39 -33 130.5t-110 226.5q-4 6 -13.5 21.5t-22 29.5t-29.5 25.5t-36 11.5q-27 0 -46 -19.5t-31.5 -47t-19.5 -56.5t-7 -47q10 2 20 3t25 1q41 0 68.5 -14.5t44 -36t24.5 -46 t8 -42.5q0 -78 -40 -120t-111 -42q-59 0 -101.5 31.5t-58.5 91.5q-4 12 -7 75.5t19 149.5q8 31 24.5 70t42 73.5t63.5 58t91 23.5q18 4 34 9.5t26 9.5l20 10q14 8 27 16q10 8 22.5 17.5t22.5 19.5q-33 16 -65.5 22.5t-49.5 6.5q-37 2 -75.5 -7t-74.5 -29.5t-61.5 -54.5 t-36.5 -81l-108 47q12 49 43 93t77 77t107.5 52.5t134.5 19.5q41 0 90.5 -10.5t96.5 -34.5q12 18 18 34.5t10 26.5q4 12 7 23h139q-4 -18 -12.5 -36t-14.5 -32q-8 -17 -16 -31zM326 211q-35 0 -50.5 -21.5t-15.5 -44.5q0 -25 15.5 -45t50.5 -20q33 0 48 20.5t15 44.5 q0 23 -15 44.5t-48 21.5zM592 416q12 -18 25.5 -49t25.5 -58.5t21 -48.5l10 -22l-37 127v137q0 43 -12 73q-16 -14 -35 -24q-16 -10 -34.5 -19.5t-37.5 -15.5q23 -23 41.5 -49t32.5 -51z" />
<glyph unicode="&#xe2b;" horiz-adv-x="962" d="M854 625q-4 -47 -22.5 -74t-36.5 -41l12 -12q23 -23 28 -46.5t5 -27.5v-424h-131v395q0 18 -13 35l-4 4l-2 2q-14 -12 -35.5 -34.5t-46 -48t-49 -53.5l-45.5 -52q-47 -57 -74.5 -97t-42.5 -67q-16 -31 -22 -51q-2 -14 -6 -25q-2 -6 -2 -8h-129v485q-41 -4 -77 4.5 t-63 34.5q-39 37 -46 100.5t34 116.5q20 25 48 37.5t56.5 15.5t54 -2.5t44.5 -15.5q53 -31 66.5 -72.5t13.5 -76.5v-320l-33 -131q4 12 13 31.5t18.5 39t17.5 33.5l8 15q14 16 26.5 32.5t24.5 30.5q29 35 74 82t74 76q-20 16 -38.5 44t-18.5 77v4q0 70 45 111t118 41 q68 0 115 -52q41 -45 41 -104v-12zM207 573q35 0 50 21.5t15 46.5q0 23 -15 44.5t-50 21.5q-33 0 -48.5 -21.5t-15.5 -44.5q0 -25 15.5 -46.5t48.5 -21.5zM696 571q33 0 48.5 20.5t15.5 45.5q0 23 -15.5 44t-48.5 21q-35 0 -50 -21.5t-15 -43.5q0 -25 15 -45.5t50 -20.5z " />
<glyph unicode="&#xe2c;" horiz-adv-x="1054" d="M1055 834q-18 -59 -44 -94t-48 -54q-27 -23 -58 -29v-657h-127q-4 20 -7 36.5t-7 29.5l-8 28q-6 16 -28.5 58.5t-50.5 89.5t-54.5 91t-42.5 64q2 0 0 6q-2 4 -3.5 15.5t-5.5 27.5q-4 -16 -6 -26t-2 -14v-5q-12 -20 -39.5 -66t-55.5 -93t-49.5 -86t-25.5 -47 q-4 -10 -10 -27q-10 -29 -18 -82h-127v487q-16 -4 -29 -4q-70 0 -114 42t-44 108v2q0 29 8.5 56.5t26.5 51t49 38t74 14.5q41 0 71.5 -14.5t50 -38t29 -52t9.5 -59.5v-250l-17 -109l219 363l228 -385l-25 129v239q-16 -2 -30.5 0.5t-26.5 6.5q-14 4 -27 10q-25 12 -51.5 44 t-26.5 85q0 25 8.5 50.5t27 47t46 35.5t66.5 14q41 0 69.5 -15t44.5 -38q12 -12 17.5 -28.5t9.5 -30.5q4 -16 4 -35q18 25 23 47q2 10 2 23h125zM207 575q35 0 50 21.5t15 44.5q0 25 -15 45.5t-50 20.5q-33 0 -48.5 -20.5t-15.5 -45.5q0 -23 15.5 -44.5t48.5 -21.5zM762 707 q25 0 42 17t17 42t-17.5 42t-41.5 17q-25 0 -42.5 -17t-17.5 -42t17.5 -42t42.5 -17z" />
<glyph unicode="&#xe2d;" horiz-adv-x="847" d="M410 795q61 0 120.5 -16.5t107.5 -50.5t77.5 -87t29.5 -125v-358q0 -72 -37.5 -115t-140.5 -43h-264q-27 0 -52.5 6t-46 21.5t-32.5 40t-12 61.5v242q0 23 7 53.5t26.5 58t51 47t81.5 19.5q37 0 64.5 -13.5t47 -36t29.5 -51t10 -59.5q0 -55 -35.5 -102t-115.5 -49 q-8 0 -21.5 3t-17.5 7v-90q0 -27 14 -36t31 -9h225q57 0 57 53v356q0 72 -58 115t-144 43q-66 0 -111 -15.5t-74.5 -40t-46 -53t-24.5 -55.5l-111 45q10 39 33 76q33 53 77 85t89 48t89 20.5t77 4.5zM256 391q0 -25 15.5 -46t50.5 -21q33 0 48 21.5t15 45.5q0 23 -15.5 44.5 t-47.5 21.5q-35 0 -50.5 -21.5t-15.5 -44.5z" />
<glyph unicode="&#xe2e;" horiz-adv-x="876" d="M805 836q-6 -51 -21.5 -88t-31.5 -60q-18 -27 -39 -45q16 -25 24 -62.5t8 -48.5v-389q0 -20 -6 -44.5t-23.5 -46t-50 -37t-85.5 -15.5h-281q-72 0 -115 36t-43 103v191q0 23 7.5 51.5t26 53t49 42t79.5 17.5q39 0 67.5 -14.5t48 -37t29 -49t9.5 -51.5q0 -61 -39 -106.5 t-113 -45.5q-23 0 -33 5v-41q0 -29 15.5 -36t38.5 -7h235q23 0 38 16t15 39v352q0 12 -2 27.5t-6 19.5q-29 -18 -82 -33.5t-131 -15.5q-129 0 -202.5 32t-73.5 91q0 61 75.5 108.5t213.5 47.5q98 0 151 -26t78 -44q10 12 18 31q8 16 13.5 35.5t5.5 44.5h133zM553 649l16 10 q-14 10 -20 14.5t-25 12.5q-18 8 -48 13.5t-75 5.5q-78 0 -124 -19.5t-46 -36.5q0 -2 1 -2t1 -2v-2q8 -8 31 -13t48.5 -7t49 -2h35.5q70 0 102.5 8t49.5 18zM238 342q0 -29 18 -47.5t45 -18.5q29 0 47.5 19.5t18.5 48.5q0 27 -18.5 46.5t-47.5 19.5q-27 0 -45 -19.5 t-18 -48.5z" />
<glyph unicode="&#xe2f;" horiz-adv-x="806" d="M563 782h131v-532q0 -55 -11 -94t-28.5 -67t-41 -45t-48.5 -34l-16 -10l-96 94l32 15l13 8q12 8 26.5 24.5t26.5 43t12 63.5v246q-29 -57 -94.5 -89t-130.5 -32q-63 0 -125.5 28.5t-97.5 87.5q-14 25 -25.5 60t-11.5 69q0 23 7 53.5t25.5 58.5t49 46.5t80.5 18.5 q98 0 141 -78q18 -33 18 -76q0 -70 -59 -113q-16 -12 -30.5 -17t-37.5 -9q14 -4 32 -4h28q74 2 135 65.5t92 200.5zM178 643q0 -29 18.5 -46t47.5 -17q31 0 48 18t17 45q0 29 -18.5 46.5t-46.5 17.5q-29 0 -47.5 -18.5t-18.5 -45.5z" />
<glyph unicode="&#xe30;" horiz-adv-x="786" d="M338 442q-53 0 -90 10.5t-62.5 26t-40 31.5t-22.5 31q-18 35 -18.5 79t20.5 76q20 35 56 54.5t79 17.5q53 -2 91 -28.5t55 -67.5q10 -33 6 -66t-13 -41h13q18 4 39.5 15.5t44 31t43 51t34.5 78.5l7 21l125 -33l-9 -24q-41 -123 -131 -193t-227 -70zM258 686 q-27 0 -45 -18.5t-18 -44.5q0 -29 18 -47.5t45 -18.5q29 0 47.5 18.5t18.5 47.5q0 27 -18.5 45t-47.5 18zM338 0q-53 0 -90 10t-62.5 25.5t-40 32t-22.5 30.5q-18 35 -18.5 79t20.5 77q20 35 56 54.5t79 17.5q53 -2 91 -29t55 -68q10 -33 6 -65.5t-13 -40.5h13 q18 4 39.5 15.5t44 30.5t43 51t34.5 79l7 20l125 -32l-9 -25q-41 -123 -131 -192.5t-227 -69.5zM258 244q-27 0 -45 -18.5t-18 -45.5q0 -29 18 -47t45 -18q29 0 47.5 18.5t18.5 46.5q0 27 -18.5 45.5t-47.5 18.5z" />
<glyph unicode="&#xe31;" d="M10 1280l96 -76q-55 -98 -128.5 -149t-139.5 -76q-78 -29 -157 -33q-41 0 -84 8.5t-77 29t-56.5 55t-24.5 87.5q0 27 8 54.5t27.5 49t48 36t67.5 14.5q47 0 77 -18.5t46.5 -42t21.5 -47t5 -35.5q0 -10 -4 -30t-15 -34q23 -4 57 8.5t66 28.5q29 16 58 39q25 20 53 52 t55 79zM-412 1069q27 0 45.5 18.5t18.5 45.5t-18.5 45t-45.5 18t-44 -18.5t-17 -44.5q0 -27 17 -45.5t44 -18.5z" />
<glyph unicode="&#xe32;" horiz-adv-x="673" d="M10 563q4 16 7 30.5t8 24.5q6 12 10 25q74 152 252 152q123 0 195.5 -70t72.5 -186v-539h-131v543q0 66 -35 100.5t-100 34.5q-68 0 -102.5 -38t-53.5 -110l-4 -16z" />
<glyph unicode="&#xe33;" horiz-adv-x="677" d="M-190 1251q72 0 121 -48t49 -116t-49.5 -115.5t-120.5 -47.5q-72 0 -121 48t-49 115q0 68 49 116t121 48zM-190 1022q29 0 49 19.5t20 48.5t-20.5 48t-48.5 19q-29 0 -49.5 -19.5t-20.5 -47.5q0 -29 20.5 -48.5t49.5 -19.5zM-6 563q2 16 6 30.5t8 24.5q6 12 10 25 q74 152 252 152q123 0 196 -70t73 -186v-539h-131v543q0 66 -35 100.5t-101 34.5q-68 0 -102.5 -38t-52.5 -110l-4 -16z" />
<glyph unicode="&#xe34;" d="M-113 930l4 -37l-36 12l-28 7q-28 8 -69 18t-93 20.5t-101 16.5q-53 4 -103.5 6t-95.5 2q-55 0 -94 -1t-49 -3h-33l4 30q14 59 46 107.5t76 82.5t97 53.5t111 19.5h20.5t20.5 -2q102 -12 164.5 -56.5t96.5 -96.5t46 -102t16 -77zM-442 1063q80 -10 129 -22.5t71 -22.5 q-10 20 -25.5 43.5t-42 45t-65.5 37t-94 17.5h-10q-66 0 -115 -29.5t-68 -68.5q16 2 43 3t56 1q35 0 69 -1t52 -3z" />
<glyph unicode="&#xe35;" d="M-109 930l5 -43q-35 10 -66 20.5t-66.5 20.5t-82 20t-113.5 19q-57 8 -105.5 11t-89.5 3q-63 0 -100 -4t-47 -6h-33l4 30q14 59 46 107.5t76 82.5t97.5 53.5t110.5 19.5h20.5t20.5 -2q59 -6 111.5 -29t78.5 -51v116h123v-307q4 -20 6 -35.5t4 -25.5zM-440 1059 q86 -12 137 -24.5t74 -22.5q-10 20 -27.5 44.5t-45.5 47t-68 39t-95 18.5h-10q-66 0 -115 -29.5t-67 -68.5q16 2 37.5 3t48.5 1q35 0 68.5 -2t62.5 -6z" />
<glyph unicode="&#xe36;" d="M-55 1200q-2 -31 -13 -55q-10 -23 -30.5 -42.5t-59.5 -27.5q23 -45 30 -84t11 -61l4 -37l-37 12l-28 7q-27 8 -68 18t-93 20.5t-101 16.5q-61 6 -123 7t-111 1t-80 -2l-30 -2h-31l4 30q14 63 51 114.5t86 86.5t109.5 51.5t124.5 8.5q76 -8 131 -37q8 41 28.5 61.5 t42.5 30.5q27 10 58 10q37 -2 61.5 -17.5t38.5 -36t19.5 -41t5.5 -32.5zM-446 1063q80 -10 129 -22.5t71 -22.5q-10 20 -25.5 43.5t-42 45t-65.5 37t-94 17.5q-68 4 -121 -26.5t-72 -71.5q18 2 48 3t63 1t63 -1t46 -3zM-184 1141q23 0 39 16.5t16 38.5q0 23 -16.5 40 t-38.5 17q-23 0 -39.5 -17t-16.5 -40t16.5 -39t39.5 -16z" />
<glyph unicode="&#xe37;" d="M-106 930l4 -37l-37 12l-25 7q-26 8 -68 18t-93.5 20.5t-104.5 16.5q-66 6 -128.5 8t-109.5 1t-76 -3l-30 -2h-31l4 30q14 63 51 114.5t86.5 86.5t109.5 51.5t124 8.5h10t12 -2l17 -5v80h106v-116q14 -8 31.5 -23.5t24.5 -26.5v166h106l-2 -321q6 -23 11.5 -45.5 t7.5 -38.5zM-436 1063q80 -10 129 -22.5t71 -22.5q-10 20 -25 43.5t-42 45t-66 37t-94 17.5q-68 4 -121 -26.5t-71 -71.5q18 2 47.5 3t62.5 1t63 -1t46 -3z" />
<glyph unicode="&#xe38;" d="M-262 -106q72 0 106.5 -45.5t34.5 -98.5l-2 -287h-117v142q-2 -2 -6 -2h-12q-76 0 -114 46t-38 99q0 55 38 100.5t110 45.5zM-203 -254q2 29 -16.5 47.5t-46.5 18.5q-31 -2 -45.5 -20.5t-14.5 -41.5t14.5 -42t45.5 -21q16 -2 30 6q12 6 21.5 18t11.5 35z" />
<glyph unicode="&#xe39;" d="M-244 -98h125v-273q0 -23 -4 -48t-18.5 -47.5t-43 -38t-75.5 -15.5h-186v141q0 -2 -5 -2h-14q-76 0 -113.5 46t-37.5 102q0 53 37.5 99t109.5 46t105.5 -45t33.5 -98v-193h58q10 0 19 12.5t9 28.5v285zM-410 -233q0 31 -17 46t-46 15q-31 0 -45 -19.5t-14 -41.5 q0 -23 14 -41.5t45 -20.5q6 0 17.5 2t21.5 8t17 19t7 33z" />
<glyph unicode="&#xe3a;" d="M-184 -250q-37 0 -56.5 22.5t-19.5 50t17.5 51.5t54.5 24t56 -22.5t19 -50.5t-17 -51.5t-54 -23.5z" />
<glyph unicode="&#xe3b;" horiz-adv-x="1024" />
<glyph unicode="&#xe3c;" horiz-adv-x="1024" />
<glyph unicode="&#xe3d;" horiz-adv-x="1024" />
<glyph unicode="&#xe3e;" horiz-adv-x="1024" />
<glyph unicode="&#xe3f;" horiz-adv-x="868" d="M618 489q47 -8 80 -32.5t55.5 -58t33 -73.5t10.5 -81q0 -78 -45 -136.5t-129 -89.5q-33 -12 -71 -15t-77 -3v-106h-98v106h-260v938h260v111h98v-111q43 -2 94.5 -12.5t95.5 -37t73.5 -75.5t29.5 -127q0 -70 -41 -121t-109 -76zM377 125v299h-117v-299h117zM377 549v264 h-117v-264h117zM475 813v-264q78 6 111 39q35 31 35 90q0 61 -35 96q-33 33 -111 39zM475 125q25 0 55.5 4t57 19.5t44 44t17.5 77.5t-17.5 79t-44 47.5t-57 22.5t-55.5 5v-299z" />
<glyph unicode="&#xe40;" horiz-adv-x="475" d="M281 295q66 0 111.5 -44t45.5 -108q0 -63 -46 -107t-111 -44q-66 0 -111 43t-47 104v643h131v-489q6 0 12.5 1t14.5 1zM281 88q23 0 40 16.5t17 38.5q0 23 -17.5 39.5t-39.5 16.5q-25 0 -41.5 -16.5t-16.5 -39.5t16.5 -39t41.5 -16z" />
<glyph unicode="&#xe41;" horiz-adv-x="880" d="M281 295q66 0 111.5 -44t45.5 -108q0 -63 -46 -107t-111 -44q-66 0 -111 43t-47 104v643h131v-489q6 0 12.5 1t14.5 1zM281 80q27 0 45 18.5t18 44.5q0 27 -18.5 44.5t-44.5 17.5q-29 0 -47.5 -17.5t-18.5 -44.5t18.5 -45t47.5 -18zM686 295q66 0 112 -44t46 -108 q0 -63 -46 -107t-112 -44t-110 43t-48 104v643h131v-489q8 0 14.5 1t12.5 1zM686 80q29 0 47.5 18.5t18.5 44.5q0 27 -18.5 44.5t-47.5 17.5q-27 0 -45 -17.5t-18 -44.5t18 -45t45 -18z" />
<glyph unicode="&#xe42;" horiz-adv-x="577" d="M373 293q80 0 117.5 -47t37.5 -101q0 -57 -39.5 -105t-117.5 -48q-72 0 -116 40t-44 111v791q0 37 -13.5 62.5t-43 47t-78.5 41t-123 45.5l-35 13l12 26q2 4 21.5 34t56.5 63.5t91.5 59.5t123.5 20q84 -6 125 -33t68 -56q20 -20 41.5 -35.5t60.5 -25.5l35 -8l-70 -92 l-16 4q-57 14 -79.5 31.5t-41.5 37.5q-18 20 -41.5 40t-81.5 26q-37 4 -74.5 -8.5t-60.5 -38.5q43 -18 88 -38t82 -47.5t60.5 -66.5t23.5 -98v-647q4 2 10 2h21zM428 111q16 35 0 65q-16 29 -55 29t-56 -29q-10 -16 -9 -33.5t9 -31.5q16 -29 56 -29q37 0 55 29z" />
<glyph unicode="&#xe43;" horiz-adv-x="561" d="M377 297q76 0 114.5 -47t38.5 -105q0 -57 -38.5 -105t-116.5 -48q-72 0 -117 45t-45 117v714q0 23 25.5 53.5t48.5 65.5q16 27 26.5 53.5t10.5 73.5q0 49 -30 82t-75 33q-16 0 -28.5 -5t-14.5 -12q25 -6 40 -20t24.5 -32.5t12.5 -38t3 -34.5q0 -20 -7 -42.5t-23.5 -43 t-41 -34t-61.5 -13.5q-25 0 -50.5 9.5t-47 30t-33.5 53t-10 79.5q2 43 23.5 82t54 68t73.5 45t84 16q57 0 100 -19.5t71 -50t42 -70.5t14 -81q0 -53 -15 -93t-42 -77q-18 -25 -30.5 -46t-12.5 -34v-571q8 0 15.5 1t17.5 1zM119 1034q29 0 42 17.5t13 37t-13.5 37t-41.5 17.5 q-29 0 -42.5 -17.5t-12 -37t14.5 -37t40 -17.5zM430 115q16 35 0 65q-16 29 -55 29t-56 -29q-10 -16 -9 -33.5t9 -31.5q16 -29 56 -29q37 0 55 29z" />
<glyph unicode="&#xe44;" horiz-adv-x="569" d="M516 223q23 -35 23 -78t-23 -79q-20 -35 -56 -54.5t-79 -19.5q-72 0 -117 44t-45 109v660q0 39 5 66.5t17.5 59.5t33 74t51.5 105q8 20 16 41q6 16 12 32.5t4 26.5h-14q-4 -10 -25 -41q-16 -27 -47.5 -78t-91.5 -143l-12 -20t-23 -10q-18 0 -27 12t-14 33l-65 258 q-2 20 -10 39q-6 16 -15.5 28t-23.5 15l106 47l15 -23q10 -14 16 -30.5t14 -51.5l31 -149q2 2 18.5 31.5t36.5 66.5q23 43 56 96q27 45 67 45h68q8 0 10 -2q31 -2 41 -21.5t10 -35.5q0 -18 -2 -52t-6 -53q0 -6 -15.5 -41.5t-32.5 -78.5t-31.5 -79t-16.5 -40 q-10 -31 -17.5 -56.5t-7.5 -46.5v-536q10 2 33 2q92 0 133 -72zM381 82q33 2 48 21.5t15 41.5q0 23 -15 41.5t-48 20.5q-39 0 -57 -31q-8 -14 -8.5 -31.5t10.5 -33.5q16 -29 55 -29z" />
<glyph unicode="&#xe45;" horiz-adv-x="702" d="M45 571q66 223 279 224q123 0 194.5 -70t71.5 -186v-856h-131v860q0 66 -35 100.5t-100 34.5q-61 0 -103.5 -39t-52.5 -109l-4 -28l-125 49z" />
<glyph unicode="&#xe46;" horiz-adv-x="854" d="M571 795q68 0 114 -44t46 -116v-690q0 -35 -2 -61.5t-11 -51.5t-27.5 -48.5t-53.5 -51.5l-12 -11l-93 46l-32 18l41 33q16 12 27.5 22t17.5 23.5t9 33t3 52.5v688q0 18 -11.5 34.5t-35.5 16.5q-27 0 -40 -14.5t-19 -24.5l-5 -10q-2 -4 -4 -11t-4 -18h-26l-4 17 q-12 31 -45 50t-74 19q-25 0 -46.5 -10t-31.5 -39q4 4 17.5 9.5t25.5 5.5q88 0 125 -68q20 -35 20 -77t-20 -79q-43 -72 -129 -71q-29 0 -58.5 11t-54 35.5t-40 62.5t-15.5 89q0 41 12 82t38 74t66 53.5t93 20.5q43 0 81 -18.5t52 -37.5q10 20 41.5 38t64.5 18zM291 578 q-33 0 -47.5 -19.5t-14.5 -42.5t14.5 -41t47.5 -18t47 18.5t14 40.5q0 23 -14 42.5t-47 19.5z" />
<glyph unicode="&#xe47;" d="M-182 1358l90 -27q-10 -27 -20.5 -48t-30 -35.5t-49 -21.5t-78.5 -5q-41 4 -73 8t-58 8q-14 2 -27.5 3t-30.5 1q-25 0 -46 -5t-38 -22q-10 -10 -17 -35.5t-1 -50.5q2 -10 6 -20t10 -21.5t17 -23.5q0 29 17 48t48 19q25 0 40 -11t27.5 -24.5t23 -26.5t24.5 -17l-4 6 q-8 12 -8 30q0 12 4 29t16 33t33.5 27.5t56.5 11.5q51 0 82 -30t31 -77q0 -49 -35 -84.5t-86 -33.5h-6q-47 2 -72.5 21.5t-48.5 35.5l-2 2q-16 10 -30.5 17.5t-33.5 7.5q-10 0 -17 -8.5t-11 -17.5t-6 -19l-2 -9l-5 -18l-53 -4q-16 8 -29.5 19t-23.5 24q-12 14 -23 28 q-16 27 -27 55.5t-11 61.5q0 82 62 123t148 39l35 -2q31 -2 71 -9t75 -7q23 0 41 5t30 15q2 2 7 8q8 13 8 27zM-250 1126q-25 0 -37 -15t-12 -34q0 -18 12.5 -32.5t34.5 -14.5q25 0 37 15.5t12 33.5q0 16 -11 31.5t-36 15.5z" />
<glyph unicode="&#xe48;" d="M-240 1718h123v-315h-123v315z" />
<glyph unicode="&#xe49;" d="M80 1638l100 -39q-25 -76 -66.5 -118.5t-92 -65t-104.5 -29t-103 -8.5q-27 0 -56.5 3t-58.5 8l-31 88l29 4q12 2 27 8q12 4 25 12t24 23q-41 4 -75 35.5t-34 78.5q0 59 42 93t91 34q66 -4 98.5 -40.5t32.5 -90.5q0 -29 -12 -54.5t-30.5 -44.5t-38 -35.5t-33.5 -26.5h16 q61 0 105.5 15t73 36.5t44 46t21.5 45.5zM-256 1638q0 -25 15.5 -38t37.5 -13q23 0 37 14.5t14 36.5q0 25 -14 39.5t-37 14.5t-38 -14.5t-15 -39.5z" />
<glyph unicode="&#xe4a;" d="M119 1665q0 -39 -11.5 -87t-39.5 -89q-20 -29 -46 -46.5t-52.5 -26.5t-52.5 -12t-46 -3q-10 0 -20.5 1t-16.5 1q16 23 23.5 51.5t11.5 52.5q6 29 6 60t-11 54.5t-44 25.5q-10 0 -21 -5q-10 -4 -20 -11t-21 -23q-6 18 -19 27.5t-28 13.5q-16 6 -33 6q-23 2 -40 -6 q-16 -6 -27.5 -19.5t-11.5 -38.5q10 10 21 14.5t22 8.5q12 4 26 4q35 0 71 -27.5t36 -81.5q0 -47 -33 -79.5t-82 -32.5q-29 0 -56.5 10t-47.5 33q-43 49 -43 121v24q4 59 42.5 108.5t116.5 49.5q27 0 47.5 -11.5t38.5 -23.5q16 10 35 17.5t45 9.5q68 0 100.5 -44t32.5 -102 q0 -25 -5 -47t-9 -33q4 2 12 11q4 4 6 8q25 37 25 125q0 14 -2 26q-2 10 -5 23.5t-7 23.5l123 19q4 -10 6 -23q2 -10 3 -25.5t1 -31.5zM-340 1559q-25 0 -37 -14.5t-12 -33.5q0 -16 12 -31.5t35 -15.5q25 0 38 13.5t13 35.5q0 16 -12 31t-37 15z" />
<glyph unicode="&#xe4b;" d="M-236 1767h125v-129h136v-116h-136v-127h-125v127h-135v116h135v129z" />
<glyph unicode="&#xe4c;" d="M27 1661q-41 -47 -96.5 -67.5t-114.5 -10.5l-6 -8q18 -4 36 -10q35 -16 56.5 -49t21.5 -76q0 -18 -7 -41t-22.5 -43.5t-40 -36.5t-59.5 -21q-76 -10 -129 37q-29 25 -43 60t-12 69q4 90 53 135.5t121 67.5q20 6 41.5 12.5t42 16.5t37 27.5t26.5 50.5l127 -33 q-2 -16 -7 -30.5t-11 -24.5q-8 -13 -14 -25zM-287 1444q0 -25 17.5 -43.5t42.5 -18.5t42 17.5t17 42.5q0 27 -17.5 44t-41.5 17q-25 0 -42.5 -18t-17.5 -41z" />
<glyph unicode="&#xe4d;" d="M-414 1251q72 0 121 -48t49 -116t-49 -115.5t-121 -47.5t-121 48t-49 115q0 68 49 116t121 48zM-414 1022q29 0 49.5 19.5t20.5 48.5t-20.5 48t-49.5 19t-49 -19.5t-20 -47.5q0 -29 20 -48.5t49 -19.5z" />
<glyph unicode="&#xe4e;" d="M-274 1253q-35 2 -45.5 2h-20.5q-23 0 -44.5 -7t-21.5 -21q0 -31 28 -42t40 -11v-93h-80q-20 0 -43.5 -7t-23.5 -23q0 -29 21.5 -37t41.5 -8q8 0 17.5 1t31.5 1v-68q-23 -10 -39 -12t-28 -2q-53 0 -96.5 30.5t-43.5 102.5q4 43 35 66.5t76 29.5q-10 10 -18.5 24.5 t-8.5 30.5q0 14 4.5 36t20.5 40q31 35 70 41t86 6h41v-80z" />
<glyph unicode="&#xe4f;" horiz-adv-x="1048" d="M524 0q-137 0 -228 60.5t-136 151.5t-45 197.5t45 197.5t136 151.5t228 60.5t228.5 -60.5t136.5 -151.5t45 -197.5t-45 -197.5t-136.5 -151.5t-228.5 -60.5zM524 764q-119 0 -197.5 -52.5t-117.5 -131t-39 -171t39 -171t118 -131t197 -52.5q119 0 198 52.5t118 131 t39 171t-39 171t-118 131t-198 52.5zM524 176q-78 0 -130 35t-77.5 86t-25.5 112.5t25.5 112.5t77.5 86t130 35t130.5 -35t78 -86t25.5 -112.5t-25.5 -112.5t-78 -86t-130.5 -35z" />
<glyph unicode="&#xe50;" horiz-adv-x="1005" d="M504 666q84 0 154.5 -27t123 -72t82 -107.5t29.5 -133.5q0 -74 -27.5 -135.5t-79 -105.5t-123 -67.5t-157.5 -23.5t-158 24.5t-124 68.5t-80.5 104.5t-28.5 134.5q-2 43 16.5 100t63.5 109.5t120.5 90.5t188.5 40zM506 129q115 0 177 52t62 147q0 92 -65.5 148t-175.5 56 q-111 0 -174.5 -55t-67.5 -149q-2 -57 21.5 -96t61.5 -62t81 -32t80 -9z" />
<glyph unicode="&#xe51;" horiz-adv-x="983" d="M774 535q106 -109 107 -259q0 -98 -38 -162.5t-84 -105.5t-88 -60.5t-48 -25.5l-62 88q31 16 63.5 38t60.5 53.5t44 75.5t16 102q0 61 -22.5 106t-58 74.5t-82.5 44t-99 14.5q-78 0 -126 -24.5t-73.5 -57.5t-34.5 -65.5t-9 -51.5q0 -51 13 -83.5t31.5 -52t40 -28 t35.5 -8.5q-20 10 -42.5 47t-22.5 80q0 57 35 103q47 61 133 61q63 0 99 -24.5t54.5 -57t23.5 -64.5t5 -46q0 -33 -15.5 -71t-47 -68.5t-78.5 -51t-109 -20.5q-49 0 -101 14t-95 48t-70 87.5t-25 128.5q4 96 42 160t95.5 101.5t124 53t126.5 15.5q80 0 154.5 -27.5 t127.5 -80.5zM397 274q2 -31 21.5 -51t52.5 -20q35 0 52.5 21.5t17.5 45.5q0 27 -17.5 49.5t-56.5 22.5q-16 0 -41 -11.5t-29 -56.5z" />
<glyph unicode="&#xe52;" horiz-adv-x="1134" d="M831 625q49 0 85 -16.5t59.5 -42t35 -58.5t11.5 -68v-315q0 -23 -4 -45.5t-16.5 -39.5t-36 -28.5t-64.5 -11.5h-618q-18 0 -43 7t-46.5 24.5t-37 45t-15.5 70.5v560q-2 29 -10 53q-8 23 -23.5 43t-46.5 33l121 96q18 -16 30.5 -31.5t23.5 -28.5q10 -14 18 -28 q16 -27 21.5 -58.5t5.5 -60.5v-518q0 -29 11 -51.5t66 -22.5h482q29 0 36 11.5t7 27.5l2 240q0 31 -17.5 60.5t-64.5 29.5q-23 -2 -45 -10q-18 -8 -38 -23.5t-34 -44.5q-10 31 -33.5 46t-46.5 24q-27 8 -57 8q-35 0 -50.5 -10.5t-19.5 -20.5q4 2 14.5 4t20.5 2 q43 -2 75 -18.5t51 -39t28.5 -49t9.5 -51.5q0 -43 -17.5 -72.5t-43 -48t-55.5 -26.5t-52 -8q-82 0 -131 51t-57 133q-12 131 53 204t172 73q53 0 87 -19.5t52 -42.5q18 23 53 42.5t92 19.5zM506 391q-37 0 -53.5 -21.5t-16.5 -43.5q0 -27 17.5 -48.5t56.5 -21.5t57 31 q20 37 0 73q-18 31 -61 31z" />
<glyph unicode="&#xe53;" horiz-adv-x="1099" d="M926 565q43 -45 63.5 -114.5t16.5 -180.5q-2 -51 -9 -100q-4 -41 -13 -88t-26 -82h-139q35 137 40 226t-1 143q-8 63 -29 98q-25 29 -59 29q-55 0 -80.5 -44t-25.5 -87v-365h-132v367q0 53 -35.5 91t-99.5 38q-37 0 -68.5 -15.5t-53 -41t-33 -58.5t-6.5 -70 q16 12 39.5 21.5t58.5 9.5q41 0 70.5 -15.5t51 -40t32 -56t10.5 -64.5q0 -66 -43 -119t-136 -55q-84 0 -139 55q-88 86 -88 242q0 72 22.5 133t63.5 106t96.5 71t118.5 26q78 0 127 -32t74 -65q23 35 65.5 66t112.5 31q95 -1 154 -60zM256 170q0 -31 19.5 -50.5t54.5 -19.5 q33 0 47 22.5t14 47.5q0 27 -15.5 48.5t-45.5 21.5q-4 0 -15.5 -1t-23.5 -8.5t-22.5 -21.5t-12.5 -39z" />
<glyph unicode="&#xe54;" horiz-adv-x="1110" d="M551 512q-27 0 -58.5 -1t-63.5 -7t-63.5 -21.5t-58.5 -46.5q-23 -29 -40 -62.5t-13 -78.5q4 -57 36 -94t75 -56.5t85 -23.5t64 2q-6 4 -24.5 15.5t-39 31.5t-37 50t-18.5 73q-4 72 45 121t123 49q78 0 125 -46t47 -108q0 -59 -30.5 -96t-65.5 -47q10 -16 26.5 -21.5 t35 -5.5t39 3t38.5 3q41 0 93.5 -5t113.5 -34l-33 -116q-23 12 -53.5 18t-56.5 8q-31 2 -62 0q-84 -6 -143 -10t-100 -6q-47 -2 -78 -2q-80 -4 -146.5 22.5t-113.5 73.5q-43 43 -64.5 94.5t-19.5 124.5q2 133 96 217q66 59 163 85t216 14q96 -10 163.5 -5t114.5 29.5 t76 69.5t43 115l123 -23q-8 -72 -32.5 -122t-51.5 -81q-31 -37 -65 -57q-45 -23 -102.5 -40t-119.5 -13q-12 0 -37 2q-23 2 -58.5 3t-92.5 5zM502 279q6 -23 24.5 -34.5t40.5 -11.5q35 0 52.5 23t17.5 45q0 27 -17.5 49.5t-52.5 22.5q-45 0 -59 -33.5t-6 -60.5z" />
<glyph unicode="&#xe55;" horiz-adv-x="1112" d="M987 834l125 -23q-10 -66 -30.5 -112t-43.5 -74q-25 -35 -53 -58q-49 -35 -116.5 -54t-129.5 -15q-29 4 -61 6q-29 2 -60.5 4t-66.5 2q-53 2 -118.5 -10.5t-125.5 -67.5q-23 -20 -40 -58t-13 -83q4 -57 36 -94t75 -56.5t85 -23.5t64 2q-6 4 -24.5 15t-39 31.5t-37 50.5 t-18.5 73q-4 72 45 121t123 49q78 0 126 -46t48 -108q0 -59 -31.5 -96t-66.5 -47q10 -16 26.5 -21.5t35 -5.5t39 3t38.5 3q41 0 93.5 -5t113.5 -34l-33 -116q-23 12 -53.5 18t-56.5 8q-31 2 -62 0q-84 -6 -143 -10t-100 -6q-47 -2 -78 -2q-80 -4 -146.5 22.5t-113.5 73.5 q-43 43 -64.5 94.5t-19.5 124.5q2 133 96 217q76 68 195 92q-14 25 -19 54q-2 14 -2 26q0 29 11.5 58.5t34 55.5t57 42t79.5 16q37 0 69 -14t55.5 -38.5t35.5 -55.5t12 -64q0 -12 -2 -26q-4 -29 -18 -54q125 4 185 54.5t83 161.5zM502 276q6 -23 24.5 -34t40.5 -11 q35 0 52.5 22.5t17.5 45.5q0 27 -17.5 49.5t-52.5 22.5q-45 0 -59 -34t-6 -61zM492 696q0 -29 20 -49t49 -20t50.5 20.5t21.5 48.5q0 29 -21.5 50.5t-50.5 21.5t-49 -21.5t-20 -50.5z" />
<glyph unicode="&#xe56;" horiz-adv-x="1007" d="M795 569q29 -18 53 -49t40.5 -67.5t24 -79.5t-1.5 -86q-14 -88 -62 -144.5t-111.5 -89.5t-134.5 -45t-132 -12q-49 0 -100.5 10t-93 33.5t-68.5 63.5t-27 100q0 70 49.5 118t120.5 48q92 0 133 -51.5t41 -114.5q0 -23 -8 -46.5t-18 -33.5q6 -6 31.5 -3t56 13t61.5 24.5 t49 32.5q23 18 43.5 49t20.5 83q0 76 -45 120q-39 39 -94.5 52.5t-102.5 15.5q-100 4 -162.5 -13.5t-121.5 -54.5q2 123 -18.5 198t-43.5 118q-27 51 -61 73l-23 15l94 98l19 -10q43 -25 66.5 -64t36.5 -83t18.5 -87t11.5 -77q131 35 248 23.5t211 -77.5zM352 129 q35 0 52.5 21.5t17.5 46.5q0 27 -17.5 49t-52.5 22t-50 -22.5t-15 -46.5q0 -25 15 -47.5t50 -22.5z" />
<glyph unicode="&#xe57;" horiz-adv-x="1136" d="M993 930l92 -84q-14 -4 -24 -13.5t-17 -17.5q-8 -8 -10 -20q-14 -47 -13 -119t5 -139q4 -66 7 -133.5t-1 -129t-18.5 -113.5t-46.5 -89q-39 -43 -91.5 -57.5t-99.5 -14.5q-20 0 -43 2q-20 2 -47 6t-59 10q29 31 43 83.5t22 103.5q8 59 8 123q0 57 -17 101t-71 48 q-43 4 -72.5 -24.5t-29.5 -71.5v-16h-84v16q0 27 -22.5 58.5t-65.5 37.5q-23 4 -47.5 -6t-44 -33.5t-28.5 -63.5t1 -95q18 23 50 40t79 17q41 0 72 -14.5t51.5 -38t30.5 -52t10 -59.5q0 -33 -12.5 -63.5t-34 -55t-55 -40t-76.5 -15.5q-66 0 -112 25.5t-74.5 69.5t-42 100.5 t-13.5 117.5q0 55 14.5 108.5t44 95.5t77.5 67.5t116 25.5q47 0 79 -21.5t48 -39.5q66 61 139 61q59 0 101.5 -20.5t71 -55t42 -80.5t13.5 -100v-4q0 -86 -12.5 -148.5t-32.5 -86.5q31 -4 59 24q29 31 38 88.5t9 128.5q0 37 -1 77t-3 81q-6 84 -6 162q0 96 17.5 153.5 t70.5 92.5zM346 238q-33 0 -50 -21.5t-17 -48.5t17 -48.5t50 -21.5q35 0 52.5 21.5t17.5 48.5t-17.5 48.5t-52.5 21.5z" />
<glyph unicode="&#xe58;" horiz-adv-x="1085" d="M926 840l129 -62q0 -16 -2 -31.5t-6 -29.5q-4 -16 -9 -31q-20 -55 -52 -92t-69.5 -58.5t-78.5 -30.5t-78 -9q-53 0 -111.5 10t-122.5 10q-236 0 -282 -143q-10 -31 -11 -60q0 -47 11.5 -73.5t15.5 -34.5q16 47 44 83t87 40q23 2 44.5 -8.5t42 -27t40 -36.5t39.5 -43 q14 -16 31.5 -35.5t35 -36t33 -24.5t23.5 -2q-27 16 -42 35.5t-22 35.5q-8 20 -8 39q0 37 14.5 68t39 53.5t57.5 34.5t69 12q27 0 56.5 -11t55.5 -33.5t43.5 -57.5t17.5 -84q0 -96 -68 -160q-29 -29 -64.5 -45t-83.5 -16q-37 0 -68.5 8t-64 27.5t-70.5 53.5t-85 87 q-18 20 -38 28.5t-34 -2.5q-10 -8 -17.5 -26.5t-10.5 -41t0 -46t12 -41.5l14 -31l-96 -8h-11l-12 8q-102 70 -136 150.5t-34 144.5q0 113 42 182.5t109.5 106.5t150.5 47t161 4q12 0 27 -2q12 -2 28.5 -2t32.5 -2q35 -2 70 -3t66.5 4t59 19.5t46.5 40.5q10 16 18 39 q8 18 14.5 46t6.5 63zM784 287q-35 0 -53 -22.5t-18 -48.5t17.5 -48.5t53.5 -22.5q37 0 54.5 22.5t17.5 48.5t-18.5 48.5t-53.5 22.5z" />
<glyph unicode="&#xe59;" horiz-adv-x="1073" d="M1040 653q-4 -39 -17 -90t-34 -78q-23 -31 -43 -43t-43 -16q-29 -4 -49 9.5t-39 29.5q-43 35 -63 31q-23 -4 -32 -24.5t1 -70.5q14 -78 52 -150.5t91 -119.5q10 -8 21 -18q10 -10 22.5 -20.5t28.5 -22.5l-70 -84q-31 16 -63.5 46.5t-59.5 63.5q-31 37 -61 82 q-27 41 -44 91t-48 98q-61 96 -150 114q-35 8 -73.5 3t-71.5 -27q-53 -35 -69.5 -82t-13.5 -92t17.5 -79t22.5 -44q4 -4 8 -10q4 -8 19 -17q-12 35 -7.5 71t23 64.5t50.5 48t75 21.5q70 4 119 -43q31 -29 43 -73t4 -91q-10 -63 -63.5 -101t-119.5 -38q-61 0 -117.5 20.5 t-99.5 61.5t-68.5 102.5t-23.5 145.5q0 66 26.5 123t84.5 102q37 29 81 44t89 18t89 -5t79 -26q20 -10 38.5 -28t24.5 -24q10 33 37 57.5t74 32.5q31 4 59.5 -4t50 -20t36 -23.5t16.5 -13.5q4 4 11 15.5t13 36t9 64.5t-1 97q-2 27 -10 51q-8 23 -22.5 43.5t-40.5 30.5 l123 43q10 -4 16 -11l12 -14q8 -8 12 -14q20 -29 27.5 -70t11.5 -79q4 -46 0 -95zM422 238q-35 0 -52.5 -21.5t-17.5 -48.5q0 -25 17.5 -46.5t52.5 -21.5q31 0 49 19.5t18 48.5q0 31 -19 50.5t-48 19.5z" />
<glyph unicode="&#xe5a;" horiz-adv-x="1036" d="M793 784h131v-782h-131v782zM598 782h131v-532q0 -55 -11 -94t-28.5 -67t-41 -45t-48.5 -34l-16 -10l-97 94l33 15l12 8q13 8 27 24.5t26.5 43t12.5 63.5v246q-29 -57 -94.5 -89t-130.5 -32q-63 0 -126 28.5t-97 87.5q-14 25 -25.5 60t-11.5 69q0 23 7 53.5t25.5 58.5 t49 46.5t79.5 18.5q98 0 142 -78q18 -33 18 -76q0 -70 -59 -113q-16 -12 -30.5 -17t-37.5 -9q14 -4 31.5 -4h28.5q74 2 135 65.5t92 200.5zM213 643q0 -29 18.5 -46t47.5 -17q31 0 48 18t17 45q0 29 -18.5 46.5t-46.5 17.5q-29 0 -47.5 -18.5t-18.5 -45.5z" />
<glyph unicode="&#xe5b;" horiz-adv-x="1622" d="M1509 276l-311 -14l-35 80q-6 -41 -18 -86t-17 -82h-88l-16 117q-8 -43 -18.5 -84t-18.5 -80h-80l-41 203q-12 -57 -29.5 -120t-27.5 -116h-88l-31 250q-16 -51 -39.5 -97t-58.5 -80t-81 -53.5t-105 -19.5q-51 0 -103.5 14.5t-94.5 46t-68.5 85t-26.5 129.5q0 39 14 84 t45 83.5t77 64.5t107 26q59 0 99.5 -18.5t63 -47.5t31.5 -63.5t9 -67.5q0 -18 -9 -46t-27.5 -52.5t-47.5 -43t-69 -18.5q-45 0 -80 28t-35 71q0 33 17.5 66.5t64.5 33.5q39 0 57.5 -16.5t22.5 -44.5q6 12 6 26q0 29 -22.5 60.5t-76.5 31.5q-39 0 -63.5 -16t-38.5 -41 t-19.5 -52.5t-5.5 -47.5q0 -43 14.5 -73t39 -48.5t55.5 -26.5t64 -8q43 0 74.5 17.5t55 47t39 66.5t25.5 76q23 92 23 207h122l43 -250q8 53 19.5 111.5t19.5 107.5h80l39 -211q8 45 20.5 92t20.5 88h62l38 -180q4 37 13.5 76t13.5 69h62l47 -165q63 -4 144 -9.5t142 -9.5 v-70z" />
<glyph unicode="&#x2000;" horiz-adv-x="887" />
<glyph unicode="&#x2001;" horiz-adv-x="1774" />
<glyph unicode="&#x2002;" horiz-adv-x="887" />
<glyph unicode="&#x2003;" horiz-adv-x="1774" />
<glyph unicode="&#x2004;" horiz-adv-x="591" />
<glyph unicode="&#x2005;" horiz-adv-x="443" />
<glyph unicode="&#x2006;" horiz-adv-x="295" />
<glyph unicode="&#x2007;" horiz-adv-x="295" />
<glyph unicode="&#x2008;" horiz-adv-x="221" />
<glyph unicode="&#x2009;" horiz-adv-x="354" />
<glyph unicode="&#x200a;" horiz-adv-x="98" />
<glyph unicode="&#x200c;" horiz-adv-x="307" />
<glyph unicode="&#x200d;" horiz-adv-x="432" />
<glyph unicode="&#x200e;" horiz-adv-x="686" />
<glyph unicode="&#x200f;" horiz-adv-x="712" />
<glyph unicode="&#x2010;" horiz-adv-x="466" d="M55 410h357v-105h-357v105z" />
<glyph unicode="&#x2011;" horiz-adv-x="466" d="M55 410h357v-105h-357v105z" />
<glyph unicode="&#x2012;" horiz-adv-x="466" d="M55 410h357v-105h-357v105z" />
<glyph unicode="&#x2013;" horiz-adv-x="677" d="M0 305v86h678v-86h-678z" />
<glyph unicode="&#x2014;" horiz-adv-x="1325" d="M0 305v86h1325v-86h-1325z" />
<glyph unicode="&#x2018;" horiz-adv-x="534" d="M350 616h-166v164q0 74 48.5 120t117.5 56v-75q-35 -6 -56.5 -36t-19.5 -65h76v-164z" />
<glyph unicode="&#x2019;" horiz-adv-x="534" d="M184 956h166v-163q0 -74 -48 -120t-118 -57v76q35 6 56.5 36t19.5 65h-76v163z" />
<glyph unicode="&#x201a;" horiz-adv-x="534" d="M184 164h166v-164q0 -74 -48 -120t-118 -56v76q35 6 56.5 35.5t19.5 64.5h-76v164z" />
<glyph unicode="&#x201c;" horiz-adv-x="768" d="M584 616h-166v164q0 74 48 120t118 56v-75q-35 -6 -56.5 -36t-19.5 -65h76v-164zM330 616h-166v164q0 74 48 120t118 56v-75q-35 -6 -56.5 -36t-19.5 -65h76v-164z" />
<glyph unicode="&#x201d;" horiz-adv-x="768" d="M184 956h166v-163q0 -74 -48 -120t-118 -57v76q35 6 56.5 36t19.5 65h-76v163zM438 956h166v-163q0 -74 -48 -120t-118 -57v76q35 6 56.5 36t19.5 65h-76v163z" />
<glyph unicode="&#x201e;" horiz-adv-x="768" d="M184 164h166v-164q0 -74 -48 -120t-118 -56v76q35 6 56.5 35.5t19.5 64.5h-76v164zM438 164h166v-164q0 -74 -48 -120t-118 -56v76q35 6 56.5 35.5t19.5 64.5h-76v164z" />
<glyph unicode="&#x2020;" horiz-adv-x="727" d="M31 532v125h266v301h104h27v-301h268v-125h-268v-786h-131v786h-266z" />
<glyph unicode="&#x2021;" horiz-adv-x="724" d="M694 35h-266v-289h-129v289h-268v125h268v383h-268v125h268v290h100h29v-290h266v-125h-266v-383h266v-125z" />
<glyph unicode="&#x2022;" horiz-adv-x="624" d="M61 465q0 53 19.5 101t53.5 83t80 55.5t97 20.5q53 0 98.5 -20.5t80 -55.5t54 -83t19.5 -101t-19.5 -100.5t-54 -82t-79.5 -55t-99 -20.5q-51 0 -97 20.5t-80 55t-53.5 82t-19.5 100.5z" />
<glyph unicode="&#x2026;" horiz-adv-x="1327" d="M586 0v170h147v-170h-147zM164 0v170h147v-170h-147zM1155 0h-145v170h145v-170z" />
<glyph unicode="&#x202f;" horiz-adv-x="354" />
<glyph unicode="&#x2030;" horiz-adv-x="1708" d="M233 -51l596 1026h101l-594 -1026h-103zM1128 221q0 -100 -51 -170.5t-172 -70.5t-172 70.5t-51 170.5t51 171t172 71t172 -71t51 -171zM799 221q0 -27 4 -53.5t16 -48t32.5 -34.5t53.5 -13t53.5 13t33 34.5t16.5 48.5t4 53q0 27 -4 53.5t-16.5 48t-33 36t-53.5 14.5 t-53.5 -14.5t-32.5 -36t-16 -48t-4 -53.5zM508 700q0 -100 -51 -170.5t-172 -70.5t-172.5 70.5t-51.5 170.5t51.5 171t172.5 71t172 -71t51 -171zM178 700q0 -27 4 -53t16.5 -47.5t33 -35t53.5 -13.5t53 13.5t32.5 35t16.5 48t4 52.5q0 27 -4 53.5t-16.5 48t-33 36 t-52.5 14.5q-33 0 -53.5 -14.5t-33 -36t-16.5 -48t-4 -53.5zM1647 221q0 -100 -51.5 -170.5t-172.5 -70.5t-172 70.5t-51 170.5t51.5 171t171.5 71q121 0 172.5 -71t51.5 -171zM1317 221q0 -27 4 -53.5t16.5 -48t33 -34.5t52.5 -13q33 0 53.5 13t33 34.5t16.5 48.5t4 53 q0 27 -4 53.5t-16.5 48t-33 36t-53.5 14.5t-53 -14.5t-32.5 -36t-16.5 -48t-4 -53.5z" />
<glyph unicode="&#x2032;" horiz-adv-x="452" d="M164 956h166v-163q0 -74 -48.5 -120t-117.5 -57v76q35 6 56.5 36t19.5 65h-76v163z" />
<glyph unicode="&#x2033;" horiz-adv-x="706" d="M164 956h166v-163q0 -74 -48.5 -120t-117.5 -57v76q35 6 56.5 36t19.5 65h-76v163zM418 956h166v-163q0 -74 -48.5 -120t-117.5 -57v76q35 6 56.5 36t19.5 65h-76v163z" />
<glyph unicode="&#x2039;" horiz-adv-x="581" d="M219 377l260 -191v-133l-387 275v100l387 281v-136z" />
<glyph unicode="&#x203a;" horiz-adv-x="581" d="M362 385l-260 190v134l387 -275v-100l-387 -281v135z" />
<glyph unicode="&#x2044;" horiz-adv-x="653" d="M96 0h-100l563 1067h100z" />
<glyph unicode="&#x205f;" horiz-adv-x="443" />
<glyph unicode="&#x20ac;" horiz-adv-x="868" d="M807 23q-39 -18 -67.5 -29.5t-55.5 -19t-56.5 -9.5t-70.5 -2q-158 0 -272.5 88t-153.5 258h-94l41 117h39q0 6 -1 15.5t-1 21.5q0 4 -1 11t1 24h-78l41 112h53q16 72 55 136.5t93 111.5q123 100 280 100q86 0 143.5 -16t104.5 -41v-139h-41q-47 35 -91 55.5t-110 22.5 q-96 -2 -178 -54.5t-117 -175.5h293l-37 -112h-280v-33v-20.5t2 -18.5h250l-41 -117h-185q41 -117 113 -164q43 -29 91 -44t89 -17q43 2 73 5t46 13q18 10 38.5 23.5t43.5 34.5h41v-137z" />
<glyph unicode="&#x2113;" horiz-adv-x="446" d="M250 201q0 -47 13 -68.5t50 -21.5q14 0 37 5t60 17v-125q-43 -8 -71 -12t-46 -4q-176 0 -176 174v250q-16 -12 -31.5 -22.5t-28.5 -20.5q-14 -10 -26 -19v135q18 16 39.5 34t44.5 38v123q0 53 3 107.5t18.5 97.5t49 70.5t95.5 27.5q61 0 99 -43t38 -113q0 -25 -6 -54 t-23 -60q-23 -45 -59.5 -91t-79.5 -87v-338v0zM283 868q-23 0 -28 -44t-5 -93v-29q14 16 23.5 32t15.5 28q14 33 14 59q0 18 -5 32.5t-15 14.5z" />
<glyph unicode="&#x2122;" horiz-adv-x="1173" d="M549 496v460h129q29 -78 48 -130t32 -85q14 -37 22 -59q8 23 23 59q12 33 30.5 85.5t47.5 129.5h108h21v-460h-92v286q-12 -33 -29 -75q-14 -37 -33.5 -89.5t-46.5 -121.5h-61q-25 70 -44.5 122t-33.5 89q-16 43 -29 75v-286h-92zM164 877v79h332h20v-79h-131v-381h-90 v381h-131z" />
<glyph unicode="&#x2126;" horiz-adv-x="854" d="M844 117v-117h-375v242q35 0 79 13t83 44t64.5 83t25.5 130q0 31 -11.5 80t-43 94t-89 78t-149.5 33t-150.5 -33t-90 -78t-43 -94t-11.5 -80q0 -78 26.5 -130t64.5 -83t82 -44t79 -13v-242h-375v117h258v35q-27 6 -67.5 25.5t-79.5 60.5t-67.5 107.5t-28.5 166.5 q0 111 40.5 185.5t102 119.5t132.5 63.5t128 18.5q59 0 130 -18.5t131.5 -63.5t100 -119.5t39.5 -185.5q0 -104 -29.5 -173t-69.5 -109t-80 -57t-62 -21v-35h256z" />
<glyph unicode="&#x212e;" horiz-adv-x="884" d="M827 455v-90h-598q0 -74 23.5 -122t57.5 -76t72 -39t67 -11q53 0 88.5 12t58 32.5t35 47.5t18.5 57h168q-25 -137 -113 -209.5t-247 -72.5q-178 0 -287 106.5t-109 310.5q0 80 22.5 157t72 137.5t124 97t179.5 36.5q86 -2 154.5 -30.5t115.5 -78.5t72.5 -117.5 t25.5 -147.5zM242 494h417q-2 59 -24 104q-18 39 -59 70.5t-119 31.5q-84 0 -144.5 -55t-70.5 -151z" />
<glyph unicode="&#x2202;" horiz-adv-x="722" d="M590 838q23 -41 36 -87t19 -87t7 -73t1 -44q0 -23 -3 -65t-11 -91t-21.5 -101t-31.5 -95q-29 -59 -56.5 -102.5t-87.5 -78.5q-39 -23 -78.5 -30t-75.5 -2.5t-67 16.5t-55 29q-109 78 -117 209q-6 78 18.5 142t55.5 105q88 106 203 105q53 -4 89 -19.5t79 -48.5 q4 23 6 48.5t2 54.5v4q0 25 -4 52.5t-10.5 55t-12.5 50t-12 34.5q-10 29 -41 62.5t-78 38.5q-25 2 -41 2t-29.5 -2t-25.5 -7.5t-29 -13.5l-53 -25l-84 107l29 16q49 23 116.5 35t132.5 -4q76 -18 131.5 -65t98.5 -125zM424 188q35 88 53 228l-4 4q-16 23 -39.5 43t-64.5 18 q-57 0 -101 -59q-31 -41 -44 -88t-13 -107q0 -10 1 -29.5t5 -40t13.5 -40t25.5 -31.5q20 -14 38.5 -14t41.5 10q53 22 88 106z" />
<glyph unicode="&#x2206;" horiz-adv-x="886" d="M866 0h-846l332 946h180zM186 115h512q-66 184 -127 359t-125 357h-4z" />
<glyph unicode="&#x220f;" horiz-adv-x="911" d="M92 -133v1100h727v-1104h-133v977h-463v-973h-131z" />
<glyph unicode="&#x2211;" horiz-adv-x="823" d="M61 -113v129l361 400q-88 92 -178 187t-176 190v127h669v-134h-463q78 -84 159 -167.5t159 -167.5v-60l-338 -373h508v-131h-701z" />
<glyph unicode="&#x2212;" horiz-adv-x="1105" d="M160 371v86h786v-86h-786z" />
<glyph unicode="&#x221a;" horiz-adv-x="907" d="M43 240h219l109 -269q92 264 181 526.5t181 524.5h141l-440 -1247h-129l-153 362h-109v103z" />
<glyph unicode="&#x221e;" horiz-adv-x="1046" d="M80 291q0 59 19.5 99t50 66.5t66.5 38t69 11.5q61 0 120.5 -28.5t120.5 -104.5q78 74 133.5 107.5t124.5 33.5q35 0 71 -13.5t64.5 -41t47 -69.5t18.5 -99q0 -94 -56.5 -148.5t-160.5 -54.5q-70 0 -126 38t-99 75q-4 4 -8.5 8t-8.5 6q-4 -4 -8 -9t-8 -9l-10 -11 q-16 -16 -36 -33.5t-43.5 -32t-55 -23.5t-72.5 -9q-45 0 -84 19.5t-67.5 48t-45 65.5t-16.5 70zM299 197q41 0 75 27.5t75 68.5q-8 10 -22.5 26.5t-34 33t-43 28.5t-50.5 12q-31 0 -51.5 -10t-31.5 -25.5t-15 -33t-4 -29.5q0 -41 33.5 -69.5t68.5 -28.5zM774 393 q-23 0 -51.5 -15.5t-54.5 -35.5q-31 -23 -64 -51q27 -25 46.5 -40t35.5 -25.5t33.5 -16.5t38.5 -12h-4q20 -4 38.5 0t34.5 20q33 31 33 74q0 35 -25.5 68.5t-60.5 33.5z" />
<glyph unicode="&#x222b;" horiz-adv-x="548" d="M291 584q4 10 5 22t5 25q12 55 28.5 115.5t45 109.5t75 81t117.5 32q31 0 57.5 -9.5t59.5 -25.5l-41 -105q-25 14 -44 22.5t-36 8.5h-12t-14 -2q-20 -6 -36 -25.5t-27 -47t-20.5 -59.5t-15.5 -64q-6 -27 -10 -49.5t-8 -39.5v2q-23 -125 -47.5 -248.5t-46.5 -246.5 q-14 -72 -34 -136.5t-51.5 -112.5t-77.5 -75.5t-114 -27.5q-41 0 -98 20l39 119q31 -20 45 -25.5t33 -5.5q31 0 54 35t44.5 97.5t40 150.5t37.5 192z" />
<glyph unicode="&#x2248;" horiz-adv-x="782" d="M100 197q0 35 6.5 71.5t23.5 66.5t46 49t74 19q25 0 44 -7t28 -11l174 -104q25 -16 49 -14.5t41 12.5q16 14 20 39.5t0 48.5h82q2 -31 -3 -66t-20.5 -63.5t-41 -49t-66.5 -22.5q-27 -2 -56.5 4t-64.5 29l-143 90q-45 35 -78 7t-29 -99h-86v0zM100 436q0 35 6.5 72 t23.5 66.5t46 49t74 19.5q25 0 44 -7t28 -11l174 -105q25 -16 49 -14t41 12q16 14 20 40t0 48h82q2 -31 -3 -65.5t-20.5 -63t-41 -49t-66.5 -22.5q-27 -2 -56.5 4t-64.5 28l-143 90q-45 35 -78 7.5t-29 -99.5h-86v0z" />
<glyph unicode="&#x2260;" horiz-adv-x="800" d="M520 489h209v-104h-264l-64 -121h328v-104h-383l-49 -94h-100l49 94h-174v104h229l64 121h-293v104h348l55 103h100z" />
<glyph unicode="&#x2264;" horiz-adv-x="786" d="M59 0v86h664v-86h-664zM207 457l514 -209v-119l-662 279v100l662 276v-116z" />
<glyph unicode="&#x2265;" horiz-adv-x="786" d="M63 0v86h664v-86h-664zM66 668v116l661 -276v-100l-661 -279v119l514 209z" />
<glyph unicode="&#x25ca;" horiz-adv-x="929" d="M870 401l-407 -462l-408 462l408 465zM715 401q-66 76 -126.5 141.5t-125.5 141.5q-66 -72 -126.5 -139.5t-125.5 -143.5q66 -74 126 -139t126 -141z" />
<glyph unicode="&#x25cc;" horiz-adv-x="1024" d="M721 104q0 -57 -59 -57q-63 0 -64 57q0 63 64 64q59 -1 59 -64zM428 109q0 -61 -63 -62q-63 0 -64 57q0 63 64 64q63 0 63 -59zM303 733q0 -57 -63 -57t-64 57q0 66 64 66q63 0 63 -66zM846 733q0 -57 -62 -57q-66 0 -65 57q0 66 65 66q62 0 62 -66zM721 817 q0 -59 -59 -59q-66 0 -66 59q0 63 66 64q59 -1 59 -64zM846 188q0 -61 -62 -61q-63 0 -63 61q0 63 63 64q62 -1 62 -64zM428 817q0 -59 -63 -59t-64 59q0 63 64 64q63 -1 63 -64zM963 463q0 -61 -62 -62q-66 0 -65 62q0 61 65 61q62 0 62 -61zM219 315q0 -61 -63 -61t-64 61 q0 63 64 64q63 -1 63 -64zM303 188q0 -61 -63 -61t-64 61q0 63 64 64q63 -1 63 -64zM219 610q0 -63 -61 -63q-66 0 -66 63q0 61 64 62q63 -1 63 -62zM190 463q0 -61 -63 -62q-66 0 -66 62q0 61 66 61q63 0 63 -61zM575 850q0 -63 -65 -64q-61 0 -61 64q0 61 61 61 q65 0 65 -61zM575 80q0 -63 -65 -64q-61 0 -61 64q0 61 61 61q65 0 65 -61zM932 610q0 -63 -66 -63q-63 0 -63 63q0 61 65 62q64 -1 64 -62zM932 315q0 -61 -66 -61q-63 0 -63 61q0 63 63 64q66 -1 66 -64z" />
<glyph unicode="&#x25fc;" horiz-adv-x="665" d="M0 666h666v-666h-666v666z" />
<glyph unicode="&#xf700;" horiz-adv-x="806" d="M653 793l92 -66l-30 -43q-23 -31 -44.5 -46t-49.5 -15h-7q-25 2 -46 10t-52 18q-35 10 -83 22.5t-83 12.5q-47 0 -76.5 -12t-40.5 -31q27 -2 71 -8t87 -12.5t78 -12.5t43 -8q86 -29 110.5 -64.5t24.5 -91.5q0 -12 -1 -25t-3 -28l-35 -393h-137l-4 18q-8 29 -21 64 q-10 29 -26.5 64.5t-40.5 76.5q-43 -39 -109 -39q-37 0 -64.5 14.5t-47 36t-29.5 48t-10 53.5v4q0 27 9 54.5t29.5 49t50.5 35t71 13.5q53 0 88.5 -30t58.5 -77q29 -63 45 -103t27 -63q10 -27 14 -39q6 129 7 183.5t1 68.5v14q0 27 -28.5 43.5t-104.5 32.5 q-72 14 -140.5 17.5t-111.5 3.5h-47l-27 2v20q4 37 27 78t58.5 75t84 55.5t105.5 21.5h4q47 0 89 -10.5t77 -20.5q29 -8 48 -12t36 -4q34 0 63 45zM276 272q35 0 49.5 20.5t14.5 45.5q0 23 -14.5 44t-49.5 21q-33 0 -48 -21.5t-15 -43.5q0 -25 15 -45.5t48 -20.5z" />
<glyph unicode="&#xf701;" d="M-317 928l4 -37l-37 12l-28 7q-28 8 -68.5 18t-93 20t-101.5 17q-61 6 -122.5 7t-111 1t-79.5 -2l-31 -2h-31l4 30q14 63 51 114.5t86.5 86.5t109.5 51.5t124 8.5q102 -12 164.5 -56.5t96.5 -96.5t46.5 -102t16.5 -77zM-647 1061q80 -10 129 -22.5t72 -22.5 q-10 20 -25.5 43.5t-42.5 45t-65.5 37t-94.5 17.5q-68 4 -121 -26.5t-71 -71.5q18 2 48 3t62.5 1t62.5 -1t46 -3z" />
<glyph unicode="&#xf702;" d="M-309 928l4 -43q-35 10 -65.5 20t-66.5 20.5t-82 20.5t-114 19q-78 10 -141.5 12t-108.5 0t-69 -5l-25 -3h-31l4 30q14 63 51.5 114.5t86.5 86.5t109.5 51.5t123.5 8.5q59 -6 111.5 -29t79.5 -51v116h123v-307q4 -20 6 -35.5t4 -25.5zM-641 1057q86 -12 137 -24.5 t74 -22.5q-10 20 -27.5 44.5t-45 47t-67.5 39t-96 18.5q-68 4 -121 -26.5t-71 -71.5q18 2 45 3t56.5 1t60 -2t55.5 -6z" />
<glyph unicode="&#xf703;" d="M-248 1192q-2 -31 -12 -55q-10 -23 -30.5 -42.5t-59.5 -27.5q23 -45 30 -84t11 -61l4 -37l-37 12l-28 8q-27 8 -68 18.5t-93.5 20.5t-101.5 14q-68 6 -129 7.5t-109.5 1.5t-76.5 -2l-29 -2h-31l4 30q14 63 51.5 114.5t86.5 86.5t109.5 51.5t123.5 7.5q76 -8 131 -36 q8 41 28.5 61t43.5 31q27 10 57 10q37 -2 61.5 -17.5t39 -36t19.5 -41t5 -32.5zM-639 1055q80 -10 129 -22.5t72 -22.5q-10 20 -25.5 43.5t-42 45t-65.5 37t-95 17.5q-68 4 -121 -26.5t-71 -71.5q18 2 48 3t62.5 1t62.5 -1t46 -3zM-377 1133q23 0 39 16t16 39t-16 40t-39 17 t-39 -17.5t-16 -39.5q0 -23 16 -39t39 -16z" />
<glyph unicode="&#xf704;" d="M-307 922l4 -37l-37 10l-26 8q-27 8 -69 18.5t-93.5 20.5t-102.5 16q-61 6 -122.5 8.5t-110.5 0.5q-57 -2 -109 -4l-33 -2l5 30q16 63 52 115.5t86 87.5t110.5 51.5t123.5 7.5q10 -2 19.5 -3t17.5 -3v80h107v-119q31 -16 49 -32v151h106v-303q12 -33 16.5 -59.5 t6.5 -42.5zM-637 1055q80 -8 129 -21.5t72 -23.5q-10 20 -25.5 43.5t-41 45t-64.5 37t-97 17.5q-33 2 -63.5 -6t-55 -22.5t-44 -33t-27.5 -38.5q16 4 46 5t62.5 1t62.5 -1t46 -3z" />
<glyph unicode="&#xf705;" d="M-471 1247h129v-315h-129v315z" />
<glyph unicode="&#xf706;" d="M-328 1169l101 -39l-6 -18q-18 -57 -53.5 -94t-82.5 -57.5t-104 -28.5t-121 -10q-27 0 -56.5 3t-58.5 7l-30 76q23 4 51.5 10t50.5 37q-41 4 -73.5 35.5t-32.5 78.5q0 59 40.5 93t88.5 34q66 -2 100.5 -39.5t34.5 -91.5q0 -27 -12.5 -51t-28.5 -45q-20 -25 -39 -40 t-35 -25h16q61 0 105.5 15t73 36.5t44 46t21.5 45.5zM-612 1223q-27 0 -40.5 -15.5t-13.5 -36.5q0 -18 13.5 -34.5t38.5 -16.5q29 0 42 16.5t13 34.5q0 14 -6 25q-4 10 -15.5 18.5t-31.5 8.5z" />
<glyph unicode="&#xf707;" d="M-248 1251q4 -16 5 -43.5t-3 -59.5t-15 -65.5t-34 -64.5q-25 -37 -59.5 -55.5t-68.5 -25.5t-61.5 -7t-41.5 2q16 23 23 51.5t11 52.5q6 29 7 60q0 31 -11.5 54.5t-44.5 25.5q-10 0 -20 -5q-10 -4 -20.5 -12t-20.5 -24q-6 18 -19.5 27t-27.5 14q-16 6 -33 6q-23 0 -41 -8 q-16 -6 -28.5 -18.5t-10.5 -35.5q10 10 21.5 14.5t21.5 8.5q12 4 27 4q35 0 70.5 -27.5t35.5 -81.5q0 -47 -32.5 -79.5t-81.5 -32.5q-29 0 -56.5 10t-48.5 33q-43 49 -43 121v24q4 59 43 108.5t117 49.5q29 0 50.5 -12.5t35.5 -22.5q14 8 37.5 19.5t58.5 7.5q61 -8 89 -50.5 t28 -95.5q0 -27 -5 -48t-9 -32q4 2 12 11q4 4 6 8q14 20 20.5 55t4.5 70q0 12 -2 24q-2 10 -5.5 24.5t-7.5 24.5l123 19zM-700 1087q-25 0 -37.5 -14t-12.5 -32.5t11.5 -33t36.5 -14.5t37 14.5t13 33t-11 32.5t-37 14z" />
<glyph unicode="&#xf708;" d="M-422 1305v-127h135v-119h-135v-127h-127v127h-135v119h135v127h127z" />
<glyph unicode="&#xf709;" d="M-244 1317q-43 -49 -101 -71.5t-122 -12.5l-6 -8q14 0 35 -8l18 -9q31 -23 49.5 -54.5t18.5 -70.5q0 -18 -7.5 -42.5t-23.5 -46t-42 -38t-62 -22.5q-78 -10 -136 39q-31 29 -46 64.5t-13 72.5q4 94 56.5 142t125.5 71q23 6 42.5 11t38 12.5t33.5 20.5t30 36l12 33 l135 -37q-4 -16 -9 -29.5t-11 -26.5q-9 -14 -15 -26zM-571 1087q0 -27 18 -45t45 -18q25 0 43.5 18.5t18.5 44.5q0 25 -18.5 43.5t-43.5 18.5q-27 0 -45 -18.5t-18 -43.5z" />
<glyph unicode="&#xf70a;" d="M-240 1264h129v-316h-129v316v0z" />
<glyph unicode="&#xf70b;" d="M-313 1030q37 -6 82 -3t88 19.5t79.5 50t55.5 91.5l84 -58q-23 -66 -63 -104.5t-89 -58t-106.5 -26.5t-116.5 -7q-33 0 -68.5 3t-70.5 9l-33 82l31 4q14 4 28 12q12 6 26.5 16.5t27.5 26.5q-41 2 -79 36t-38 87q0 66 46 102t97 34q66 -4 102.5 -46.5t36.5 -93.5 q0 -31 -13 -58.5t-31.5 -50t-39 -40t-36.5 -27.5zM-332 1268q-29 2 -44 -15.5t-15 -39t13 -39t40 -17.5q29 0 44 16.5t15 37t-13 38t-40 19.5z" />
<glyph unicode="&#xf70c;" d="M-2 1274q4 -16 5 -44t-3 -59.5t-15.5 -65.5t-33.5 -65q-25 -37 -59.5 -55t-68.5 -25.5t-61.5 -7.5t-42.5 2q16 23 23.5 51.5t11.5 53.5q6 29 6 59q0 31 -11 54.5t-44 25.5q-10 0 -20 -4t-20.5 -12t-20.5 -25q-6 18 -19.5 27.5t-27.5 13.5q-16 6 -33 6q-23 0 -41 -8 q-16 -6 -28.5 -18.5t-10.5 -34.5q10 10 21.5 14t21.5 8q12 4 27 4q35 0 70.5 -27.5t35.5 -80.5q0 -47 -33 -80t-82 -33q-29 0 -56.5 10.5t-47.5 32.5q-43 49 -43 121v25q4 59 43 108t117 49q29 0 50 -12t36 -22q14 8 37.5 19t58.5 7q61 -8 89 -50t28 -95q0 -27 -5.5 -48.5 t-9.5 -31.5q4 2 13 10q4 4 6 8q14 20 20 55t4 70q0 12 -2 25q-2 10 -5 24.5t-7 24.5l123 18zM-455 1110q-25 0 -37 -14.5t-12 -33t11.5 -32.5t35.5 -14q25 0 37 14t13 32.5t-11 33t-37 14.5z" />
<glyph unicode="&#xf70d;" d="M-119 1319v-127h135v-119h-135v-127h-127v127h-135v119h135v127h127z" />
<glyph unicode="&#xf70e;" d="M6 1337q-43 -49 -101.5 -71.5t-121.5 -12.5l-6 -8q14 0 35 -8q8 -4 18 -8q31 -23 49.5 -54.5t18.5 -70.5q0 -18 -7.5 -43t-24 -46.5t-42 -37.5t-62.5 -23q-78 -10 -135 39q-31 29 -46 65t-13 72q4 94 56 142.5t126 70.5q23 6 42.5 11.5t37.5 12.5t33.5 20.5t30.5 35.5 l12 33l135 -37q-2 -16 -8 -29.5t-13 -25.5q-8 -15 -14 -27zM-324 1108q0 -27 18.5 -45.5t45.5 -18.5q25 0 43 18.5t18 45.5q0 25 -18.5 43t-42.5 18q-27 0 -45.5 -18t-18.5 -43z" />
<glyph unicode="&#xf70f;" horiz-adv-x="1189" d="M567 113h64v413q0 70 -44 112t-136 42q-43 0 -88.5 -9t-92.5 -44q23 -6 73 -27.5t79 -62.5l-43 -15q-23 -8 -52.5 -35.5t-29.5 -85.5v-112q10 4 20.5 5t16.5 1q25 0 50.5 -9.5t47 -28.5t34.5 -47t13 -65v-4q-2 -39 -17.5 -66.5t-38 -46t-48 -26.5t-49.5 -8 q-63 0 -111.5 43t-48.5 123v254q0 51 22.5 80.5t61.5 54.5q-16 10 -39 18q-20 8 -49 15.5t-70 9.5q10 20 35 55t67 68t104 56.5t148 23.5q160 0 238 -77t78 -188v-417h139q23 0 34 14t11 33v622h131v-637q0 -27 -5 -53t-21.5 -46.5t-45 -33t-75.5 -12.5h-363v113zM328 209 q-29 0 -47.5 -18.5t-18.5 -45.5q0 -29 18.5 -45t47.5 -16t46 17.5t17 43.5q0 29 -18 46.5t-45 17.5z" />
<glyph unicode="&#xf710;" d="M-2 1200q-45 -94 -118 -146.5t-143.5 -77t-123.5 -29.5t-59 -5q-41 0 -86.5 9.5t-82 29.5t-61 55t-26.5 86q0 59 36.5 106.5t114.5 47.5q47 0 77 -18.5t46 -42t21.5 -47t5.5 -38.5q0 -10 -2 -20q-4 -20 -19 -41q2 -2 14 -2q57 2 111 25q47 18 99.5 61t97.5 123z M-553 1065q27 0 45.5 16.5t18.5 46.5q0 29 -18.5 46.5t-45.5 17.5t-44 -18.5t-17 -45.5t17 -45t44 -18z" />
<glyph unicode="&#xf711;" d="M-469 1239q72 0 121 -48t49 -116t-49 -116t-121 -48t-121 48.5t-49 115.5q0 68 49 116t121 48zM-469 1008q29 0 49.5 19.5t20.5 47.5q0 29 -20.5 48.5t-49.5 19.5t-49.5 -19.5t-20.5 -48.5t20.5 -48t49.5 -19z" />
<glyph unicode="&#xf712;" d="M-367 1298l91 -26q-10 -27 -20.5 -48.5t-30 -35.5t-49.5 -21.5t-79 -5.5q-41 4 -72.5 8.5t-58.5 8.5q-14 2 -27.5 3t-29.5 1q-25 0 -46.5 -5.5t-37.5 -21.5q-10 -10 -17.5 -35.5t-0.5 -50.5q2 -10 6 -20t10 -21.5t16 -23.5q0 29 17.5 48t48.5 19q25 0 40 -11t27.5 -24.5 t22.5 -27t25 -17.5l-5 6q-8 12 -8 31q0 12 4 28.5t16.5 33t34 27.5t56.5 11q51 0 81.5 -29.5t30.5 -76.5q0 -49 -34.5 -85t-85.5 -34h-7q-47 2 -72.5 21.5t-47.5 36.5l-2 2q-16 10 -30.5 17t-33.5 7q-10 0 -17 -8t-11.5 -17.5t-6.5 -18.5l-2 -9l-4 -19l-53 -4 q-16 8 -29.5 19.5t-23.5 23.5q-12 14 -23 29q-16 27 -27.5 55.5t-11.5 61.5q0 82 62.5 123t148.5 39l35 -2q31 -2 71 -9.5t74 -7.5q23 0 41.5 5t30.5 16q2 2 6 8q8 12 8 26zM-434 1067q-25 0 -37 -15.5t-12 -33.5t12 -32.5t35 -14.5q25 0 37 15t12 34q0 16 -11 31.5 t-36 15.5z" />
<glyph unicode="&#xf713;" d="M-442 1675h123v-311h-123v311z" />
<glyph unicode="&#xf714;" d="M-88 1612l100 -39q-29 -100 -96 -146q-61 -43 -136 -52t-134 -11q-27 0 -56.5 3t-58.5 7l-31 76l29 4q12 2 27 8q12 4 25 12.5t24 22.5q-41 4 -75 36t-34 79q0 59 42 93t91 34q61 -4 96 -41t35 -90q0 -29 -12 -54.5t-30.5 -45t-38 -36t-33.5 -26.5h16q61 0 105.5 15.5 t73 37t44 46t21.5 44.5zM-424 1612q0 -25 15.5 -38t37.5 -13q23 0 37.5 13t14.5 38t-14.5 39t-37.5 14t-38 -14t-15 -39z" />
<glyph unicode="&#xf715;" d="M2 1626q0 -39 -11 -87t-40 -89q-20 -29 -46 -46.5t-52.5 -26.5t-52 -12t-46.5 -3q-10 0 -20 1t-17 1q16 23 23.5 51.5t11.5 52.5q6 29 6 60t-11 54.5t-44 25.5q-10 0 -20 -4t-20.5 -11.5t-20.5 -23.5q-6 18 -19.5 27.5t-28.5 13.5q-16 6 -32 6q-23 2 -41 -6 q-16 -6 -27.5 -19.5t-11.5 -38.5q10 10 21.5 14.5t21.5 8.5q12 4 26 4q35 0 71 -27.5t36 -81.5q0 -47 -33 -79.5t-82 -32.5q-29 0 -56.5 10t-47.5 33q-43 49 -43 121v24q4 59 43 108.5t117 49.5q27 0 47 -11.5t39 -23.5q16 10 34.5 17.5t44.5 9.5q68 0 101 -44t33 -102 q0 -25 -5.5 -47t-9.5 -33q4 2 13 11q4 4 6 8q25 37 24 125q0 14 -2 26q-2 10 -5 23.5t-7 24.5l123 18q2 -10 4 -23q2 -10 4 -25.5t2 -31.5zM-457 1520q-25 0 -37 -14.5t-12 -32.5q0 -16 12.5 -32t34.5 -16q25 0 38 13.5t13 36.5q0 16 -12 30.5t-37 14.5z" />
<glyph unicode="&#xf716;" d="M-442 1767h125v-129h135v-116h-135v-127h-125v127h-136v116h136v129z" />
<glyph unicode="&#xf717;" d="M-104 1632q-41 -47 -96.5 -67.5t-114.5 -10.5l-7 -8q18 -4 37 -10q35 -16 56.5 -49t21.5 -76q0 -18 -7 -40.5t-22.5 -43t-40 -37t-59.5 -20.5q-76 -10 -129 37q-29 25 -43 59.5t-12 69.5q4 90 53 135t121 67q20 6 41.5 12.5t42 16.5t37 27.5t26.5 50.5l127 -33 q-2 -16 -7 -30.5t-11 -24.5q-8 -13 -14 -25zM-416 1415q0 -25 17.5 -43t42.5 -18t42 17.5t17 41.5q0 27 -17.5 44.5t-41.5 17.5q-25 0 -42.5 -18.5t-17.5 -41.5z" />
<glyph unicode="&#xf718;" d="M-238 -426q57 0 84 -37t27 -78v-200h-94v82q-2 -2 -4 -3h-11q-59 0 -89.5 37t-30.5 82q0 43 29.5 80t88.5 37zM-188 -543q0 23 -14.5 36t-37.5 13q-25 0 -37 -15t-12 -34q0 -16 12.5 -32.5t36.5 -16.5q29 0 40.5 16.5t11.5 32.5z" />
<glyph unicode="&#xf719;" d="M-223 -444h100v-199q0 -18 -3 -38.5t-15.5 -38t-35 -30t-61.5 -12.5h-149v94q-2 -2 -4 -2h-10q-59 0 -90 37t-31 80t29.5 80t86.5 37q59 0 86 -36t27 -79v-133h47q10 0 16.5 10t6.5 23v207zM-354 -553q0 49 -52 49q-25 0 -37 -15.5t-12 -33.5q0 -16 12.5 -31.5 t36.5 -17.5q14 0 33 10t19 39z" />
<glyph unicode="&#xf71a;" d="M-182 -578q-37 0 -56.5 23t-19.5 50.5t17.5 51t54.5 23.5t56 -22.5t19 -50t-17 -51.5t-54 -24z" />
<glyph unicode="&#xf71b;" horiz-adv-x="972" d="M860 -274l-158 -123q-12 18 -37.5 39.5t-54 40t-57.5 35t-45 26.5q-18 -49 -65.5 -94t-129.5 -45q-39 0 -69.5 14t-52 38t-33 52.5t-11.5 59.5q0 82 55.5 123.5t135.5 41.5q18 0 43 -9t35 -13q2 16 3 40.5t1 47.5h127q2 -35 -2 -70.5t-8 -64.5q43 -23 86 -48.5t69 -47.5 l37 34v740q0 55 -29.5 79.5t-54.5 36.5t-58.5 17.5t-72.5 3.5t-79 -14.5t-75 -36.5q37 -14 71 -29.5t50 -30.5q6 -4 13 -10q4 -4 9 -10t7 -12q-35 -8 -51 -19q-8 -6 -15 -8q-16 -12 -36.5 -34.5t-20.5 -76.5v-260q0 -63 -46 -105t-114 -42q-92 0 -135 71q-20 37 -20 79 t20 77q41 74 135 74q8 0 29 -4v102q0 41 7 66.5t19.5 42t28 27t29.5 22.5q-2 2 -39 22.5t-121 22.5q35 78 95.5 119t119.5 59q70 23 148 23q61 0 117.5 -14.5t99.5 -44t70.5 -75t29.5 -104.5v-831zM225 78q35 0 49.5 19.5t14.5 41.5q0 23 -14.5 43.5t-49.5 20.5t-49 -20.5 t-14 -43.5t14 -42t49 -19zM311 -289q25 0 40.5 11.5t25.5 26.5t14 30.5t6 23.5q-16 14 -38.5 22.5t-51.5 4.5q-55 -10 -55 -61q0 -29 16 -43.5t43 -14.5z" />
<glyph unicode="&#xf71c;" horiz-adv-x="976" d="M860 541v-848l-137 -84q-27 23 -45.5 39t-28.5 26q-12 10 -20 19q-8 -8 -23 -21q-12 -10 -33.5 -29.5t-54.5 -48.5q-23 33 -40 53.5t-32 35.5q-18 -29 -56 -55.5t-97 -26.5q-68 0 -111 46t-43 113q0 88 84 131q74 39 152 3q6 23 8 40t4 33q2 18 2 33h131q-4 -41 -9 -75 t-9 -58q-6 -29 -13 -51q8 -8 21.5 -22.5t26.5 -29.5q8 6 20 17q10 10 27.5 24.5t44.5 36.5q29 -25 45 -39t26 -24q12 -10 19 -17q4 2 5 3.5t5 3.5v761q0 53 -24.5 78t-47.5 41t-59.5 24.5t-78.5 6.5t-84 -14.5t-75 -38.5q33 -10 62 -25q25 -12 50.5 -27.5t37.5 -37.5 q-23 -4 -39 -12.5t-27 -14.5q-12 -8 -20 -14q-23 -23 -30 -45.5t-7 -61.5v-248q0 -63 -46 -105t-114 -42q-78 0 -116.5 47t-38.5 104q0 55 39 102.5t116 47.5q8 0 29 -4v110q0 51 16.5 82t67.5 66q-20 10 -43 18q-20 8 -49 15.5t-68 9.5q31 76 92.5 117t120.5 59 q70 23 150 25q66 0 122 -15.5t99 -47.5t68.5 -79t27.5 -110zM225 80q35 0 49.5 20.5t14.5 42.5q0 23 -14.5 42.5t-49.5 19.5t-49 -19.5t-14 -42.5t14 -43t49 -20zM324 -293q25 16 30.5 43t5.5 35q-25 25 -46 29t-33 0q-45 -12 -45 -58q0 -33 29.5 -50t58.5 1z" />
<glyph unicode="&#xf71d;" horiz-adv-x="1015" d="M1049 834q-18 -59 -44 -94t-49 -54q-27 -23 -57 -29v-657h-127q-4 20 -7 36.5t-7 29.5l-8 28q-6 16 -29 58.5t-50.5 89.5t-54 91t-43.5 64q2 0 0 6q-2 4 -3 15.5t-5 27.5q-4 -16 -6 -26t-2 -14v-5q-12 -20 -40 -66t-55.5 -93t-49 -86t-25.5 -47q-4 -10 -10 -27 q-10 -29 -19 -82h-127v487q-16 -4 -28 -4q-70 0 -114 43t-44 109q0 29 8 56.5t26.5 51t49.5 38t74 14.5q41 0 71.5 -14.5t50 -38t28.5 -52t9 -59.5v-250l-16 -109l219 363l228 -385l-25 129v239q-16 -2 -30.5 0.5t-26.5 6.5q-14 4 -27 10q-25 12 -51.5 44t-26.5 85 q0 27 8.5 52.5t26.5 47t46 34.5t67 13q41 0 69.5 -15t44.5 -38q12 -12 17.5 -28.5t9.5 -30.5q4 -16 4 -35q18 25 23 47q2 10 2 23h125zM201 575q35 0 50 21.5t15 44.5q0 25 -15 45.5t-50 20.5q-33 0 -48.5 -20.5t-15.5 -45.5q0 -23 15.5 -44.5t48.5 -21.5zM756 707 q25 0 42 17t17 42t-17.5 42t-41.5 17q-29 0 -44.5 -17t-15.5 -42t17.5 -42t42.5 -17z" />
<glyph horiz-adv-x="692" d="M-487 1251q72 0 121 -48t49 -116t-49.5 -115.5t-120.5 -47.5q-72 0 -121 48t-49 115q0 68 49 116t121 48zM-487 1022q29 0 49 19.5t20 48.5t-20.5 48t-48.5 19q-29 0 -49.5 -19.5t-20.5 -47.5q0 -29 20.5 -48.5t49.5 -19.5zM4 563q4 16 7 30.5t7 24.5q6 12 11 25 q74 152 252 152q123 0 195.5 -70t72.5 -186v-539h-131v543q0 66 -35 100.5t-100 34.5q-68 0 -103 -38t-53 -110l-4 -16z" />
<glyph d="M-291 1253q-35 2 -45 2h-20q-23 0 -44.5 -7t-21.5 -21q0 -31 27.5 -42t40.5 -11v-93h-80q-20 0 -44 -7t-24 -23q0 -29 21.5 -37t42.5 -8q8 0 17 1t32 1v-68q-23 -10 -39 -12t-29 -2q-53 0 -96 30.5t-43 102.5q4 43 35 66.5t76 29.5q-10 10 -18.5 24.5t-8.5 30.5 q0 14 4 36t21 40q31 35 69.5 41t85.5 6h41v-80z" />
</font>
</defs>
</svg>
